<svg width="470" height="470" viewBox="0 0 470 470" fill="none" xmlns="http://www.w3.org/2000/svg">
<path style="mix-blend-mode:screen" opacity="0.1" d="M234.753 469.668C364.404 469.668 469.528 364.53 469.555 234.834C469.582 105.139 364.501 0 234.851 0C105.2 0 0.0758646 105.139 0.0489832 234.834C0.0221018 364.53 105.103 469.668 234.753 469.668Z" fill="url(#paint0_radial_72_1185)"/>
<path style="mix-blend-mode:screen" d="M207.421 455.543C147.297 447.668 92.6747 416.472 55.3289 368.681C17.9832 320.89 0.905265 260.332 7.77679 200.061C7.77679 201.367 7.30667 202.622 7.14996 203.98C-0.808999 264.809 15.7123 326.309 53.0793 374.951C90.4464 423.594 145.598 455.394 206.402 463.356C267.206 471.318 328.681 454.79 377.304 417.408C425.927 380.026 457.714 324.852 465.673 264.023C465.673 262.717 465.673 261.41 466.091 260.104C457.205 320.106 425.113 374.215 376.729 410.772C328.345 447.328 267.542 463.407 207.421 455.543Z" fill="url(#paint1_linear_72_1185)"/>
<path style="mix-blend-mode:screen" d="M263.52 15.3864C324.525 23.3804 379.951 55.0252 417.859 103.505C455.767 151.985 473.125 213.42 466.194 274.579C466.194 273.22 466.664 271.914 466.821 270.555C473.96 209.265 456.699 147.626 418.77 98.9656C380.842 50.3056 325.293 18.5345 264.135 10.5219C202.977 2.50931 141.123 18.8989 91.9484 56.1472C42.7736 93.3954 10.2287 148.509 1.3505 209.572C1.3505 210.931 1.3505 212.289 0.932617 213.648C9.98532 152.762 42.5773 97.8677 91.6905 60.7858C140.804 23.7039 202.509 7.4006 263.52 15.3864Z" fill="url(#paint2_linear_72_1185)"/>
<path style="mix-blend-mode:screen" d="M98.0421 89.433C141.084 13.5042 251.353 -5.25587 344.385 47.6278C437.416 100.511 477.899 204.711 434.909 280.64C391.919 356.569 281.807 375.172 188.566 322.393C95.3258 269.614 55 165.31 98.0421 89.433Z" fill="url(#paint3_linear_72_1185)"/>
<defs>
<radialGradient id="paint0_radial_72_1185" cx="0" cy="0" r="1" gradientUnits="userSpaceOnUse" gradientTransform="translate(234.894 234.857) rotate(22.9289) scale(235.061 235.153)">
<stop offset="0.13"/>
<stop offset="0.38" stop-color="transparent"/>
<stop offset="0.53" stop-color="transparent"/>
<stop offset="0.65" stop-color="#8D8D8D"/>
<stop offset="0.75" stop-color="#9D9D9D"/>
<stop offset="0.85" stop-color="#ECECEC"/>
<stop offset="0.94" stop-color="#EEEEEE"/>
<stop offset="1" stop-color="white"/>
</radialGradient>
<linearGradient id="paint1_linear_72_1185" x1="-7.52627" y1="316.747" x2="451.058" y2="376.77" gradientUnits="userSpaceOnUse">
<stop/>
<stop offset="0.07" stop-color="transparent"/>
<stop offset="0.16" stop-color="#5A5A5A"/>
<stop offset="0.26" stop-color="#868686"/>
<stop offset="0.36" stop-color="#ACACAC"/>
<stop offset="0.47" stop-color="#CACACA"/>
<stop offset="0.58" stop-color="#E1E1E1"/>
<stop offset="0.7" stop-color="#F2F2F2"/>
<stop offset="0.83" stop-color="#FCFCFC"/>
<stop offset="1" stop-color="white"/>
</linearGradient>
<linearGradient id="paint2_linear_72_1185" x1="241.813" y1="181.92" x2="273.937" y2="-63.3136" gradientUnits="userSpaceOnUse">
<stop/>
<stop offset="0.07" stop-color="transparent"/>
<stop offset="0.16" stop-color="#5A5A5A"/>
<stop offset="0.26" stop-color="#868686"/>
<stop offset="0.36" stop-color="#ACACAC"/>
<stop offset="0.47" stop-color="#CACACA"/>
<stop offset="0.58" stop-color="#E1E1E1"/>
<stop offset="0.7" stop-color="#F2F2F2"/>
<stop offset="0.83" stop-color="#FCFCFC"/>
<stop offset="1" stop-color="white"/>
</linearGradient>
<linearGradient id="paint3_linear_72_1185" x1="140.17" y1="372.205" x2="460.163" y2="-42.5647" gradientUnits="userSpaceOnUse">
<stop/>
<stop offset="0.37" stop-color="transparent"/>
<stop offset="0.51" stop-color="transparent"/>
<stop offset="0.6" stop-color="transparent"/>
<stop offset="0.68" stop-color="transparent"/>
<stop offset="0.75" stop-color="transparent"/>
<stop offset="0.8" stop-color="transparent"/>
<stop offset="0.86" stop-color="transparent"/>
<stop offset="0.91" stop-color="transparent"/>
<stop offset="0.95" stop-color="transparent"/>
<stop offset="0.99" stop-color="#F6F6F6"/>
<stop offset="1" stop-color="white"/>
</linearGradient>
</defs>
</svg>
