<svg width="245" height="382" viewBox="0 0 245 382" fill="none" xmlns="http://www.w3.org/2000/svg">
<path style="mix-blend-mode:color-dodge" d="M129.185 299.129C128.233 300.369 125.503 299.869 123.07 298.015C120.638 296.161 119.452 293.655 120.391 292.388C121.33 291.12 124.073 291.648 126.506 293.502C128.939 295.356 130.133 297.891 129.185 299.129Z" fill="url(#paint0_radial_74_256)"/>
<path style="mix-blend-mode:screen" opacity="0.1" d="M128.455 324.867C139.377 318.435 143.016 304.364 136.585 293.438C130.153 282.511 116.086 278.868 105.165 285.299C94.2442 291.731 90.6046 305.802 97.036 316.728C103.467 327.654 117.534 331.298 128.455 324.867Z" fill="url(#paint1_radial_74_256)"/>
<path style="mix-blend-mode:screen" d="M119.819 326.615C113.943 327.395 107.995 325.834 103.258 322.269C98.5208 318.704 95.3734 313.419 94.4945 307.554C94.5276 307.678 94.515 307.808 94.5346 307.94C95.3251 313.885 98.4437 319.273 103.205 322.918C107.965 326.563 113.979 328.168 119.921 327.378C125.864 326.589 131.249 323.47 134.892 318.708C138.535 313.946 140.137 307.932 139.347 301.987C139.314 301.864 139.281 301.74 139.287 301.606C139.969 307.496 138.311 313.418 134.669 318.096C131.028 322.774 125.695 325.833 119.819 326.615Z" fill="url(#paint2_linear_74_256)"/>
<path style="mix-blend-mode:screen" d="M113.96 283.636C119.922 282.845 125.957 284.427 130.765 288.044C135.573 291.66 138.769 297.02 139.664 302.97C139.63 302.842 139.641 302.707 139.622 302.574C138.742 296.607 135.55 291.225 130.736 287.592C125.921 283.959 119.872 282.368 113.894 283.161C107.917 283.955 102.493 287.07 98.7942 291.833C95.0956 296.597 93.4199 302.625 94.1294 308.615C94.1639 308.743 94.1983 308.872 94.1933 309.011C93.5047 303.033 95.1904 297.024 98.8874 292.278C102.584 287.532 107.997 284.429 113.96 283.636Z" fill="url(#paint3_linear_74_256)"/>
<path style="mix-blend-mode:screen" d="M100.213 294.822C102.352 286.562 112.287 281.996 122.411 284.631C132.535 287.265 138.998 296.077 136.864 304.335C134.73 312.594 124.805 317.141 114.664 314.522C104.523 311.902 98.0724 303.076 100.213 294.822Z" fill="url(#paint4_linear_74_256)"/>
<path style="mix-blend-mode:color-dodge" d="M54.0071 19.7507C53.3507 20.6052 51.4685 20.2609 49.7912 18.9827C48.1139 17.7045 47.2965 15.9766 47.944 15.1026C48.5915 14.2287 50.4826 14.5925 52.1599 15.8707C53.8371 17.1489 54.6601 18.8971 54.0071 19.7507Z" fill="url(#paint5_radial_74_256)"/>
<path style="mix-blend-mode:screen" opacity="0.1" d="M53.5041 37.4947C61.0335 33.0606 63.5428 23.3594 59.1087 15.8265C54.6747 8.29361 44.9764 5.78149 37.447 10.2156C29.9176 14.6496 27.4083 24.3508 31.8424 31.8837C36.2764 39.4166 45.9747 41.9287 53.5041 37.4947Z" fill="url(#paint6_radial_74_256)"/>
<path style="mix-blend-mode:screen" d="M47.5505 38.7001C43.4993 39.2382 39.3987 38.1621 36.1327 35.704C32.8666 33.2458 30.6967 29.6024 30.0907 25.5592C30.1136 25.6443 30.1049 25.7341 30.1184 25.8253C30.6634 29.9238 32.8135 33.6382 36.0958 36.1514C39.3781 38.6646 43.5238 39.7708 47.6207 39.2265C51.7177 38.6822 55.4304 36.532 57.942 33.2491C60.4537 29.9661 61.5586 25.8193 61.0137 21.7208C60.9909 21.6357 60.968 21.5507 60.9724 21.4584C61.4425 25.5193 60.2992 29.6021 57.7886 32.8272C55.2781 36.0522 51.6013 38.1614 47.5505 38.7001Z" fill="url(#paint7_linear_74_256)"/>
<path style="mix-blend-mode:screen" d="M43.5101 9.06913C47.6207 8.5234 51.7814 9.61463 55.0961 12.1078C58.4108 14.601 60.6143 18.2966 61.2319 22.3986C61.2082 22.3102 61.2159 22.2169 61.2024 22.1257C60.596 18.0115 58.3953 14.3009 55.0761 11.7964C51.7569 9.29185 47.586 8.19455 43.4651 8.74175C39.3442 9.28895 35.6044 11.4367 33.0545 14.7206C30.5046 18.0045 29.3493 22.1606 29.8385 26.2904C29.8622 26.3789 29.886 26.4673 29.8825 26.5631C29.4078 22.4417 30.5699 18.299 33.1188 15.027C35.6676 11.755 39.3992 9.6155 43.5101 9.06913Z" fill="url(#paint8_linear_74_256)"/>
<path style="mix-blend-mode:screen" d="M34.0326 16.7809C35.5074 11.0864 42.3572 7.93827 49.3369 9.7548C56.3166 11.5713 60.7726 17.6464 59.3012 23.34C57.8298 29.0336 50.9875 32.1687 43.996 30.3627C37.0045 28.5566 32.5569 22.472 34.0326 16.7809Z" fill="url(#paint9_linear_74_256)"/>
<g clip-path="url(#clip0_74_256)">
<path d="M159.878 329.258C173.875 334.173 189.208 326.82 194.124 312.835C199.039 298.85 191.677 283.528 177.679 278.613C163.682 273.699 148.349 281.052 143.433 295.037C138.518 309.022 145.88 324.343 159.878 329.258Z" fill="#FFFEF3"/>
<path d="M194.569 314.5C189.683 328.425 174.521 335.791 160.702 330.945C146.9 326.092 139.667 310.876 144.553 296.951C149.439 283.025 164.595 275.67 178.414 280.517C192.222 285.358 199.455 300.574 194.569 314.5Z" fill="#B37E38"/>
<path d="M194.107 313.28C189.312 326.925 174.231 334.062 160.423 329.22C146.615 324.379 139.302 309.393 144.097 295.748C148.88 282.098 163.961 274.961 177.78 279.807C191.588 284.649 198.901 299.635 194.107 313.28Z" fill="url(#paint10_linear_74_256)"/>
<path d="M188.758 311.331C184.998 322.029 173.184 327.618 162.354 323.825C151.523 320.032 145.796 308.279 149.556 297.581C153.311 286.894 165.13 281.294 175.956 285.098C186.787 288.891 192.513 300.644 188.758 311.331Z" fill="#BE8C40"/>
<path d="M188.656 312.466C184.987 322.911 173.358 328.349 162.682 324.615C152.011 320.87 146.323 309.361 149.992 298.915C153.666 288.458 165.295 283.02 175.966 286.766C186.648 290.516 192.324 302.02 188.656 312.466Z" fill="#F9EAAA"/>
<path d="M188.333 311.368C184.761 321.55 173.339 326.818 162.823 323.132C152.307 319.446 146.687 308.209 150.259 298.027C153.83 287.846 165.252 282.577 175.768 286.263C186.284 289.949 191.904 301.186 188.333 311.368Z" fill="url(#paint11_linear_74_256)"/>
<path opacity="0.2" d="M150.288 298.323C150.282 298.334 150.282 298.334 150.277 298.346C146.749 308.407 152.366 319.531 162.831 323.206C173.296 326.882 184.646 321.706 188.174 311.645C188.179 311.633 188.179 311.633 188.185 311.622L150.288 298.323Z" fill="#F3931A"/>
<g filter="url(#filter0_d_74_256)">
<path d="M174.865 290.096L171.191 289.125L170.531 291.728C165.751 291.247 162.831 293.129 161.887 296.893C161.501 298.415 161.649 299.852 162.317 301.198C162.938 302.437 164.539 303.776 167.131 305.19L165.357 312.21C163.441 311.3 162.448 309.658 162.39 307.264L158.539 309.506C159.319 312.78 160.37 314.181 164.261 315.762L163.407 318.892L167.414 320.021L168.154 316.865C170.503 317.191 172.558 316.745 174.094 315.882C175.758 314.954 176.877 313.428 177.368 311.477C177.722 310.11 177.614 308.649 177.222 307.462C176.829 306.275 176.277 305.393 175.561 304.827C174.909 304.306 173.636 303.49 171.756 302.385L173.324 296.183C174.587 296.84 175.287 298.032 175.423 299.759L179.388 299.558C179.211 296.346 177.526 294.178 174.308 292.72L174.865 290.096ZM165.988 297.292C166.237 296.325 166.77 295.676 167.594 295.363C168.226 295.128 168.924 295.051 169.665 295.15L168.219 300.888C166.359 299.976 165.619 298.779 165.988 297.292ZM173.248 310.703C172.989 311.722 172.406 312.445 171.494 312.885C170.733 313.243 169.905 313.357 169.01 313.227L170.673 306.648C172.799 307.77 173.649 309.118 173.248 310.703Z" fill="url(#paint12_linear_74_256)"/>
</g>
</g>
<path style="mix-blend-mode:screen" d="M202.519 303.554C197.853 306.834 188.865 302.122 182.44 293.006C176.016 283.889 174.587 273.796 179.239 270.551C183.891 267.305 192.893 271.982 199.318 281.099C205.743 290.215 207.173 300.261 202.519 303.554Z" fill="url(#paint13_radial_74_256)"/>
<path style="mix-blend-mode:color-dodge" d="M198.237 297.476C195.285 299.551 189.612 296.569 185.529 290.806C181.445 285.043 180.56 278.703 183.503 276.557C186.446 274.41 192.128 277.464 196.211 283.227C200.295 288.989 201.178 295.4 198.237 297.476Z" fill="url(#paint14_radial_74_256)"/>
<path style="mix-blend-mode:screen" opacity="0.1" d="M173.21 357.974C202.374 355.546 224.053 329.926 221.63 300.751C219.206 271.576 193.6 249.893 164.435 252.322C135.271 254.75 113.593 280.37 116.016 309.545C118.439 338.72 144.046 360.402 173.21 357.974Z" fill="url(#paint15_radial_74_256)"/>
<path style="mix-blend-mode:screen" d="M153.495 352.952C140.49 348.684 129.683 339.475 123.404 327.309C117.125 315.143 115.876 300.995 119.928 287.915C119.873 288.205 119.716 288.464 119.624 288.758C115.308 301.916 116.394 316.249 122.642 328.605C128.89 340.961 139.789 350.327 152.941 354.642C166.093 358.958 180.421 357.87 192.773 351.618C205.125 345.366 214.489 334.461 218.805 321.303C218.86 321.014 218.915 320.724 219.062 320.452C214.575 333.387 205.188 344.043 192.924 350.122C180.66 356.201 166.499 357.218 153.495 352.952Z" fill="url(#paint16_linear_74_256)"/>
<path style="mix-blend-mode:screen" d="M184.395 257.68C197.59 262.011 208.556 271.354 214.931 283.696C221.306 296.038 222.58 310.393 218.478 323.667C218.535 323.365 218.694 323.095 218.786 322.8C222.939 309.506 221.696 295.111 215.324 282.728C208.952 270.345 197.964 260.968 184.735 256.627C171.507 252.285 157.1 253.326 144.632 259.526C132.163 265.725 122.633 276.584 118.104 289.755C118.047 290.057 117.99 290.358 117.84 290.642C122.401 277.517 131.932 266.709 144.38 260.544C156.828 254.379 171.198 253.35 184.395 257.68Z" fill="url(#paint17_linear_74_256)"/>
<path style="mix-blend-mode:screen" d="M144.587 267.164C157.318 252.128 182.562 252.591 200.978 268.222C219.395 283.853 224.004 308.661 211.285 323.699C198.566 338.737 173.363 338.246 154.896 322.63C136.429 307.013 131.859 282.188 144.587 267.164Z" fill="url(#paint18_linear_74_256)"/>
<path d="M193.364 98.4354C194.168 99.185 194.791 100.108 195.184 101.135C195.577 102.162 195.73 103.265 195.632 104.36C195.463 108.41 189.426 115.928 189.426 115.928L187.889 107.172C190.098 104.52 191.94 101.581 193.364 98.4354Z" fill="#485BCF"/>
<path d="M165.635 72.4681C165.635 72.4681 178.984 68.0433 189.464 76.0116C199.944 83.98 193.439 104.923 188.32 109.76C183.202 114.597 165.635 72.4681 165.635 72.4681Z" fill="url(#paint19_radial_74_256)"/>
<path d="M194.995 89.8861C195.37 97.1794 192.801 103.235 189.37 103.404C185.939 103.573 182.696 97.7794 182.34 90.5235C181.983 83.2676 184.533 77.1742 187.964 77.0054C191.395 76.8367 194.638 82.5927 194.995 89.8861Z" fill="url(#paint20_radial_74_256)"/>
<path d="M193.926 89.9421C194.151 94.2544 192.632 97.8355 190.551 97.9292C188.47 98.023 186.595 94.6294 186.389 90.3171C186.183 86.0048 187.683 82.4238 189.764 82.33C191.845 82.2363 193.757 85.6299 193.926 89.9421Z" fill="url(#paint21_radial_74_256)"/>
<path d="M28.2477 338.648C28.2477 338.648 44.1274 309.794 46.0023 292.657L40.6403 288.138H48.4583C48.4583 288.138 72.6623 282.045 81.9052 271.902C81.9052 271.902 63.4757 279.983 20.2609 259.696L11.5804 257.578C11.8855 285.42 17.5441 312.944 28.2477 338.648Z" fill="url(#paint22_linear_74_256)"/>
<g style="mix-blend-mode:multiply">
<path d="M187.158 168.801L209.318 161.639C209.318 161.639 204.594 191.637 195.557 199.137C186.521 206.636 175.722 191.243 175.722 191.243L187.158 168.801Z" fill="url(#paint23_linear_74_256)"/>
</g>
<path d="M158.698 223.867C129.488 244.116 90.4919 244.622 62.8757 241.435C51.3522 240.173 39.9481 237.991 28.7726 234.91C28.7726 234.91 29.9537 237.947 28.7726 238.379C27.3189 238.603 25.8392 238.603 24.3855 238.379L19.1735 254.522C19.1735 254.522 21.667 264.89 20.2984 265.771C18.9297 266.652 12.7991 263.896 12.7991 263.896C-1.28088 237.647 -5.57423 182.038 9.31189 139.965C9.31189 139.965 9.31189 139.965 9.31189 139.852C14.7489 124.497 22.7731 110.96 33.7784 101.304C75.1558 65.1184 158.361 65.7934 174.24 75.5429C175.69 76.5388 176.926 77.8136 177.878 79.2927C192.632 100.742 205.269 191.581 158.698 223.867Z" fill="url(#paint24_radial_74_256)"/>
<path d="M177.878 79.3865C167.885 74.5117 134.213 76.4242 118.446 86.7736C102.678 97.1231 88.6733 140.658 72.8873 153.427C57.1012 166.195 27.1228 176.657 17.2987 216.967C8.11203 254.728 12.4429 262.752 12.8553 263.952C-6.3804 228.029 -7.3553 137.49 33.8721 101.323C75.0996 65.156 158.361 65.7934 174.24 75.5429C175.699 76.5662 176.936 77.8735 177.878 79.3865Z" fill="url(#paint25_linear_74_256)"/>
<path style="mix-blend-mode:multiply" d="M26.8978 187.794C26.8978 187.794 28.7726 215.692 41.334 222.761C53.8953 229.829 76.7869 216.836 93.5666 192.556L28.7726 185.45L26.8978 187.794Z" fill="url(#paint26_linear_74_256)"/>
<path d="M78.7742 78.1303C78.7742 78.1303 85.9735 75.6367 91.373 79.7615C96.7725 83.8863 99.0786 112.929 84.6237 135.034C72.906 152.92 51.458 155.17 43.3775 151.908C35.297 148.646 29.635 125.322 36.4406 109.741C43.2462 94.1608 69.6063 80.5864 78.7742 78.1303Z" fill="url(#paint27_radial_74_256)"/>
<path d="M84.8487 80.9801C73.9559 75.0929 44.0337 69.8431 34.2284 93.8232C23.6168 119.584 43.4525 141.333 55.8451 143.377C68.2377 145.421 82.2052 132.671 86.8922 118.066C93.2479 98.9417 86.5923 81.9363 84.8487 80.9801Z" fill="url(#paint28_radial_74_256)"/>
<path d="M39.2904 174.913C39.2904 174.913 41.5402 165.782 33.3659 166.945C25.1917 168.107 21.4795 183.2 23.7293 186.594C24.1797 187.522 24.9747 188.237 25.9448 188.587C26.9149 188.937 27.9834 188.895 28.9226 188.469C28.9226 188.469 36.5906 215.973 57.5512 215.861C78.5118 215.748 103.559 189.369 104.009 161.639C104.009 161.639 56.97 181.044 49.7519 181.044C47.6286 181.006 45.5509 180.422 43.7187 179.348C41.8865 178.274 40.3615 176.747 39.2904 174.913Z" fill="url(#paint29_linear_74_256)"/>
<path d="M206.394 146.114C203 144.933 188.114 190.006 192.52 200.749C192.52 200.749 201.313 198.162 207.387 175.513C213.462 152.864 206.394 146.114 206.394 146.114Z" fill="url(#paint30_radial_74_256)"/>
<path style="mix-blend-mode:multiply" opacity="0.5" d="M110.545 212.688C91.2529 209.528 78.1746 191.327 81.3338 172.034C84.493 152.741 102.693 139.663 121.986 142.822C141.278 145.981 154.356 164.182 151.197 183.475C148.038 202.768 129.837 215.847 110.545 212.688Z" fill="url(#paint31_radial_74_256)"/>
<path style="mix-blend-mode:multiply" d="M8.99327 255.346C8.99327 255.346 5.01864 308.894 28.2477 338.649C28.2477 338.649 11.9742 294.363 12.8554 263.952L8.99327 255.346Z" fill="url(#paint32_linear_74_256)"/>
<path style="mix-blend-mode:multiply" d="M46.0023 292.657C46.0023 292.657 29.8225 283.658 21.2733 273.814C29.0795 280.613 38.3512 285.515 48.3646 288.139L41.8964 288.532L46.0023 292.657Z" fill="url(#paint33_linear_74_256)"/>
<path d="M117.527 186.012C120.17 195.631 163.123 197.749 175.646 191.168C188.17 184.587 195.145 127.328 185.996 114.916C180.371 107.21 135.056 123.578 128.982 135.071C122.908 146.564 115.015 176.638 117.527 186.012Z" fill="url(#paint34_radial_74_256)"/>
<path d="M131.026 133.665C136.65 123.334 173.565 111.335 183.371 116.003C193.176 120.672 186.052 180.969 177.746 187.25C169.441 193.531 126.414 196.737 119.477 185.75C112.54 174.763 127.688 139.59 131.026 133.665Z" fill="url(#paint35_linear_74_256)"/>
<path d="M186.258 125.978C184.901 127.001 183.251 127.56 181.552 127.572C177.803 128.04 170.566 128.753 160.254 130.159C149.943 131.565 136.819 133.909 134.475 134.603C133.843 134.825 133.172 134.914 132.503 134.862C131.835 134.81 131.185 134.62 130.594 134.303C130.594 134.303 132.469 127.384 150.486 120.991C168.503 114.597 177.934 114.147 181.384 114.916C182.452 115.227 183.441 115.764 184.282 116.493C185.123 117.221 185.797 118.122 186.258 119.135C186.258 119.135 188.62 125.322 186.258 125.978Z" fill="url(#paint36_radial_74_256)"/>
<path opacity="0.5" d="M119.477 170.076C119.477 170.076 168.222 165.895 175.722 178.55C175.722 178.55 180.334 187.287 156.317 188.694C132.301 190.1 118.464 181.363 118.464 181.363C118.464 181.363 117.621 174.219 119.477 170.076Z" fill="url(#paint37_linear_74_256)"/>
<path d="M73.581 126.409C65.8463 126.409 59.5761 117.536 59.5761 106.591C59.5761 95.6463 65.8463 86.7736 73.581 86.7736C81.3157 86.7736 87.586 95.6463 87.586 106.591C87.586 117.536 81.3157 126.409 73.581 126.409Z" fill="url(#paint38_radial_74_256)"/>
<path d="M85.2424 106.591C85.2424 113.06 81.4927 118.31 76.9556 118.31C72.4185 118.31 68.6689 113.06 68.6689 106.591C68.6689 100.123 72.4185 94.8732 76.9556 94.8732C81.4927 94.8732 85.2424 100.123 85.2424 106.591Z" fill="url(#paint39_radial_74_256)"/>
<path style="mix-blend-mode:soft-light" d="M28.7726 234.91C28.7726 234.91 75.0246 245.728 124.276 232.191C173.528 218.655 185.958 183.031 185.958 183.031C185.958 183.031 181.234 222.704 127.201 238.041C81.9052 250.94 28.7726 234.91 28.7726 234.91Z" fill="url(#paint40_radial_74_256)"/>
<path style="mix-blend-mode:multiply" d="M28.7726 185.45C28.7726 185.45 31.6786 178.588 33.7784 179.132C35.8782 179.675 39.7028 184.325 50.9705 183.463C62.2383 182.6 98.5537 166.476 102.378 167.845C106.203 169.213 81.8677 218.073 57.5137 215.748C36.8906 213.78 28.7726 185.45 28.7726 185.45Z" fill="url(#paint41_linear_74_256)"/>
<path style="mix-blend-mode:multiply" d="M28.9226 188.356C28.9226 188.356 24.9104 176.582 39.2903 174.875C39.2903 174.913 20.8608 172.363 28.9226 188.356Z" fill="url(#paint42_linear_74_256)"/>
<path style="mix-blend-mode:multiply" d="M28.7726 234.91C28.7726 234.91 29.9538 237.947 28.7726 238.379C27.3189 238.603 25.8393 238.603 24.3855 238.379L19.1735 254.522C19.1735 254.522 21.667 264.89 20.2984 265.771C18.9298 266.652 12.7991 263.896 12.7991 263.896C-1.28087 237.647 -5.57422 182.038 9.3119 139.965C8.63697 142.402 -1.7683 175.325 11.5242 201.274C28.7726 234.91 53.1454 237.929 62.857 241.416C51.3403 240.159 39.9425 237.984 28.7726 234.91Z" fill="url(#paint43_linear_74_256)"/>
<path style="mix-blend-mode:soft-light" d="M85.2424 76.0115C85.2424 76.0115 96.1539 73.7054 122.926 73.0117C149.699 72.3179 167.922 73.0117 167.922 73.0117C167.922 73.0117 139.144 64.5746 85.2424 76.0115Z" fill="url(#paint44_radial_74_256)"/>
<path d="M64.1506 94.8732C64.1506 95.6149 63.9306 96.3399 63.5186 96.9565C63.1066 97.5732 62.521 98.0538 61.8358 98.3376C61.1507 98.6214 60.3968 98.6957 59.6694 98.551C58.942 98.4063 58.2739 98.0492 57.7495 97.5247C57.2251 97.0003 56.868 96.3322 56.7233 95.6048C56.5786 94.8774 56.6529 94.1234 56.9367 93.4382C57.2205 92.753 57.7011 92.1674 58.3177 91.7554C58.9343 91.3433 59.6593 91.1234 60.4009 91.1234C61.3954 91.1234 62.3491 91.5185 63.0523 92.2217C63.7555 92.9249 64.1506 93.8787 64.1506 94.8732Z" fill="white"/>
<path d="M185.996 80.1176C185.996 81.6363 185.189 82.8737 184.121 82.8737C183.052 82.8737 182.246 81.6363 182.246 80.1176C182.246 78.5989 183.202 77.4177 184.196 77.4177C185.189 77.4177 185.996 78.5802 185.996 80.1176Z" fill="white"/>
<path style="mix-blend-mode:soft-light" d="M49.7519 134.134C49.7519 134.134 63.5506 128.771 76.9556 106.591C76.9556 106.591 80.4616 126.615 60.2134 140.021L49.7519 134.134Z" fill="url(#paint45_radial_74_256)"/>
<path style="mix-blend-mode:soft-light" d="M41.8964 139.871C41.8964 139.871 52.5642 150.502 71.3312 142.233C90.0982 133.965 90.0794 106.273 91.6168 91.7797C91.6168 91.7797 94.504 120.484 80.8553 137.846C67.2066 155.208 49.6582 152.733 41.8964 139.871Z" fill="url(#paint46_radial_74_256)"/>
<path style="mix-blend-mode:soft-light" d="M44.1837 179.638C44.1837 179.638 46.6959 183.2 55.3201 182.713C63.9443 182.225 79.2429 171.463 79.2429 171.463C79.2429 171.463 51.9829 185.45 44.1837 179.638Z" fill="url(#paint47_radial_74_256)"/>
<path style="mix-blend-mode:soft-light" d="M206.394 146.114C206.394 146.114 204.856 171.819 197.413 185.487C197.413 185.45 194.039 173.038 206.394 146.114Z" fill="url(#paint48_radial_74_256)"/>
<path style="mix-blend-mode:soft-light" d="M2.52508 208.549C2.52508 208.549 0.200291 157.626 28.7726 109.798C28.7726 109.798 -3.79309 142.74 2.52508 208.549Z" fill="url(#paint49_radial_74_256)"/>
<path style="mix-blend-mode:soft-light" d="M120.17 189.2C120.17 189.2 129.882 197.412 152.905 198.574C175.928 199.737 179.977 191.787 181.59 183.462C179.713 186.394 177.34 188.976 174.578 191.093C170.978 193.437 140.737 197.824 120.17 189.2Z" fill="url(#paint50_radial_74_256)"/>
<path style="mix-blend-mode:multiply" opacity="0.5" d="M131.888 194.974C131.888 194.974 147.824 203.805 160.854 203.018C164.628 202.796 168.275 201.575 171.421 199.48C174.567 197.384 177.1 194.49 178.759 191.093C178.759 191.093 174.297 197.374 160.61 198.218C150.931 198.501 141.261 197.409 131.888 194.974Z" fill="url(#paint51_radial_74_256)"/>
<path d="M149.549 198.012C151.648 196.884 153.914 196.099 156.261 195.687C159.148 195.406 162.86 198.03 162.86 198.03C158.429 198.352 153.979 198.346 149.549 198.012Z" fill="white"/>
<path d="M36.2719 91.7796C36.2719 91.7796 43.7712 79.5739 57.4762 77.4178C65.7178 76.1177 74.1587 77.1436 81.849 80.3801C81.849 80.3801 67.8065 76.3491 55.3764 79.7989C47.9652 81.8187 41.3177 85.9874 36.2719 91.7796Z" fill="white"/>
<path style="mix-blend-mode:soft-light" d="M120.17 173.413C127.256 177.052 135.184 178.735 143.137 178.288C143.137 178.288 137.419 173.319 120.17 173.413Z" fill="url(#paint52_radial_74_256)"/>
<g style="mix-blend-mode:soft-light">
<path d="M14.8427 288.101C13.8347 293.555 13.8984 299.152 15.0302 304.581C16.3004 309.069 18.4549 313.257 21.3671 316.9C21.3671 316.9 15.9301 295.769 14.8427 288.101Z" fill="white"/>
</g>
<path d="M101.178 241.51C101.178 241.51 133.388 240.16 155.323 224.635C137.834 231.919 119.709 237.568 101.178 241.51Z" fill="white"/>
<path d="M167.866 72.4681C174.998 72.1485 182.106 73.5033 188.62 76.4241C185.713 74.1844 182.32 72.6594 178.715 71.9722C175.11 71.2851 171.393 71.4549 167.866 72.4681Z" fill="white"/>
<path d="M182.508 177.744C182.508 177.744 180.915 184.475 178.759 186.237C174.523 188.925 169.771 190.694 164.81 191.431C159.317 192.218 137.156 193.868 127.014 190.55C116.871 187.231 117.827 180.538 117.827 180.538C121.744 181.725 125.76 182.56 129.826 183.031C138.375 184.269 168.503 180.407 172.009 180.05C175.515 179.694 180.184 176.338 182.508 177.744Z" fill="url(#paint53_radial_74_256)"/>
<defs>
<filter id="filter0_d_74_256" x="157.539" y="289.125" width="21.8486" height="31.8965" filterUnits="userSpaceOnUse" color-interpolation-filters="sRGB">
<feFlood flood-opacity="0" result="BackgroundImageFix"/>
<feColorMatrix in="SourceAlpha" type="matrix" values="0 0 0 0 0 0 0 0 0 0 0 0 0 0 0 0 0 0 127 0" result="hardAlpha"/>
<feOffset dx="-1" dy="1"/>
<feComposite in2="hardAlpha" operator="out"/>
<feColorMatrix type="matrix" values="0 0 0 0 1 0 0 0 0 1 0 0 0 0 1 0 0 0 0.35 0"/>
<feBlend mode="normal" in2="BackgroundImageFix" result="effect1_dropShadow_74_256"/>
<feBlend mode="normal" in="SourceGraphic" in2="effect1_dropShadow_74_256" result="shape"/>
</filter>
<radialGradient id="paint0_radial_74_256" cx="0" cy="0" r="1" gradientUnits="userSpaceOnUse" gradientTransform="translate(120.453 294.299) rotate(37.357) scale(5.52237 2.82479)">
<stop offset="0.05" stop-color="#D9D9D9"/>
<stop offset="0.06" stop-color="#D4D3D1"/>
<stop offset="0.09" stop-color="#C7C3BC"/>
<stop offset="0.11" stop-color="#B2AA99"/>
<stop offset="0.14" stop-color="#948668"/>
<stop offset="0.18" stop-color="#6C5627"/>
<stop offset="0.27" stop-color="#52411D"/>
<stop offset="0.39" stop-color="#342A13"/>
<stop offset="0.51" stop-color="#1D170B"/>
<stop offset="0.65" stop-color="#0D0A05"/>
<stop offset="0.8" stop-color="#030201"/>
<stop offset="1"/>
</radialGradient>
<radialGradient id="paint1_radial_74_256" cx="0" cy="0" r="1" gradientUnits="userSpaceOnUse" gradientTransform="translate(116.819 305.08) rotate(-7.56495) scale(22.9787 22.9877)">
<stop offset="0.13"/>
<stop offset="0.38" stop-color="#000303"/>
<stop offset="0.53" stop-color="#292929"/>
<stop offset="0.65" stop-color="#8D8D8D"/>
<stop offset="0.75" stop-color="#9D9D9D"/>
<stop offset="0.85" stop-color="#ECECEC"/>
<stop offset="0.94" stop-color="#EEEEEE"/>
<stop offset="1" stop-color="white"/>
</radialGradient>
<linearGradient id="paint2_linear_74_256" x1="96.0073" y1="318.959" x2="140.825" y2="313.002" gradientUnits="userSpaceOnUse">
<stop/>
<stop offset="0.07" stop-color="#282828"/>
<stop offset="0.16" stop-color="#5A5A5A"/>
<stop offset="0.26" stop-color="#868686"/>
<stop offset="0.36" stop-color="#ACACAC"/>
<stop offset="0.47" stop-color="#CACACA"/>
<stop offset="0.58" stop-color="#E1E1E1"/>
<stop offset="0.7" stop-color="#F2F2F2"/>
<stop offset="0.83" stop-color="#FCFCFC"/>
<stop offset="1" stop-color="white"/>
</linearGradient>
<linearGradient id="paint3_linear_74_256" x1="116.131" y1="299.909" x2="112.948" y2="275.942" gradientUnits="userSpaceOnUse">
<stop/>
<stop offset="0.07" stop-color="#282828"/>
<stop offset="0.16" stop-color="#5A5A5A"/>
<stop offset="0.26" stop-color="#868686"/>
<stop offset="0.36" stop-color="#ACACAC"/>
<stop offset="0.47" stop-color="#CACACA"/>
<stop offset="0.58" stop-color="#E1E1E1"/>
<stop offset="0.7" stop-color="#F2F2F2"/>
<stop offset="0.83" stop-color="#FCFCFC"/>
<stop offset="1" stop-color="white"/>
</linearGradient>
<linearGradient id="paint4_linear_74_256" x1="111.358" y1="320.451" x2="131.056" y2="273.181" gradientUnits="userSpaceOnUse">
<stop/>
<stop offset="0.37" stop-color="#020202"/>
<stop offset="0.51" stop-color="#090909"/>
<stop offset="0.6" stop-color="#141414"/>
<stop offset="0.68" stop-color="#252525"/>
<stop offset="0.75" stop-color="#3B3B3B"/>
<stop offset="0.8" stop-color="#575757"/>
<stop offset="0.86" stop-color="#777777"/>
<stop offset="0.91" stop-color="#9D9D9D"/>
<stop offset="0.95" stop-color="#C8C8C8"/>
<stop offset="0.99" stop-color="#F6F6F6"/>
<stop offset="1" stop-color="white"/>
</linearGradient>
<radialGradient id="paint5_radial_74_256" cx="0" cy="0" r="1" gradientUnits="userSpaceOnUse" gradientTransform="translate(47.9866 16.4203) rotate(37.357) scale(3.80731 1.94751)">
<stop offset="0.05" stop-color="#D9D9D9"/>
<stop offset="0.06" stop-color="#D4D3D1"/>
<stop offset="0.09" stop-color="#C7C3BC"/>
<stop offset="0.11" stop-color="#B2AA99"/>
<stop offset="0.14" stop-color="#948668"/>
<stop offset="0.18" stop-color="#6C5627"/>
<stop offset="0.27" stop-color="#52411D"/>
<stop offset="0.39" stop-color="#342A13"/>
<stop offset="0.51" stop-color="#1D170B"/>
<stop offset="0.65" stop-color="#0D0A05"/>
<stop offset="0.8" stop-color="#030201"/>
<stop offset="1"/>
</radialGradient>
<radialGradient id="paint6_radial_74_256" cx="0" cy="0" r="1" gradientUnits="userSpaceOnUse" gradientTransform="translate(45.4817 23.8533) rotate(-7.56495) scale(15.8423 15.8485)">
<stop offset="0.13"/>
<stop offset="0.38" stop-color="#000303"/>
<stop offset="0.53" stop-color="#292929"/>
<stop offset="0.65" stop-color="#8D8D8D"/>
<stop offset="0.75" stop-color="#9D9D9D"/>
<stop offset="0.85" stop-color="#ECECEC"/>
<stop offset="0.94" stop-color="#EEEEEE"/>
<stop offset="1" stop-color="white"/>
</radialGradient>
<linearGradient id="paint7_linear_74_256" x1="31.1337" y1="33.4219" x2="62.0327" y2="29.3151" gradientUnits="userSpaceOnUse">
<stop/>
<stop offset="0.07" stop-color="#282828"/>
<stop offset="0.16" stop-color="#5A5A5A"/>
<stop offset="0.26" stop-color="#868686"/>
<stop offset="0.36" stop-color="#ACACAC"/>
<stop offset="0.47" stop-color="#CACACA"/>
<stop offset="0.58" stop-color="#E1E1E1"/>
<stop offset="0.7" stop-color="#F2F2F2"/>
<stop offset="0.83" stop-color="#FCFCFC"/>
<stop offset="1" stop-color="white"/>
</linearGradient>
<linearGradient id="paint8_linear_74_256" x1="45.0073" y1="20.2884" x2="42.8128" y2="3.76439" gradientUnits="userSpaceOnUse">
<stop/>
<stop offset="0.07" stop-color="#282828"/>
<stop offset="0.16" stop-color="#5A5A5A"/>
<stop offset="0.26" stop-color="#868686"/>
<stop offset="0.36" stop-color="#ACACAC"/>
<stop offset="0.47" stop-color="#CACACA"/>
<stop offset="0.58" stop-color="#E1E1E1"/>
<stop offset="0.7" stop-color="#F2F2F2"/>
<stop offset="0.83" stop-color="#FCFCFC"/>
<stop offset="1" stop-color="white"/>
</linearGradient>
<linearGradient id="paint9_linear_74_256" x1="41.7163" y1="34.4507" x2="55.297" y2="1.86077" gradientUnits="userSpaceOnUse">
<stop/>
<stop offset="0.37" stop-color="#020202"/>
<stop offset="0.51" stop-color="#090909"/>
<stop offset="0.6" stop-color="#141414"/>
<stop offset="0.68" stop-color="#252525"/>
<stop offset="0.75" stop-color="#3B3B3B"/>
<stop offset="0.8" stop-color="#575757"/>
<stop offset="0.86" stop-color="#777777"/>
<stop offset="0.91" stop-color="#9D9D9D"/>
<stop offset="0.95" stop-color="#C8C8C8"/>
<stop offset="0.99" stop-color="#F6F6F6"/>
<stop offset="1" stop-color="white"/>
</linearGradient>
<linearGradient id="paint10_linear_74_256" x1="192.031" y1="280.455" x2="144.515" y2="323.913" gradientUnits="userSpaceOnUse">
<stop stop-color="#FFF0BE"/>
<stop offset="0.326042" stop-color="#E8D088"/>
<stop offset="0.497917" stop-color="#D9B55F"/>
<stop offset="1" stop-color="#C0891D"/>
</linearGradient>
<linearGradient id="paint11_linear_74_256" x1="161.859" y1="319.803" x2="204.017" y2="282.291" gradientUnits="userSpaceOnUse">
<stop stop-color="#ECD792"/>
<stop offset="0.06" stop-color="#E8D088"/>
<stop offset="0.3" stop-color="#D9B55F"/>
<stop offset="1" stop-color="#C0891D"/>
</linearGradient>
<linearGradient id="paint12_linear_74_256" x1="155.774" y1="314.69" x2="188.606" y2="302.317" gradientUnits="userSpaceOnUse">
<stop stop-color="#BD9D39"/>
<stop offset="0.07" stop-color="#B9942B"/>
<stop offset="0.3" stop-color="#AD7802"/>
<stop offset="1" stop-color="#994900"/>
</linearGradient>
<radialGradient id="paint13_radial_74_256" cx="0" cy="0" r="1" gradientUnits="userSpaceOnUse" gradientTransform="translate(182.321 280.811) rotate(54.7245) scale(20.1851 10.3251)">
<stop offset="0.05" stop-color="#D2D2D2"/>
<stop offset="0.07" stop-color="#CFCECA"/>
<stop offset="0.11" stop-color="#C8C5B5"/>
<stop offset="0.16" stop-color="#BCB592"/>
<stop offset="0.22" stop-color="#AC9F61"/>
<stop offset="0.26" stop-color="#9F8D3A"/>
<stop offset="0.31" stop-color="#9F7E3A"/>
<stop offset="0.39" stop-color="#765E2B"/>
<stop offset="0.47" stop-color="#52411E"/>
<stop offset="0.56" stop-color="#342913"/>
<stop offset="0.65" stop-color="#1D170B"/>
<stop offset="0.74" stop-color="#0D0A05"/>
<stop offset="0.85" stop-color="#030201"/>
<stop offset="0.99"/>
</radialGradient>
<radialGradient id="paint14_radial_74_256" cx="0" cy="0" r="1" gradientUnits="userSpaceOnUse" gradientTransform="translate(182.322 280.811) rotate(54.7245) scale(12.7515 6.52262)">
<stop offset="0.05" stop-color="#D9D9D9"/>
<stop offset="0.06" stop-color="#D4D3D1"/>
<stop offset="0.09" stop-color="#C7C3BC"/>
<stop offset="0.11" stop-color="#B2AA99"/>
<stop offset="0.14" stop-color="#948668"/>
<stop offset="0.18" stop-color="#6C5627"/>
<stop offset="0.27" stop-color="#52411D"/>
<stop offset="0.39" stop-color="#342A13"/>
<stop offset="0.51" stop-color="#1D170B"/>
<stop offset="0.65" stop-color="#0D0A05"/>
<stop offset="0.8" stop-color="#030201"/>
<stop offset="1"/>
</radialGradient>
<radialGradient id="paint15_radial_74_256" cx="0" cy="0" r="1" gradientUnits="userSpaceOnUse" gradientTransform="translate(168.844 305.151) rotate(18.1693) scale(53.0593 53.08)">
<stop offset="0.13"/>
<stop offset="0.38" stop-color="#000303"/>
<stop offset="0.53" stop-color="#292929"/>
<stop offset="0.65" stop-color="#8D8D8D"/>
<stop offset="0.75" stop-color="#9D9D9D"/>
<stop offset="0.85" stop-color="#ECECEC"/>
<stop offset="0.94" stop-color="#EEEEEE"/>
<stop offset="1" stop-color="white"/>
</radialGradient>
<linearGradient id="paint16_linear_74_256" x1="111.641" y1="313.154" x2="210.836" y2="345.698" gradientUnits="userSpaceOnUse">
<stop/>
<stop offset="0.07" stop-color="#282828"/>
<stop offset="0.16" stop-color="#5A5A5A"/>
<stop offset="0.26" stop-color="#868686"/>
<stop offset="0.36" stop-color="#ACACAC"/>
<stop offset="0.47" stop-color="#CACACA"/>
<stop offset="0.58" stop-color="#E1E1E1"/>
<stop offset="0.7" stop-color="#F2F2F2"/>
<stop offset="0.83" stop-color="#FCFCFC"/>
<stop offset="1" stop-color="white"/>
</linearGradient>
<linearGradient id="paint17_linear_74_256" x1="172.597" y1="293.706" x2="190.005" y2="240.661" gradientUnits="userSpaceOnUse">
<stop/>
<stop offset="0.07" stop-color="#282828"/>
<stop offset="0.16" stop-color="#5A5A5A"/>
<stop offset="0.26" stop-color="#868686"/>
<stop offset="0.36" stop-color="#ACACAC"/>
<stop offset="0.47" stop-color="#CACACA"/>
<stop offset="0.58" stop-color="#E1E1E1"/>
<stop offset="0.7" stop-color="#F2F2F2"/>
<stop offset="0.83" stop-color="#FCFCFC"/>
<stop offset="1" stop-color="white"/>
</linearGradient>
<linearGradient id="paint18_linear_74_256" x1="142.073" y1="331.648" x2="230.44" y2="253.073" gradientUnits="userSpaceOnUse">
<stop/>
<stop offset="0.37" stop-color="#020202"/>
<stop offset="0.51" stop-color="#090909"/>
<stop offset="0.6" stop-color="#141414"/>
<stop offset="0.68" stop-color="#252525"/>
<stop offset="0.75" stop-color="#3B3B3B"/>
<stop offset="0.8" stop-color="#575757"/>
<stop offset="0.86" stop-color="#777777"/>
<stop offset="0.91" stop-color="#9D9D9D"/>
<stop offset="0.95" stop-color="#C8C8C8"/>
<stop offset="0.99" stop-color="#F6F6F6"/>
<stop offset="1" stop-color="white"/>
</linearGradient>
<radialGradient id="paint19_radial_74_256" cx="0" cy="0" r="1" gradientUnits="userSpaceOnUse" gradientTransform="translate(183.408 81.3281) scale(18.917 25.1607)">
<stop stop-color="#EAEFFF"/>
<stop offset="0.99" stop-color="#D2B5ED"/>
</radialGradient>
<radialGradient id="paint20_radial_74_256" cx="0" cy="0" r="1" gradientUnits="userSpaceOnUse" gradientTransform="translate(177.71 98.2275) rotate(-2.9358) scale(9.61304 19.7186)">
<stop stop-color="#3F70C0"/>
<stop offset="1" stop-color="#1F4B90"/>
</radialGradient>
<radialGradient id="paint21_radial_74_256" cx="0" cy="0" r="1" gradientUnits="userSpaceOnUse" gradientTransform="translate(178.787 95.721) rotate(-2.9358) scale(5.68143 11.6539)">
<stop stop-color="#374353"/>
<stop offset="1" stop-color="#00023F"/>
</radialGradient>
<linearGradient id="paint22_linear_74_256" x1="119.744" y1="262.863" x2="-77.8795" y2="333.983" gradientUnits="userSpaceOnUse">
<stop stop-color="#165ABF"/>
<stop offset="0.310417" stop-color="#4845D8"/>
<stop offset="0.585928" stop-color="#7088DE"/>
<stop offset="1" stop-color="#5875DB"/>
</linearGradient>
<linearGradient id="paint23_linear_74_256" x1="213.322" y1="178.834" x2="174.262" y2="172.375" gradientUnits="userSpaceOnUse">
<stop stop-color="#2E16BF"/>
<stop offset="0.310417" stop-color="#5A45D8"/>
<stop offset="0.585928" stop-color="#7088DE"/>
<stop offset="1" stop-color="#5894DB"/>
</linearGradient>
<radialGradient id="paint24_radial_74_256" cx="0" cy="0" r="1" gradientUnits="userSpaceOnUse" gradientTransform="translate(75.5928 172.396) rotate(180) scale(117.236 130.123)">
<stop stop-color="white"/>
<stop offset="0.630208" stop-color="#FFE5D7"/>
<stop offset="0.979167" stop-color="#FFEAE3"/>
</radialGradient>
<linearGradient id="paint25_linear_74_256" x1="-15.6184" y1="233.628" x2="161.038" y2="12.3435" gradientUnits="userSpaceOnUse">
<stop stop-color="#165ABF"/>
<stop offset="0.310417" stop-color="#4845D8"/>
<stop offset="0.585928" stop-color="#7088DE"/>
<stop offset="1" stop-color="#5875DB"/>
</linearGradient>
<linearGradient id="paint26_linear_74_256" x1="60.2135" y1="224.692" x2="60.2135" y2="185.45" gradientUnits="userSpaceOnUse">
<stop stop-color="#EAEFFF"/>
<stop offset="0.99" stop-color="#B586E2"/>
</linearGradient>
<radialGradient id="paint27_radial_74_256" cx="0" cy="0" r="1" gradientUnits="userSpaceOnUse" gradientTransform="translate(64.4185 103.604) rotate(164.148) scale(41.8568 54.4688)">
<stop stop-color="#5A45D8"/>
<stop offset="0.99" stop-color="#7088DE"/>
</radialGradient>
<radialGradient id="paint28_radial_74_256" cx="0" cy="0" r="1" gradientUnits="userSpaceOnUse" gradientTransform="translate(66.4941 102.674) scale(34.4406 45.8079)">
<stop stop-color="#EAEFFF"/>
<stop offset="0.99" stop-color="#D2B5ED"/>
</radialGradient>
<linearGradient id="paint29_linear_74_256" x1="113.653" y1="185.208" x2="24.52" y2="159.307" gradientUnits="userSpaceOnUse">
<stop stop-color="#165ABF"/>
<stop offset="0.310417" stop-color="#4845D8"/>
<stop offset="0.585928" stop-color="#7088DE"/>
<stop offset="1" stop-color="#5875DB"/>
</linearGradient>
<radialGradient id="paint30_radial_74_256" cx="0" cy="0" r="1" gradientUnits="userSpaceOnUse" gradientTransform="translate(200.766 165.003) rotate(144.951) scale(14.3593 33.4332)">
<stop stop-color="#5A45D8"/>
<stop offset="0.99" stop-color="#7088DE"/>
</radialGradient>
<radialGradient id="paint31_radial_74_256" cx="0" cy="0" r="1" gradientUnits="userSpaceOnUse" gradientTransform="translate(115.84 179.145) rotate(54.7747) scale(35.3887 35.3882)">
<stop offset="0.01" stop-color="#FF7C77"/>
<stop offset="0.19" stop-color="#FF9F9B"/>
<stop offset="0.44" stop-color="#FFC8C6"/>
<stop offset="0.67" stop-color="#FFE6E5"/>
<stop offset="0.87" stop-color="#FFF8F8"/>
<stop offset="1" stop-color="white"/>
</radialGradient>
<linearGradient id="paint32_linear_74_256" x1="8.73079" y1="302.406" x2="28.2477" y2="302.406" gradientUnits="userSpaceOnUse">
<stop offset="0.01" stop-color="#3F667D"/>
<stop offset="1" stop-color="#29698F"/>
</linearGradient>
<linearGradient id="paint33_linear_74_256" x1="21.3671" y1="283.245" x2="48.4583" y2="283.245" gradientUnits="userSpaceOnUse">
<stop offset="0.01" stop-color="#3F667D"/>
<stop offset="1" stop-color="#29698F"/>
</linearGradient>
<radialGradient id="paint34_radial_74_256" cx="0" cy="0" r="1" gradientUnits="userSpaceOnUse" gradientTransform="translate(162.748 205.184) scale(47.8268 118.137)">
<stop stop-color="#E36E92"/>
<stop offset="1" stop-color="#7A5FAC"/>
</radialGradient>
<linearGradient id="paint35_linear_74_256" x1="152.905" y1="192.968" x2="152.905" y2="114.878" gradientUnits="userSpaceOnUse">
<stop stop-color="#8D224B"/>
<stop offset="1" stop-color="#5E0052"/>
</linearGradient>
<radialGradient id="paint36_radial_74_256" cx="0" cy="0" r="1" gradientUnits="userSpaceOnUse" gradientTransform="translate(101.535 122.997) rotate(180) scale(123.026 123.031)">
<stop stop-color="#EAEFFF"/>
<stop offset="0.99" stop-color="#D2CFED"/>
</radialGradient>
<linearGradient id="paint37_linear_74_256" x1="118.277" y1="179.132" x2="176.078" y2="179.132" gradientUnits="userSpaceOnUse">
<stop stop-color="#9C097C"/>
<stop offset="1" stop-color="#D6424B"/>
</linearGradient>
<radialGradient id="paint38_radial_74_256" cx="0" cy="0" r="1" gradientUnits="userSpaceOnUse" gradientTransform="translate(67.7638 115.553) scale(21.0185 29.6048)">
<stop stop-color="#3F70C0"/>
<stop offset="1" stop-color="#1F4B90"/>
</radialGradient>
<radialGradient id="paint39_radial_74_256" cx="0" cy="0" r="1" gradientUnits="userSpaceOnUse" gradientTransform="translate(70.3861 111.879) scale(12.4327 17.5116)">
<stop stop-color="#374353"/>
<stop offset="1" stop-color="#00023F"/>
</radialGradient>
<radialGradient id="paint40_radial_74_256" cx="0" cy="0" r="1" gradientUnits="userSpaceOnUse" gradientTransform="translate(123.883 205.586) scale(62.8067 83.5365)">
<stop stop-color="#5997FF"/>
<stop offset="1" stop-color="#0093FF"/>
</radialGradient>
<linearGradient id="paint41_linear_74_256" x1="65.8192" y1="215.823" x2="65.8192" y2="167.77" gradientUnits="userSpaceOnUse">
<stop offset="0.01" stop-color="#B586E2"/>
<stop offset="1" stop-color="#EAEFFF"/>
</linearGradient>
<linearGradient id="paint42_linear_74_256" x1="26.879" y1="181.55" x2="39.2903" y2="181.55" gradientUnits="userSpaceOnUse">
<stop stop-color="#EAEFFF"/>
<stop offset="0.99" stop-color="#B586E2"/>
</linearGradient>
<linearGradient id="paint43_linear_74_256" x1="0.0502582" y1="203.018" x2="62.857" y2="203.018" gradientUnits="userSpaceOnUse">
<stop stop-color="#EAEFFF"/>
<stop offset="0.99" stop-color="#B586E2"/>
</linearGradient>
<radialGradient id="paint44_radial_74_256" cx="0" cy="0" r="1" gradientUnits="userSpaceOnUse" gradientTransform="translate(126.564 73.0117) scale(29.2848 29.286)">
<stop stop-color="#9DEFFF"/>
<stop offset="1" stop-color="#00C9FF"/>
</radialGradient>
<radialGradient id="paint45_radial_74_256" cx="0" cy="0" r="1" gradientUnits="userSpaceOnUse" gradientTransform="translate(63.4756 123.297) scale(15.2798 15.2805)">
<stop stop-color="#EAEFFF"/>
<stop offset="0.99" stop-color="#D2B5ED"/>
</radialGradient>
<radialGradient id="paint46_radial_74_256" cx="0" cy="0" r="1" gradientUnits="userSpaceOnUse" gradientTransform="translate(78.3055 133.609) scale(27.185 27.1861)">
<stop stop-color="#E0E7FF"/>
<stop offset="1" stop-color="#9A93D6"/>
</radialGradient>
<radialGradient id="paint47_radial_74_256" cx="0" cy="0" r="1" gradientUnits="userSpaceOnUse" gradientTransform="translate(61.7133 177.107) scale(13.03 13.0306)">
<stop stop-color="#E0E7FF"/>
<stop offset="1" stop-color="#9A93D6"/>
</radialGradient>
<radialGradient id="paint48_radial_74_256" cx="0" cy="0" r="1" gradientUnits="userSpaceOnUse" gradientTransform="translate(201.688 165.782) scale(14.3049 14.3055)">
<stop stop-color="#E0E7FF"/>
<stop offset="1" stop-color="#9A93D6"/>
</radialGradient>
<radialGradient id="paint49_radial_74_256" cx="0" cy="0" r="1" gradientUnits="userSpaceOnUse" gradientTransform="translate(15.2739 159.164) scale(36.2029 36.2045)">
<stop stop-color="#E0E7FF"/>
<stop offset="1" stop-color="#9A93D6"/>
</radialGradient>
<radialGradient id="paint50_radial_74_256" cx="0" cy="0" r="1" gradientUnits="userSpaceOnUse" gradientTransform="translate(150.88 191.093) scale(22.3667 22.3677)">
<stop stop-color="#E0E7FF"/>
<stop offset="1" stop-color="#9A93D6"/>
</radialGradient>
<radialGradient id="paint51_radial_74_256" cx="0" cy="0" r="1" gradientUnits="userSpaceOnUse" gradientTransform="translate(155.323 197.074) scale(17.0609 17.0617)">
<stop offset="0.01" stop-color="#E590CE"/>
<stop offset="0.23" stop-color="#E693CF"/>
<stop offset="0.41" stop-color="#E89ED4"/>
<stop offset="0.58" stop-color="#ECAFDC"/>
<stop offset="0.74" stop-color="#F2C7E6"/>
<stop offset="0.9" stop-color="#F9E6F4"/>
<stop offset="1" stop-color="white"/>
</radialGradient>
<radialGradient id="paint52_radial_74_256" cx="0" cy="0" r="1" gradientUnits="userSpaceOnUse" gradientTransform="translate(134.569 212.825) scale(11.1365 27.5083)">
<stop stop-color="#E0E7FF"/>
<stop offset="1" stop-color="#9A93D6"/>
</radialGradient>
<radialGradient id="paint53_radial_74_256" cx="0" cy="0" r="1" gradientUnits="userSpaceOnUse" gradientTransform="translate(150.149 184.981) rotate(180) scale(23.4916 23.4926)">
<stop stop-color="#EAEFFF"/>
<stop offset="0.99" stop-color="#D2CFED"/>
</radialGradient>
<clipPath id="clip0_74_256">
<rect width="54.8422" height="54.8422" fill="white" transform="translate(156.034 268.165) rotate(25.4129)"/>
</clipPath>
</defs>
</svg>
