<svg width="1440" height="680" viewBox="0 0 1440 680" fill="none" xmlns="http://www.w3.org/2000/svg">
<mask id="mask0_72_723" style="mask-type:alpha" maskUnits="userSpaceOnUse" x="0" y="0" width="1440" height="680">
<rect width="1440" height="680" fill="#0008BF"/>
</mask>
<g mask="url(#mask0_72_723)">
</g>
<mask id="mask1_72_723" style="mask-type:alpha" maskUnits="userSpaceOnUse" x="0" y="0" width="1440" height="680">
<rect width="1440" height="680" fill="#0008BF"/>
</mask>
<g mask="url(#mask1_72_723)">
<g opacity="0.3">
<g opacity="0.69">
<path opacity="0.69" d="M234.949 470.81C242.846 448.105 253.376 424.084 262.59 402.037C282.992 405.328 282.992 405.328 282.992 405.328C282.992 405.328 282.992 405.328 265.881 392.823C280.03 355.64 292.205 314.836 300.103 276.008C314.91 275.02 314.91 275.02 314.91 275.02C314.91 275.02 314.91 275.02 302.077 266.136C309.645 225.991 313.923 185.187 314.581 144.055C332.351 202.298 337.616 267.452 333.667 328.328C320.175 333.264 320.175 333.264 320.175 333.264C320.175 333.264 320.175 333.264 332.68 337.871C327.415 388.217 313.265 451.067 295.167 498.122C277.727 494.832 277.727 494.832 277.727 494.832C277.727 494.832 277.727 494.832 289.902 510.626C272.791 559.985 256.996 624.481 247.782 669.562C241.201 670.549 232.975 671.207 232.975 671.207C232.975 671.207 238.569 675.814 245.808 680.75C235.936 732.412 231 769.596 231 769.596L213.231 766.634C213.231 766.634 198.423 680.421 206.979 587.626C223.761 589.6 223.761 589.6 223.761 589.6C223.761 589.6 223.761 589.6 208.295 576.109C213.231 543.203 222.445 503.387 234.949 470.81Z" fill="black"/>
<path opacity="0.69" d="M220.471 768.279C210.27 649.489 240.214 559.985 269.5 473.443C295.825 394.469 323.466 312.862 319.847 209.209H321.492C325.112 313.191 297.8 394.798 271.146 474.101C242.189 560.314 212.244 649.818 222.445 768.279H220.471Z" fill="black"/>
</g>
<g opacity="0.69">
<path opacity="0.69" d="M54.2949 544.849C48.3718 527.737 40.4744 509.639 33.5642 492.857C18.0984 495.49 18.0984 495.49 18.0984 495.49C18.0984 495.49 18.0984 495.49 30.9317 486.276C20.0727 458.306 11.1881 427.704 5.26507 398.088C-5.92296 397.43 -5.92296 397.43 -5.92296 397.43C-5.92296 397.43 -5.92296 397.43 3.94883 390.849C-1.64518 360.576 -4.93578 329.973 -5.5939 299.042C-19.0853 343.136 -23.034 391.836 -20.0725 437.904C-9.87167 441.524 -9.87167 441.524 -9.87167 441.524C-9.87167 441.524 -9.87167 441.524 -19.4144 444.815C-15.4657 482.656 -4.93578 530.041 8.88472 565.579C22.0471 563.276 22.0471 563.276 22.0471 563.276C22.0471 563.276 22.0471 563.276 12.8334 575.122C25.6667 612.306 37.5129 660.677 44.4231 694.899C49.359 695.557 55.6112 696.215 55.6112 696.215C55.6112 696.215 51.3334 699.835 46.0684 703.455C53.6368 742.613 57.2565 770.583 57.2565 770.583L70.4188 768.279C70.4188 768.279 81.6069 703.455 75.0257 633.365C62.1924 635.011 62.1924 635.011 62.1924 635.011C62.1924 635.011 62.1924 635.011 73.7094 624.81C70.7479 599.472 64.1667 569.528 54.2949 544.849Z" fill="black"/>
<path opacity="0.69" d="M65.483 768.938H63.8377C71.4061 679.763 49.03 612.635 26.983 547.481C7.23948 487.921 -13.4913 426.387 -10.8588 348.072H-9.2135C-11.846 426.058 8.88477 487.592 28.6283 547.152C50.6753 611.977 73.0514 679.434 65.483 768.938Z" fill="black"/>
</g>
<g opacity="0.69">
<path opacity="0.69" d="M142.812 494.173C133.927 473.114 122.081 451.396 112.209 430.994C93.124 435.601 93.124 435.601 93.124 435.601C93.124 435.601 93.124 435.601 108.261 422.768C92.1368 388.546 78.3163 351.033 68.1155 314.507C53.9659 314.837 53.9659 314.837 53.9659 314.837C53.9659 314.837 53.9659 314.837 65.483 305.623C55.6112 268.11 48.701 229.939 45.4104 191.11C32.5771 247.379 31.919 309.243 39.8164 366.499C52.9788 370.447 52.9788 370.447 52.9788 370.447C52.9788 370.447 52.9788 370.447 41.4617 375.712C49.6882 422.439 67.4574 481.34 87.8591 524.447C103.983 520.169 103.983 520.169 103.983 520.169C103.983 520.169 103.983 520.169 93.4531 535.964C113.197 581.374 132.282 641.263 144.128 683.382C150.38 683.711 158.278 684.04 158.278 684.04C158.278 684.04 153.342 688.976 146.761 693.912C159.923 742.284 166.833 777.164 166.833 777.164L183.286 773.215C183.286 773.215 191.513 690.621 177.034 603.421C161.239 606.382 161.239 606.382 161.239 606.382C161.239 606.382 161.239 606.382 174.731 592.562C168.15 561.301 156.962 524.118 142.812 494.173Z" fill="black"/>
<path opacity="0.69" d="M176.705 774.531H175.06C176.376 661.664 142.154 579.4 108.919 499.767C78.3167 426.716 47.056 351.362 43.1073 252.644H44.7526C48.3723 350.704 79.962 426.058 110.235 499.109C143.799 579.071 178.351 661.664 176.705 774.531Z" fill="black"/>
</g>
<g opacity="0.69">
<path opacity="0.69" d="M265.551 108.846C254.692 75.2818 255.679 48.9572 275.751 20C245.807 48.9572 234.29 92.722 224.747 134.512C231.657 137.474 238.239 141.752 238.239 141.752C238.239 141.752 229.025 139.448 223.431 140.435C220.14 155.243 215.863 172.683 211.585 186.504C208.623 196.046 205.662 205.589 202.371 215.132C212.901 219.41 222.444 226.32 222.444 226.32C222.444 226.32 208.623 222.371 199.739 222.7C192.17 245.076 184.931 267.123 179.995 290.157C173.085 322.734 171.44 356.627 169.794 390.191C180.324 392.823 190.525 397.43 190.525 397.43C190.525 397.43 176.376 395.127 169.465 397.759C167.162 436.259 171.44 456.003 171.44 456.003C176.705 473.443 181.97 490.225 187.564 496.477C178.679 459.622 210.598 413.883 240.871 323.721C236.593 319.114 226.393 315.166 226.393 315.166C226.393 315.166 234.948 316.153 242.516 318.456C245.149 310.559 247.452 302.661 250.085 294.106C241.529 287.854 231.328 284.234 231.328 284.234C231.328 284.234 243.504 283.905 252.717 285.221C256.008 273.375 259.298 260.871 262.26 247.709C266.538 231.585 269.828 213.157 271.803 196.375C261.931 194.73 254.034 192.098 254.034 192.098C254.034 192.098 265.222 191.769 272.461 188.478C274.435 163.141 273.448 133.196 265.551 108.846Z" fill="black"/>
<path opacity="0.69" d="M185.589 495.161C177.033 479.366 170.781 456.332 170.452 456.003L172.097 455.674C172.097 456.003 178.679 479.037 186.905 494.502L185.589 495.161Z" fill="black"/>
<path opacity="0.69" d="M207.307 768.608C204.346 719.908 193.816 683.053 183.615 647.515C167.491 591.904 153.67 543.861 173.743 465.545L175.388 465.874C155.316 543.532 169.136 591.575 185.26 646.857C195.461 682.395 206.32 719.25 209.282 768.279L207.307 768.608Z" fill="black"/>
<path opacity="0.69" d="M200.068 426.387C194.474 400.392 206.65 341.819 220.47 274.362C234.62 205.589 250.743 127.602 249.756 72.3203H251.402C252.389 127.602 236.265 205.589 222.115 274.691C208.295 342.148 196.12 400.392 201.714 426.058L200.068 426.387Z" fill="black"/>
</g>
<g opacity="0.69">
<path opacity="0.69" d="M318.859 731.754C338.273 764.331 339.919 790.655 313.923 821.258C354.397 789.997 366.572 745.574 375.786 703.455C365.256 701.151 355.384 697.203 355.384 697.203C355.384 697.203 368.876 698.848 377.102 697.203C380.393 682.395 384.342 664.626 389.277 650.147C392.568 640.275 395.859 630.733 399.478 620.861C384.012 617.241 368.876 611.318 368.876 611.318C368.876 611.318 389.277 614.28 402.44 613.293C410.995 590.588 419.222 567.883 423.829 544.519C430.081 511.284 429.094 477.391 427.777 444.157C411.983 442.511 396.846 438.562 396.846 438.562C396.846 438.562 417.577 439.879 427.448 436.588C426.79 398.088 418.235 378.674 418.235 378.674C408.692 361.563 399.478 345.439 390.265 339.516C407.047 375.383 365.914 423.426 331.692 515.891C338.273 520.169 353.739 523.46 353.739 523.46C353.739 523.46 341.235 523.131 329.718 521.485C326.756 529.383 324.124 537.609 321.491 546.494C334.654 552.088 350.119 554.72 350.119 554.72C350.119 554.72 332.679 555.707 318.859 555.049C315.239 567.224 311.948 579.729 308.987 593.22C304.38 609.673 301.748 628.429 300.431 645.211C314.91 646.199 326.756 647.844 326.756 647.844C326.756 647.844 310.632 648.831 300.431 652.78C299.773 678.117 304.709 707.732 318.859 731.754Z" fill="black"/>
<path opacity="0.69" d="M343.538 766.963C329.717 678.775 356.7 573.806 378.089 489.238C394.213 426.058 407.046 376.041 397.503 353.995L399.149 353.336C408.691 375.712 395.858 426.058 379.734 489.567C358.345 573.806 331.362 678.775 345.183 766.634L343.538 766.963Z" fill="black"/>
</g>
</g>
</g>
</svg>
