<svg width="1440" height="281" viewBox="0 0 1440 281" fill="none" xmlns="http://www.w3.org/2000/svg">
<g clip-path="url(#clip0_72_1317)">
<path d="M-64.0607 346.864C-55.9806 323.424 -47.3619 299.1 -26.8923 281.852C-13.4254 270.354 3.27345 262.835 19.4336 253.99C74.3783 223.917 116.395 179.691 149.793 132.37C177.265 94.3364 203.66 50.5533 253.218 33.7476C290.386 21.3645 332.403 27.1138 370.11 39.0547C407.278 50.9955 441.215 68.6857 478.383 81.0688C582.886 116.449 700.855 107.162 813.438 97.4322C889.93 90.7984 966.96 84.1646 1043.45 77.5308C1066.08 75.7618 1090.32 73.9927 1110.79 82.8378C1124.79 89.0294 1135.03 99.6435 1145.8 109.373C1249.22 206.227 1411.9 247.356 1568.66 254.875C1625.22 257.528 1689.32 258.855 1727.57 293.351C1749.65 313.252 1759.35 341.114 1782.51 359.689C1797.59 371.63 1816.99 378.706 1832.07 390.647C1847.15 402.145 1857.93 421.162 1848.23 436.199C1839.07 449.909 1817.53 454.331 1798.67 456.543C1216.37 534.379 623.286 526.861 33.4391 517.131C-6.42268 516.689 -88.301 525.092 -102.845 483.078C-115.235 445.928 -76.4502 383.128 -64.0607 346.864Z" fill="#243160"/>
<path d="M292.54 224.802C343.714 216.399 384.653 179.249 414.28 114.68C421.822 96.548 440.137 84.6071 458.99 73.993C457.374 73.1085 455.219 72.6662 453.603 71.7817C434.75 82.3958 416.974 94.3367 409.432 112.911C380.883 175.711 341.021 211.976 292.001 219.937C237.057 228.782 176.725 202.689 122.858 166.866C121.781 168.193 120.703 169.078 119.626 170.404C167.029 201.804 219.281 226.128 269.377 226.128C276.919 226.571 284.46 226.128 292.54 224.802Z" fill="#151840"/>
<path d="M682.001 229.667L687.387 233.205C701.393 242.492 716.476 253.548 731.02 264.605C735.329 268.143 739.639 271.681 743.948 275.219C756.338 285.833 769.266 296.889 784.887 304.408C805.357 314.579 829.058 322.982 856.531 329.616C894.777 338.903 927.097 342.884 954.031 342.884C1029.44 342.884 1064.46 312.368 1079.54 290.255C1104.32 253.548 1159.8 242.05 1248.68 255.317C1285.85 260.624 1322.48 269.027 1358.04 277.43C1388.74 284.506 1421.06 291.582 1452.84 297.331C1489.47 303.523 1565.96 316.348 1600.98 276.545C1606.36 270.796 1610.13 264.162 1613.37 257.529C1611.75 257.529 1609.6 257.086 1607.98 257.086C1605.29 263.278 1601.52 269.027 1597.21 273.892C1568.12 307.061 1511.02 302.638 1454.46 292.909C1422.68 287.602 1390.89 280.084 1359.65 273.45C1324.1 265.489 1286.93 256.644 1249.76 251.337C1158.19 237.627 1101.09 250.01 1075.23 288.486C1029.44 356.151 919.556 340.672 858.685 325.636C831.752 319.002 808.589 310.599 788.658 300.869C773.575 293.351 760.647 282.737 748.796 272.123C744.487 268.585 740.177 265.047 735.868 261.509C721.324 250.01 705.702 239.396 692.235 229.667L686.849 226.129C637.291 192.075 578.575 151.83 583.423 102.74C581.807 102.74 580.191 102.297 578.037 102.297C572.111 154.041 634.059 196.94 682.001 229.667Z" fill="#151840"/>
<path d="M222.512 159.79C239.75 165.982 260.22 169.962 279.612 169.962C294.156 169.962 308.162 167.751 318.396 161.559C331.863 154.041 338.866 141.658 338.866 125.294C338.866 118.218 335.095 110.258 331.863 102.739C328.092 93.8942 323.783 84.1646 325.938 76.6463C329.17 65.1477 345.33 58.9562 360.952 52.7646C368.493 49.6688 376.034 47.0153 381.96 43.4773C381.96 43.4773 382.498 43.4773 382.498 43.035C380.344 42.1505 378.728 41.7082 376.573 40.8237C371.725 43.4773 365.261 46.1308 358.797 48.3421C343.175 54.5336 325.399 61.1674 321.09 74.8773C318.396 83.7224 322.706 93.8942 327.015 103.624C330.247 110.7 333.479 118.218 333.479 124.41C333.479 139.446 327.554 150.503 315.703 157.137C293.079 169.52 252.678 164.655 224.667 154.925C201.504 146.522 177.803 133.697 160.026 117.334C158.949 118.66 158.41 119.987 157.333 121.314C175.109 138.562 198.811 151.387 222.512 159.79Z" fill="#151840"/>
<path d="M151.407 268.142C176.725 277.429 203.12 286.717 229.515 294.235C266.683 304.849 300.081 311.483 331.863 314.579C364.722 317.675 395.965 319.444 425.053 303.522C430.44 300.869 435.288 297.331 439.597 294.235C444.984 290.697 450.371 287.159 456.296 284.063C499.929 261.951 566.186 270.796 601.738 277.872C650.757 288.044 698.161 306.618 741.254 333.153C779.5 356.593 772.497 390.204 759.569 423.373C757.953 428.238 755.799 432.661 753.644 437.525C742.87 463.176 731.558 489.711 740.716 516.689L746.102 515.362C737.484 490.154 748.257 464.061 759.031 438.852C761.185 433.987 763.34 429.123 764.956 424.7C778.423 390.204 785.426 354.824 745.025 329.615C700.854 302.638 653.451 283.621 603.354 273.449C567.263 265.931 499.39 257.086 454.142 280.083C448.216 283.179 442.291 287.159 436.904 290.697C432.056 293.793 427.747 296.889 422.36 299.542C394.887 314.579 364.722 312.81 332.94 309.714C301.697 306.618 268.838 299.984 231.669 289.37C205.274 281.852 178.879 272.565 154.1 263.277C133.631 255.759 112.623 248.241 91.0757 241.607C79.2249 237.627 66.2967 234.089 53.3686 231.435C51.7525 232.762 50.1365 233.646 48.5205 234.973C62.526 237.627 75.9928 241.607 89.4597 245.587C109.929 253.548 130.938 261.066 151.407 268.142Z" fill="#151840"/>
<path d="M811.283 215.514C824.211 215.514 836.6 212.861 848.451 207.553C871.614 197.382 889.929 181.018 901.78 160.232C907.705 149.618 910.398 138.562 913.092 127.948C916.324 116.007 919.017 104.508 926.02 93.8942C927.636 91.6829 929.252 89.4717 930.868 87.7026C928.713 87.7026 926.559 88.1449 923.865 88.1449C922.788 89.4717 922.249 90.7984 921.172 91.6829C913.63 102.739 910.937 115.122 907.705 127.063C905.012 137.677 902.318 148.734 896.393 158.463C885.081 178.365 867.304 193.844 845.219 203.573C812.898 217.725 773.037 210.207 744.487 184.556C721.863 164.213 707.857 135.908 703.548 105.393C701.932 105.393 699.777 105.393 698.161 105.393C702.471 137.235 717.015 166.424 740.716 187.652C761.186 206.227 786.504 215.514 811.283 215.514Z" fill="#151840"/>
<path d="M1013.29 252.221C1017.06 253.106 1020.83 253.99 1025.67 253.99C1042.91 253.99 1066.61 245.587 1095.7 214.187C1105.4 204.9 1124.25 204.9 1145.8 204.9C1177.58 204.458 1215.29 204.458 1236.3 175.269C1234.68 174.384 1233.06 173.5 1231.99 173.058C1212.59 200.477 1177.58 200.477 1145.8 200.92C1123.71 200.92 1102.71 201.362 1091.39 211.976C1062.84 242.049 1036.45 254.875 1014.9 249.125C991.739 242.934 976.117 216.399 975.04 181.018C973.962 145.638 988.507 105.393 1022.98 81.0688C1020.29 81.5111 1017.06 81.5111 1014.36 81.9534C989.045 101.855 968.576 134.582 969.653 181.461C970.73 216.841 987.968 245.145 1013.29 252.221Z" fill="#151840"/>
<path d="M561.876 191.19C521.476 167.309 447.678 158.464 430.979 170.847C399.736 184.999 385.73 198.709 389.501 211.092C397.581 237.185 478.921 247.799 528.479 248.241C530.095 248.241 531.172 248.241 532.788 248.241C552.18 248.241 580.191 246.914 582.885 238.511C592.581 221.706 585.578 204.9 561.876 191.19ZM578.037 237.185C576.959 240.281 562.954 244.703 528.479 244.261C469.225 243.376 400.813 230.551 394.888 210.207C391.656 200.035 405.122 187.652 434.211 174.827L434.749 174.385C438.52 171.289 447.678 169.962 459.528 169.962C487.539 169.962 531.711 178.365 559.183 195.171C573.727 203.573 588.81 217.726 578.037 237.185Z" fill="#151840"/>
<rect y="102.705" width="1440" height="176.652" fill="url(#paint0_linear_72_1317)"/>
</g>
<defs>
<linearGradient id="paint0_linear_72_1317" x1="720" y1="102.705" x2="720" y2="279.357" gradientUnits="userSpaceOnUse">
<stop stop-color="#243160" stop-opacity="0"/>
<stop offset="1" stop-color="#243160"/>
</linearGradient>
<clipPath id="clip0_72_1317">
<rect width="1957" height="281" fill="white" transform="translate(-105)"/>
</clipPath>
</defs>
</svg>
