<svg width="592" height="608" viewBox="0 0 592 608" fill="none" xmlns="http://www.w3.org/2000/svg">
<path style="mix-blend-mode:color-dodge" d="M111.277 68.7274C110.079 70.2864 106.645 69.6582 103.585 67.3261C100.525 64.994 99.0334 61.8416 100.215 60.247C101.396 58.6524 104.846 59.3162 107.907 61.6483C110.967 63.9804 112.468 67.1701 111.277 68.7274Z" fill="url(#paint0_radial_74_14)"/>
<g style="mix-blend-mode:screen" opacity="0.1">
<path d="M110.359 101.101C124.097 93.0114 128.675 75.3116 120.585 61.5678C112.495 47.8239 94.8005 43.2406 81.0631 51.3306C67.3257 59.4205 62.7475 77.1203 70.8374 90.8641C78.9273 104.608 96.6219 109.191 110.359 101.101Z" fill="url(#paint1_radial_74_14)" style="mix-blend-mode:screen"/>
<path d="M110.359 101.101C124.097 93.0114 128.675 75.3116 120.585 61.5678C112.495 47.8239 94.8005 43.2406 81.0631 51.3306C67.3257 59.4205 62.7475 77.1203 70.8374 90.8641C78.9273 104.608 96.6219 109.191 110.359 101.101Z" fill="url(#paint2_radial_74_14)" style="mix-blend-mode:screen"/>
</g>
<path style="mix-blend-mode:screen" d="M99.4961 103.3C92.1047 104.282 84.6231 102.319 78.6642 97.8338C72.7052 93.3489 68.7463 86.7015 67.6407 79.3247C67.6823 79.4798 67.6665 79.6438 67.6912 79.8101C68.6854 87.2879 72.6083 94.0648 78.5969 98.6502C84.5855 103.236 92.1493 105.254 99.6242 104.261C107.099 103.268 113.873 99.3446 118.455 93.3549C123.038 87.3651 125.054 79.7991 124.06 72.3214C124.018 72.1663 123.976 72.0111 123.984 71.8426C124.842 79.2518 122.756 86.701 118.176 92.5851C113.595 98.4692 106.887 102.317 99.4961 103.3Z" fill="url(#paint3_linear_74_14)"/>
<path style="mix-blend-mode:screen" d="M92.125 49.2387C99.6247 48.243 107.216 50.234 113.264 54.7827C119.311 59.3315 123.332 66.0742 124.458 73.5584C124.415 73.397 124.429 73.2269 124.405 73.0605C123.298 65.554 119.283 58.7842 113.227 54.2146C107.171 49.645 99.5614 47.643 92.0428 48.6414C84.5242 49.6398 77.7011 53.5583 73.0487 59.5498C68.3963 65.5412 66.2885 73.1242 67.181 80.659C67.2244 80.8204 67.2677 80.9817 67.2614 81.1564C66.3952 73.637 68.5156 66.0786 73.166 60.1089C77.8163 54.1391 84.6247 50.2355 92.125 49.2387Z" fill="url(#paint4_linear_74_14)"/>
<path style="mix-blend-mode:screen" d="M74.8333 63.3087C77.5241 52.9191 90.0215 47.1754 102.756 50.4896C115.491 53.8039 123.621 64.8879 120.936 75.2759C118.251 85.6638 105.768 91.3839 93.0116 88.0887C80.2556 84.7936 72.1409 73.6921 74.8333 63.3087Z" fill="url(#paint5_linear_74_14)"/>
<path style="mix-blend-mode:color-dodge" d="M522.802 145.397C522.158 146.237 520.309 145.898 518.662 144.643C517.015 143.388 516.212 141.691 516.848 140.833C517.484 139.974 519.341 140.332 520.988 141.587C522.635 142.842 523.444 144.559 522.802 145.397Z" fill="url(#paint6_radial_74_14)"/>
<g style="mix-blend-mode:screen" opacity="0.1">
<path d="M522.308 162.824C529.703 158.469 532.167 148.942 527.812 141.543C523.458 134.145 513.933 131.678 506.538 136.033C499.143 140.388 496.679 149.915 501.034 157.313C505.388 164.712 514.913 167.179 522.308 162.824Z" fill="url(#paint7_radial_74_14)" style="mix-blend-mode:screen"/>
<path d="M522.308 162.824C529.703 158.469 532.167 148.942 527.812 141.543C523.458 134.145 513.933 131.678 506.538 136.033C499.143 140.388 496.679 149.915 501.034 157.313C505.388 164.712 514.913 167.179 522.308 162.824Z" fill="url(#paint8_radial_74_14)" style="mix-blend-mode:screen"/>
</g>
<path style="mix-blend-mode:screen" d="M516.461 164.008C512.483 164.536 508.455 163.479 505.248 161.065C502.04 158.651 499.909 155.073 499.314 151.102C499.336 151.185 499.328 151.274 499.341 151.363C499.876 155.388 501.988 159.036 505.212 161.505C508.435 163.973 512.507 165.059 516.53 164.525C520.554 163.99 524.2 161.878 526.667 158.654C529.134 155.43 530.219 151.357 529.684 147.332C529.661 147.249 529.639 147.165 529.643 147.074C530.105 151.063 528.982 155.072 526.516 158.24C524.051 161.407 520.44 163.479 516.461 164.008Z" fill="url(#paint9_linear_74_14)"/>
<path style="mix-blend-mode:screen" opacity="0.5" d="M512.493 134.907C516.53 134.371 520.617 135.443 523.872 137.891C527.128 140.34 529.292 143.969 529.898 147.998C529.875 147.911 529.883 147.819 529.869 147.73C529.274 143.689 527.112 140.045 523.853 137.585C520.593 135.126 516.496 134.048 512.449 134.585C508.402 135.123 504.729 137.232 502.225 140.457C499.72 143.682 498.586 147.764 499.066 151.82C499.09 151.907 499.113 151.994 499.11 152.088C498.643 148.04 499.785 143.972 502.288 140.758C504.791 137.545 508.456 135.443 512.493 134.907Z" fill="url(#paint10_linear_74_14)"/>
<path style="mix-blend-mode:screen" d="M503.186 142.481C504.634 136.888 511.361 133.796 518.216 135.58C525.071 137.364 529.447 143.331 528.002 148.922C526.557 154.514 519.837 157.593 512.971 155.819C506.104 154.046 501.736 148.07 503.186 142.481Z" fill="url(#paint11_linear_74_14)"/>
<path style="mix-blend-mode:screen" d="M419.664 280.214C402.579 293.299 367.966 276.92 342.34 243.539C316.714 210.159 309.773 172.327 326.813 159.375C343.853 146.423 378.51 162.669 404.137 196.05C429.763 229.43 436.703 267.084 419.664 280.214Z" fill="url(#paint12_radial_74_14)"/>
<path style="mix-blend-mode:color-dodge" d="M402.58 257.96C391.769 266.239 369.925 255.868 353.641 234.771C337.358 213.675 333.042 189.907 343.809 181.362C354.576 172.816 376.465 183.454 392.748 204.551C409.031 225.647 413.347 249.682 402.58 257.96Z" fill="url(#paint13_radial_74_14)"/>
<path style="mix-blend-mode:screen" opacity="0.1" d="M338.297 472.88C444.724 443.434 507.138 333.251 477.703 226.781C448.269 120.311 338.131 57.8713 231.703 87.318C125.276 116.765 62.8617 226.947 92.2965 333.417C121.731 439.887 231.869 502.327 338.297 472.88Z" fill="url(#paint14_radial_74_14)"/>
<path style="mix-blend-mode:screen" opacity="0.2" d="M261.681 468.082C210.472 461.374 163.949 434.804 132.141 394.099C100.333 353.395 85.7874 301.816 91.64 250.483C91.64 251.595 91.2396 252.664 91.1061 253.821C84.3273 305.63 98.3988 358.01 130.225 399.44C162.051 440.87 209.025 467.954 260.813 474.736C312.601 481.517 364.961 467.44 406.373 435.601C447.786 403.762 474.86 356.769 481.639 304.96C481.639 303.848 481.639 302.735 481.995 301.622C474.426 352.727 447.093 398.813 405.883 429.949C364.674 461.085 312.887 474.779 261.681 468.082Z" fill="url(#paint15_linear_74_14)"/>
<path style="mix-blend-mode:screen" opacity="0.2" d="M309.462 93.1918C361.421 100 408.628 126.953 440.916 168.244C473.203 209.535 487.987 261.861 482.083 313.951C482.083 312.794 482.484 311.681 482.617 310.524C488.698 258.321 473.996 205.822 441.692 164.378C409.387 122.933 362.075 95.8731 309.986 89.0486C257.896 82.2241 205.214 96.1835 163.331 127.908C121.448 159.633 93.7291 206.575 86.1674 258.583C86.1674 259.74 86.1674 260.898 85.8115 262.055C93.5218 210.197 121.281 163.443 163.112 131.859C204.942 100.276 257.498 86.3901 309.462 93.1918Z" fill="url(#paint16_linear_74_14)"/>
<path style="mix-blend-mode:screen" d="M168.518 156.259C205.178 91.5895 299.096 75.6112 378.333 120.653C457.569 165.695 492.049 254.444 455.434 319.114C418.819 383.784 325.034 399.629 245.619 354.676C166.205 309.723 131.858 220.885 168.518 156.259Z" fill="url(#paint17_linear_74_14)"/>
<g clip-path="url(#clip0_74_14)">
<path d="M387.296 456.98C410.09 463.705 434.021 450.694 440.748 427.92C447.475 405.146 434.449 381.233 411.655 374.508C388.861 367.784 364.93 380.795 358.203 403.569C351.476 426.343 364.501 450.256 387.296 456.98Z" fill="#FFFEF3"/>
<path d="M441.595 430.547C434.911 453.223 411.253 466.242 388.75 459.612C366.274 452.972 353.465 429.216 360.149 406.54C366.832 383.864 390.482 370.865 412.985 377.494C435.469 384.116 448.278 407.871 441.595 430.547Z" fill="#B37E38"/>
<path d="M440.757 428.633C434.196 450.853 410.649 463.498 388.165 456.876C365.681 450.254 352.761 426.873 359.322 404.653C365.863 382.426 389.411 369.781 411.914 376.41C434.398 383.032 447.317 406.414 440.757 428.633Z" fill="url(#paint18_linear_74_14)"/>
<path d="M432.042 425.95C426.896 443.371 408.451 453.274 390.814 448.087C373.178 442.9 363.06 424.563 368.205 407.142C373.343 389.739 391.797 379.817 409.425 385.023C427.062 390.211 437.18 408.548 432.042 425.95Z" fill="#BE8C40"/>
<path d="M431.97 427.774C426.95 444.784 408.788 454.429 391.404 449.324C374.027 444.2 363.991 426.25 369.011 409.24C374.038 392.212 392.2 382.566 409.577 387.69C426.972 392.822 436.989 410.764 431.97 427.774Z" fill="#F9EAAA"/>
<path d="M431.364 426.044C426.479 442.624 408.634 451.982 391.51 446.941C374.386 441.899 364.48 424.378 369.366 407.799C374.251 391.219 392.096 381.861 409.22 386.902C426.344 391.944 436.25 409.464 431.364 426.044Z" fill="url(#paint19_linear_74_14)"/>
<path opacity="0.2" d="M369.436 408.269C369.428 408.288 369.428 408.288 369.42 408.306C364.594 424.69 374.487 442.029 391.528 447.058C408.569 452.087 426.306 442.883 431.132 426.5C431.14 426.481 431.14 426.481 431.148 426.462L369.436 408.269Z" fill="#F3931A"/>
<g filter="url(#filter0_d_74_14)">
<path d="M408.087 393.108L402.129 391.853L401.285 396.072C393.599 395.691 389.081 398.939 387.876 405.038C387.383 407.504 387.736 409.791 388.915 411.891C390.01 413.823 392.68 415.833 396.942 417.886L394.675 429.261C391.534 427.96 389.813 425.415 389.525 421.588L383.546 425.489C385.061 430.663 386.856 432.819 393.21 435.032L392.097 440.11L398.601 441.59L399.528 436.479C403.313 436.811 406.564 435.929 408.95 434.424C411.538 432.804 413.204 430.272 413.831 427.111C414.286 424.894 413.995 422.566 413.27 420.699C412.545 418.832 411.591 417.466 410.399 416.619C409.313 415.838 407.211 414.636 404.112 413.022L406.116 402.972C408.191 403.92 409.407 405.77 409.765 408.522L416.092 407.877C415.548 402.753 412.676 399.422 407.409 397.351L408.087 393.108ZM394.47 405.342C394.789 403.775 395.589 402.694 396.882 402.126C397.874 401.699 398.985 401.519 400.178 401.616L398.331 410.914C395.282 409.606 394.001 407.752 394.47 405.342ZM407.176 426.208C406.845 427.858 405.971 429.063 404.547 429.842C403.36 430.475 402.044 430.725 400.602 430.59L402.727 419.929C406.219 421.552 407.689 423.64 407.176 426.208Z" fill="url(#paint20_linear_74_14)"/>
</g>
</g>
<path style="mix-blend-mode:screen" d="M457.285 409.083C450.702 415.418 435.319 410.16 422.916 397.3C410.513 384.441 405.78 368.812 412.351 362.536C418.921 356.259 434.317 361.459 446.72 374.318C459.123 387.178 463.847 402.731 457.285 409.083Z" fill="url(#paint21_radial_74_14)"/>
<path style="mix-blend-mode:color-dodge" d="M449.015 400.51C444.849 404.518 435.139 401.185 427.264 393.062C419.388 384.939 416.434 375.119 420.568 371C424.702 366.882 434.444 370.325 442.319 378.448C450.195 386.571 453.162 396.504 449.015 400.51Z" fill="url(#paint22_radial_74_14)"/>
<g style="mix-blend-mode:screen" opacity="0.1">
<path d="M410.961 501.837C457.422 495.58 490.02 452.828 483.77 406.35C477.52 359.871 434.788 327.265 388.327 333.523C341.866 339.781 309.268 382.532 315.518 429.011C321.769 475.489 364.5 508.095 410.961 501.837Z" fill="url(#paint23_radial_74_14)" style="mix-blend-mode:screen"/>
<path d="M410.961 501.837C457.422 495.58 490.02 452.828 483.77 406.35C477.52 359.871 434.788 327.265 388.327 333.523C341.866 339.781 309.268 382.532 315.518 429.011C321.769 475.489 364.5 508.095 410.961 501.837Z" fill="url(#paint24_radial_74_14)" style="mix-blend-mode:screen"/>
</g>
<path style="mix-blend-mode:screen" opacity="0.2" d="M379.011 495.407C357.858 489.637 339.82 475.782 328.784 456.829C317.749 437.877 314.601 415.344 320.018 394.089C319.954 394.557 319.724 394.983 319.602 395.462C313.767 416.864 316.67 439.707 327.671 458.965C338.672 478.224 356.871 492.322 378.263 498.156C399.656 503.991 422.49 501.085 441.743 490.077C460.996 479.069 475.089 460.862 480.924 439.46C480.988 438.992 481.052 438.524 481.266 438.077C475.14 459.137 460.989 476.948 441.862 487.671C422.736 498.395 400.164 501.173 379.011 495.407Z" fill="url(#paint25_linear_74_14)"/>
<path style="mix-blend-mode:screen" opacity="0.4" d="M420.697 340.471C442.16 346.327 460.464 360.382 471.667 379.609C482.87 398.836 486.076 421.697 480.593 443.268C480.66 442.781 480.892 442.336 481.015 441.857C486.579 420.249 483.418 397.321 472.216 378.028C461.015 358.735 442.672 344.629 421.155 338.759C399.638 332.889 376.675 335.727 357.231 346.659C337.788 357.592 323.425 375.74 317.25 397.181C317.183 397.668 317.117 398.154 316.9 398.621C323.13 377.252 337.498 359.184 356.912 348.308C376.325 337.432 399.231 334.618 420.697 340.471Z" fill="url(#paint26_linear_74_14)"/>
<path style="mix-blend-mode:screen" d="M357.78 358.883C376.924 333.792 417.348 332.48 448.083 355.988C478.818 379.496 488.211 418.811 469.086 443.905C449.961 468.998 409.6 470.262 378.785 446.781C347.97 423.3 338.639 383.955 357.78 358.883Z" fill="url(#paint27_linear_74_14)"/>
<g clip-path="url(#clip1_74_14)">
<path d="M540.509 251.607C549.549 249.773 555.394 240.964 553.565 231.931C551.736 222.897 542.925 217.061 533.886 218.895C524.846 220.728 519.001 229.538 520.83 238.571C522.659 247.604 531.47 253.44 540.509 251.607Z" fill="#FFFEF3"/>
<path d="M554.333 232.678C556.159 241.67 550.409 250.432 541.486 252.245C532.571 254.05 523.863 248.228 522.037 239.236C520.211 230.245 525.961 221.49 534.884 219.677C543.799 217.865 552.507 223.686 554.333 232.678Z" fill="#B37E38"/>
<path d="M553.698 232.174C555.483 240.987 549.703 249.6 540.789 251.413C531.874 253.225 523.196 247.552 521.41 238.739C519.617 229.927 525.397 221.313 534.32 219.5C543.234 217.688 551.913 223.361 553.698 232.174Z" fill="url(#paint28_linear_74_14)"/>
<path d="M550.221 232.836C551.621 239.746 547.092 246.493 540.101 247.917C533.11 249.341 526.309 244.889 524.91 237.979C523.511 231.077 528.038 224.322 535.031 222.906C542.022 221.482 548.823 225.934 550.221 232.836Z" fill="#BE8C40"/>
<path d="M550.528 233.475C551.896 240.221 547.418 246.828 540.528 248.234C533.637 249.633 526.935 245.299 525.567 238.553C524.198 231.799 528.676 225.192 535.567 223.793C542.465 222.394 549.16 226.729 550.528 233.475Z" fill="#F9EAAA"/>
<path d="M550.005 232.992C551.341 239.566 546.92 246.017 540.131 247.398C533.342 248.779 526.762 244.568 525.426 237.994C524.091 231.42 528.512 224.969 535.301 223.588C542.09 222.207 548.67 226.418 550.005 232.992Z" fill="url(#paint29_linear_74_14)"/>
<path opacity="0.2" d="M525.536 238.143C525.537 238.15 525.537 238.15 525.537 238.158C526.858 244.654 533.4 248.805 540.159 247.435C546.917 246.065 551.329 239.686 550.009 233.19C550.008 233.182 550.008 233.182 550.007 233.174L525.536 238.143Z" fill="#F3931A"/>
<g filter="url(#filter1_d_74_14)">
<path d="M536.04 225.922L533.768 226.574L534.245 228.174C531.54 229.44 530.58 231.374 531.274 233.685C531.553 234.621 532.09 235.341 532.875 235.847C533.602 236.311 534.883 236.515 536.717 236.445L538.006 240.759C536.692 240.883 535.64 240.323 534.846 239.062L533.504 241.486C534.963 242.986 535.97 243.399 538.551 243.004L539.092 244.948L541.592 244.275L540.982 242.353C542.34 241.78 543.295 240.887 543.84 239.937C544.433 238.911 544.545 237.74 544.186 236.542C543.939 235.699 543.416 234.954 542.829 234.445C542.241 233.936 541.666 233.641 541.103 233.567C540.589 233.496 539.649 233.466 538.293 233.475L537.155 229.664C538.039 229.612 538.792 230.026 539.415 230.905L541.468 229.534C540.351 227.875 538.761 227.255 536.578 227.501L536.04 225.922ZM533.591 232.592C533.416 231.996 533.494 231.48 533.835 231.051C534.097 230.724 534.445 230.46 534.872 230.277L535.928 233.802C534.644 233.907 533.868 233.504 533.591 232.592ZM541.739 237.441C541.925 238.067 541.845 238.639 541.497 239.165C541.205 239.598 540.799 239.922 540.28 240.138L539.073 236.095C540.565 236.018 541.449 236.467 541.739 237.441Z" fill="url(#paint30_linear_74_14)"/>
</g>
</g>
<path style="mix-blend-mode:screen" d="M562.176 230.949C559.704 233.956 552.934 232.493 547.048 227.665C541.162 222.837 538.385 216.458 540.854 213.476C543.324 210.494 550.097 211.932 555.983 216.76C561.869 221.588 564.639 227.936 562.176 230.949Z" fill="url(#paint31_radial_74_14)"/>
<path style="mix-blend-mode:color-dodge" d="M558.252 227.73C556.688 229.633 552.413 228.704 548.678 225.656C544.943 222.608 543.206 218.599 544.751 216.651C546.297 214.703 550.59 215.678 554.326 218.725C558.061 221.773 559.809 225.83 558.252 227.73Z" fill="url(#paint32_radial_74_14)"/>
<g style="mix-blend-mode:screen" opacity="0.1">
<path d="M555.757 268.233C573.297 258.673 579.765 236.699 570.205 219.151C560.646 201.604 538.678 195.129 521.139 204.689C503.599 214.249 497.131 236.224 506.691 253.771C516.25 271.319 538.218 277.793 555.757 268.233Z" fill="url(#paint33_radial_74_14)" style="mix-blend-mode:screen"/>
<path d="M555.757 268.233C573.297 258.673 579.765 236.699 570.205 219.151C560.646 201.604 538.678 195.129 521.139 204.689C503.599 214.249 497.131 236.224 506.691 253.771C516.25 271.319 538.218 277.793 555.757 268.233Z" fill="url(#paint34_radial_74_14)" style="mix-blend-mode:screen"/>
</g>
<path style="mix-blend-mode:screen" opacity="0.2" d="M542.063 270.536C532.767 271.458 523.479 268.688 516.203 262.825C508.927 256.961 504.246 248.472 503.168 239.188C503.214 239.384 503.187 239.589 503.211 239.798C504.145 249.203 508.776 257.853 516.085 263.844C523.394 269.835 532.782 272.677 542.184 271.744C551.586 270.811 560.232 266.179 566.219 258.869C572.207 251.559 575.045 242.168 574.111 232.762C574.065 232.566 574.02 232.37 574.037 232.16C574.803 241.473 571.881 250.715 565.9 257.893C559.92 265.072 551.359 269.612 542.063 270.536Z" fill="url(#paint35_linear_74_14)"/>
<path style="mix-blend-mode:screen" d="M535.078 202.529C544.511 201.594 553.935 204.403 561.319 210.35C568.704 216.298 573.458 224.909 574.558 234.328C574.511 234.124 574.535 233.911 574.511 233.702C573.438 224.256 568.691 215.611 561.297 209.637C553.904 203.663 544.457 200.84 535 201.778C525.543 202.716 516.836 207.339 510.761 214.649C504.686 221.959 501.731 231.367 502.536 240.84C502.584 241.044 502.631 241.248 502.616 241.466C501.844 232.014 504.813 222.637 510.885 215.354C516.956 208.071 525.644 203.466 535.078 202.529Z" fill="url(#paint36_linear_74_14)"/>
<path style="mix-blend-mode:screen" d="M512.84 219.43C516.641 206.532 532.53 199.858 548.34 204.538C564.149 209.217 573.869 223.435 570.076 236.332C566.282 249.229 550.412 255.874 534.575 251.217C518.737 246.561 509.037 232.321 512.84 219.43Z" fill="url(#paint37_linear_74_14)"/>
<g clip-path="url(#clip2_74_14)">
<path d="M87.7746 404.686C102.569 403.114 113.294 389.855 111.728 375.071C110.162 360.287 96.8987 349.577 82.1039 351.149C67.309 352.721 56.5849 365.98 58.1508 380.764C59.7167 395.548 72.9798 406.258 87.7746 404.686Z" fill="#FFFEF3"/>
<path d="M112.847 376.388C114.415 391.104 103.85 404.302 89.2466 405.86C74.6555 407.404 61.5554 396.733 59.988 382.016C58.4206 367.3 68.9848 354.114 83.5886 352.557C98.1796 351 111.28 361.671 112.847 376.388Z" fill="#B37E38"/>
<path d="M111.904 375.481C113.433 389.905 102.843 402.86 88.2522 404.417C73.6611 405.974 60.5865 395.546 59.0573 381.123C57.5154 366.7 68.1051 353.744 82.7089 352.187C97.2999 350.63 110.375 361.058 111.904 375.481Z" fill="url(#paint38_linear_74_14)"/>
<path d="M106.22 376.017C107.418 387.326 99.1222 397.474 87.6787 398.699C76.2352 399.924 65.9896 391.743 64.7918 380.434C63.5939 369.138 71.8898 358.977 83.3332 357.765C94.7767 356.54 105.022 364.721 106.22 376.017Z" fill="#BE8C40"/>
<path d="M106.616 377.09C107.788 388.13 99.5945 398.061 88.3167 399.273C77.0389 400.473 66.9334 392.496 65.7611 381.455C64.5887 370.401 72.7826 360.471 84.0604 359.271C95.351 358.071 105.444 366.049 106.616 377.09Z" fill="#F9EAAA"/>
<path d="M105.851 376.234C106.998 386.994 98.9184 396.682 87.8062 397.869C76.6941 399.056 66.7671 391.296 65.6202 380.536C64.4733 369.776 72.5525 360.088 83.6647 358.901C94.7768 357.714 104.704 365.474 105.851 376.234Z" fill="url(#paint39_linear_74_14)"/>
<path opacity="0.2" d="M65.7734 380.791C65.7734 380.804 65.7734 380.804 65.7734 380.817C66.9076 391.449 76.7836 399.107 87.8448 397.933C98.906 396.759 106.96 387.186 105.826 376.553C105.826 376.541 105.826 376.541 105.826 376.528L65.7734 380.791Z" fill="#F3931A"/>
<g filter="url(#filter2_d_74_14)">
<path d="M84.4964 362.761L80.7499 363.463L81.2723 366.106C76.7357 367.727 74.9007 370.688 75.6653 374.504C75.9711 376.049 76.723 377.287 77.9081 378.219C79.004 379.074 81.0302 379.597 83.9866 379.763L85.4012 386.885C83.273 386.885 81.6674 385.826 80.5842 383.682L78.061 387.37C80.1764 390 81.7311 390.817 85.9364 390.574L86.5098 393.778L90.6259 393.076L89.9378 389.898C92.2061 389.183 93.8754 387.894 94.8949 386.451C96.0036 384.894 96.3604 383.031 95.9653 381.052C95.6977 379.661 94.9714 378.384 94.1048 377.478C93.2383 376.572 92.359 376.01 91.467 375.806C90.6514 375.615 89.1477 375.423 86.9686 375.232L85.7197 368.939C87.147 368.99 88.2939 369.769 89.1604 371.275L92.6648 369.386C91.1229 366.552 88.6634 365.314 85.1208 365.378L84.4964 362.761ZM79.552 373.1C79.3608 372.117 79.5647 371.3 80.1764 370.662C80.6479 370.177 81.2468 369.807 81.9605 369.577L83.1201 375.398C81.043 375.372 79.8578 374.606 79.552 373.1ZM91.9002 382.124C92.1041 383.158 91.8875 384.064 91.2503 384.856C90.7151 385.507 90.0142 385.966 89.1477 386.234L87.8224 379.559C90.2309 379.661 91.5816 380.516 91.9002 382.124Z" fill="url(#paint40_linear_74_14)"/>
</g>
</g>
<path style="mix-blend-mode:screen" d="M122.915 372.875C118.487 376.875 108.551 373.124 100.718 364.472C92.8856 355.821 90.118 345.519 94.5374 341.556C98.9568 337.594 108.901 341.306 116.734 349.958C124.567 358.61 127.331 368.863 122.915 372.875Z" fill="url(#paint41_radial_74_14)"/>
<path style="mix-blend-mode:color-dodge" d="M117.695 367.107C114.892 369.638 108.621 367.262 103.646 361.795C98.6719 356.329 96.9455 349.857 99.7298 347.253C102.514 344.649 108.803 347.098 113.778 352.564C118.753 358.03 120.485 364.577 117.695 367.107Z" fill="url(#paint42_radial_74_14)"/>
<g style="mix-blend-mode:screen" opacity="0.1">
<path d="M117.127 423.354C142.566 406.303 149.365 371.849 132.314 346.398C115.263 320.947 80.8178 314.137 55.3792 331.188C29.9406 348.238 23.1413 382.693 40.1926 408.144C57.2439 433.595 91.6887 440.404 117.127 423.354Z" fill="url(#paint43_radial_74_14)" style="mix-blend-mode:screen"/>
<path d="M117.127 423.354C142.566 406.303 149.365 371.849 132.314 346.398C115.263 320.947 80.8178 314.137 55.3792 331.188C29.9406 348.238 23.1413 382.693 40.1926 408.144C57.2439 433.595 91.6887 440.404 117.127 423.354Z" fill="url(#paint44_radial_74_14)" style="mix-blend-mode:screen"/>
</g>
<path style="mix-blend-mode:screen" opacity="0.2" d="M96.5426 428.786C82.4782 431.495 67.9115 428.567 55.9825 420.633C44.0536 412.699 35.7179 400.395 32.7725 386.372C32.8697 386.665 32.8577 386.981 32.9237 387.298C35.6668 401.526 43.9478 414.083 55.9449 422.206C67.942 430.33 82.6724 433.354 96.8957 430.613C111.119 427.872 123.67 419.592 131.788 407.593C139.905 395.594 142.925 380.859 140.182 366.631C140.084 366.338 139.987 366.045 139.984 365.721C142.457 379.833 139.29 394.352 131.165 406.148C123.039 417.944 110.605 426.074 96.5426 428.786Z" fill="url(#paint45_linear_74_14)"/>
<path style="mix-blend-mode:screen" d="M76.3588 325.939C90.6294 323.19 105.41 326.159 117.516 334.205C129.622 342.252 138.086 354.732 141.084 368.958C140.983 368.654 140.991 368.326 140.925 368.01C137.964 353.738 129.507 341.205 117.382 333.12C105.258 325.035 90.4409 322.047 76.1344 324.802C61.828 327.558 49.1819 335.836 40.9305 347.846C32.6791 359.856 29.4854 374.633 32.0399 388.983C32.141 389.287 32.2422 389.592 32.2496 389.928C29.7474 375.605 32.968 360.873 41.218 348.905C49.4679 336.937 62.0873 328.689 76.3588 325.939Z" fill="url(#paint46_linear_74_14)"/>
<path style="mix-blend-mode:screen" d="M44.7733 354.855C48.771 334.63 72.0942 322.217 96.8855 327.148C121.677 332.079 138.507 352.425 134.521 372.646C130.535 392.867 107.236 405.233 82.4052 400.341C57.5749 395.449 40.7717 375.068 44.7733 354.855Z" fill="url(#paint47_linear_74_14)"/>
<g filter="url(#filter3_d_74_14)">
<path d="M306.401 405.461C272.807 387.393 242.466 424.213 242.466 424.213L231.997 421.862V435.967C220.818 463.712 173.857 472.705 173.857 472.705C197.994 445.616 202.34 381.379 202.34 381.379L204.882 382.144C208.279 383.322 211.787 384.156 215.351 384.632C216.308 384.195 216.089 369.188 216.089 369.188C218.822 367.93 265.646 345.27 285.299 355.083C305.554 365.088 306.401 405.461 306.401 405.461Z" fill="#5B54CB"/>
<path d="M431.483 220.541C431.483 220.541 462.288 204.14 471.473 190.254C475.081 184.787 484.484 226.008 460.539 248.778C436.594 271.548 406.089 266.054 406.089 266.054C406.089 266.054 419.674 231.666 431.483 220.541Z" fill="url(#paint48_radial_74_14)"/>
<path d="M273.354 77.4434C273.354 77.4434 239.214 51.448 206.44 77.4434C177.083 100.869 197.775 149.881 197.775 149.881C197.775 149.881 241.127 144.742 263.049 123.339C269.292 117.687 273.634 110.242 275.479 102.025C277.324 93.8082 276.581 85.2218 273.354 77.4434Z" fill="url(#paint49_radial_74_14)"/>
<path d="M233.555 146.546C250.312 146.546 263.896 132.961 263.896 116.204C263.896 99.4469 250.312 85.8625 233.555 85.8625C216.799 85.8625 203.214 99.4469 203.214 116.204C203.214 132.961 216.799 146.546 233.555 146.546Z" fill="url(#paint50_radial_74_14)"/>
<path d="M235.742 135.393C245.645 135.393 253.673 127.365 253.673 117.462C253.673 107.558 245.645 99.5299 235.742 99.5299C225.839 99.5299 217.811 107.558 217.811 117.462C217.811 127.365 225.839 135.393 235.742 135.393Z" fill="url(#paint51_radial_74_14)"/>
<path d="M446.188 150.701C443.499 156.069 440.026 161.007 435.883 165.352C437.118 182.349 435.968 199.435 432.467 216.113C428.769 235.05 421.903 253.228 412.157 269.88C379.985 323.457 318.346 322.992 287.978 328.924C257.61 334.855 222.977 358.719 222.977 358.719C221.707 359.253 220.555 360.033 219.588 361.015C219.204 361.414 218.865 361.854 218.576 362.327C213.519 369.899 217.592 383.757 215.515 384.359C212.973 385.069 202.504 381.106 202.504 381.106C197.748 349.055 195.209 316.714 194.905 284.313C194.336 248.125 196.961 211.958 202.75 176.231C198.584 169.16 195.097 161.71 192.335 153.981C202.941 132.113 253.865 117.68 265.782 99.5299C274.174 86.6826 273.354 77.6621 273.354 77.6621L268.571 74.6006C271.388 73.5306 274.325 72.8055 277.318 72.4411C280.215 72.4411 287.978 78.3728 287.978 78.3728C342.646 64.7054 424.95 73.3432 435.419 84.5231L436.184 85.4252C437.602 87.4745 438.75 89.6978 439.601 92.0402C446.926 110.792 448.703 144.714 446.188 150.701Z" fill="url(#paint52_radial_74_14)"/>
<path d="M441.022 93.8443C433.177 81.0243 352.268 75.5026 303.695 112.131C268.188 138.783 209.419 222.318 202.394 272.614C195.369 322.91 202.394 381.324 202.394 381.324C197.639 349.273 195.1 316.932 194.795 284.532C194.227 248.344 196.852 212.176 202.64 176.45C198.5 169.305 195.049 161.781 192.335 153.981C202.941 132.113 253.865 117.68 265.782 99.5299C274.174 86.6826 273.354 77.6621 273.354 77.6621L268.571 74.6006C271.388 73.5306 274.325 72.8055 277.318 72.4411C280.215 72.4411 287.978 78.3728 287.978 78.3728C342.646 64.7054 428.503 67.9856 436.758 86.1905C436.922 86.5459 437.278 86.7646 437.524 87.1199L441.022 93.8443Z" fill="url(#paint53_linear_74_14)"/>
<path d="M306.401 405.461C272.807 387.393 242.466 424.213 242.466 424.213L231.997 421.862V435.967C220.818 463.712 173.857 472.705 173.857 472.705C175.033 471.639 193.893 453.98 201.192 431.019C207.998 409.725 205.429 386.6 204.827 382.144V381.379L216.116 369.188C218.85 367.93 265.673 345.27 285.327 355.083C305.554 365.088 306.401 405.461 306.401 405.461Z" fill="url(#paint54_radial_74_14)"/>
<path style="mix-blend-mode:multiply" opacity="0.5" d="M343.356 169.764C367.967 151.452 375.492 119.906 360.164 99.304C344.836 78.7016 312.458 76.8443 287.847 95.1558C263.236 113.467 255.711 145.013 271.04 165.616C286.368 186.218 318.745 188.075 343.356 169.764Z" fill="url(#paint55_radial_74_14)"/>
<path d="M192.335 225.051C192.335 225.051 190.941 215.703 197.802 214.117C197.802 214.117 212.262 220.322 208.135 242.354C208.135 242.354 197.201 259.685 194.795 270.236L195.78 312.222C195.78 312.222 160.436 298.555 153.685 271.876C146.933 245.197 192.335 225.051 192.335 225.051Z" fill="url(#paint56_linear_74_14)"/>
<path style="mix-blend-mode:soft-light" d="M302.055 142.227C315.815 173.63 338.408 200.355 367.083 219.147C413.551 249.215 429.651 213.297 435.883 165.352L378.728 206.518L302.055 142.227Z" fill="url(#paint57_radial_74_14)"/>
<path d="M302.055 142.227C302.055 142.227 310.255 132.468 314.519 132.468L311.786 135.885C311.786 135.885 339.284 171.639 382.472 176.013C425.66 180.386 446.325 150.701 446.325 150.701C443.467 155.966 440.009 160.882 436.02 165.352C436.02 165.352 425.469 218.136 400.486 221.142C367.411 225.106 325.508 189.707 304.105 146.628L302.055 142.227Z" fill="url(#paint58_radial_74_14)"/>
<path d="M435.883 165.352C435.883 165.352 427.683 216.441 393.734 219.311C357.489 222.318 306.757 155.949 303.886 143.047C303.886 143.047 306.62 136.651 309.654 136.897C312.688 137.143 344.97 178.91 381.707 182.218C424.512 186.181 435.883 165.352 435.883 165.352Z" fill="url(#paint59_linear_74_14)"/>
<path d="M247.14 89.088C247.14 89.9422 246.887 90.7772 246.413 91.4875C245.938 92.1977 245.264 92.7513 244.474 93.0782C243.685 93.4051 242.817 93.4906 241.979 93.3239C241.141 93.1573 240.372 92.746 239.768 92.142C239.164 91.5379 238.752 90.7684 238.586 89.9306C238.419 89.0928 238.505 88.2244 238.832 87.4353C239.159 86.6461 239.712 85.9716 240.422 85.497C241.132 85.0224 241.968 84.7691 242.822 84.7691C243.967 84.7691 245.066 85.2242 245.876 86.0341C246.685 86.8441 247.14 87.9426 247.14 89.088Z" fill="white"/>
<path style="mix-blend-mode:soft-light" d="M199.388 136.979C199.388 136.979 222.485 121.343 233.555 117.462C233.555 117.462 217.155 109.534 192.335 119.02C192.335 119.02 194.604 133.37 199.388 136.979Z" fill="url(#paint60_radial_74_14)"/>
<path style="mix-blend-mode:multiply" d="M277.318 72.3318C280.122 83.6851 278.489 95.6807 272.753 105.872C262.338 125.662 227.241 156.386 227.241 156.386C227.241 156.386 282.265 114.755 287.978 78.2634C284.577 76.0243 281.013 74.0416 277.318 72.3318Z" fill="url(#paint61_linear_74_14)"/>
<path style="mix-blend-mode:multiply" d="M192.335 225.051C192.335 225.051 202.203 221.798 205.811 238.418C205.811 238.473 204.991 218.245 192.335 225.051Z" fill="url(#paint62_linear_74_14)"/>
<path style="mix-blend-mode:multiply" d="M204.855 247.685C204.855 247.685 186.677 274.227 182.331 286.691L187.798 279.284L195.588 312.085C195.588 312.085 196.654 270.591 204.855 247.685Z" fill="url(#paint63_linear_74_14)"/>
<path style="mix-blend-mode:multiply" opacity="0.3" d="M287.978 328.924C287.978 328.924 246.813 325.917 227.843 314.272C208.873 302.628 196.217 275.867 196.217 275.867C196.217 275.867 193.128 328.924 200.044 364.459C200.044 364.459 211.934 367.602 218.44 362.518C238.985 346.532 262.685 335.082 287.978 328.924Z" fill="url(#paint64_linear_74_14)"/>
<path style="mix-blend-mode:multiply" d="M435.883 218.054C435.883 218.054 442.444 230.382 438.89 262.336C438.89 262.336 430.936 266.327 413.907 266.682C413.907 266.682 427.82 242.081 431.483 220.541L435.883 218.054Z" fill="url(#paint65_linear_74_14)"/>
<path style="mix-blend-mode:soft-light" d="M432.467 216.113C428.769 235.05 421.903 253.228 412.157 269.88C379.985 323.457 318.346 322.992 287.978 328.924C257.609 334.855 222.977 358.719 222.977 358.719C221.707 359.253 220.555 360.033 219.588 361.015C224.89 354.673 259.605 332.614 315.613 316.158C425.442 283.985 432.467 216.113 432.467 216.113Z" fill="url(#paint66_radial_74_14)"/>
<path style="mix-blend-mode:soft-light" d="M192.335 153.981C192.335 153.981 202.668 150.373 233.337 130.5C264.006 110.628 271.195 99.5299 277.318 72.3318L268.571 74.4912L273.354 77.4434C273.354 77.4434 275.213 88.8693 263.896 101.853C252.58 114.837 200.016 135.011 192.335 153.981Z" fill="url(#paint67_radial_74_14)"/>
<path style="mix-blend-mode:soft-light" d="M192.335 221.443C192.335 221.443 204.554 218.163 207.151 235.985C208.144 231.802 207.754 227.409 206.039 223.466C204.324 219.523 201.376 216.243 197.638 214.117C197.638 214.117 193.292 214.582 192.335 221.443Z" fill="url(#paint68_radial_74_14)"/>
<path style="mix-blend-mode:soft-light" opacity="0.5" d="M153.876 259.931C153.876 259.931 168.008 272.149 180.882 268.541C193.757 264.933 205.811 238.473 205.811 238.473C205.811 238.473 204.117 224.368 192.335 225.106C192.335 225.051 159.698 240.769 153.876 259.931Z" fill="url(#paint69_linear_74_14)"/>
<path d="M174.349 471.447C174.349 471.447 198.322 447.775 201.684 429.215C203.737 417.561 203.477 405.616 200.918 394.062C200.918 394.063 200.672 442.09 174.349 471.447Z" fill="#F2FFFF" fill-opacity="0.2"/>
<path style="mix-blend-mode:multiply" opacity="0.3" d="M293.718 327.967C293.718 327.967 253.619 333.844 224.617 312.14C224.617 312.14 240.307 330.755 271.741 333.844C271.741 333.844 284.288 330.919 293.718 327.967Z" fill="url(#paint70_linear_74_14)"/>
<path style="mix-blend-mode:multiply" opacity="0.5" d="M303.886 162.892C303.886 162.892 359.129 229.261 394.937 230.081C430.745 230.901 433.205 181.343 433.205 181.343C433.205 181.343 432.521 238.746 388.377 233.881C344.232 229.015 303.886 162.892 303.886 162.892Z" fill="url(#paint71_radial_74_14)"/>
<path style="mix-blend-mode:soft-light" d="M435.884 218.054C435.884 218.054 449.988 218.054 459.992 209.853C466.048 204.875 470.121 197.894 471.473 190.172C471.473 190.172 453.323 212.286 435.884 218.054Z" fill="url(#paint72_radial_74_14)"/>
<path style="mix-blend-mode:soft-light" d="M416.859 79.8762C416.859 79.8762 430.389 81.7623 433.615 86.6552C436.84 91.5482 445.396 129.052 442.963 152.751C442.963 152.751 442.225 91.9855 416.859 79.8762Z" fill="url(#paint73_radial_74_14)"/>
<g style="mix-blend-mode:soft-light">
<path d="M225.519 135.421C225.519 135.421 244.325 123.202 248.944 119.402C243.91 119.525 239.019 121.103 234.862 123.946C230.705 126.788 227.46 130.774 225.519 135.421Z" fill="white"/>
</g>
<g style="mix-blend-mode:soft-light">
<path d="M368.587 220.104C378.381 227.513 390.672 230.826 402.864 229.343C402.864 229.343 387.557 216.851 368.587 220.104Z" fill="white"/>
</g>
<path style="mix-blend-mode:multiply" d="M242.466 424.295C231.032 415.453 221.384 404.516 214.039 392.067C218.259 402.961 224.335 413.042 231.997 421.862L242.466 424.295Z" fill="url(#paint74_linear_74_14)"/>
<path style="mix-blend-mode:multiply" opacity="0.58" d="M202.64 176.45C207.949 170.642 213.608 165.165 219.588 160.049C219.588 160.049 202.886 188.04 198.157 209.935C198.157 209.935 201 182.546 202.64 176.45Z" fill="url(#paint75_linear_74_14)"/>
<g style="mix-blend-mode:soft-light">
<path d="M290.137 79.8762C290.137 79.8762 330.155 66.7282 371.429 69.981C371.429 69.981 309.791 79.2202 290.137 79.8762Z" fill="white"/>
</g>
<g style="mix-blend-mode:soft-light">
<path d="M373.452 70.1177C376.768 69.0223 380.377 69.2375 383.538 70.719C380.165 71.0359 376.764 70.8331 373.452 70.1177Z" fill="white"/>
</g>
<path style="mix-blend-mode:soft-light" d="M224.617 366.482C224.617 366.482 262.666 347.757 282.292 354.673C301.918 361.589 304.652 396.55 304.652 396.55C304.652 396.55 296.451 362.327 278.22 357.817C256.953 352.486 224.617 366.482 224.617 366.482Z" fill="url(#paint76_radial_74_14)"/>
<path d="M210.595 76.186C210.595 76.186 231.369 62.3546 253.673 70.1724C239.081 69.8004 224.527 71.8321 210.595 76.186Z" fill="white"/>
<g style="mix-blend-mode:soft-light">
<path d="M177.821 269.224C181.768 266.162 186.119 263.66 190.75 261.789C189.883 264.399 188.086 266.599 185.702 267.97C183.318 269.341 180.513 269.787 177.821 269.224Z" fill="white"/>
</g>
<path d="M310.009 324.905C310.009 324.905 338.71 321.625 359.047 312.14C359.047 312.14 338.71 312.523 310.009 324.905Z" fill="white"/>
<path d="M306.757 138.509C306.757 138.509 330.155 170.819 352.022 182.436C373.889 194.054 392.067 195.229 403 193.37C412.031 191.931 420.389 187.718 426.918 181.316C430.13 176.59 432.876 171.564 435.118 166.309C435.118 166.309 424.513 181.316 389.197 181.316C370.992 181.316 351.475 171.092 338.574 162.865C325.672 154.637 309.654 136.951 309.654 136.951L306.757 138.509Z" fill="url(#paint77_radial_74_14)"/>
<path style="mix-blend-mode:multiply" opacity="0.5" d="M319.74 169.698C319.74 169.698 331.33 166.227 339.093 167.867C346.856 169.507 374.791 187.165 398.682 186.181C405.901 185.744 412.952 183.819 419.392 180.526C425.832 177.233 431.521 172.644 436.102 167.047L438.836 162.045C438.836 162.045 416.613 183.721 388.869 181.452C355.712 178.719 336.934 161.717 310.693 135.53C309.064 136.187 307.605 137.205 306.426 138.507C305.247 139.809 304.379 141.361 303.886 143.047C307.568 152.791 312.935 161.812 319.74 169.698Z" fill="url(#paint78_linear_74_14)"/>
</g>
<defs>
<filter id="filter0_d_74_14" x="382.546" y="391.853" width="33.5453" height="50.737" filterUnits="userSpaceOnUse" color-interpolation-filters="sRGB">
<feFlood flood-opacity="0" result="BackgroundImageFix"/>
<feColorMatrix in="SourceAlpha" type="matrix" values="0 0 0 0 0 0 0 0 0 0 0 0 0 0 0 0 0 0 127 0" result="hardAlpha"/>
<feOffset dx="-1" dy="1"/>
<feComposite in2="hardAlpha" operator="out"/>
<feColorMatrix type="matrix" values="0 0 0 0 1 0 0 0 0 1 0 0 0 0 1 0 0 0 0.35 0"/>
<feBlend mode="normal" in2="BackgroundImageFix" result="effect1_dropShadow_74_14"/>
<feBlend mode="normal" in="SourceGraphic" in2="effect1_dropShadow_74_14" result="shape"/>
</filter>
<filter id="filter1_d_74_14" x="530.057" y="225.922" width="14.334" height="20.0258" filterUnits="userSpaceOnUse" color-interpolation-filters="sRGB">
<feFlood flood-opacity="0" result="BackgroundImageFix"/>
<feColorMatrix in="SourceAlpha" type="matrix" values="0 0 0 0 0 0 0 0 0 0 0 0 0 0 0 0 0 0 127 0" result="hardAlpha"/>
<feOffset dx="-1" dy="1"/>
<feComposite in2="hardAlpha" operator="out"/>
<feColorMatrix type="matrix" values="0 0 0 0 1 0 0 0 0 1 0 0 0 0 1 0 0 0 0.35 0"/>
<feBlend mode="normal" in2="BackgroundImageFix" result="effect1_dropShadow_74_14"/>
<feBlend mode="normal" in="SourceGraphic" in2="effect1_dropShadow_74_14" result="shape"/>
</filter>
<filter id="filter2_d_74_14" x="74.4969" y="362.761" width="21.6241" height="32.0165" filterUnits="userSpaceOnUse" color-interpolation-filters="sRGB">
<feFlood flood-opacity="0" result="BackgroundImageFix"/>
<feColorMatrix in="SourceAlpha" type="matrix" values="0 0 0 0 0 0 0 0 0 0 0 0 0 0 0 0 0 0 127 0" result="hardAlpha"/>
<feOffset dx="-1" dy="1"/>
<feComposite in2="hardAlpha" operator="out"/>
<feColorMatrix type="matrix" values="0 0 0 0 1 0 0 0 0 1 0 0 0 0 1 0 0 0 0.35 0"/>
<feBlend mode="normal" in2="BackgroundImageFix" result="effect1_dropShadow_74_14"/>
<feBlend mode="normal" in="SourceGraphic" in2="effect1_dropShadow_74_14" result="shape"/>
</filter>
<filter id="filter3_d_74_14" x="53.0001" y="0.889893" width="523.346" height="606.815" filterUnits="userSpaceOnUse" color-interpolation-filters="sRGB">
<feFlood flood-opacity="0" result="BackgroundImageFix"/>
<feColorMatrix in="SourceAlpha" type="matrix" values="0 0 0 0 0 0 0 0 0 0 0 0 0 0 0 0 0 0 127 0" result="hardAlpha"/>
<feOffset dy="35"/>
<feGaussianBlur stdDeviation="50"/>
<feComposite in2="hardAlpha" operator="out"/>
<feColorMatrix type="matrix" values="0 0 0 0 0.113925 0 0 0 0 0.0979167 0 0 0 0 0.25 0 0 0 0.6 0"/>
<feBlend mode="normal" in2="BackgroundImageFix" result="effect1_dropShadow_74_14"/>
<feBlend mode="normal" in="SourceGraphic" in2="effect1_dropShadow_74_14" result="shape"/>
</filter>
<radialGradient id="paint0_radial_74_14" cx="0" cy="0" r="1" gradientUnits="userSpaceOnUse" gradientTransform="translate(100.292 62.6511) rotate(37.357) scale(6.94646 3.55324)">
<stop offset="0.05" stop-color="#D9D9D9"/>
<stop offset="0.06" stop-color="#D4D3D1"/>
<stop offset="0.09" stop-color="#C7C3BC"/>
<stop offset="0.11" stop-color="#B2AA99"/>
<stop offset="0.14" stop-color="#948668"/>
<stop offset="0.18" stop-color="#6C5627"/>
<stop offset="0.27" stop-color="#52411D"/>
<stop offset="0.39" stop-color="#342A13"/>
<stop offset="0.51" stop-color="#1D170B"/>
<stop offset="0.65" stop-color="#0D0A05"/>
<stop offset="0.8" stop-color="#030201"/>
<stop offset="1"/>
</radialGradient>
<radialGradient id="paint1_radial_74_14" cx="0" cy="0" r="1" gradientUnits="userSpaceOnUse" gradientTransform="translate(95.7224 76.2126) rotate(-7.56495) scale(28.9044 28.9156)">
<stop offset="0.13"/>
<stop offset="0.38" stop-color="#000303"/>
<stop offset="0.53" stop-color="#020B0B"/>
<stop offset="0.65" stop-color="#041919"/>
<stop offset="0.75" stop-color="#072D2D"/>
<stop offset="0.85" stop-color="#0B4747"/>
<stop offset="0.94" stop-color="#106767"/>
<stop offset="1" stop-color="#148282"/>
</radialGradient>
<radialGradient id="paint2_radial_74_14" cx="0" cy="0" r="1" gradientUnits="userSpaceOnUse" gradientTransform="translate(95.7224 76.2126) rotate(-7.56495) scale(28.9044 28.9156)">
<stop offset="0.13"/>
<stop offset="0.38" stop-color="#000303"/>
<stop offset="0.53" stop-color="#292929"/>
<stop offset="0.65" stop-color="#8D8D8D"/>
<stop offset="0.75" stop-color="#9D9D9D"/>
<stop offset="0.85" stop-color="#ECECEC"/>
<stop offset="0.94" stop-color="#EEEEEE"/>
<stop offset="1" stop-color="white"/>
</radialGradient>
<linearGradient id="paint3_linear_74_14" x1="69.5436" y1="93.6702" x2="125.919" y2="86.1772" gradientUnits="userSpaceOnUse">
<stop/>
<stop offset="0.07" stop-color="#282828"/>
<stop offset="0.16" stop-color="#5A5A5A"/>
<stop offset="0.26" stop-color="#868686"/>
<stop offset="0.36" stop-color="#ACACAC"/>
<stop offset="0.47" stop-color="#CACACA"/>
<stop offset="0.58" stop-color="#E1E1E1"/>
<stop offset="0.7" stop-color="#F2F2F2"/>
<stop offset="0.83" stop-color="#FCFCFC"/>
<stop offset="1" stop-color="white"/>
</linearGradient>
<linearGradient id="paint4_linear_74_14" x1="94.8566" y1="69.7083" x2="90.8528" y2="39.5602" gradientUnits="userSpaceOnUse">
<stop/>
<stop offset="0.07" stop-color="#282828"/>
<stop offset="0.16" stop-color="#5A5A5A"/>
<stop offset="0.26" stop-color="#868686"/>
<stop offset="0.36" stop-color="#ACACAC"/>
<stop offset="0.47" stop-color="#CACACA"/>
<stop offset="0.58" stop-color="#E1E1E1"/>
<stop offset="0.7" stop-color="#F2F2F2"/>
<stop offset="0.83" stop-color="#FCFCFC"/>
<stop offset="1" stop-color="white"/>
</linearGradient>
<linearGradient id="paint5_linear_74_14" x1="88.8522" y1="95.5475" x2="113.63" y2="36.087" gradientUnits="userSpaceOnUse">
<stop/>
<stop offset="0.37" stop-color="#020202"/>
<stop offset="0.51" stop-color="#090909"/>
<stop offset="0.6" stop-color="#141414"/>
<stop offset="0.68" stop-color="#252525"/>
<stop offset="0.75" stop-color="#3B3B3B"/>
<stop offset="0.8" stop-color="#575757"/>
<stop offset="0.86" stop-color="#777777"/>
<stop offset="0.91" stop-color="#9D9D9D"/>
<stop offset="0.95" stop-color="#C8C8C8"/>
<stop offset="0.99" stop-color="#F6F6F6"/>
<stop offset="1" stop-color="white"/>
</linearGradient>
<radialGradient id="paint6_radial_74_14" cx="0" cy="0" r="1" gradientUnits="userSpaceOnUse" gradientTransform="translate(516.89 142.127) rotate(37.357) scale(3.73921 1.91268)">
<stop offset="0.05" stop-color="#D9D9D9"/>
<stop offset="0.06" stop-color="#D4D3D1"/>
<stop offset="0.09" stop-color="#C7C3BC"/>
<stop offset="0.11" stop-color="#B2AA99"/>
<stop offset="0.14" stop-color="#948668"/>
<stop offset="0.18" stop-color="#6C5627"/>
<stop offset="0.27" stop-color="#52411D"/>
<stop offset="0.39" stop-color="#342A13"/>
<stop offset="0.51" stop-color="#1D170B"/>
<stop offset="0.65" stop-color="#0D0A05"/>
<stop offset="0.8" stop-color="#030201"/>
<stop offset="1"/>
</radialGradient>
<radialGradient id="paint7_radial_74_14" cx="0" cy="0" r="1" gradientUnits="userSpaceOnUse" gradientTransform="translate(514.429 149.427) rotate(-7.56495) scale(15.559 15.565)">
<stop offset="0.13"/>
<stop offset="0.38" stop-color="#000303"/>
<stop offset="0.53" stop-color="#020B0B"/>
<stop offset="0.65" stop-color="#041919"/>
<stop offset="0.75" stop-color="#072D2D"/>
<stop offset="0.85" stop-color="#0B4747"/>
<stop offset="0.94" stop-color="#106767"/>
<stop offset="1" stop-color="#148282"/>
</radialGradient>
<radialGradient id="paint8_radial_74_14" cx="0" cy="0" r="1" gradientUnits="userSpaceOnUse" gradientTransform="translate(514.429 149.427) rotate(-7.56495) scale(15.559 15.565)">
<stop offset="0.13"/>
<stop offset="0.38" stop-color="#000303"/>
<stop offset="0.53" stop-color="#292929"/>
<stop offset="0.65" stop-color="#8D8D8D"/>
<stop offset="0.75" stop-color="#9D9D9D"/>
<stop offset="0.85" stop-color="#ECECEC"/>
<stop offset="0.94" stop-color="#EEEEEE"/>
<stop offset="1" stop-color="white"/>
</radialGradient>
<linearGradient id="paint9_linear_74_14" x1="500.338" y1="158.824" x2="530.685" y2="154.791" gradientUnits="userSpaceOnUse">
<stop/>
<stop offset="0.07" stop-color="#282828"/>
<stop offset="0.16" stop-color="#5A5A5A"/>
<stop offset="0.26" stop-color="#868686"/>
<stop offset="0.36" stop-color="#ACACAC"/>
<stop offset="0.47" stop-color="#CACACA"/>
<stop offset="0.58" stop-color="#E1E1E1"/>
<stop offset="0.7" stop-color="#F2F2F2"/>
<stop offset="0.83" stop-color="#FCFCFC"/>
<stop offset="1" stop-color="white"/>
</linearGradient>
<linearGradient id="paint10_linear_74_14" x1="513.964" y1="145.925" x2="511.809" y2="129.697" gradientUnits="userSpaceOnUse">
<stop/>
<stop offset="0.07" stop-color="#282828"/>
<stop offset="0.16" stop-color="#5A5A5A"/>
<stop offset="0.26" stop-color="#868686"/>
<stop offset="0.36" stop-color="#ACACAC"/>
<stop offset="0.47" stop-color="#CACACA"/>
<stop offset="0.58" stop-color="#E1E1E1"/>
<stop offset="0.7" stop-color="#F2F2F2"/>
<stop offset="0.83" stop-color="#FCFCFC"/>
<stop offset="1" stop-color="white"/>
</linearGradient>
<linearGradient id="paint11_linear_74_14" x1="510.732" y1="159.834" x2="524.07" y2="127.827" gradientUnits="userSpaceOnUse">
<stop/>
<stop offset="0.37" stop-color="#020202"/>
<stop offset="0.51" stop-color="#090909"/>
<stop offset="0.6" stop-color="#141414"/>
<stop offset="0.68" stop-color="#252525"/>
<stop offset="0.75" stop-color="#3B3B3B"/>
<stop offset="0.8" stop-color="#575757"/>
<stop offset="0.86" stop-color="#777777"/>
<stop offset="0.91" stop-color="#9D9D9D"/>
<stop offset="0.95" stop-color="#C8C8C8"/>
<stop offset="0.99" stop-color="#F6F6F6"/>
<stop offset="1" stop-color="white"/>
</linearGradient>
<radialGradient id="paint12_radial_74_14" cx="0" cy="0" r="1" gradientUnits="userSpaceOnUse" gradientTransform="translate(340.011 197.584) rotate(52.3849) scale(76.1635 38.959)">
<stop offset="0.05" stop-color="#D2D2D2"/>
<stop offset="0.07" stop-color="#CFCECA"/>
<stop offset="0.11" stop-color="#C8C5B5"/>
<stop offset="0.16" stop-color="#BCB592"/>
<stop offset="0.22" stop-color="#AC9F61"/>
<stop offset="0.26" stop-color="#9F8D3A"/>
<stop offset="0.31" stop-color="#9F7E3A"/>
<stop offset="0.39" stop-color="#765E2B"/>
<stop offset="0.47" stop-color="#52411E"/>
<stop offset="0.56" stop-color="#342913"/>
<stop offset="0.65" stop-color="#1D170B"/>
<stop offset="0.74" stop-color="#0D0A05"/>
<stop offset="0.85" stop-color="#030201"/>
<stop offset="0.99"/>
</radialGradient>
<radialGradient id="paint13_radial_74_14" cx="0" cy="0" r="1" gradientUnits="userSpaceOnUse" gradientTransform="translate(340.011 197.584) rotate(52.3849) scale(48.1146 24.6115)">
<stop offset="0.05" stop-color="#D9D9D9"/>
<stop offset="0.06" stop-color="#D4D3D1"/>
<stop offset="0.09" stop-color="#C7C3BC"/>
<stop offset="0.11" stop-color="#B2AA99"/>
<stop offset="0.14" stop-color="#948668"/>
<stop offset="0.18" stop-color="#6C5627"/>
<stop offset="0.27" stop-color="#52411D"/>
<stop offset="0.39" stop-color="#342A13"/>
<stop offset="0.51" stop-color="#1D170B"/>
<stop offset="0.65" stop-color="#0D0A05"/>
<stop offset="0.8" stop-color="#030201"/>
<stop offset="1"/>
</radialGradient>
<radialGradient id="paint14_radial_74_14" cx="0" cy="0" r="1" gradientUnits="userSpaceOnUse" gradientTransform="translate(285.081 280.097) rotate(7.46297) scale(200.206 200.284)">
<stop offset="0.13"/>
<stop offset="0.38" stop-color="#000303"/>
<stop offset="0.53" stop-color="#292929"/>
<stop offset="0.65" stop-color="#8D8D8D"/>
<stop offset="0.75" stop-color="#9D9D9D"/>
<stop offset="0.85" stop-color="#ECECEC"/>
<stop offset="0.94" stop-color="#EEEEEE"/>
<stop offset="1" stop-color="white"/>
</radialGradient>
<linearGradient id="paint15_linear_74_14" x1="78.6061" y1="349.866" x2="469.191" y2="400.989" gradientUnits="userSpaceOnUse">
<stop/>
<stop offset="0.07" stop-color="#282828"/>
<stop offset="0.16" stop-color="#5A5A5A"/>
<stop offset="0.26" stop-color="#868686"/>
<stop offset="0.36" stop-color="#ACACAC"/>
<stop offset="0.47" stop-color="#CACACA"/>
<stop offset="0.58" stop-color="#E1E1E1"/>
<stop offset="0.7" stop-color="#F2F2F2"/>
<stop offset="0.83" stop-color="#FCFCFC"/>
<stop offset="1" stop-color="white"/>
</linearGradient>
<linearGradient id="paint16_linear_74_14" x1="290.973" y1="235.032" x2="318.334" y2="26.1615" gradientUnits="userSpaceOnUse">
<stop/>
<stop offset="0.07" stop-color="#282828"/>
<stop offset="0.16" stop-color="#5A5A5A"/>
<stop offset="0.26" stop-color="#868686"/>
<stop offset="0.36" stop-color="#ACACAC"/>
<stop offset="0.47" stop-color="#CACACA"/>
<stop offset="0.58" stop-color="#E1E1E1"/>
<stop offset="0.7" stop-color="#F2F2F2"/>
<stop offset="0.83" stop-color="#FCFCFC"/>
<stop offset="1" stop-color="white"/>
</linearGradient>
<linearGradient id="paint17_linear_74_14" x1="204.399" y1="397.102" x2="476.944" y2="43.8345" gradientUnits="userSpaceOnUse">
<stop/>
<stop offset="0.37" stop-color="#020202"/>
<stop offset="0.51" stop-color="#090909"/>
<stop offset="0.6" stop-color="#141414"/>
<stop offset="0.68" stop-color="#252525"/>
<stop offset="0.75" stop-color="#3B3B3B"/>
<stop offset="0.8" stop-color="#575757"/>
<stop offset="0.86" stop-color="#777777"/>
<stop offset="0.91" stop-color="#9D9D9D"/>
<stop offset="0.95" stop-color="#C8C8C8"/>
<stop offset="0.99" stop-color="#F6F6F6"/>
<stop offset="1" stop-color="white"/>
</linearGradient>
<linearGradient id="paint18_linear_74_14" x1="434.765" y1="376.286" x2="362.282" y2="449.679" gradientUnits="userSpaceOnUse">
<stop stop-color="#FFF0BE"/>
<stop offset="0.326042" stop-color="#E8D088"/>
<stop offset="0.497917" stop-color="#D9B55F"/>
<stop offset="1" stop-color="#C0891D"/>
</linearGradient>
<linearGradient id="paint19_linear_74_14" x1="389.697" y1="441.692" x2="454.091" y2="378.249" gradientUnits="userSpaceOnUse">
<stop stop-color="#ECD792"/>
<stop offset="0.06" stop-color="#E8D088"/>
<stop offset="0.3" stop-color="#D9B55F"/>
<stop offset="1" stop-color="#C0891D"/>
</linearGradient>
<linearGradient id="paint20_linear_74_14" x1="379.544" y1="434.008" x2="431.064" y2="411.541" gradientUnits="userSpaceOnUse">
<stop stop-color="#BD9D39"/>
<stop offset="0.07" stop-color="#B9942B"/>
<stop offset="0.3" stop-color="#AD7802"/>
<stop offset="1" stop-color="#994900"/>
</linearGradient>
<radialGradient id="paint21_radial_74_14" cx="0" cy="0" r="1" gradientUnits="userSpaceOnUse" gradientTransform="translate(419.741 378.025) rotate(45.9328) scale(32.3349 16.5399)">
<stop offset="0.05" stop-color="#D2D2D2"/>
<stop offset="0.07" stop-color="#CFCECA"/>
<stop offset="0.11" stop-color="#C8C5B5"/>
<stop offset="0.16" stop-color="#BCB592"/>
<stop offset="0.22" stop-color="#AC9F61"/>
<stop offset="0.26" stop-color="#9F8D3A"/>
<stop offset="0.31" stop-color="#9F7E3A"/>
<stop offset="0.39" stop-color="#765E2B"/>
<stop offset="0.47" stop-color="#52411E"/>
<stop offset="0.56" stop-color="#342913"/>
<stop offset="0.65" stop-color="#1D170B"/>
<stop offset="0.74" stop-color="#0D0A05"/>
<stop offset="0.85" stop-color="#030201"/>
<stop offset="0.99"/>
</radialGradient>
<radialGradient id="paint22_radial_74_14" cx="0" cy="0" r="1" gradientUnits="userSpaceOnUse" gradientTransform="translate(419.74 378.025) rotate(45.9328) scale(20.4269 10.4487)">
<stop offset="0.05" stop-color="#D9D9D9"/>
<stop offset="0.06" stop-color="#D4D3D1"/>
<stop offset="0.09" stop-color="#C7C3BC"/>
<stop offset="0.11" stop-color="#B2AA99"/>
<stop offset="0.14" stop-color="#948668"/>
<stop offset="0.18" stop-color="#6C5627"/>
<stop offset="0.27" stop-color="#52411D"/>
<stop offset="0.39" stop-color="#342A13"/>
<stop offset="0.51" stop-color="#1D170B"/>
<stop offset="0.65" stop-color="#0D0A05"/>
<stop offset="0.8" stop-color="#030201"/>
<stop offset="1"/>
</radialGradient>
<radialGradient id="paint23_radial_74_14" cx="0" cy="0" r="1" gradientUnits="userSpaceOnUse" gradientTransform="translate(399.678 417.684) rotate(15.2582) scale(84.9968 85.0299)">
<stop offset="0.13"/>
<stop offset="0.38" stop-color="#000303"/>
<stop offset="0.53" stop-color="#020B0B"/>
<stop offset="0.65" stop-color="#041919"/>
<stop offset="0.75" stop-color="#072D2D"/>
<stop offset="0.85" stop-color="#0B4747"/>
<stop offset="0.94" stop-color="#106767"/>
<stop offset="1" stop-color="#148282"/>
</radialGradient>
<radialGradient id="paint24_radial_74_14" cx="0" cy="0" r="1" gradientUnits="userSpaceOnUse" gradientTransform="translate(399.678 417.684) rotate(15.2582) scale(84.9968 85.0299)">
<stop offset="0.13"/>
<stop offset="0.38" stop-color="#000303"/>
<stop offset="0.53" stop-color="#292929"/>
<stop offset="0.65" stop-color="#8D8D8D"/>
<stop offset="0.75" stop-color="#9D9D9D"/>
<stop offset="0.85" stop-color="#ECECEC"/>
<stop offset="0.94" stop-color="#EEEEEE"/>
<stop offset="1" stop-color="white"/>
</radialGradient>
<linearGradient id="paint25_linear_74_14" x1="308.813" y1="435.141" x2="470.159" y2="479.136" gradientUnits="userSpaceOnUse">
<stop/>
<stop offset="0.07" stop-color="#282828"/>
<stop offset="0.16" stop-color="#5A5A5A"/>
<stop offset="0.26" stop-color="#868686"/>
<stop offset="0.36" stop-color="#ACACAC"/>
<stop offset="0.47" stop-color="#CACACA"/>
<stop offset="0.58" stop-color="#E1E1E1"/>
<stop offset="0.7" stop-color="#F2F2F2"/>
<stop offset="0.83" stop-color="#FCFCFC"/>
<stop offset="1" stop-color="white"/>
</linearGradient>
<linearGradient id="paint26_linear_74_14" x1="404.752" y1="399.068" x2="428.288" y2="312.788" gradientUnits="userSpaceOnUse">
<stop/>
<stop offset="0.07" stop-color="#282828"/>
<stop offset="0.16" stop-color="#5A5A5A"/>
<stop offset="0.26" stop-color="#868686"/>
<stop offset="0.36" stop-color="#ACACAC"/>
<stop offset="0.47" stop-color="#CACACA"/>
<stop offset="0.58" stop-color="#E1E1E1"/>
<stop offset="0.7" stop-color="#F2F2F2"/>
<stop offset="0.83" stop-color="#FCFCFC"/>
<stop offset="1" stop-color="white"/>
</linearGradient>
<linearGradient id="paint27_linear_74_14" x1="359.004" y1="462.253" x2="493.985" y2="329.354" gradientUnits="userSpaceOnUse">
<stop/>
<stop offset="0.37" stop-color="#020202"/>
<stop offset="0.51" stop-color="#090909"/>
<stop offset="0.6" stop-color="#141414"/>
<stop offset="0.68" stop-color="#252525"/>
<stop offset="0.75" stop-color="#3B3B3B"/>
<stop offset="0.8" stop-color="#575757"/>
<stop offset="0.86" stop-color="#777777"/>
<stop offset="0.91" stop-color="#9D9D9D"/>
<stop offset="0.95" stop-color="#C8C8C8"/>
<stop offset="0.99" stop-color="#F6F6F6"/>
<stop offset="1" stop-color="white"/>
</linearGradient>
<linearGradient id="paint28_linear_74_14" x1="542.135" y1="215.307" x2="530.604" y2="253.645" gradientUnits="userSpaceOnUse">
<stop stop-color="#FFF0BE"/>
<stop offset="0.326042" stop-color="#E8D088"/>
<stop offset="0.497917" stop-color="#D9B55F"/>
<stop offset="1" stop-color="#C0891D"/>
</linearGradient>
<linearGradient id="paint29_linear_74_14" x1="538.556" y1="245.927" x2="549.12" y2="212.47" gradientUnits="userSpaceOnUse">
<stop stop-color="#ECD792"/>
<stop offset="0.06" stop-color="#E8D088"/>
<stop offset="0.3" stop-color="#D9B55F"/>
<stop offset="1" stop-color="#C0891D"/>
</linearGradient>
<linearGradient id="paint30_linear_74_14" x1="533.678" y1="245.135" x2="547.269" y2="228.072" gradientUnits="userSpaceOnUse">
<stop stop-color="#BD9D39"/>
<stop offset="0.07" stop-color="#B9942B"/>
<stop offset="0.3" stop-color="#AD7802"/>
<stop offset="1" stop-color="#994900"/>
</linearGradient>
<radialGradient id="paint31_radial_74_14" cx="0" cy="0" r="1" gradientUnits="userSpaceOnUse" gradientTransform="translate(544.749 219.665) rotate(39.2574) scale(13.7775 7.04747)">
<stop offset="0.05" stop-color="#D2D2D2"/>
<stop offset="0.07" stop-color="#CFCECA"/>
<stop offset="0.11" stop-color="#C8C5B5"/>
<stop offset="0.16" stop-color="#BCB592"/>
<stop offset="0.22" stop-color="#AC9F61"/>
<stop offset="0.26" stop-color="#9F8D3A"/>
<stop offset="0.31" stop-color="#9F7E3A"/>
<stop offset="0.39" stop-color="#765E2B"/>
<stop offset="0.47" stop-color="#52411E"/>
<stop offset="0.56" stop-color="#342913"/>
<stop offset="0.65" stop-color="#1D170B"/>
<stop offset="0.74" stop-color="#0D0A05"/>
<stop offset="0.85" stop-color="#030201"/>
<stop offset="0.99"/>
</radialGradient>
<radialGradient id="paint32_radial_74_14" cx="0" cy="0" r="1" gradientUnits="userSpaceOnUse" gradientTransform="translate(544.749 219.665) rotate(39.2574) scale(8.70366 4.45208)">
<stop offset="0.05" stop-color="#D9D9D9"/>
<stop offset="0.06" stop-color="#D4D3D1"/>
<stop offset="0.09" stop-color="#C7C3BC"/>
<stop offset="0.11" stop-color="#B2AA99"/>
<stop offset="0.14" stop-color="#948668"/>
<stop offset="0.18" stop-color="#6C5627"/>
<stop offset="0.27" stop-color="#52411D"/>
<stop offset="0.39" stop-color="#342A13"/>
<stop offset="0.51" stop-color="#1D170B"/>
<stop offset="0.65" stop-color="#0D0A05"/>
<stop offset="0.8" stop-color="#030201"/>
<stop offset="1"/>
</radialGradient>
<radialGradient id="paint33_radial_74_14" cx="0" cy="0" r="1" gradientUnits="userSpaceOnUse" gradientTransform="translate(538.462 236.458) rotate(-5.66453) scale(36.2162 36.2303)">
<stop offset="0.13"/>
<stop offset="0.38" stop-color="#000303"/>
<stop offset="0.53" stop-color="#020B0B"/>
<stop offset="0.65" stop-color="#041919"/>
<stop offset="0.75" stop-color="#072D2D"/>
<stop offset="0.85" stop-color="#0B4747"/>
<stop offset="0.94" stop-color="#106767"/>
<stop offset="1" stop-color="#148282"/>
</radialGradient>
<radialGradient id="paint34_radial_74_14" cx="0" cy="0" r="1" gradientUnits="userSpaceOnUse" gradientTransform="translate(538.462 236.458) rotate(-5.66453) scale(36.2162 36.2303)">
<stop offset="0.13"/>
<stop offset="0.38" stop-color="#000303"/>
<stop offset="0.53" stop-color="#292929"/>
<stop offset="0.65" stop-color="#8D8D8D"/>
<stop offset="0.75" stop-color="#9D9D9D"/>
<stop offset="0.85" stop-color="#ECECEC"/>
<stop offset="0.94" stop-color="#EEEEEE"/>
<stop offset="1" stop-color="white"/>
</radialGradient>
<linearGradient id="paint35_linear_74_14" x1="504.955" y1="257.231" x2="575.863" y2="250.191" gradientUnits="userSpaceOnUse">
<stop/>
<stop offset="0.07" stop-color="#282828"/>
<stop offset="0.16" stop-color="#5A5A5A"/>
<stop offset="0.26" stop-color="#868686"/>
<stop offset="0.36" stop-color="#ACACAC"/>
<stop offset="0.47" stop-color="#CACACA"/>
<stop offset="0.58" stop-color="#E1E1E1"/>
<stop offset="0.7" stop-color="#F2F2F2"/>
<stop offset="0.83" stop-color="#FCFCFC"/>
<stop offset="1" stop-color="white"/>
</linearGradient>
<linearGradient id="paint36_linear_74_14" x1="537.648" y1="228.276" x2="533.887" y2="190.356" gradientUnits="userSpaceOnUse">
<stop/>
<stop offset="0.07" stop-color="#282828"/>
<stop offset="0.16" stop-color="#5A5A5A"/>
<stop offset="0.26" stop-color="#868686"/>
<stop offset="0.36" stop-color="#ACACAC"/>
<stop offset="0.47" stop-color="#CACACA"/>
<stop offset="0.58" stop-color="#E1E1E1"/>
<stop offset="0.7" stop-color="#F2F2F2"/>
<stop offset="0.83" stop-color="#FCFCFC"/>
<stop offset="1" stop-color="white"/>
</linearGradient>
<linearGradient id="paint37_linear_74_14" x1="529.056" y1="260.385" x2="562.556" y2="186.953" gradientUnits="userSpaceOnUse">
<stop/>
<stop offset="0.37" stop-color="#020202"/>
<stop offset="0.51" stop-color="#090909"/>
<stop offset="0.6" stop-color="#141414"/>
<stop offset="0.68" stop-color="#252525"/>
<stop offset="0.75" stop-color="#3B3B3B"/>
<stop offset="0.8" stop-color="#575757"/>
<stop offset="0.86" stop-color="#777777"/>
<stop offset="0.91" stop-color="#9D9D9D"/>
<stop offset="0.95" stop-color="#C8C8C8"/>
<stop offset="0.99" stop-color="#F6F6F6"/>
<stop offset="1" stop-color="white"/>
</linearGradient>
<linearGradient id="paint38_linear_74_14" x1="95.896" y1="346.64" x2="71.5577" y2="406.456" gradientUnits="userSpaceOnUse">
<stop stop-color="#FFF0BE"/>
<stop offset="0.326042" stop-color="#E8D088"/>
<stop offset="0.497917" stop-color="#D9B55F"/>
<stop offset="1" stop-color="#C0891D"/>
</linearGradient>
<linearGradient id="paint39_linear_74_14" x1="85.5" y1="395.268" x2="107.544" y2="343.145" gradientUnits="userSpaceOnUse">
<stop stop-color="#ECD792"/>
<stop offset="0.06" stop-color="#E8D088"/>
<stop offset="0.3" stop-color="#D9B55F"/>
<stop offset="1" stop-color="#C0891D"/>
</linearGradient>
<linearGradient id="paint40_linear_74_14" x1="77.7869" y1="393.256" x2="102.203" y2="367.918" gradientUnits="userSpaceOnUse">
<stop stop-color="#BD9D39"/>
<stop offset="0.07" stop-color="#B9942B"/>
<stop offset="0.3" stop-color="#AD7802"/>
<stop offset="1" stop-color="#994900"/>
</linearGradient>
<radialGradient id="paint41_radial_74_14" cx="0" cy="0" r="1" gradientUnits="userSpaceOnUse" gradientTransform="translate(99.043 351.822) rotate(47.7428) scale(21.1224 10.8045)">
<stop offset="0.05" stop-color="#D2D2D2"/>
<stop offset="0.07" stop-color="#CFCECA"/>
<stop offset="0.11" stop-color="#C8C5B5"/>
<stop offset="0.16" stop-color="#BCB592"/>
<stop offset="0.22" stop-color="#AC9F61"/>
<stop offset="0.26" stop-color="#9F8D3A"/>
<stop offset="0.31" stop-color="#9F7E3A"/>
<stop offset="0.39" stop-color="#765E2B"/>
<stop offset="0.47" stop-color="#52411E"/>
<stop offset="0.56" stop-color="#342913"/>
<stop offset="0.65" stop-color="#1D170B"/>
<stop offset="0.74" stop-color="#0D0A05"/>
<stop offset="0.85" stop-color="#030201"/>
<stop offset="0.99"/>
</radialGradient>
<radialGradient id="paint42_radial_74_14" cx="0" cy="0" r="1" gradientUnits="userSpaceOnUse" gradientTransform="translate(99.0442 351.822) rotate(47.7428) scale(13.3436 6.8255)">
<stop offset="0.05" stop-color="#D9D9D9"/>
<stop offset="0.06" stop-color="#D4D3D1"/>
<stop offset="0.09" stop-color="#C7C3BC"/>
<stop offset="0.11" stop-color="#B2AA99"/>
<stop offset="0.14" stop-color="#948668"/>
<stop offset="0.18" stop-color="#6C5627"/>
<stop offset="0.27" stop-color="#52411D"/>
<stop offset="0.39" stop-color="#342A13"/>
<stop offset="0.51" stop-color="#1D170B"/>
<stop offset="0.65" stop-color="#0D0A05"/>
<stop offset="0.8" stop-color="#030201"/>
<stop offset="1"/>
</radialGradient>
<radialGradient id="paint43_radial_74_14" cx="0" cy="0" r="1" gradientUnits="userSpaceOnUse" gradientTransform="translate(86.2744 377.263) rotate(-10.9037) scale(55.523 55.5447)">
<stop offset="0.13"/>
<stop offset="0.38" stop-color="#000303"/>
<stop offset="0.53" stop-color="#020B0B"/>
<stop offset="0.65" stop-color="#041919"/>
<stop offset="0.75" stop-color="#072D2D"/>
<stop offset="0.85" stop-color="#0B4747"/>
<stop offset="0.94" stop-color="#106767"/>
<stop offset="1" stop-color="#148282"/>
</radialGradient>
<radialGradient id="paint44_radial_74_14" cx="0" cy="0" r="1" gradientUnits="userSpaceOnUse" gradientTransform="translate(86.2744 377.263) rotate(-10.9037) scale(55.523 55.5447)">
<stop offset="0.13"/>
<stop offset="0.38" stop-color="#000303"/>
<stop offset="0.53" stop-color="#292929"/>
<stop offset="0.65" stop-color="#8D8D8D"/>
<stop offset="0.75" stop-color="#9D9D9D"/>
<stop offset="0.85" stop-color="#ECECEC"/>
<stop offset="0.94" stop-color="#EEEEEE"/>
<stop offset="1" stop-color="white"/>
</radialGradient>
<linearGradient id="paint45_linear_74_14" x1="38.0266" y1="413.669" x2="145.297" y2="392.993" gradientUnits="userSpaceOnUse">
<stop/>
<stop offset="0.07" stop-color="#282828"/>
<stop offset="0.16" stop-color="#5A5A5A"/>
<stop offset="0.26" stop-color="#868686"/>
<stop offset="0.36" stop-color="#ACACAC"/>
<stop offset="0.47" stop-color="#CACACA"/>
<stop offset="0.58" stop-color="#E1E1E1"/>
<stop offset="0.7" stop-color="#F2F2F2"/>
<stop offset="0.83" stop-color="#FCFCFC"/>
<stop offset="1" stop-color="white"/>
</linearGradient>
<linearGradient id="paint46_linear_74_14" x1="83.8872" y1="364.887" x2="72.8364" y2="307.521" gradientUnits="userSpaceOnUse">
<stop/>
<stop offset="0.07" stop-color="#282828"/>
<stop offset="0.16" stop-color="#5A5A5A"/>
<stop offset="0.26" stop-color="#868686"/>
<stop offset="0.36" stop-color="#ACACAC"/>
<stop offset="0.47" stop-color="#CACACA"/>
<stop offset="0.58" stop-color="#E1E1E1"/>
<stop offset="0.7" stop-color="#F2F2F2"/>
<stop offset="0.83" stop-color="#FCFCFC"/>
<stop offset="1" stop-color="white"/>
</linearGradient>
<linearGradient id="paint47_linear_74_14" x1="75.2635" y1="415.109" x2="116.127" y2="298.312" gradientUnits="userSpaceOnUse">
<stop/>
<stop offset="0.37" stop-color="#020202"/>
<stop offset="0.51" stop-color="#090909"/>
<stop offset="0.6" stop-color="#141414"/>
<stop offset="0.68" stop-color="#252525"/>
<stop offset="0.75" stop-color="#3B3B3B"/>
<stop offset="0.8" stop-color="#575757"/>
<stop offset="0.86" stop-color="#777777"/>
<stop offset="0.91" stop-color="#9D9D9D"/>
<stop offset="0.95" stop-color="#C8C8C8"/>
<stop offset="0.99" stop-color="#F6F6F6"/>
<stop offset="1" stop-color="white"/>
</linearGradient>
<radialGradient id="paint48_radial_74_14" cx="0" cy="0" r="1" gradientUnits="userSpaceOnUse" gradientTransform="translate(474.616 211.241) scale(43.6801 43.2442)">
<stop stop-color="#4554D8"/>
<stop offset="1" stop-color="#7088DE"/>
</radialGradient>
<radialGradient id="paint49_radial_74_14" cx="0" cy="0" r="1" gradientUnits="userSpaceOnUse" gradientTransform="translate(242.548 97.3125) scale(45.9762 61.1496)">
<stop stop-color="#EAEFFF"/>
<stop offset="0.99" stop-color="#D2B5ED"/>
</radialGradient>
<radialGradient id="paint50_radial_74_14" cx="0" cy="0" r="1" gradientUnits="userSpaceOnUse" gradientTransform="translate(237.546 129.926) scale(45.3475 45.3484)">
<stop stop-color="#3F70C0"/>
<stop offset="1" stop-color="#1F4B90"/>
</radialGradient>
<radialGradient id="paint51_radial_74_14" cx="0" cy="0" r="1" gradientUnits="userSpaceOnUse" gradientTransform="translate(238.093 125.58) scale(26.8149 26.8154)">
<stop stop-color="#374353"/>
<stop offset="1" stop-color="#00023F"/>
</radialGradient>
<radialGradient id="paint52_radial_74_14" cx="0" cy="0" r="1" gradientUnits="userSpaceOnUse" gradientTransform="translate(346.555 235.099) scale(156.188 207.734)">
<stop stop-color="white"/>
<stop offset="0.630208" stop-color="#FFE5D7"/>
<stop offset="0.979167" stop-color="#FFEAE3"/>
</radialGradient>
<linearGradient id="paint53_linear_74_14" x1="162.702" y1="205.309" x2="452.719" y2="160.208" gradientUnits="userSpaceOnUse">
<stop stop-color="#165ABF"/>
<stop offset="0.310417" stop-color="#4845D8"/>
<stop offset="0.585928" stop-color="#7088DE"/>
<stop offset="1" stop-color="#5875DB"/>
</linearGradient>
<radialGradient id="paint54_radial_74_14" cx="0" cy="0" r="1" gradientUnits="userSpaceOnUse" gradientTransform="translate(240.245 394.173) rotate(11.9101) scale(87.7838 87.7892)">
<stop stop-color="#4554D8"/>
<stop offset="0.99" stop-color="#7088DE"/>
</radialGradient>
<radialGradient id="paint55_radial_74_14" cx="0" cy="0" r="1" gradientUnits="userSpaceOnUse" gradientTransform="translate(319.212 129.808) rotate(-36.6506) scale(55.3301 46.4962)">
<stop offset="0.01" stop-color="#FFB6B4"/>
<stop offset="0.19" stop-color="#FFCAC8"/>
<stop offset="0.44" stop-color="#FFDDDC"/>
<stop offset="0.67" stop-color="#FFE6E5"/>
<stop offset="0.87" stop-color="#FFF8F8"/>
<stop offset="1" stop-color="white"/>
</radialGradient>
<linearGradient id="paint56_linear_74_14" x1="139.444" y1="210.985" x2="191.543" y2="210.985" gradientUnits="userSpaceOnUse">
<stop stop-color="#5A45D8"/>
<stop offset="1" stop-color="#7088DE"/>
</linearGradient>
<radialGradient id="paint57_radial_74_14" cx="0" cy="0" r="1" gradientUnits="userSpaceOnUse" gradientTransform="translate(390.071 201.798) scale(60.5453 80.527)">
<stop stop-color="#E0E7FF"/>
<stop offset="1" stop-color="#9A93D6"/>
</radialGradient>
<radialGradient id="paint58_radial_74_14" cx="0" cy="0" r="1" gradientUnits="userSpaceOnUse" gradientTransform="translate(379.411 199.217) scale(87.6609 108.702)">
<stop stop-color="#E36E92"/>
<stop offset="1" stop-color="#7A5FAC"/>
</radialGradient>
<linearGradient id="paint59_linear_74_14" x1="369.871" y1="219.393" x2="369.871" y2="136.979" gradientUnits="userSpaceOnUse">
<stop stop-color="#BB424B"/>
<stop offset="1" stop-color="#6F187C"/>
</linearGradient>
<radialGradient id="paint60_radial_74_14" cx="0" cy="0" r="1" gradientUnits="userSpaceOnUse" gradientTransform="translate(217.292 110.364) scale(17.6853 23.5219)">
<stop stop-color="#EAEFFF"/>
<stop offset="0.99" stop-color="#D2B5ED"/>
</radialGradient>
<linearGradient id="paint61_linear_74_14" x1="227.296" y1="114.345" x2="287.978" y2="114.345" gradientUnits="userSpaceOnUse">
<stop stop-color="#EAEFFF"/>
<stop offset="0.99" stop-color="#B586E2"/>
</linearGradient>
<linearGradient id="paint62_linear_74_14" x1="192.335" y1="231.092" x2="205.811" y2="231.092" gradientUnits="userSpaceOnUse">
<stop offset="0.01" stop-color="#B586E2"/>
<stop offset="1" stop-color="#EAEFFF"/>
</linearGradient>
<linearGradient id="paint63_linear_74_14" x1="182.331" y1="279.912" x2="204.855" y2="279.912" gradientUnits="userSpaceOnUse">
<stop offset="0.01" stop-color="#B586E2"/>
<stop offset="1" stop-color="#EAEFFF"/>
</linearGradient>
<linearGradient id="paint64_linear_74_14" x1="195.479" y1="320.641" x2="287.978" y2="320.641" gradientUnits="userSpaceOnUse">
<stop stop-color="#EAEFFF"/>
<stop offset="0.99" stop-color="#B586E2"/>
</linearGradient>
<linearGradient id="paint65_linear_74_14" x1="413.907" y1="242.354" x2="439.929" y2="242.354" gradientUnits="userSpaceOnUse">
<stop stop-color="#EAEFFF"/>
<stop offset="0.99" stop-color="#B586E2"/>
</linearGradient>
<radialGradient id="paint66_radial_74_14" cx="0" cy="0" r="1" gradientUnits="userSpaceOnUse" gradientTransform="translate(348.359 283.015) scale(97.4739 129.643)">
<stop stop-color="#5997FF"/>
<stop offset="1" stop-color="#0093FF"/>
</radialGradient>
<radialGradient id="paint67_radial_74_14" cx="0" cy="0" r="1" gradientUnits="userSpaceOnUse" gradientTransform="translate(243.751 102.33) scale(45.1288 60.0226)">
<stop stop-color="#E0E7FF"/>
<stop offset="1" stop-color="#9A93D6"/>
</radialGradient>
<radialGradient id="paint68_radial_74_14" cx="0" cy="0" r="1" gradientUnits="userSpaceOnUse" gradientTransform="translate(201.684 209.832) scale(10.387 13.815)">
<stop stop-color="#E0E7FF"/>
<stop offset="1" stop-color="#9A93D6"/>
</radialGradient>
<linearGradient id="paint69_linear_74_14" x1="153.876" y1="247.138" x2="205.811" y2="247.138" gradientUnits="userSpaceOnUse">
<stop stop-color="#E0E7FF"/>
<stop offset="1" stop-color="#9A93D6"/>
</linearGradient>
<linearGradient id="paint70_linear_74_14" x1="224.617" y1="322.992" x2="293.718" y2="322.992" gradientUnits="userSpaceOnUse">
<stop stop-color="#EAEFFF"/>
<stop offset="0.99" stop-color="#B586E2"/>
</linearGradient>
<radialGradient id="paint71_radial_74_14" cx="0" cy="0" r="1" gradientUnits="userSpaceOnUse" gradientTransform="translate(390.235 188.434) scale(75.2512 54.9345)">
<stop offset="0.01" stop-color="#8690CE"/>
<stop offset="0.67" stop-color="#DADDF0"/>
<stop offset="1" stop-color="white"/>
</radialGradient>
<radialGradient id="paint72_radial_74_14" cx="0" cy="0" r="1" gradientUnits="userSpaceOnUse" gradientTransform="translate(459.282 197.617) scale(16.2912 21.6678)">
<stop stop-color="#E0E7FF"/>
<stop offset="1" stop-color="#9A93D6"/>
</radialGradient>
<radialGradient id="paint73_radial_74_14" cx="0" cy="0" r="1" gradientUnits="userSpaceOnUse" gradientTransform="translate(432.904 104.838) scale(30.5324 40.6089)">
<stop stop-color="#E0E7FF"/>
<stop offset="1" stop-color="#9A93D6"/>
</radialGradient>
<linearGradient id="paint74_linear_74_14" x1="214.039" y1="408.195" x2="242.466" y2="408.195" gradientUnits="userSpaceOnUse">
<stop stop-color="#EAEFFF"/>
<stop offset="0.99" stop-color="#B586E2"/>
</linearGradient>
<linearGradient id="paint75_linear_74_14" x1="198.157" y1="185.006" x2="219.588" y2="185.006" gradientUnits="userSpaceOnUse">
<stop offset="0.01" stop-color="#B586E2"/>
<stop offset="1" stop-color="#EAEFFF"/>
</linearGradient>
<radialGradient id="paint76_radial_74_14" cx="0" cy="0" r="1" gradientUnits="userSpaceOnUse" gradientTransform="translate(264.634 374.846) scale(32.1997 32.2004)">
<stop stop-color="#E0E7FF"/>
<stop offset="1" stop-color="#9A93D6"/>
</radialGradient>
<radialGradient id="paint77_radial_74_14" cx="0" cy="0" r="1" gradientUnits="userSpaceOnUse" gradientTransform="translate(853.605 280.705) scale(734.28 734.295)">
<stop stop-color="#EAEFFF"/>
<stop offset="0.99" stop-color="#D2CFED"/>
</radialGradient>
<linearGradient id="paint78_linear_74_14" x1="303.886" y1="160.815" x2="438.89" y2="160.815" gradientUnits="userSpaceOnUse">
<stop offset="0.01" stop-color="#6DD1E2"/>
<stop offset="1" stop-color="#89DDFF"/>
</linearGradient>
<clipPath id="clip0_74_14">
<rect width="87.853" height="87.853" fill="white" transform="translate(376.176 359.553) rotate(22.5018)"/>
</clipPath>
<clipPath id="clip1_74_14">
<rect width="34.0972" height="34.0972" fill="white" transform="translate(519 220.209) rotate(-5.40058)"/>
</clipPath>
<clipPath id="clip2_74_14">
<rect width="55" height="55" fill="white" transform="translate(58 351)"/>
</clipPath>
</defs>
</svg>
