<svg width="860" height="1207" viewBox="0 0 860 1207" fill="none" xmlns="http://www.w3.org/2000/svg">
<path d="M167 138C214.5 149.167 238 128 294 56C364 -34 517.501 32.4999 521.001 87.4999C524.501 142.5 424.001 161 445.501 95.9999C467.001 30.9999 539.501 -11.0001 592.001 6.99987C644.501 24.9999 661.501 81.6838 651.501 126.184C638.804 182.684 560.499 190.316 584.5 281.5C596.862 328.465 683.491 351.184 736.501 351.184C809 351.184 844 395.5 852 421.5C866.308 468 852 570.653 770.5 633.816C670.5 711.316 570.501 698.816 532.501 633.816C494.501 568.816 605.001 533.816 613.501 594.816C622.001 655.816 550.479 720.597 461.5 706.316C310 682 328 523 199.001 500.5C28.832 470.819 -22.7939 634.5 13.5012 742.5C34.0012 803.5 140.868 830.817 189.501 762.499C231.5 703.5 310.5 660.499 353.001 732.999C386.187 789.611 328.117 851.999 353.001 914.499C374.501 968.499 410.001 954.184 501.001 953.184C592.001 952.184 671.914 935.08 696 1041.5C723.501 1163 517 1216.5 431.5 1187C318.612 1148.05 353 1058.5 267.5 1019.5C154.219 967.828 144.075 1077.96 199.001 1067.18C252.501 1056.68 274.503 998.187 229.5 953.184C189.501 913.184 -16.4998 898 13.5008 1041.5C32.2041 1130.96 136 1078.5 159 1150.5C166.395 1173.65 150 1216.5 72.0006 1201.18" stroke="#3439B0" stroke-opacity="0.35" stroke-width="5"/>
</svg>
