<svg width="1440" height="646" viewBox="0 0 1440 646" fill="none" xmlns="http://www.w3.org/2000/svg">
<path d="M1445 0C1445 0 1373.55 25.0388 1364.79 38.9064C1356.03 52.774 1339.36 121.342 1323.56 135.209C1307.76 149.077 1295.74 161.982 1260.87 164.871C1226 167.567 1218.79 162.945 1209.34 174.116C1199.89 185.287 1210.88 207.437 1183.23 233.246C1155.4 259.247 1152.31 263.87 1131.7 263.87C1111.09 263.87 1119.85 245.38 1092.88 272.152C1065.92 298.924 1065.92 336.868 1026.92 349.002C988.106 360.943 946.711 340.72 905.487 338.794C864.264 336.868 876.115 349.965 800.711 352.661C725.306 355.358 699.885 343.416 679.273 347.076C658.661 350.735 642 353.047 642 353.047C642 353.047 606.273 342.453 570.546 336.868C534.819 331.282 527.605 372.115 501.496 380.397C475.388 388.679 448.249 356.321 406.339 355.358C364.256 354.395 353.951 361.906 324.579 354.395C295.207 347.076 316.678 350.735 270.645 303.547C224.612 256.358 239.727 203.584 211.901 173.923C184.075 144.262 173.082 160.055 163.464 124.809C154.016 89.5617 88.2306 41.2177 78.7835 30.4317C68.9929 20.031 -15 61.4413 -15 61.4413V646H1445V0Z" fill="#232965" fill-opacity="0.5"/>
</svg>
