<svg width="508" height="602" viewBox="0 0 508 602" fill="none" xmlns="http://www.w3.org/2000/svg">
<path style="mix-blend-mode:color-dodge" d="M118.64 79.2374C117.451 80.7848 114.043 80.1613 111.005 77.8466C107.968 75.5319 106.487 72.4029 107.66 70.8202C108.832 69.2375 112.257 69.8964 115.295 72.2111C118.332 74.5258 119.822 77.6917 118.64 79.2374Z" fill="url(#paint0_radial_72_983)"/>
<path style="mix-blend-mode:screen" opacity="0.1" d="M117.728 111.37C131.363 103.34 135.907 85.7726 127.878 72.1312C119.848 58.4898 102.286 53.9406 88.6505 61.9703C75.0155 69.9999 70.4714 87.5678 78.501 101.209C86.5306 114.851 104.093 119.4 117.728 111.37Z" fill="url(#paint1_radial_72_983)"/>
<path style="mix-blend-mode:screen" d="M106.946 113.553C99.6096 114.527 92.1838 112.578 86.2693 108.127C80.3548 103.675 76.4253 97.0775 75.328 89.7556C75.3693 89.9096 75.3536 90.0724 75.3781 90.2375C76.3649 97.6595 80.2586 104.386 86.2026 108.937C92.1465 113.488 99.6539 115.491 107.073 114.506C114.492 113.52 121.216 109.626 125.764 103.681C130.312 97.7361 132.313 90.2266 131.327 82.8046C131.285 82.6506 131.244 82.4966 131.252 82.3294C132.103 89.6833 130.033 97.0769 125.486 102.917C120.94 108.758 114.282 112.577 106.946 113.553V113.553Z" fill="url(#paint2_linear_72_983)"/>
<path style="mix-blend-mode:screen" d="M99.6302 59.894C107.074 58.9058 114.609 60.8819 120.611 65.3968C126.614 69.9116 130.604 76.604 131.723 84.0325C131.68 83.8723 131.694 83.7034 131.669 83.5383C130.571 76.0878 126.586 69.3684 120.575 64.8329C114.564 60.2974 107.011 58.3102 99.5487 59.3012C92.0861 60.2921 85.3138 64.1814 80.6961 70.1283C76.0784 76.0751 73.9863 83.6015 74.8722 91.0802C74.9152 91.2404 74.9582 91.4005 74.9519 91.5739C74.0922 84.1105 76.1968 76.6084 80.8125 70.6832C85.4282 64.7579 92.1858 60.8834 99.6302 59.894V59.894Z" fill="url(#paint3_linear_72_983)"/>
<path style="mix-blend-mode:screen" d="M82.4673 73.859C85.138 63.5468 97.5423 57.8459 110.182 61.1355C122.821 64.4251 130.891 75.4264 128.226 85.737C125.562 96.0475 113.171 101.725 100.51 98.4544C87.8491 95.1837 79.7949 84.1651 82.4673 73.859Z" fill="url(#paint4_linear_72_983)"/>
<path style="mix-blend-mode:color-dodge" d="M166.377 16.9189C165.815 17.6508 164.203 17.3559 162.766 16.2609C161.329 15.166 160.629 13.6859 161.183 12.9372C161.738 12.1885 163.358 12.5002 164.795 13.5952C166.232 14.6901 166.937 16.1877 166.377 16.9189Z" fill="url(#paint5_radial_72_983)"/>
<path style="mix-blend-mode:screen" opacity="0.1" d="M165.945 32.1186C172.395 28.3203 174.544 20.0101 170.746 13.5572C166.948 7.10431 158.64 4.95238 152.19 8.7507C145.74 12.549 143.591 20.8593 147.389 27.3121C151.187 33.765 159.495 35.9169 165.945 32.1186Z" fill="url(#paint6_radial_72_983)"/>
<path style="mix-blend-mode:screen" d="M160.846 33.151C157.375 33.6119 153.863 32.6901 151.065 30.5844C148.267 28.4787 146.408 25.3577 145.889 21.8942C145.909 21.967 145.901 22.044 145.913 22.1221C146.38 25.633 148.222 28.8148 151.033 30.9677C153.845 33.1206 157.396 34.0681 160.906 33.6019C164.415 33.1356 167.596 31.2938 169.747 28.4815C171.899 25.6692 172.845 22.117 172.378 18.6061C172.359 18.5332 172.339 18.4604 172.343 18.3813C172.746 21.86 171.766 25.3574 169.616 28.1201C167.465 30.8827 164.316 32.6895 160.846 33.151V33.151Z" fill="url(#paint7_linear_72_983)"/>
<path style="mix-blend-mode:screen" d="M157.385 7.76868C160.906 7.30119 164.47 8.23597 167.31 10.3717C170.149 12.5074 172.037 15.6731 172.566 19.187C172.545 19.1113 172.552 19.0314 172.54 18.9533C172.021 15.4289 170.136 12.2504 167.293 10.1049C164.449 7.95947 160.876 7.0195 157.346 7.48824C153.816 7.95699 150.613 9.79678 148.428 12.6098C146.244 15.4229 145.254 18.9832 145.673 22.5209C145.694 22.5966 145.714 22.6724 145.711 22.7544C145.304 19.2239 146.3 15.6752 148.483 12.8723C150.667 10.0695 153.863 8.23671 157.385 7.76868V7.76868Z" fill="url(#paint8_linear_72_983)"/>
<path style="mix-blend-mode:screen" d="M149.266 14.3745C150.529 9.49649 156.397 6.79975 162.376 8.35583C168.355 9.91192 172.172 15.116 170.911 19.9932C169.651 24.8705 163.79 27.5561 157.801 26.009C151.812 24.4619 148.002 19.2497 149.266 14.3745Z" fill="url(#paint9_linear_72_983)"/>
<path style="mix-blend-mode:color-dodge" d="M484.739 360.39C484.177 361.122 482.565 360.827 481.128 359.732C479.691 358.637 478.991 357.157 479.546 356.408C480.1 355.659 481.72 355.971 483.157 357.066C484.594 358.161 485.299 359.659 484.739 360.39Z" fill="url(#paint10_radial_72_983)"/>
<path style="mix-blend-mode:screen" d="M484.307 375.59C490.757 371.791 492.907 363.481 489.108 357.028C485.31 350.575 477.002 348.423 470.553 352.222C464.103 356.02 461.953 364.33 465.751 370.783C469.55 377.236 477.858 379.388 484.307 375.59Z" fill="url(#paint11_radial_72_983)"/>
<path style="mix-blend-mode:screen" d="M479.208 376.622C475.738 377.083 472.225 376.161 469.427 374.055C466.629 371.95 464.771 368.829 464.251 365.365C464.271 365.438 464.264 365.515 464.275 365.593C464.742 369.104 466.584 372.286 469.396 374.439C472.207 376.592 475.759 377.539 479.268 377.073C482.778 376.607 485.958 374.765 488.11 371.952C490.261 369.14 491.208 365.588 490.741 362.077C490.721 362.004 490.702 361.931 490.705 361.852C491.108 365.331 490.129 368.828 487.978 371.591C485.828 374.354 482.678 376.16 479.208 376.622V376.622Z" fill="url(#paint12_linear_72_983)"/>
<path style="mix-blend-mode:screen" d="M475.747 351.24C479.268 350.772 482.833 351.707 485.672 353.843C488.511 355.978 490.399 359.144 490.928 362.658C490.908 362.582 490.914 362.502 490.903 362.424C490.383 358.9 488.498 355.721 485.655 353.576C482.812 351.43 479.239 350.49 475.709 350.959C472.179 351.428 468.975 353.268 466.791 356.081C464.606 358.894 463.617 362.454 464.036 365.992C464.056 366.068 464.076 366.143 464.073 366.225C463.667 362.695 464.662 359.146 466.846 356.343C469.029 353.54 472.226 351.708 475.747 351.24V351.24Z" fill="url(#paint13_linear_72_983)"/>
<path style="mix-blend-mode:screen" d="M467.628 357.845C468.891 352.967 474.759 350.271 480.738 351.827C486.717 353.383 490.534 358.587 489.274 363.464C488.013 368.341 482.152 371.027 476.163 369.48C470.174 367.933 466.364 362.721 467.628 357.845Z" fill="url(#paint14_linear_72_983)"/>
<path d="M143.589 336.741C143.589 336.741 137.393 410.873 146.817 414.42C156.241 417.966 182.64 375.58 182.64 375.58C182.64 375.58 158.143 360.01 143.589 336.741Z" fill="url(#paint15_linear_72_983)"/>
<path style="mix-blend-mode:multiply" d="M152.553 350.956C152.553 350.956 142.984 411.507 146.789 414.391C150.593 417.274 168.605 400.176 182.612 375.552C182.641 375.58 161.775 361.625 152.553 350.956Z" fill="url(#paint16_linear_72_983)"/>
<path d="M90.8483 227.374C90.8483 227.374 88.7156 273.163 125.288 281.582L135.116 214.976C135.116 214.976 103.154 207.393 90.8483 227.374Z" fill="url(#paint17_radial_72_983)"/>
<path d="M111.454 258.14C111.454 258.14 94.1622 250.787 91.9719 225.241C91.4071 221.865 91.614 218.405 92.5771 215.12C95.0645 214.297 97.6205 213.699 100.214 213.332C103.723 215.872 106.417 219.379 107.967 223.424C109.132 219.976 110.75 216.699 112.78 213.678C116.354 214.37 122.982 211.862 126.931 213.678C130.908 225.99 123.991 252.546 111.454 258.14Z" fill="url(#paint18_radial_72_983)"/>
<path d="M105.691 270.625V276.392C105.691 276.392 116.902 291.299 132.58 295.567L126.153 275.585C126.153 275.585 113.299 274.893 105.691 270.625Z" fill="url(#paint19_radial_72_983)"/>
<path d="M159.181 188.651C159.181 188.651 147.105 180.289 120.677 184.7C94.2491 189.112 84.3926 225.385 84.3926 225.385L90.8483 227.317C101.654 218.824 115.29 214.772 128.977 215.985L159.181 188.651Z" fill="url(#paint20_linear_72_983)"/>
<path style="mix-blend-mode:multiply" d="M85.6607 221.608C100.21 209.604 118.699 203.438 137.537 204.307L121.888 219.676C111.011 219.144 100.217 221.821 90.8483 227.375L84.3926 225.443L85.6607 221.608Z" fill="url(#paint21_linear_72_983)"/>
<path d="M355.071 75.6221C355.071 75.6221 397.206 108.32 403.864 141.565H415.392L405.968 144.448C405.968 144.448 417.15 168.582 418.188 186.43C418.188 186.43 442.339 144.737 433.577 111.463C424.816 78.1883 355.071 75.6221 355.071 75.6221Z" fill="url(#paint22_linear_72_983)"/>
<path d="M422.712 210.074C419.844 229.864 415.46 249.403 409.599 268.52C391.211 329.302 351.382 409.172 261.867 404.789C151.803 399.253 115.345 296.576 107.938 252.95C106.209 242.829 106.065 235.65 106.958 232.766C110.129 222.819 144.713 186.632 208.376 169.332C272.04 152.032 391.615 159.211 403.172 158.145C414.729 157.078 439.168 136.087 439.168 136.087C440.234 160.105 422.712 210.074 422.712 210.074Z" fill="url(#paint23_radial_72_983)"/>
<path d="M422.712 210.074C420.027 228.603 416.001 246.913 410.665 264.858C410.665 264.858 410.665 265.147 410.665 265.233C410.377 266.242 410.06 267.28 409.743 268.29C399.079 279.823 386.917 291.789 372.853 293.346C323.859 298.709 282.271 247.818 210.423 242.281C138.574 236.745 108.053 252.863 108.053 252.863C106.324 242.743 106.18 235.563 107.074 232.68C110.244 222.732 144.828 186.546 208.492 169.245C268.553 152.752 378.531 158.375 400.347 158.173C401.654 158.173 402.615 158.173 403.229 158.173C408.993 157.654 417.639 152.406 425.104 147.101C431.819 142.343 437.439 137.644 438.851 136.461L439.082 136.26C440.234 160.105 422.712 210.074 422.712 210.074Z" fill="url(#paint24_linear_72_983)"/>
<path d="M363.342 243.089L374.323 241.647C374.323 241.647 374.323 180.001 327.577 172.446C286.306 165.699 268.985 201.28 264.604 215.149L268.985 219.272C268.985 219.272 281.925 267.742 312.965 278.324C349.393 290.809 363.342 243.089 363.342 243.089Z" fill="url(#paint25_linear_72_983)"/>
<path style="mix-blend-mode:multiply" d="M369.597 283.053C369.597 283.053 371.701 335.79 355.187 368.833C363.283 360.803 370.508 351.941 376.744 342.393L378.387 281.467L369.597 283.053Z" fill="url(#paint26_linear_72_983)"/>
<path style="mix-blend-mode:multiply" opacity="0.5" d="M165.614 342.859C174.299 338.341 171.965 316.639 160.401 294.386C148.837 272.132 132.422 257.755 123.737 262.273C115.052 266.79 117.385 288.492 128.949 310.745C140.513 332.999 156.928 347.376 165.614 342.859Z" fill="url(#paint27_radial_72_983)"/>
<path d="M360.028 240.061C360.028 240.061 347.376 272.442 313.916 268.607C282.963 265.031 273.136 216.389 273.136 216.389C278.348 215.45 283.633 214.978 288.929 214.976C293.374 214.919 297.819 215.101 302.244 215.524C309.243 216.218 316.162 217.57 322.908 219.56C328.88 221.309 334.67 223.626 340.2 226.481C347.362 230.142 354.026 234.706 360.028 240.061Z" fill="url(#paint28_radial_72_983)"/>
<path d="M369.597 283.052C370.204 278.417 371.94 274.001 374.654 270.195C377.368 266.389 380.976 263.308 385.16 261.225C398.964 254.738 405.968 264.109 397.754 272.067C397.754 272.067 416.458 314.395 417.15 347.294C417.842 380.194 388.128 415.054 380.779 414.419C373.43 413.785 377.638 283.052 377.638 283.052C377.638 283.052 371.239 285.647 369.597 283.052Z" fill="url(#paint29_linear_72_983)"/>
<path d="M439.169 135.942L438.938 136.144L425.191 146.784C429.436 138.742 431.653 129.784 431.646 120.689C431.589 113.026 429.151 105.569 424.672 99.3522C409.599 78.5342 358.587 75.8815 355.244 75.7085C358.616 75.7085 414.614 76.0257 431.128 96.6419C434.743 101.039 437.562 106.035 439.457 111.405C442.409 119.336 442.307 128.083 439.169 135.942V135.942Z" fill="url(#paint30_linear_72_983)"/>
<path d="M140.852 295.451C140.852 295.451 161.314 313.876 199.789 310.993C238.264 308.109 261.32 270.625 261.32 270.625C264.083 273.18 265.85 276.634 266.306 280.371C266.738 286.138 259.908 373.245 222.672 375.523C185.436 377.801 144.022 325.64 140.852 295.451Z" fill="url(#paint31_radial_72_983)"/>
<path d="M260.167 272.442C260.167 272.442 239.301 312.29 199.443 314.395C159.585 316.5 143.33 297.354 143.33 297.354C143.33 297.354 150.477 335.011 182.468 358.222C214.458 381.434 237.024 371.255 250.31 346.227C263.597 321.2 265.009 280.803 264.317 278.9C263.128 276.629 261.739 274.467 260.167 272.442Z" fill="url(#paint32_linear_72_983)"/>
<path d="M252.213 342.393C249.331 349.543 247.342 349.024 242.27 358.107C237.197 367.19 219.934 452.019 205.207 454.873C204.685 454.989 204.144 454.989 203.622 454.873C188.578 451.384 165.695 362.893 179.499 352.744C181.578 351.484 183.912 350.706 186.33 350.466C194.976 349.082 209.588 349.63 226.88 347.583C234.892 346.458 252.213 342.393 252.213 342.393Z" fill="url(#paint33_linear_72_983)"/>
<path d="M303.137 261.052C303.137 261.052 280.86 242.426 284.001 224.318C284.38 220.659 286.194 217.299 289.044 214.976C293.489 214.919 297.934 215.101 302.359 215.524C306.641 218.277 309.783 222.486 311.207 227.374C314.774 224.262 318.749 221.652 323.023 219.618C328.995 221.367 334.786 223.684 340.315 226.538C341.728 239.11 325.905 259.409 303.137 261.052Z" fill="url(#paint34_radial_72_983)"/>
<path style="mix-blend-mode:multiply" d="M264.604 215.034C284.109 209.039 304.852 208.323 324.723 212.958C359.019 220.627 374.323 241.791 374.323 241.791L363.342 243.233L361.152 249.173C361.152 249.173 336.021 220.771 268.928 219.301L264.604 215.034Z" fill="url(#paint35_linear_72_983)"/>
<path style="mix-blend-mode:soft-light" d="M233.45 400.839C233.45 400.839 273.251 409.287 319.45 386.422C356.426 368.256 376.6 327.947 376.6 327.947V342.364C376.6 342.364 357.463 375.84 321.208 393.198C284.952 410.556 245.44 404.385 233.45 400.839Z" fill="url(#paint36_radial_72_983)"/>
<path style="mix-blend-mode:multiply" d="M397.754 272.067C397.754 272.067 396.861 265.637 386.802 270.395C381.269 273.018 377.638 283.053 377.638 283.053C378.097 277.722 380.412 272.721 384.18 268.924C388.906 263.993 400.838 261.427 400.204 268.924L397.754 272.067Z" fill="url(#paint37_linear_72_983)"/>
<path style="mix-blend-mode:multiply" d="M384.986 412.718C384.986 412.718 384.583 283.254 395.275 281.524C405.967 279.794 415.449 324.775 417.15 347.294C418.85 369.813 398.1 406.692 384.986 412.718Z" fill="url(#paint38_linear_72_983)"/>
<path style="mix-blend-mode:multiply" d="M374.237 239.11C374.237 239.11 373.718 198.887 340.315 176.194C340.315 176.194 378.272 183.432 374.237 239.11Z" fill="url(#paint39_linear_72_983)"/>
<path style="mix-blend-mode:multiply" d="M264.604 215.034C264.604 215.034 267.717 198.137 290.139 179.597C290.139 179.597 268.005 187.007 264.604 215.034Z" fill="url(#paint40_linear_72_983)"/>
<path style="mix-blend-mode:soft-light" opacity="0.5" d="M109.985 226.971C109.985 226.971 125.375 219.099 182.641 215.264C239.907 211.429 260.455 191.794 277.373 179.597C311.957 154.511 322.044 165.18 348.27 171.495C374.497 177.809 409.801 160.451 409.801 160.451C363.589 157.309 317.216 157.309 271.003 160.451C195.783 165.699 148.316 187.814 109.985 226.971Z" fill="url(#paint41_radial_72_983)"/>
<path style="mix-blend-mode:multiply" opacity="0.5" d="M253.307 268.319C253.307 268.319 265.325 270.654 272.819 287.493C274.03 280.82 272.582 273.937 268.784 268.319C262.501 259.986 253.307 268.319 253.307 268.319Z" fill="url(#paint42_linear_72_983)"/>
<path style="mix-blend-mode:soft-light" d="M376.6 321.805C376.6 321.805 386.283 338.846 385.851 354.589C385.419 370.333 377.637 400.377 377.637 400.377L376.6 321.805Z" fill="url(#paint43_radial_72_983)"/>
<path style="mix-blend-mode:soft-light" d="M109.985 226.971C109.985 226.971 149.757 190.582 217.542 171.494C285.327 152.406 400.233 158.173 400.233 158.173C400.233 158.173 290.918 151.513 217.542 167.112C144.166 182.711 109.985 226.971 109.985 226.971Z" fill="url(#paint44_radial_72_983)"/>
<path style="mix-blend-mode:soft-light" d="M87.9951 215.841C87.9951 215.841 100.388 194.821 121.801 188.247C132.41 184.729 143.77 184.141 154.685 186.546C154.685 186.546 130.044 178.905 112.867 187.584C101.474 193.735 92.6536 203.757 87.9951 215.841V215.841Z" fill="url(#paint45_radial_72_983)"/>
<path style="mix-blend-mode:soft-light" d="M273.223 212.669C273.223 212.669 293.397 181.529 316.626 183.432C339.855 185.335 361.902 229.825 361.902 229.825C361.902 229.825 327.405 201.885 273.223 212.669Z" fill="url(#paint46_radial_72_983)"/>
<path d="M301.668 210.074C301.668 210.074 311.092 202.404 317.663 211.343C317.577 211.429 306.279 210.074 301.668 210.074Z" fill="white"/>
<path style="mix-blend-mode:soft-light" d="M84.3926 223.511C84.3926 223.511 102.175 193.062 118.977 192.543C135.779 192.024 134.396 204.077 134.396 204.077C115.875 204.017 98.0158 210.958 84.3926 223.511V223.511Z" fill="url(#paint47_radial_72_983)"/>
<path d="M338.961 241.936C338.966 242.622 338.768 243.295 338.39 243.869C338.012 244.442 337.472 244.89 336.839 245.155C336.206 245.421 335.508 245.492 334.835 245.359C334.161 245.227 333.542 244.896 333.057 244.411C332.571 243.925 332.242 243.306 332.109 242.632C331.976 241.958 332.047 241.26 332.313 240.627C332.578 239.993 333.026 239.453 333.599 239.075C334.172 238.697 334.845 238.499 335.531 238.504C336.441 238.504 337.313 238.866 337.956 239.509C338.599 240.153 338.961 241.025 338.961 241.936V241.936Z" fill="white"/>
<path d="M99.4079 243.637C99.4079 245.54 98.4568 247.068 97.2463 247.068C96.0359 247.068 95.0848 245.54 95.0848 243.637C95.0848 241.734 96.0647 240.177 97.2463 240.177C98.428 240.177 99.4079 241.791 99.4079 243.637Z" fill="white"/>
<path d="M283.713 402.05C283.713 402.05 310.688 400.983 340.315 377.887C322.382 387.977 303.403 396.079 283.713 402.05V402.05Z" fill="white"/>
<path style="mix-blend-mode:soft-light" d="M287.402 247.385L278.756 229.825L298.786 221.81L309.708 223.367C309.708 223.367 291.264 237.092 287.402 247.385Z" fill="url(#paint48_radial_72_983)"/>
<path style="mix-blend-mode:soft-light" d="M295.154 262.35C295.154 262.35 309.247 273.883 325.041 274.806C340.834 275.729 351.527 256.727 351.527 256.727C351.527 256.727 330.488 283.053 295.154 262.35Z" fill="url(#paint49_radial_72_983)"/>
<path style="mix-blend-mode:multiply" d="M405.42 281.495L405.593 281.121L405.42 281.495Z" fill="url(#paint50_linear_72_983)"/>
<path style="mix-blend-mode:multiply" d="M439.169 135.942C440.235 160.105 422.712 210.074 422.712 210.074C420.028 228.603 416.002 246.913 410.665 264.858C418.901 234.431 421.142 202.692 417.265 171.408C417.265 171.408 416.948 157.885 400.233 158.173C401.539 158.173 402.5 158.173 403.115 158.173C408.879 157.654 417.525 152.406 424.989 147.101C429.355 138.983 431.642 129.908 431.647 120.689L439.457 111.405C442.409 119.336 442.307 128.083 439.169 135.942V135.942Z" fill="url(#paint51_linear_72_983)"/>
<path style="mix-blend-mode:multiply" d="M403.864 141.565L402.538 136.779C402.538 136.779 422.395 136.779 427.093 142.372C419.418 141.098 411.609 140.827 403.864 141.565V141.565Z" fill="url(#paint52_linear_72_983)"/>
<path style="mix-blend-mode:soft-light" d="M236.102 377.887C236.102 377.887 250.512 371.947 261.031 319.787C261.031 319.787 253.653 352.888 238.782 368.285L236.102 377.887Z" fill="url(#paint53_radial_72_983)"/>
<path style="mix-blend-mode:multiply" opacity="0.5" d="M233.45 387.489C238.918 382.981 243.433 377.429 246.733 371.156C250.034 364.884 252.053 358.017 252.673 350.956C248.42 361.137 242.712 370.645 235.727 379.185L233.45 387.489Z" fill="url(#paint54_radial_72_983)"/>
<path style="mix-blend-mode:multiply" d="M242.269 358.136C242.269 358.136 237.716 384.807 245.785 403.405C240.457 402.538 235.176 401.403 229.963 400.002C229.963 400.002 238.551 365.777 242.269 358.136Z" fill="url(#paint55_linear_72_983)"/>
<path style="mix-blend-mode:multiply" d="M252.212 342.393C249.33 349.543 247.341 349.024 242.269 358.107C237.197 367.19 219.933 452.019 205.206 454.873C214.602 448.732 217.599 420.273 225.38 394.899C233.162 369.525 246.189 348.765 243.134 346.458C240.079 344.151 218.55 355.108 206.129 354.618C199.343 354.483 192.645 353.065 186.387 350.437C195.033 349.053 209.645 349.601 226.937 347.554C234.891 346.458 252.212 342.393 252.212 342.393Z" fill="url(#paint56_linear_72_983)"/>
<path style="mix-blend-mode:soft-light" d="M229.964 350.956C226.909 350.264 209.213 357.357 206.072 362.865C202.93 368.372 201.288 445.243 206.072 446.31C210.856 447.376 216.188 417.908 225.324 387.489C234.46 357.069 229.964 350.956 229.964 350.956Z" fill="url(#paint57_radial_72_983)"/>
<path d="M219.271 409.028C219.271 409.028 218.32 389.997 225.323 382.731C225.308 391.841 223.24 400.829 219.271 409.028V409.028Z" fill="white"/>
<path style="mix-blend-mode:soft-light" d="M141.975 395.994C141.975 395.994 148.546 390.43 149.007 375.811C149.474 367.669 147.464 359.577 143.243 352.6C141.964 367.027 141.541 381.517 141.975 395.994V395.994Z" fill="url(#paint58_radial_72_983)"/>
<path style="mix-blend-mode:soft-light" d="M177.741 217.081C177.741 217.081 236.015 218.984 253.221 218.148C253.307 218.148 225.323 206.585 177.741 217.081Z" fill="url(#paint59_radial_72_983)"/>
<path d="M146.875 308.801C153.977 315.288 162.011 320.673 170.709 324.775C183.345 330.525 197.512 331.992 211.057 328.956C226.149 325.141 239.366 316.022 248.293 303.265C254.054 295.102 259.045 285.846 263.176 276.748L260.04 272.266C260.04 272.266 238.638 308.253 208.291 313.27C180.623 317.826 157.567 308.57 151.169 303.669C148.451 301.698 145.835 299.59 143.33 297.354L146.875 308.801Z" fill="url(#paint60_radial_72_983)"/>
<g clip-path="url(#clip0_72_983)">
<path d="M394.683 532.608C413.302 539.145 433.696 529.365 440.234 510.763C446.773 492.161 436.98 471.782 418.361 465.244C399.743 458.707 379.349 468.487 372.81 487.089C366.272 505.691 376.065 526.07 394.683 532.608Z" fill="#FFFEF3"/>
<path d="M440.826 512.978C434.327 531.5 414.16 541.298 395.778 534.852C377.42 528.397 367.8 508.158 374.298 489.635C380.797 471.113 400.957 461.33 419.338 467.776C437.704 474.216 447.324 494.455 440.826 512.978Z" fill="#B37E38"/>
<path d="M440.211 511.355C433.834 529.504 413.774 538.997 395.408 532.558C377.042 526.118 367.314 506.184 373.692 488.035C380.054 469.879 400.114 460.386 418.495 466.832C436.861 473.272 446.589 493.206 440.211 511.355Z" fill="url(#paint61_linear_72_983)"/>
<path d="M433.098 508.762C428.096 522.992 412.382 530.426 397.976 525.381C383.57 520.336 375.953 504.703 380.954 490.473C385.949 476.259 401.67 468.809 416.069 473.87C430.475 478.915 438.092 494.548 433.098 508.762Z" fill="#BE8C40"/>
<path d="M432.961 510.272C428.081 524.166 412.613 531.398 398.412 526.432C384.219 521.45 376.654 506.142 381.533 492.248C386.42 478.339 401.888 471.106 416.082 476.088C430.29 481.077 437.84 496.378 432.961 510.272Z" fill="#F9EAAA"/>
<path d="M432.532 508.812C427.781 522.355 412.589 529.362 398.601 524.46C384.613 519.557 377.138 504.61 381.888 491.067C386.639 477.524 401.831 470.517 415.819 475.419C429.807 480.322 437.282 495.269 432.532 508.812Z" fill="url(#paint62_linear_72_983)"/>
<path opacity="0.2" d="M381.926 491.46C381.919 491.475 381.919 491.475 381.911 491.491C377.219 504.873 384.691 519.669 398.61 524.558C412.529 529.447 427.626 522.563 432.319 509.18C432.327 509.164 432.327 509.164 432.334 509.149L381.926 491.46Z" fill="#F3931A"/>
<g filter="url(#filter0_d_72_983)">
<path d="M414.618 480.517L409.73 479.226L408.852 482.689C402.495 482.048 398.611 484.552 397.355 489.559C396.842 491.583 397.038 493.494 397.928 495.285C398.754 496.933 400.883 498.713 404.33 500.595L401.971 509.932C399.422 508.721 398.101 506.538 398.024 503.353L392.902 506.335C393.939 510.689 395.337 512.553 400.513 514.656L399.376 518.82L404.707 520.322L405.691 516.123C408.816 516.558 411.549 515.963 413.591 514.816C415.806 513.581 417.294 511.552 417.947 508.957C418.418 507.138 418.274 505.196 417.752 503.617C417.23 502.038 416.496 500.865 415.544 500.112C414.676 499.419 412.983 498.333 410.482 496.864L412.567 488.615C414.248 489.488 415.179 491.074 415.36 493.371L420.633 493.103C420.399 488.83 418.157 485.947 413.877 484.007L414.618 480.517ZM402.81 490.089C403.141 488.803 403.85 487.94 404.946 487.524C405.787 487.211 406.715 487.108 407.701 487.239L405.777 494.872C403.303 493.659 402.319 492.067 402.81 490.089ZM412.467 507.928C412.123 509.282 411.347 510.245 410.133 510.83C409.122 511.305 408.021 511.457 406.83 511.285L409.042 502.533C411.869 504.026 413 505.82 412.467 507.928Z" fill="url(#paint63_linear_72_983)"/>
</g>
</g>
<path style="mix-blend-mode:screen" opacity="0.1" d="M412.417 570.803C451.209 567.573 480.044 533.496 476.821 494.69C473.598 455.883 439.538 427.043 400.745 430.273C361.953 433.503 333.119 467.58 336.342 506.387C339.565 545.193 373.625 574.033 412.417 570.803Z" fill="url(#paint64_radial_72_983)"/>
<path style="mix-blend-mode:screen" d="M386.193 564.124C368.895 558.447 354.521 546.197 346.169 530.015C337.817 513.833 336.156 495.014 341.545 477.617C341.472 478.002 341.264 478.346 341.142 478.738C335.401 496.24 336.845 515.305 345.155 531.739C353.466 548.174 367.963 560.631 385.457 566.372C402.951 572.112 422.009 570.665 438.439 562.349C454.868 554.033 467.323 539.529 473.064 522.027C473.137 521.642 473.21 521.256 473.406 520.894C467.438 538.1 454.952 552.273 438.639 560.359C422.326 568.445 403.491 569.797 386.193 564.124V564.124Z" fill="url(#paint65_linear_72_983)"/>
<path style="mix-blend-mode:screen" d="M427.294 437.4C444.846 443.161 459.432 455.588 467.911 472.005C476.391 488.422 478.085 507.514 472.629 525.17C472.705 524.77 472.916 524.41 473.038 524.018C478.563 506.335 476.909 487.188 468.433 470.716C459.958 454.245 445.342 441.774 427.747 435.999C410.151 430.224 390.989 431.609 374.404 439.855C357.819 448.101 345.144 462.545 339.119 480.064C339.043 480.465 338.967 480.866 338.768 481.244C344.835 463.786 357.512 449.409 374.069 441.209C390.627 433.009 409.74 431.641 427.294 437.4V437.4Z" fill="url(#paint66_linear_72_983)"/>
<path style="mix-blend-mode:screen" d="M374.345 450.015C391.278 430.015 424.856 430.631 449.352 451.422C473.848 472.213 479.979 505.211 463.061 525.213C446.143 545.216 412.621 544.562 388.057 523.791C363.494 503.019 357.415 469.999 374.345 450.015Z" fill="url(#paint67_linear_72_983)"/>
<g clip-path="url(#clip1_72_983)">
<path d="M318.86 516.036C330.175 512.19 336.235 499.905 332.396 488.598C328.557 477.291 316.272 471.242 304.957 475.088C293.642 478.934 287.582 491.219 291.421 502.526C295.261 513.833 307.545 519.882 318.86 516.036Z" fill="#FFFEF3"/>
<path d="M333.506 489.432C337.334 500.686 331.389 512.894 320.221 516.695C309.061 520.483 296.911 514.437 293.082 503.182C289.254 491.928 295.201 479.73 306.369 475.929C317.527 472.131 329.677 478.177 333.506 489.432Z" fill="#B37E38"/>
<path d="M332.607 488.888C336.354 499.92 330.345 511.942 319.187 515.741C308.029 519.539 295.942 513.678 292.195 502.647C288.439 491.618 294.447 479.595 305.615 475.795C316.773 471.996 328.86 477.857 332.607 488.888Z" fill="url(#paint68_linear_72_983)"/>
<path d="M328.248 490.313C331.185 498.962 326.478 508.379 317.728 511.361C308.978 514.343 299.504 509.743 296.567 501.093C293.633 492.454 298.338 483.027 307.09 480.055C315.84 477.073 325.314 481.673 328.248 490.313Z" fill="#BE8C40"/>
<path d="M328.747 491.083C331.616 499.527 326.95 508.756 318.328 511.699C309.703 514.632 300.375 510.167 297.506 501.723C294.634 493.269 299.3 484.04 307.925 481.107C316.559 478.172 325.877 482.639 328.747 491.083Z" fill="#F9EAAA"/>
<path d="M327.997 490.548C330.796 498.777 326.178 507.795 317.68 510.689C309.183 513.582 300.033 509.256 297.234 501.027C294.434 492.799 299.052 483.78 307.55 480.886C316.047 477.993 325.197 482.32 327.997 490.548Z" fill="url(#paint69_linear_72_983)"/>
<path opacity="0.2" d="M297.399 501.2C297.401 501.21 297.401 501.21 297.403 501.22C300.171 509.351 309.262 513.607 317.722 510.732C326.182 507.857 330.801 498.933 328.033 490.803C328.031 490.793 328.031 490.793 328.029 490.783L297.399 501.2Z" fill="#F3931A"/>
<g filter="url(#filter1_d_72_983)">
<path d="M308.884 483.765L306.072 484.977L306.948 486.955C303.68 489.026 302.765 491.671 304.039 494.526C304.551 495.682 305.359 496.52 306.453 497.04C307.462 497.517 309.142 497.569 311.488 497.176L313.855 502.507C312.188 502.883 310.742 502.337 309.515 500.848L308.189 504.184C310.312 505.871 311.674 506.236 314.926 505.303L315.942 507.712L319.043 506.435L317.942 504.066C319.593 503.105 320.673 501.8 321.217 500.49C321.811 499.074 321.761 497.55 321.102 496.07C320.647 495.027 319.852 494.155 319.013 493.598C318.174 493.041 317.385 492.757 316.65 492.754C315.978 492.748 314.765 492.864 313.024 493.099L310.934 488.389C312.061 488.177 313.097 488.584 314.042 489.611L316.455 487.512C314.746 485.564 312.6 485.029 309.835 485.705L308.884 483.765ZM306.836 492.739C306.513 492.003 306.528 491.327 306.895 490.719C307.178 490.255 307.582 489.859 308.101 489.553L310.038 493.909C308.406 494.256 307.342 493.865 306.836 492.739ZM318.106 497.628C318.449 498.402 318.439 499.151 318.08 499.883C317.775 500.488 317.307 500.972 316.676 501.335L314.458 496.339C316.363 495.993 317.573 496.425 318.106 497.628Z" fill="url(#paint70_linear_72_983)"/>
</g>
</g>
<path style="mix-blend-mode:screen" d="M338.071 483.093C336.12 487.253 327.95 487.551 319.812 483.744C311.675 479.936 306.641 473.449 308.597 469.32C310.553 465.19 318.718 464.862 326.856 468.669C334.993 472.477 340.01 478.93 338.071 483.093Z" fill="url(#paint71_radial_72_983)"/>
<path style="mix-blend-mode:color-dodge" d="M332.646 480.555C331.411 483.186 326.252 483.368 321.092 480.971C315.933 478.573 312.779 474.493 313.979 471.815C315.18 469.138 320.373 469.002 325.533 471.4C330.693 473.797 333.873 477.928 332.646 480.555Z" fill="url(#paint72_radial_72_983)"/>
<path style="mix-blend-mode:screen" opacity="0.1" d="M341.589 527.604C358.864 511.562 359.862 484.546 343.818 467.262C327.774 449.978 300.764 448.97 283.489 465.012C266.214 481.054 265.216 508.07 281.26 525.354C297.304 542.639 324.314 543.646 341.589 527.604Z" fill="url(#paint73_radial_72_983)"/>
<path style="mix-blend-mode:screen" d="M326.598 534.226C316.234 537.988 304.806 537.526 294.777 532.938C284.748 528.351 276.921 520.006 272.984 509.702C273.094 509.913 273.123 510.155 273.211 510.387C277.019 520.872 284.835 529.416 294.939 534.139C305.042 538.862 316.607 539.377 327.088 535.572C337.569 531.767 346.108 523.952 350.827 513.848C355.546 503.743 356.057 492.176 352.249 481.691C352.14 481.48 352.031 481.269 351.989 481.024C355.578 491.453 354.928 502.873 350.178 512.825C345.429 522.776 336.961 530.462 326.598 534.226V534.226Z" fill="url(#paint74_linear_72_983)"/>
<path style="mix-blend-mode:screen" d="M298.803 458.482C309.32 454.665 320.915 455.133 331.093 459.785C341.27 464.436 349.216 472.899 353.217 483.351C353.103 483.132 353.07 482.882 352.981 482.649C349.002 472.159 341.056 463.655 330.86 458.976C320.664 454.297 309.038 453.819 298.495 457.646C287.953 461.473 279.341 469.296 274.522 479.426C269.703 489.555 269.064 501.175 272.743 511.775C272.857 511.994 272.971 512.214 273.017 512.468C269.381 501.882 270.046 490.293 274.869 480.196C279.692 470.099 288.287 462.301 298.803 458.482V458.482Z" fill="url(#paint75_linear_72_983)"/>
<path style="mix-blend-mode:screen" d="M278.292 484.288C278.883 468.429 295.111 456.169 314.555 456.917C333.999 457.664 349.257 471.094 348.674 486.949C348.092 502.804 331.876 515.025 312.407 514.312C292.938 513.599 277.697 500.139 278.292 484.288Z" fill="url(#paint76_linear_72_983)"/>
<g clip-path="url(#clip2_72_983)">
<path d="M70.3574 428.937C83.0422 427.598 92.2446 416.238 90.9114 403.562C89.5783 390.887 78.2145 381.697 65.5297 383.035C52.8449 384.374 43.6425 395.734 44.9756 408.41C46.3088 421.085 57.6726 430.275 70.3574 428.937Z" fill="#FFFEF3"/>
<path d="M91.8706 404.692C93.2051 417.31 84.1399 428.618 71.6189 429.944C59.1088 431.259 47.8846 422.102 46.5502 409.484C45.2157 396.866 54.2809 385.569 66.8019 384.243C79.312 382.918 90.5362 392.074 91.8706 404.692Z" fill="#B37E38"/>
<path d="M91.0628 403.914C92.3646 416.281 83.2778 427.381 70.7676 428.707C58.2575 430.032 47.0551 421.084 45.7532 408.718C44.4404 396.351 53.5273 385.251 66.0484 383.925C78.5585 382.6 89.7609 391.548 91.0628 403.914Z" fill="url(#paint77_linear_72_983)"/>
<path d="M86.1903 404.37C87.2101 414.066 80.0915 422.761 70.2801 423.804C60.4686 424.847 51.6901 417.826 50.6703 408.13C49.6505 398.445 56.7692 389.74 66.5806 388.708C76.392 387.665 85.1705 394.685 86.1903 404.37Z" fill="#BE8C40"/>
<path d="M86.5281 405.29C87.5262 414.756 80.4952 423.264 70.8258 424.297C61.1564 425.318 52.4979 418.473 51.4998 409.006C50.5017 399.529 57.5328 391.021 67.2022 390C76.8825 388.978 85.53 395.824 86.5281 405.29Z" fill="#F9EAAA"/>
<path d="M85.8732 404.556C86.8496 413.782 79.917 422.082 70.3897 423.093C60.8623 424.103 52.3567 417.444 51.3802 408.218C50.4038 398.993 57.3364 390.693 66.8637 389.682C76.3911 388.671 84.8967 395.331 85.8732 404.556Z" fill="url(#paint78_linear_72_983)"/>
<path opacity="0.2" d="M51.5112 408.437C51.5112 408.448 51.5112 408.448 51.5112 408.459C52.4768 417.575 60.9388 424.147 70.4225 423.147C79.9061 422.148 86.8168 413.946 85.8512 404.83C85.8512 404.819 85.8512 404.819 85.8512 404.808L51.5112 408.437Z" fill="#F3931A"/>
<g filter="url(#filter2_d_72_983)">
<path d="M67.574 392.992L64.3617 393.592L64.8079 395.857C60.9176 397.244 59.3425 399.781 59.9956 403.054C60.2568 404.378 60.9006 405.44 61.916 406.24C62.855 406.973 64.5918 407.423 67.1263 407.567L68.3344 413.674C66.51 413.673 65.1341 412.764 64.2068 410.925L62.0413 414.086C63.8532 416.341 65.1856 417.042 68.791 416.837L69.2805 419.584L72.8098 418.985L72.2218 416.26C74.1669 415.648 75.5989 414.544 76.4738 413.308C77.4253 411.974 77.7324 410.377 77.395 408.68C77.1664 407.487 76.5445 406.393 75.8022 405.615C75.0598 404.838 74.3064 404.356 73.5418 404.18C72.8427 404.015 71.5536 403.85 69.6856 403.685L68.6189 398.289C69.8425 398.334 70.8253 399.002 71.5672 400.294L74.5728 398.676C73.2526 396.246 71.1449 395.183 68.1077 395.236L67.574 392.992ZM63.3286 401.853C63.1653 401.01 63.3407 400.31 63.8655 399.763C64.27 399.347 64.7837 399.03 65.3957 398.834L66.3861 403.824C64.6054 403.801 63.5898 403.144 63.3286 401.853ZM73.9092 409.597C74.0833 410.483 73.897 411.26 73.3503 411.938C72.891 412.496 72.2899 412.889 71.5468 413.119L70.4148 407.395C72.4796 407.484 73.6371 408.218 73.9092 409.597Z" fill="url(#paint79_linear_72_983)"/>
</g>
</g>
<path style="mix-blend-mode:screen" d="M94.9203 396.436C92.3436 400.608 83.6447 399.928 75.4806 394.898C67.3165 389.868 62.7704 382.375 65.3484 378.235C67.9265 374.095 76.624 374.744 84.7881 379.773C92.9522 384.803 97.4839 392.258 94.9203 396.436Z" fill="url(#paint80_radial_72_983)"/>
<path style="mix-blend-mode:color-dodge" d="M89.4784 393.083C87.8477 395.723 82.355 395.286 77.1767 392.114C71.9983 388.942 69.1518 384.231 70.7514 381.539C72.351 378.846 77.8748 379.336 83.0531 382.507C88.2315 385.679 91.0996 390.447 89.4784 393.083Z" fill="url(#paint81_radial_72_983)"/>
<path style="mix-blend-mode:screen" opacity="0.1" d="M91.2933 446.334C113.055 433.703 120.458 405.814 107.828 384.042C95.1978 362.27 67.3172 354.859 45.5551 367.489C23.793 380.119 16.3901 408.008 29.0203 429.781C41.6506 451.553 69.5311 458.964 91.2933 446.334Z" fill="url(#paint82_radial_72_983)"/>
<path style="mix-blend-mode:screen" d="M74.1272 449.695C62.4519 451.171 50.6637 447.997 41.3039 440.859C31.9442 433.721 25.7625 423.19 24.0915 411.537C24.1557 411.782 24.129 412.04 24.1664 412.303C25.6606 424.115 31.784 434.85 41.1896 442.147C50.5952 449.444 62.5125 452.705 74.3198 451.212C86.127 449.72 96.8571 443.596 104.15 434.189C111.442 424.781 114.699 412.861 113.205 401.049C113.141 400.804 113.077 400.558 113.091 400.293C114.371 411.995 111.004 423.73 103.715 432.971C96.4273 442.212 85.8014 448.218 74.1272 449.695V449.695Z" fill="url(#paint83_linear_72_983)"/>
<path style="mix-blend-mode:screen" d="M63.0347 364.299C74.8813 362.802 86.8423 366.021 96.3415 373.26C105.841 380.5 112.118 391.182 113.822 403.005C113.755 402.75 113.779 402.482 113.742 402.219C112.071 390.361 105.801 379.636 96.2896 372.363C86.7777 365.091 74.7874 361.855 62.9111 363.355C51.0348 364.855 40.2269 370.971 32.8243 380.381C25.4216 389.79 22.019 401.737 23.3521 413.638C23.4189 413.893 23.4856 414.148 23.4739 414.424C22.1822 402.547 25.6045 390.64 33.0037 381.264C40.403 371.889 51.1874 365.797 63.0347 364.299V364.299Z" fill="url(#paint84_linear_72_983)"/>
<path style="mix-blend-mode:screen" d="M35.6041 386.331C39.9549 369.961 59.7365 361.021 79.8016 366.379C99.8667 371.737 112.587 389.312 108.246 405.68C103.905 422.048 84.1449 430.951 64.0457 425.622C43.9465 420.294 31.2507 402.692 35.6041 386.331Z" fill="url(#paint85_linear_72_983)"/>
<defs>
<filter id="filter0_d_72_983" x="391.902" y="479.226" width="28.7311" height="42.0959" filterUnits="userSpaceOnUse" color-interpolation-filters="sRGB">
<feFlood flood-opacity="0" result="BackgroundImageFix"/>
<feColorMatrix in="SourceAlpha" type="matrix" values="0 0 0 0 0 0 0 0 0 0 0 0 0 0 0 0 0 0 127 0" result="hardAlpha"/>
<feOffset dx="-1" dy="1"/>
<feComposite in2="hardAlpha" operator="out"/>
<feColorMatrix type="matrix" values="0 0 0 0 1 0 0 0 0 1 0 0 0 0 1 0 0 0 0.35 0"/>
<feBlend mode="normal" in2="BackgroundImageFix" result="effect1_dropShadow_72_983"/>
<feBlend mode="normal" in="SourceGraphic" in2="effect1_dropShadow_72_983" result="shape"/>
</filter>
<filter id="filter1_d_72_983" x="302.487" y="483.765" width="19.1445" height="24.9475" filterUnits="userSpaceOnUse" color-interpolation-filters="sRGB">
<feFlood flood-opacity="0" result="BackgroundImageFix"/>
<feColorMatrix in="SourceAlpha" type="matrix" values="0 0 0 0 0 0 0 0 0 0 0 0 0 0 0 0 0 0 127 0" result="hardAlpha"/>
<feOffset dx="-1" dy="1"/>
<feComposite in2="hardAlpha" operator="out"/>
<feColorMatrix type="matrix" values="0 0 0 0 1 0 0 0 0 1 0 0 0 0 1 0 0 0 0.35 0"/>
<feBlend mode="normal" in2="BackgroundImageFix" result="effect1_dropShadow_72_983"/>
<feBlend mode="normal" in="SourceGraphic" in2="effect1_dropShadow_72_983" result="shape"/>
</filter>
<filter id="filter2_d_72_983" x="58.8523" y="392.992" width="18.6752" height="27.5923" filterUnits="userSpaceOnUse" color-interpolation-filters="sRGB">
<feFlood flood-opacity="0" result="BackgroundImageFix"/>
<feColorMatrix in="SourceAlpha" type="matrix" values="0 0 0 0 0 0 0 0 0 0 0 0 0 0 0 0 0 0 127 0" result="hardAlpha"/>
<feOffset dx="-1" dy="1"/>
<feComposite in2="hardAlpha" operator="out"/>
<feColorMatrix type="matrix" values="0 0 0 0 1 0 0 0 0 1 0 0 0 0 1 0 0 0 0.35 0"/>
<feBlend mode="normal" in2="BackgroundImageFix" result="effect1_dropShadow_72_983"/>
<feBlend mode="normal" in="SourceGraphic" in2="effect1_dropShadow_72_983" result="shape"/>
</filter>
<radialGradient id="paint0_radial_72_983" cx="0" cy="0" r="1" gradientUnits="userSpaceOnUse" gradientTransform="translate(107.737 73.2064) rotate(37.357) scale(6.89469 3.52676)">
<stop offset="0.05" stop-color="#D9D9D9"/>
<stop offset="0.06" stop-color="#D4D3D1"/>
<stop offset="0.09" stop-color="#C7C3BC"/>
<stop offset="0.11" stop-color="#B2AA99"/>
<stop offset="0.14" stop-color="#948668"/>
<stop offset="0.18" stop-color="#6C5627"/>
<stop offset="0.27" stop-color="#52411D"/>
<stop offset="0.39" stop-color="#342A13"/>
<stop offset="0.51" stop-color="#1D170B"/>
<stop offset="0.65" stop-color="#0D0A05"/>
<stop offset="0.8" stop-color="#030201"/>
<stop offset="1"/>
</radialGradient>
<radialGradient id="paint1_radial_72_983" cx="0" cy="0" r="1" gradientUnits="userSpaceOnUse" gradientTransform="translate(103.201 86.6669) rotate(-7.56495) scale(28.689 28.7001)">
<stop offset="0.13"/>
<stop offset="0.38" stop-color="#000303"/>
<stop offset="0.53" stop-color="#292929"/>
<stop offset="0.65" stop-color="#8D8D8D"/>
<stop offset="0.75" stop-color="#9D9D9D"/>
<stop offset="0.85" stop-color="#ECECEC"/>
<stop offset="0.94" stop-color="#EEEEEE"/>
<stop offset="1" stop-color="white"/>
</radialGradient>
<linearGradient id="paint2_linear_72_983" x1="77.2167" y1="103.994" x2="133.172" y2="96.5571" gradientUnits="userSpaceOnUse">
<stop/>
<stop offset="0.07" stop-color="#282828"/>
<stop offset="0.16" stop-color="#5A5A5A"/>
<stop offset="0.26" stop-color="#868686"/>
<stop offset="0.36" stop-color="#ACACAC"/>
<stop offset="0.47" stop-color="#CACACA"/>
<stop offset="0.58" stop-color="#E1E1E1"/>
<stop offset="0.7" stop-color="#F2F2F2"/>
<stop offset="0.83" stop-color="#FCFCFC"/>
<stop offset="1" stop-color="white"/>
</linearGradient>
<linearGradient id="paint3_linear_72_983" x1="102.341" y1="80.2111" x2="98.3675" y2="50.2876" gradientUnits="userSpaceOnUse">
<stop/>
<stop offset="0.07" stop-color="#282828"/>
<stop offset="0.16" stop-color="#5A5A5A"/>
<stop offset="0.26" stop-color="#868686"/>
<stop offset="0.36" stop-color="#ACACAC"/>
<stop offset="0.47" stop-color="#CACACA"/>
<stop offset="0.58" stop-color="#E1E1E1"/>
<stop offset="0.7" stop-color="#F2F2F2"/>
<stop offset="0.83" stop-color="#FCFCFC"/>
<stop offset="1" stop-color="white"/>
</linearGradient>
<linearGradient id="paint4_linear_72_983" x1="96.3817" y1="105.857" x2="120.975" y2="46.8401" gradientUnits="userSpaceOnUse">
<stop/>
<stop offset="0.37" stop-color="#020202"/>
<stop offset="0.51" stop-color="#090909"/>
<stop offset="0.6" stop-color="#141414"/>
<stop offset="0.68" stop-color="#252525"/>
<stop offset="0.75" stop-color="#3B3B3B"/>
<stop offset="0.8" stop-color="#575757"/>
<stop offset="0.86" stop-color="#777777"/>
<stop offset="0.91" stop-color="#9D9D9D"/>
<stop offset="0.95" stop-color="#C8C8C8"/>
<stop offset="0.99" stop-color="#F6F6F6"/>
<stop offset="1" stop-color="white"/>
</linearGradient>
<radialGradient id="paint5_radial_72_983" cx="0" cy="0" r="1" gradientUnits="userSpaceOnUse" gradientTransform="translate(161.22 14.066) rotate(37.357) scale(3.26143 1.66828)">
<stop offset="0.05" stop-color="#D9D9D9"/>
<stop offset="0.06" stop-color="#D4D3D1"/>
<stop offset="0.09" stop-color="#C7C3BC"/>
<stop offset="0.11" stop-color="#B2AA99"/>
<stop offset="0.14" stop-color="#948668"/>
<stop offset="0.18" stop-color="#6C5627"/>
<stop offset="0.27" stop-color="#52411D"/>
<stop offset="0.39" stop-color="#342A13"/>
<stop offset="0.51" stop-color="#1D170B"/>
<stop offset="0.65" stop-color="#0D0A05"/>
<stop offset="0.8" stop-color="#030201"/>
<stop offset="1"/>
</radialGradient>
<radialGradient id="paint6_radial_72_983" cx="0" cy="0" r="1" gradientUnits="userSpaceOnUse" gradientTransform="translate(159.073 20.4331) rotate(-7.56495) scale(13.5709 13.5762)">
<stop offset="0.13"/>
<stop offset="0.38" stop-color="#000303"/>
<stop offset="0.53" stop-color="#292929"/>
<stop offset="0.65" stop-color="#8D8D8D"/>
<stop offset="0.75" stop-color="#9D9D9D"/>
<stop offset="0.85" stop-color="#ECECEC"/>
<stop offset="0.94" stop-color="#EEEEEE"/>
<stop offset="1" stop-color="white"/>
</radialGradient>
<linearGradient id="paint7_linear_72_983" x1="146.783" y1="28.6295" x2="173.251" y2="25.1115" gradientUnits="userSpaceOnUse">
<stop/>
<stop offset="0.07" stop-color="#282828"/>
<stop offset="0.16" stop-color="#5A5A5A"/>
<stop offset="0.26" stop-color="#868686"/>
<stop offset="0.36" stop-color="#ACACAC"/>
<stop offset="0.47" stop-color="#CACACA"/>
<stop offset="0.58" stop-color="#E1E1E1"/>
<stop offset="0.7" stop-color="#F2F2F2"/>
<stop offset="0.83" stop-color="#FCFCFC"/>
<stop offset="1" stop-color="white"/>
</linearGradient>
<linearGradient id="paint8_linear_72_983" x1="158.667" y1="17.3794" x2="156.788" y2="3.22451" gradientUnits="userSpaceOnUse">
<stop/>
<stop offset="0.07" stop-color="#282828"/>
<stop offset="0.16" stop-color="#5A5A5A"/>
<stop offset="0.26" stop-color="#868686"/>
<stop offset="0.36" stop-color="#ACACAC"/>
<stop offset="0.47" stop-color="#CACACA"/>
<stop offset="0.58" stop-color="#E1E1E1"/>
<stop offset="0.7" stop-color="#F2F2F2"/>
<stop offset="0.83" stop-color="#FCFCFC"/>
<stop offset="1" stop-color="white"/>
</linearGradient>
<linearGradient id="paint9_linear_72_983" x1="155.848" y1="29.511" x2="167.481" y2="1.59362" gradientUnits="userSpaceOnUse">
<stop/>
<stop offset="0.37" stop-color="#020202"/>
<stop offset="0.51" stop-color="#090909"/>
<stop offset="0.6" stop-color="#141414"/>
<stop offset="0.68" stop-color="#252525"/>
<stop offset="0.75" stop-color="#3B3B3B"/>
<stop offset="0.8" stop-color="#575757"/>
<stop offset="0.86" stop-color="#777777"/>
<stop offset="0.91" stop-color="#9D9D9D"/>
<stop offset="0.95" stop-color="#C8C8C8"/>
<stop offset="0.99" stop-color="#F6F6F6"/>
<stop offset="1" stop-color="white"/>
</linearGradient>
<radialGradient id="paint10_radial_72_983" cx="0" cy="0" r="1" gradientUnits="userSpaceOnUse" gradientTransform="translate(479.582 357.537) rotate(37.357) scale(3.26143 1.66828)">
<stop offset="0.05" stop-color="#D9D9D9"/>
<stop offset="0.06" stop-color="#D4D3D1"/>
<stop offset="0.09" stop-color="#C7C3BC"/>
<stop offset="0.11" stop-color="#B2AA99"/>
<stop offset="0.14" stop-color="#948668"/>
<stop offset="0.18" stop-color="#6C5627"/>
<stop offset="0.27" stop-color="#52411D"/>
<stop offset="0.39" stop-color="#342A13"/>
<stop offset="0.51" stop-color="#1D170B"/>
<stop offset="0.65" stop-color="#0D0A05"/>
<stop offset="0.8" stop-color="#030201"/>
<stop offset="1"/>
</radialGradient>
<radialGradient id="paint11_radial_72_983" cx="0" cy="0" r="1" gradientUnits="userSpaceOnUse" gradientTransform="translate(477.435 363.904) rotate(-7.56495) scale(13.5709 13.5762)">
<stop offset="0.13"/>
<stop offset="0.38" stop-color="#000303"/>
<stop offset="0.53" stop-color="#020B0B"/>
<stop offset="0.65" stop-color="#041919"/>
<stop offset="0.75" stop-color="#072D2D"/>
<stop offset="0.85" stop-color="#0B4747"/>
<stop offset="0.94" stop-color="#106767"/>
<stop offset="1" stop-color="#148282"/>
</radialGradient>
<linearGradient id="paint12_linear_72_983" x1="465.145" y1="372.1" x2="491.614" y2="368.582" gradientUnits="userSpaceOnUse">
<stop/>
<stop offset="0.07" stop-color="#282828"/>
<stop offset="0.16" stop-color="#5A5A5A"/>
<stop offset="0.26" stop-color="#868686"/>
<stop offset="0.36" stop-color="#ACACAC"/>
<stop offset="0.47" stop-color="#CACACA"/>
<stop offset="0.58" stop-color="#E1E1E1"/>
<stop offset="0.7" stop-color="#F2F2F2"/>
<stop offset="0.83" stop-color="#FCFCFC"/>
<stop offset="1" stop-color="white"/>
</linearGradient>
<linearGradient id="paint13_linear_72_983" x1="477.03" y1="360.85" x2="475.15" y2="346.695" gradientUnits="userSpaceOnUse">
<stop/>
<stop offset="0.07" stop-color="#282828"/>
<stop offset="0.16" stop-color="#5A5A5A"/>
<stop offset="0.26" stop-color="#868686"/>
<stop offset="0.36" stop-color="#ACACAC"/>
<stop offset="0.47" stop-color="#CACACA"/>
<stop offset="0.58" stop-color="#E1E1E1"/>
<stop offset="0.7" stop-color="#F2F2F2"/>
<stop offset="0.83" stop-color="#FCFCFC"/>
<stop offset="1" stop-color="white"/>
</linearGradient>
<linearGradient id="paint14_linear_72_983" x1="474.21" y1="372.982" x2="485.844" y2="345.065" gradientUnits="userSpaceOnUse">
<stop/>
<stop offset="0.37" stop-color="#020202"/>
<stop offset="0.51" stop-color="#090909"/>
<stop offset="0.6" stop-color="#141414"/>
<stop offset="0.68" stop-color="#252525"/>
<stop offset="0.75" stop-color="#3B3B3B"/>
<stop offset="0.8" stop-color="#575757"/>
<stop offset="0.86" stop-color="#777777"/>
<stop offset="0.91" stop-color="#9D9D9D"/>
<stop offset="0.95" stop-color="#C8C8C8"/>
<stop offset="0.99" stop-color="#F6F6F6"/>
<stop offset="1" stop-color="white"/>
</linearGradient>
<linearGradient id="paint15_linear_72_983" x1="136.698" y1="370.598" x2="185.218" y2="365.619" gradientUnits="userSpaceOnUse">
<stop stop-color="#165ABF"/>
<stop offset="0.310417" stop-color="#4845D8"/>
<stop offset="0.585928" stop-color="#7088DE"/>
<stop offset="1" stop-color="#5875DB"/>
</linearGradient>
<linearGradient id="paint16_linear_72_983" x1="164.282" y1="414.737" x2="164.282" y2="350.956" gradientUnits="userSpaceOnUse">
<stop stop-color="#EAEFFF"/>
<stop offset="0.99" stop-color="#B586E2"/>
</linearGradient>
<radialGradient id="paint17_radial_72_983" cx="0" cy="0" r="1" gradientUnits="userSpaceOnUse" gradientTransform="translate(118.063 234.531) scale(28.8363 43.6028)">
<stop stop-color="#EAEFFF"/>
<stop offset="0.99" stop-color="#D2B5ED"/>
</radialGradient>
<radialGradient id="paint18_radial_72_983" cx="0" cy="0" r="1" gradientUnits="userSpaceOnUse" gradientTransform="translate(117.775 242.806) rotate(-17.8268) scale(25.9555 44.8467)">
<stop stop-color="#E35959"/>
<stop offset="1" stop-color="#AE004A"/>
</radialGradient>
<radialGradient id="paint19_radial_72_983" cx="0" cy="0" r="1" gradientUnits="userSpaceOnUse" gradientTransform="translate(118.697 280.641) scale(12.0215 12.8472)">
<stop stop-color="#65A2FF"/>
<stop offset="0.95" stop-color="#7268DE"/>
</radialGradient>
<linearGradient id="paint20_linear_72_983" x1="75.4808" y1="202.498" x2="155.955" y2="175.807" gradientUnits="userSpaceOnUse">
<stop stop-color="#2E16BF"/>
<stop offset="0.310417" stop-color="#5A45D8"/>
<stop offset="0.585928" stop-color="#7088DE"/>
<stop offset="1" stop-color="#5894DB"/>
</linearGradient>
<linearGradient id="paint21_linear_72_983" x1="84.3926" y1="215.697" x2="137.45" y2="215.697" gradientUnits="userSpaceOnUse">
<stop stop-color="#EAEFFF"/>
<stop offset="0.99" stop-color="#B586E2"/>
</linearGradient>
<linearGradient id="paint22_linear_72_983" x1="297.999" y1="82.5" x2="438.423" y2="111.825" gradientUnits="userSpaceOnUse">
<stop stop-color="#165ABF"/>
<stop offset="0.310417" stop-color="#4845D8"/>
<stop offset="0.585928" stop-color="#7088DE"/>
<stop offset="1" stop-color="#5875DB"/>
</linearGradient>
<radialGradient id="paint23_radial_72_983" cx="0" cy="0" r="1" gradientUnits="userSpaceOnUse" gradientTransform="translate(307.745 276.705) scale(203.895 178.402)">
<stop stop-color="white"/>
<stop offset="0.630208" stop-color="#FFE5D7"/>
<stop offset="0.979167" stop-color="#FFEAE3"/>
</radialGradient>
<linearGradient id="paint24_linear_72_983" x1="451.999" y1="110" x2="185.835" y2="401.588" gradientUnits="userSpaceOnUse">
<stop stop-color="#165ABF"/>
<stop offset="0.310417" stop-color="#4845D8"/>
<stop offset="0.585928" stop-color="#7088DE"/>
<stop offset="1" stop-color="#5875DB"/>
</linearGradient>
<linearGradient id="paint25_linear_72_983" x1="251.53" y1="218.898" x2="377.714" y2="194.124" gradientUnits="userSpaceOnUse">
<stop stop-color="#165ABF"/>
<stop offset="0.310417" stop-color="#4845D8"/>
<stop offset="0.585928" stop-color="#7088DE"/>
<stop offset="1" stop-color="#5875DB"/>
</linearGradient>
<linearGradient id="paint26_linear_72_983" x1="366.686" y1="368.833" x2="366.686" y2="281.467" gradientUnits="userSpaceOnUse">
<stop stop-color="#EAEFFF"/>
<stop offset="0.99" stop-color="#B586E2"/>
</linearGradient>
<radialGradient id="paint27_radial_72_983" cx="0" cy="0" r="1" gradientUnits="userSpaceOnUse" gradientTransform="translate(147.221 300.15) rotate(-117.459) scale(45.3969 17.5247)">
<stop offset="0.01" stop-color="#FF7C77"/>
<stop offset="0.19" stop-color="#FF9F9B"/>
<stop offset="0.44" stop-color="#FFC8C6"/>
<stop offset="0.67" stop-color="#FFE6E5"/>
<stop offset="0.87" stop-color="#FFF8F8"/>
<stop offset="1" stop-color="white"/>
</radialGradient>
<radialGradient id="paint28_radial_72_983" cx="0" cy="0" r="1" gradientUnits="userSpaceOnUse" gradientTransform="translate(325.732 227.858) scale(38.5614 51.311)">
<stop stop-color="#EAEFFF"/>
<stop offset="0.99" stop-color="#D2B5ED"/>
</radialGradient>
<linearGradient id="paint29_linear_72_983" x1="363.929" y1="326.592" x2="450.704" y2="226.812" gradientUnits="userSpaceOnUse">
<stop stop-color="#165ABF"/>
<stop offset="0.310417" stop-color="#4845D8"/>
<stop offset="0.585928" stop-color="#7088DE"/>
<stop offset="1" stop-color="#5875DB"/>
</linearGradient>
<linearGradient id="paint30_linear_72_983" x1="442" y1="147" x2="380.946" y2="17.01" gradientUnits="userSpaceOnUse">
<stop stop-color="#2E16BF"/>
<stop offset="0.310417" stop-color="#5A45D8"/>
<stop offset="0.585928" stop-color="#7088DE"/>
<stop offset="1" stop-color="#5894DB"/>
</linearGradient>
<radialGradient id="paint31_radial_72_983" cx="0" cy="0" r="1" gradientUnits="userSpaceOnUse" gradientTransform="translate(208.233 348.894) scale(80.7252 100.147)">
<stop stop-color="#E36E92"/>
<stop offset="1" stop-color="#7A5FAC"/>
</radialGradient>
<linearGradient id="paint32_linear_72_983" x1="203.881" y1="371.198" x2="203.881" y2="272.442" gradientUnits="userSpaceOnUse">
<stop stop-color="#8D224B"/>
<stop offset="1" stop-color="#5E0052"/>
</linearGradient>
<linearGradient id="paint33_linear_72_983" x1="213.738" y1="454.931" x2="213.738" y2="342.393" gradientUnits="userSpaceOnUse">
<stop stop-color="#D6424B"/>
<stop offset="1" stop-color="#9C097C"/>
</linearGradient>
<radialGradient id="paint34_radial_72_983" cx="0" cy="0" r="1" gradientUnits="userSpaceOnUse" gradientTransform="translate(315.703 248.423) scale(40.2041 40.2232)">
<stop stop-color="#E35959"/>
<stop offset="1" stop-color="#AE004A"/>
</radialGradient>
<linearGradient id="paint35_linear_72_983" x1="264.604" y1="229.566" x2="374.323" y2="229.566" gradientUnits="userSpaceOnUse">
<stop stop-color="#EAEFFF"/>
<stop offset="0.99" stop-color="#B586E2"/>
</linearGradient>
<radialGradient id="paint36_radial_72_983" cx="0" cy="0" r="1" gradientUnits="userSpaceOnUse" gradientTransform="translate(320.084 354.372) scale(61.0987 81.2998)">
<stop stop-color="#5997FF"/>
<stop offset="1" stop-color="#0093FF"/>
</radialGradient>
<linearGradient id="paint37_linear_72_983" x1="377.638" y1="273.624" x2="400.233" y2="273.624" gradientUnits="userSpaceOnUse">
<stop offset="0.01" stop-color="#B586E2"/>
<stop offset="1" stop-color="#EAEFFF"/>
</linearGradient>
<linearGradient id="paint38_linear_72_983" x1="401.126" y1="412.718" x2="401.126" y2="281.467" gradientUnits="userSpaceOnUse">
<stop offset="0.01" stop-color="#B586E2"/>
<stop offset="1" stop-color="#EAEFFF"/>
</linearGradient>
<linearGradient id="paint39_linear_72_983" x1="357.435" y1="239.11" x2="357.435" y2="176.194" gradientUnits="userSpaceOnUse">
<stop offset="0.01" stop-color="#B586E2"/>
<stop offset="1" stop-color="#EAEFFF"/>
</linearGradient>
<linearGradient id="paint40_linear_72_983" x1="277.372" y1="215.034" x2="277.372" y2="179.597" gradientUnits="userSpaceOnUse">
<stop offset="0.01" stop-color="#B586E2"/>
<stop offset="1" stop-color="#EAEFFF"/>
</linearGradient>
<radialGradient id="paint41_radial_72_983" cx="0" cy="0" r="1" gradientUnits="userSpaceOnUse" gradientTransform="translate(259.879 192.543) scale(108.767 108.819)">
<stop stop-color="#E0E7FF"/>
<stop offset="1" stop-color="#9A93D6"/>
</radialGradient>
<linearGradient id="paint42_linear_72_983" x1="253.307" y1="276.046" x2="273.222" y2="276.046" gradientUnits="userSpaceOnUse">
<stop offset="0.01" stop-color="#B586E2"/>
<stop offset="1" stop-color="#EAEFFF"/>
</linearGradient>
<radialGradient id="paint43_radial_72_983" cx="0" cy="0" r="1" gradientUnits="userSpaceOnUse" gradientTransform="translate(381.268 361.135) scale(27.9844 27.9976)">
<stop stop-color="#E0E7FF"/>
<stop offset="1" stop-color="#9A93D6"/>
</radialGradient>
<radialGradient id="paint44_radial_72_983" cx="0" cy="0" r="1" gradientUnits="userSpaceOnUse" gradientTransform="translate(255.095 191.822) scale(105.568 105.618)">
<stop stop-color="#9DEFFF"/>
<stop offset="1" stop-color="#00C9FF"/>
</radialGradient>
<radialGradient id="paint45_radial_72_983" cx="0" cy="0" r="1" gradientUnits="userSpaceOnUse" gradientTransform="translate(121.398 199.579) scale(26.2263 26.2388)">
<stop stop-color="#9DEFFF"/>
<stop offset="1" stop-color="#00C9FF"/>
</radialGradient>
<radialGradient id="paint46_radial_72_983" cx="0" cy="0" r="1" gradientUnits="userSpaceOnUse" gradientTransform="translate(317.577 206.585) scale(35.3911 35.4079)">
<stop stop-color="#E0E7FF"/>
<stop offset="1" stop-color="#9A93D6"/>
</radialGradient>
<radialGradient id="paint47_radial_72_983" cx="0" cy="0" r="1" gradientUnits="userSpaceOnUse" gradientTransform="translate(109.495 208.027) scale(20.837 20.8469)">
<stop stop-color="#E0E7FF"/>
<stop offset="1" stop-color="#9A93D6"/>
</radialGradient>
<radialGradient id="paint48_radial_72_983" cx="0" cy="0" r="1" gradientUnits="userSpaceOnUse" gradientTransform="translate(294.117 234.612) scale(14.1795 14.1862)">
<stop stop-color="#EAEFFF"/>
<stop offset="0.99" stop-color="#D2B5ED"/>
</radialGradient>
<radialGradient id="paint49_radial_72_983" cx="0" cy="0" r="1" gradientUnits="userSpaceOnUse" gradientTransform="translate(323.34 265.781) scale(20.9523 20.9622)">
<stop stop-color="#E0E7FF"/>
<stop offset="1" stop-color="#9A93D6"/>
</radialGradient>
<linearGradient id="paint50_linear_72_983" x1="405.391" y1="281.322" x2="405.564" y2="281.322" gradientUnits="userSpaceOnUse">
<stop stop-color="#EAEFFF"/>
<stop offset="0.99" stop-color="#B586E2"/>
</linearGradient>
<linearGradient id="paint51_linear_72_983" x1="420.897" y1="264.945" x2="420.897" y2="111.289" gradientUnits="userSpaceOnUse">
<stop offset="0.01" stop-color="#B586E2"/>
<stop offset="1" stop-color="#EAEFFF"/>
</linearGradient>
<linearGradient id="paint52_linear_72_983" x1="402.653" y1="139.575" x2="427.208" y2="139.575" gradientUnits="userSpaceOnUse">
<stop offset="0.01" stop-color="#B586E2"/>
<stop offset="1" stop-color="#EAEFFF"/>
</linearGradient>
<radialGradient id="paint53_radial_72_983" cx="0" cy="0" r="1" gradientUnits="userSpaceOnUse" gradientTransform="translate(248.552 348.851) scale(22.3356 22.3462)">
<stop stop-color="#E0E7FF"/>
<stop offset="1" stop-color="#9A93D6"/>
</radialGradient>
<radialGradient id="paint54_radial_72_983" cx="0" cy="0" r="1" gradientUnits="userSpaceOnUse" gradientTransform="translate(243.076 369.208) scale(14.6118 14.6187)">
<stop offset="0.01" stop-color="#E590CE"/>
<stop offset="0.23" stop-color="#E693CF"/>
<stop offset="0.41" stop-color="#E89ED4"/>
<stop offset="0.58" stop-color="#ECAFDC"/>
<stop offset="0.74" stop-color="#F2C7E6"/>
<stop offset="0.9" stop-color="#F9E6F4"/>
<stop offset="1" stop-color="white"/>
</radialGradient>
<linearGradient id="paint55_linear_72_983" x1="237.86" y1="403.405" x2="237.86" y2="358.136" gradientUnits="userSpaceOnUse">
<stop stop-color="#EAEFFF"/>
<stop offset="0.99" stop-color="#B586E2"/>
</linearGradient>
<linearGradient id="paint56_linear_72_983" x1="219.27" y1="454.873" x2="219.27" y2="342.393" gradientUnits="userSpaceOnUse">
<stop offset="0.01" stop-color="#FF9DE2"/>
<stop offset="1" stop-color="#EAEFFF"/>
</linearGradient>
<radialGradient id="paint57_radial_72_983" cx="0" cy="0" r="1" gradientUnits="userSpaceOnUse" gradientTransform="translate(217.081 398.618) scale(35.1318 35.1484)">
<stop stop-color="#FFE7C7"/>
<stop offset="1" stop-color="#B893D6"/>
</radialGradient>
<radialGradient id="paint58_radial_72_983" cx="0" cy="0" r="1" gradientUnits="userSpaceOnUse" gradientTransform="translate(145.376 374.254) scale(15.5629 15.5703)">
<stop stop-color="#E0E7FF"/>
<stop offset="1" stop-color="#9A93D6"/>
</radialGradient>
<radialGradient id="paint59_radial_72_983" cx="0" cy="0" r="1" gradientUnits="userSpaceOnUse" gradientTransform="translate(215.582 215.524) scale(26.7739 26.7866)">
<stop stop-color="#E0E7FF"/>
<stop offset="1" stop-color="#9A93D6"/>
</radialGradient>
<radialGradient id="paint60_radial_72_983" cx="0" cy="0" r="1" gradientUnits="userSpaceOnUse" gradientTransform="translate(203.305 301.477) scale(47.1209 47.1433)">
<stop stop-color="#FFEBEB"/>
<stop offset="0.99" stop-color="#E9D5D5"/>
</radialGradient>
<linearGradient id="paint61_linear_72_983" x1="437.45" y1="467.693" x2="374.248" y2="525.498" gradientUnits="userSpaceOnUse">
<stop stop-color="#FFF0BE"/>
<stop offset="0.326042" stop-color="#E8D088"/>
<stop offset="0.497917" stop-color="#D9B55F"/>
<stop offset="1" stop-color="#C0891D"/>
</linearGradient>
<linearGradient id="paint62_linear_72_983" x1="397.319" y1="520.031" x2="453.393" y2="470.135" gradientUnits="userSpaceOnUse">
<stop stop-color="#ECD792"/>
<stop offset="0.06" stop-color="#E8D088"/>
<stop offset="0.3" stop-color="#D9B55F"/>
<stop offset="1" stop-color="#C0891D"/>
</linearGradient>
<linearGradient id="paint63_linear_72_983" x1="389.223" y1="513.23" x2="432.894" y2="496.773" gradientUnits="userSpaceOnUse">
<stop stop-color="#BD9D39"/>
<stop offset="0.07" stop-color="#B9942B"/>
<stop offset="0.3" stop-color="#AD7802"/>
<stop offset="1" stop-color="#994900"/>
</linearGradient>
<radialGradient id="paint64_radial_72_983" cx="0" cy="0" r="1" gradientUnits="userSpaceOnUse" gradientTransform="translate(406.609 500.543) rotate(18.1693) scale(70.5753 70.6028)">
<stop offset="0.13"/>
<stop offset="0.38" stop-color="#000303"/>
<stop offset="0.53" stop-color="#292929"/>
<stop offset="0.65" stop-color="#8D8D8D"/>
<stop offset="0.75" stop-color="#9D9D9D"/>
<stop offset="0.85" stop-color="#ECECEC"/>
<stop offset="0.94" stop-color="#EEEEEE"/>
<stop offset="1" stop-color="white"/>
</radialGradient>
<linearGradient id="paint65_linear_72_983" x1="330.522" y1="511.187" x2="462.464" y2="554.474" gradientUnits="userSpaceOnUse">
<stop/>
<stop offset="0.07" stop-color="#282828"/>
<stop offset="0.16" stop-color="#5A5A5A"/>
<stop offset="0.26" stop-color="#868686"/>
<stop offset="0.36" stop-color="#ACACAC"/>
<stop offset="0.47" stop-color="#CACACA"/>
<stop offset="0.58" stop-color="#E1E1E1"/>
<stop offset="0.7" stop-color="#F2F2F2"/>
<stop offset="0.83" stop-color="#FCFCFC"/>
<stop offset="1" stop-color="white"/>
</linearGradient>
<linearGradient id="paint66_linear_72_983" x1="411.601" y1="485.319" x2="434.757" y2="414.763" gradientUnits="userSpaceOnUse">
<stop/>
<stop offset="0.07" stop-color="#282828"/>
<stop offset="0.16" stop-color="#5A5A5A"/>
<stop offset="0.26" stop-color="#868686"/>
<stop offset="0.36" stop-color="#ACACAC"/>
<stop offset="0.47" stop-color="#CACACA"/>
<stop offset="0.58" stop-color="#E1E1E1"/>
<stop offset="0.7" stop-color="#F2F2F2"/>
<stop offset="0.83" stop-color="#FCFCFC"/>
<stop offset="1" stop-color="white"/>
</linearGradient>
<linearGradient id="paint67_linear_72_983" x1="371.001" y1="535.787" x2="488.539" y2="431.272" gradientUnits="userSpaceOnUse">
<stop/>
<stop offset="0.37" stop-color="#020202"/>
<stop offset="0.51" stop-color="#090909"/>
<stop offset="0.6" stop-color="#141414"/>
<stop offset="0.68" stop-color="#252525"/>
<stop offset="0.75" stop-color="#3B3B3B"/>
<stop offset="0.8" stop-color="#575757"/>
<stop offset="0.86" stop-color="#777777"/>
<stop offset="0.91" stop-color="#9D9D9D"/>
<stop offset="0.95" stop-color="#C8C8C8"/>
<stop offset="0.99" stop-color="#F6F6F6"/>
<stop offset="1" stop-color="white"/>
</linearGradient>
<linearGradient id="paint68_linear_72_983" x1="314.968" y1="469.118" x2="306.466" y2="520.288" gradientUnits="userSpaceOnUse">
<stop stop-color="#FFF0BE"/>
<stop offset="0.326042" stop-color="#E8D088"/>
<stop offset="0.497917" stop-color="#D9B55F"/>
<stop offset="1" stop-color="#C0891D"/>
</linearGradient>
<linearGradient id="paint69_linear_72_983" x1="315.414" y1="509.058" x2="323.476" y2="464.321" gradientUnits="userSpaceOnUse">
<stop stop-color="#ECD792"/>
<stop offset="0.06" stop-color="#E8D088"/>
<stop offset="0.3" stop-color="#D9B55F"/>
<stop offset="1" stop-color="#C0891D"/>
</linearGradient>
<linearGradient id="paint70_linear_72_983" x1="309.015" y1="508.845" x2="323.669" y2="484.676" gradientUnits="userSpaceOnUse">
<stop stop-color="#BD9D39"/>
<stop offset="0.07" stop-color="#B9942B"/>
<stop offset="0.3" stop-color="#AD7802"/>
<stop offset="1" stop-color="#994900"/>
</linearGradient>
<radialGradient id="paint71_radial_72_983" cx="0" cy="0" r="1" gradientUnits="userSpaceOnUse" gradientTransform="translate(314.854 475.263) rotate(24.9705) scale(16.26 8.3173)">
<stop offset="0.05" stop-color="#D2D2D2"/>
<stop offset="0.07" stop-color="#CFCECA"/>
<stop offset="0.11" stop-color="#C8C5B5"/>
<stop offset="0.16" stop-color="#BCB592"/>
<stop offset="0.22" stop-color="#AC9F61"/>
<stop offset="0.26" stop-color="#9F8D3A"/>
<stop offset="0.31" stop-color="#9F7E3A"/>
<stop offset="0.39" stop-color="#765E2B"/>
<stop offset="0.47" stop-color="#52411E"/>
<stop offset="0.56" stop-color="#342913"/>
<stop offset="0.65" stop-color="#1D170B"/>
<stop offset="0.74" stop-color="#0D0A05"/>
<stop offset="0.85" stop-color="#030201"/>
<stop offset="0.99"/>
</radialGradient>
<radialGradient id="paint72_radial_72_983" cx="0" cy="0" r="1" gradientUnits="userSpaceOnUse" gradientTransform="translate(314.854 475.263) rotate(24.9705) scale(10.2719 5.25427)">
<stop offset="0.05" stop-color="#D9D9D9"/>
<stop offset="0.06" stop-color="#D4D3D1"/>
<stop offset="0.09" stop-color="#C7C3BC"/>
<stop offset="0.11" stop-color="#B2AA99"/>
<stop offset="0.14" stop-color="#948668"/>
<stop offset="0.18" stop-color="#6C5627"/>
<stop offset="0.27" stop-color="#52411D"/>
<stop offset="0.39" stop-color="#342A13"/>
<stop offset="0.51" stop-color="#1D170B"/>
<stop offset="0.65" stop-color="#0D0A05"/>
<stop offset="0.8" stop-color="#030201"/>
<stop offset="1"/>
</radialGradient>
<radialGradient id="paint73_radial_72_983" cx="0" cy="0" r="1" gradientUnits="userSpaceOnUse" gradientTransform="translate(312.554 496.3) rotate(-19.9515) scale(42.7417 42.7583)">
<stop offset="0.13"/>
<stop offset="0.38" stop-color="#000303"/>
<stop offset="0.53" stop-color="#292929"/>
<stop offset="0.65" stop-color="#8D8D8D"/>
<stop offset="0.75" stop-color="#9D9D9D"/>
<stop offset="0.85" stop-color="#ECECEC"/>
<stop offset="0.94" stop-color="#EEEEEE"/>
<stop offset="1" stop-color="white"/>
</radialGradient>
<linearGradient id="paint74_linear_72_983" x1="280.283" y1="529.818" x2="359.33" y2="501.114" gradientUnits="userSpaceOnUse">
<stop/>
<stop offset="0.07" stop-color="#282828"/>
<stop offset="0.16" stop-color="#5A5A5A"/>
<stop offset="0.26" stop-color="#868686"/>
<stop offset="0.36" stop-color="#ACACAC"/>
<stop offset="0.47" stop-color="#CACACA"/>
<stop offset="0.58" stop-color="#E1E1E1"/>
<stop offset="0.7" stop-color="#F2F2F2"/>
<stop offset="0.83" stop-color="#FCFCFC"/>
<stop offset="1" stop-color="white"/>
</linearGradient>
<linearGradient id="paint75_linear_72_983" x1="309.242" y1="487.18" x2="293.896" y2="444.907" gradientUnits="userSpaceOnUse">
<stop/>
<stop offset="0.07" stop-color="#282828"/>
<stop offset="0.16" stop-color="#5A5A5A"/>
<stop offset="0.26" stop-color="#868686"/>
<stop offset="0.36" stop-color="#ACACAC"/>
<stop offset="0.47" stop-color="#CACACA"/>
<stop offset="0.58" stop-color="#E1E1E1"/>
<stop offset="0.7" stop-color="#F2F2F2"/>
<stop offset="0.83" stop-color="#FCFCFC"/>
<stop offset="1" stop-color="white"/>
</linearGradient>
<linearGradient id="paint76_linear_72_983" x1="308.766" y1="526.404" x2="325.692" y2="432.666" gradientUnits="userSpaceOnUse">
<stop/>
<stop offset="0.37" stop-color="#020202"/>
<stop offset="0.51" stop-color="#090909"/>
<stop offset="0.6" stop-color="#141414"/>
<stop offset="0.68" stop-color="#252525"/>
<stop offset="0.75" stop-color="#3B3B3B"/>
<stop offset="0.8" stop-color="#575757"/>
<stop offset="0.86" stop-color="#777777"/>
<stop offset="0.91" stop-color="#9D9D9D"/>
<stop offset="0.95" stop-color="#C8C8C8"/>
<stop offset="0.99" stop-color="#F6F6F6"/>
<stop offset="1" stop-color="white"/>
</linearGradient>
<linearGradient id="paint77_linear_72_983" x1="77.3574" y1="379.178" x2="56.4539" y2="430.444" gradientUnits="userSpaceOnUse">
<stop stop-color="#FFF0BE"/>
<stop offset="0.326042" stop-color="#E8D088"/>
<stop offset="0.497917" stop-color="#D9B55F"/>
<stop offset="1" stop-color="#C0891D"/>
</linearGradient>
<linearGradient id="paint78_linear_72_983" x1="68.4142" y1="420.861" x2="87.3456" y2="376.189" gradientUnits="userSpaceOnUse">
<stop stop-color="#ECD792"/>
<stop offset="0.06" stop-color="#E8D088"/>
<stop offset="0.3" stop-color="#D9B55F"/>
<stop offset="1" stop-color="#C0891D"/>
</linearGradient>
<linearGradient id="paint79_linear_72_983" x1="61.8026" y1="419.131" x2="82.7506" y2="397.424" gradientUnits="userSpaceOnUse">
<stop stop-color="#BD9D39"/>
<stop offset="0.07" stop-color="#B9942B"/>
<stop offset="0.3" stop-color="#AD7802"/>
<stop offset="1" stop-color="#994900"/>
</linearGradient>
<radialGradient id="paint80_radial_72_983" cx="0" cy="0" r="1" gradientUnits="userSpaceOnUse" gradientTransform="translate(71.2575 385.301) rotate(31.5349) scale(17.3548 8.87728)">
<stop offset="0.05" stop-color="#D2D2D2"/>
<stop offset="0.07" stop-color="#CFCECA"/>
<stop offset="0.11" stop-color="#C8C5B5"/>
<stop offset="0.16" stop-color="#BCB592"/>
<stop offset="0.22" stop-color="#AC9F61"/>
<stop offset="0.26" stop-color="#9F8D3A"/>
<stop offset="0.31" stop-color="#9F7E3A"/>
<stop offset="0.39" stop-color="#765E2B"/>
<stop offset="0.47" stop-color="#52411E"/>
<stop offset="0.56" stop-color="#342913"/>
<stop offset="0.65" stop-color="#1D170B"/>
<stop offset="0.74" stop-color="#0D0A05"/>
<stop offset="0.85" stop-color="#030201"/>
<stop offset="0.99"/>
</radialGradient>
<radialGradient id="paint81_radial_72_983" cx="0" cy="0" r="1" gradientUnits="userSpaceOnUse" gradientTransform="translate(71.2584 385.301) rotate(31.5349) scale(10.9635 5.60803)">
<stop offset="0.05" stop-color="#D9D9D9"/>
<stop offset="0.06" stop-color="#D4D3D1"/>
<stop offset="0.09" stop-color="#C7C3BC"/>
<stop offset="0.11" stop-color="#B2AA99"/>
<stop offset="0.14" stop-color="#948668"/>
<stop offset="0.18" stop-color="#6C5627"/>
<stop offset="0.27" stop-color="#52411D"/>
<stop offset="0.39" stop-color="#342A13"/>
<stop offset="0.51" stop-color="#1D170B"/>
<stop offset="0.65" stop-color="#0D0A05"/>
<stop offset="0.8" stop-color="#030201"/>
<stop offset="1"/>
</radialGradient>
<radialGradient id="paint82_radial_72_983" cx="0" cy="0" r="1" gradientUnits="userSpaceOnUse" gradientTransform="translate(68.4419 406.906) rotate(-7.20126) scale(45.6194 45.6371)">
<stop offset="0.13"/>
<stop offset="0.38" stop-color="#000303"/>
<stop offset="0.53" stop-color="#292929"/>
<stop offset="0.65" stop-color="#8D8D8D"/>
<stop offset="0.75" stop-color="#9D9D9D"/>
<stop offset="0.85" stop-color="#ECECEC"/>
<stop offset="0.94" stop-color="#EEEEEE"/>
<stop offset="1" stop-color="white"/>
</radialGradient>
<linearGradient id="paint83_linear_72_983" x1="26.9511" y1="434.196" x2="116.001" y2="422.936" gradientUnits="userSpaceOnUse">
<stop/>
<stop offset="0.07" stop-color="#282828"/>
<stop offset="0.16" stop-color="#5A5A5A"/>
<stop offset="0.26" stop-color="#868686"/>
<stop offset="0.36" stop-color="#ACACAC"/>
<stop offset="0.47" stop-color="#CACACA"/>
<stop offset="0.58" stop-color="#E1E1E1"/>
<stop offset="0.7" stop-color="#F2F2F2"/>
<stop offset="0.83" stop-color="#FCFCFC"/>
<stop offset="1" stop-color="white"/>
</linearGradient>
<linearGradient id="paint84_linear_72_983" x1="67.1409" y1="396.632" x2="61.1239" y2="349.011" gradientUnits="userSpaceOnUse">
<stop/>
<stop offset="0.07" stop-color="#282828"/>
<stop offset="0.16" stop-color="#5A5A5A"/>
<stop offset="0.26" stop-color="#868686"/>
<stop offset="0.36" stop-color="#ACACAC"/>
<stop offset="0.47" stop-color="#CACACA"/>
<stop offset="0.58" stop-color="#E1E1E1"/>
<stop offset="0.7" stop-color="#F2F2F2"/>
<stop offset="0.83" stop-color="#FCFCFC"/>
<stop offset="1" stop-color="white"/>
</linearGradient>
<linearGradient id="paint85_linear_72_983" x1="57.4065" y1="437.353" x2="97.1082" y2="343.757" gradientUnits="userSpaceOnUse">
<stop/>
<stop offset="0.37" stop-color="#020202"/>
<stop offset="0.51" stop-color="#090909"/>
<stop offset="0.6" stop-color="#141414"/>
<stop offset="0.68" stop-color="#252525"/>
<stop offset="0.75" stop-color="#3B3B3B"/>
<stop offset="0.8" stop-color="#575757"/>
<stop offset="0.86" stop-color="#777777"/>
<stop offset="0.91" stop-color="#9D9D9D"/>
<stop offset="0.95" stop-color="#C8C8C8"/>
<stop offset="0.99" stop-color="#F6F6F6"/>
<stop offset="1" stop-color="white"/>
</linearGradient>
<clipPath id="clip0_72_983">
<rect width="72.9468" height="72.9468" fill="white" transform="translate(389.57 451.347) rotate(25.4129)"/>
</clipPath>
<clipPath id="clip1_72_983">
<rect width="44.1779" height="44.1779" fill="white" transform="translate(286.044 479.23) rotate(-12.7079)"/>
</clipPath>
<clipPath id="clip2_72_983">
<rect width="47.1523" height="47.1523" fill="white" transform="translate(44.8655 382.892) rotate(0.0423288)"/>
</clipPath>
</defs>
</svg>
