<svg width="1440" height="2090" viewBox="0 0 1440 2090" fill="none" xmlns="http://www.w3.org/2000/svg">
<path d="M-14.9992 80.019C-14.9992 80.019 61.2643 91.3678 70.8831 105.987C80.502 120.606 101.629 142.919 119.321 157.537C136.841 172.156 150.067 185.813 188.542 188.699C227.189 191.584 235.09 186.775 245.568 198.509C256.045 210.242 243.85 233.517 274.596 260.639C305.342 287.761 308.777 292.762 331.622 292.762C354.467 292.762 344.848 273.334 374.563 301.418C404.45 329.694 404.45 369.511 447.391 382.206C490.333 394.901 536.022 373.55 581.54 371.434C627.229 369.511 614.003 383.36 697.309 386.053C780.615 388.938 808.784 376.243 831.457 380.09C854.302 383.937 872.681 386.438 872.681 386.438C872.681 386.438 912.187 375.281 951.693 369.318C991.198 363.548 999.099 406.25 1027.96 415.098C1056.98 423.754 1086.7 389.9 1133.25 388.938C1179.8 387.977 1191.13 395.671 1223.59 387.977C1256.06 380.282 1232.36 384.13 1283.2 334.502C1334.04 284.875 1317.38 229.478 1348.12 198.316C1378.87 167.155 1391.07 183.697 1401.72 146.766C1412.19 109.834 1410.48 62.1301 1420.95 50.9736C1431.43 39.8171 1445 0 1445 0L1445 2090H715H-15L-14.9992 80.019Z" fill="#232965"/>
</svg>
