<svg width="37" height="33" viewBox="0 0 37 33" fill="none" xmlns="http://www.w3.org/2000/svg">
<path d="M26.5866 6.4134L9.03562 23.9644C8.46366 24.5363 8.41354 25.4135 8.92366 25.9237L9.02089 26.0209C9.53101 26.531 10.4082 26.4809 10.9802 25.9089L28.5311 8.35795C29.1031 7.78599 29.1532 6.9088 28.6431 6.39867L28.5459 6.30145C28.0357 5.79132 27.1586 5.84145 26.5866 6.4134Z" fill="white"/>
<path d="M28.5866 23.5866L11.0356 6.03562C10.4637 5.46366 9.58646 5.41354 9.07634 5.92366L8.97911 6.02089C8.46899 6.53101 8.51912 7.40821 9.09107 7.98016L26.6421 25.5311C27.214 26.1031 28.0912 26.1532 28.6013 25.6431L28.6986 25.5459C29.2087 25.0357 29.1586 24.1586 28.5866 23.5866Z" fill="white"/>
</svg>
