<svg width="1440" height="255" viewBox="0 0 1440 255" fill="none" xmlns="http://www.w3.org/2000/svg">
<path d="M-64.0607 320.864C-55.9806 297.424 -47.3619 273.1 -26.8923 255.852C-13.4254 244.354 3.27345 236.835 19.4336 227.99C74.3783 197.917 116.395 153.691 149.793 106.37C177.265 68.3364 203.66 24.5533 253.218 7.74762C290.386 -4.63549 332.403 1.11381 370.11 13.0547C407.278 24.9955 441.215 42.6857 478.383 55.0688C582.886 90.4491 700.855 81.1618 813.438 71.4322C889.93 64.7984 966.96 58.1646 1043.45 51.5308C1066.08 49.7618 1090.32 47.9927 1110.79 56.8378C1124.79 63.0294 1135.03 73.6435 1145.8 83.3731C1249.22 180.227 1411.9 221.356 1568.66 228.875C1625.22 231.528 1689.32 232.855 1727.57 267.351C1749.65 287.252 1759.35 315.114 1782.51 333.689C1797.59 345.63 1816.99 352.706 1832.07 364.647C1847.15 376.145 1857.93 395.162 1848.23 410.199C1839.07 423.909 1817.53 428.331 1798.67 430.543C1216.37 508.379 623.286 500.861 33.4391 491.131C-6.42268 490.689 -88.301 499.092 -102.845 457.078C-115.235 419.928 -76.4502 357.128 -64.0607 320.864Z" fill="#243160"/>
<path d="M292.54 198.802C343.714 190.399 384.653 153.249 414.28 88.6804C421.822 70.548 440.137 58.6071 458.99 47.993C457.374 47.1085 455.219 46.6662 453.603 45.7817C434.75 56.3958 416.974 68.3367 409.432 86.9114C380.883 149.711 341.021 185.976 292.001 193.937C237.057 202.782 176.725 176.689 122.858 140.866C121.781 142.193 120.703 143.078 119.626 144.404C167.029 175.804 219.281 200.128 269.377 200.128C276.919 200.571 284.46 200.128 292.54 198.802Z" fill="#151840"/>
<path d="M682.001 203.667L687.387 207.205C701.393 216.492 716.476 227.548 731.02 238.605C735.329 242.143 739.639 245.681 743.948 249.219C756.338 259.833 769.266 270.889 784.887 278.408C805.357 288.579 829.058 296.982 856.531 303.616C894.777 312.903 927.097 316.884 954.031 316.884C1029.44 316.884 1064.46 286.368 1079.54 264.255C1104.32 227.548 1159.8 216.05 1248.68 229.317C1285.85 234.624 1322.48 243.027 1358.04 251.43C1388.74 258.506 1421.06 265.582 1452.84 271.331C1489.47 277.523 1565.96 290.348 1600.98 250.545C1606.36 244.796 1610.13 238.162 1613.37 231.529C1611.75 231.529 1609.6 231.086 1607.98 231.086C1605.29 237.278 1601.52 243.027 1597.21 247.892C1568.12 281.061 1511.02 276.638 1454.46 266.909C1422.68 261.602 1390.89 254.084 1359.65 247.45C1324.1 239.489 1286.93 230.644 1249.76 225.337C1158.19 211.627 1101.09 224.01 1075.23 262.486C1029.44 330.151 919.556 314.672 858.685 299.636C831.752 293.002 808.589 284.599 788.658 274.869C773.575 267.351 760.647 256.737 748.796 246.123C744.487 242.585 740.177 239.047 735.868 235.509C721.324 224.01 705.702 213.396 692.235 203.667L686.849 200.129C637.291 166.075 578.575 125.83 583.423 76.7396C581.807 76.7396 580.191 76.2974 578.037 76.2974C572.111 128.041 634.059 170.94 682.001 203.667Z" fill="#151840"/>
<path d="M222.512 133.79C239.75 139.982 260.22 143.962 279.612 143.962C294.156 143.962 308.162 141.751 318.396 135.559C331.863 128.041 338.866 115.658 338.866 99.2943C338.866 92.2182 335.095 84.2576 331.863 76.7393C328.092 67.8942 323.783 58.1646 325.938 50.6463C329.17 39.1477 345.33 32.9562 360.952 26.7646C368.493 23.6688 376.034 21.0153 381.96 17.4773C381.96 17.4773 382.498 17.4773 382.498 17.035C380.344 16.1505 378.728 15.7082 376.573 14.8237C371.725 17.4773 365.261 20.1308 358.797 22.3421C343.175 28.5336 325.399 35.1674 321.09 48.8773C318.396 57.7224 322.706 67.8942 327.015 77.6238C330.247 84.6999 333.479 92.2182 333.479 98.4098C333.479 113.446 327.554 124.503 315.703 131.137C293.079 143.52 252.678 138.655 224.667 128.925C201.504 120.522 177.803 107.697 160.026 91.3337C158.949 92.6605 158.41 93.9872 157.333 95.314C175.109 112.562 198.811 125.387 222.512 133.79Z" fill="#151840"/>
<path d="M151.407 242.142C176.725 251.429 203.12 260.717 229.515 268.235C266.683 278.849 300.081 285.483 331.863 288.579C364.722 291.675 395.965 293.444 425.053 277.522C430.44 274.869 435.288 271.331 439.597 268.235C444.984 264.697 450.371 261.159 456.296 258.063C499.929 235.951 566.186 244.796 601.738 251.872C650.757 262.044 698.161 280.618 741.254 307.153C779.5 330.593 772.497 364.204 759.569 397.373C757.953 402.238 755.799 406.661 753.644 411.525C742.87 437.176 731.558 463.711 740.716 490.689L746.102 489.362C737.484 464.154 748.257 438.061 759.031 412.852C761.185 407.987 763.34 403.123 764.956 398.7C778.423 364.204 785.426 328.824 745.025 303.615C700.854 276.638 653.451 257.621 603.354 247.449C567.263 239.931 499.39 231.086 454.142 254.083C448.216 257.179 442.291 261.159 436.904 264.697C432.056 267.793 427.747 270.889 422.36 273.542C394.887 288.579 364.722 286.81 332.94 283.714C301.697 280.618 268.838 273.984 231.669 263.37C205.274 255.852 178.879 246.565 154.1 237.277C133.631 229.759 112.623 222.241 91.0757 215.607C79.2249 211.627 66.2967 208.089 53.3686 205.435C51.7525 206.762 50.1365 207.646 48.5205 208.973C62.526 211.627 75.9928 215.607 89.4597 219.587C109.929 227.548 130.938 235.066 151.407 242.142Z" fill="#151840"/>
<path d="M811.283 189.514C824.211 189.514 836.6 186.861 848.451 181.553C871.614 171.382 889.929 155.018 901.78 134.232C907.705 123.618 910.398 112.562 913.092 101.948C916.324 90.0069 919.017 78.5083 926.02 67.8942C927.636 65.6829 929.252 63.4717 930.868 61.7026C928.713 61.7026 926.559 62.1449 923.865 62.1449C922.788 63.4717 922.249 64.7984 921.172 65.6829C913.63 76.7393 910.937 89.1224 907.705 101.063C905.012 111.677 902.318 122.734 896.393 132.463C885.081 152.365 867.304 167.844 845.219 177.573C812.898 191.725 773.037 184.207 744.487 158.556C721.863 138.213 707.857 109.908 703.548 79.3928C701.932 79.3928 699.777 79.3928 698.161 79.3928C702.471 111.235 717.015 140.424 740.716 161.652C761.186 180.227 786.504 189.514 811.283 189.514Z" fill="#151840"/>
<path d="M1013.29 226.221C1017.06 227.106 1020.83 227.99 1025.67 227.99C1042.91 227.99 1066.61 219.587 1095.7 188.187C1105.4 178.9 1124.25 178.9 1145.8 178.9C1177.58 178.458 1215.29 178.458 1236.3 149.269C1234.68 148.384 1233.06 147.5 1231.99 147.058C1212.59 174.477 1177.58 174.477 1145.8 174.92C1123.71 174.92 1102.71 175.362 1091.39 185.976C1062.84 216.049 1036.45 228.875 1014.9 223.125C991.739 216.934 976.117 190.399 975.04 155.018C973.962 119.638 988.507 79.3928 1022.98 55.0688C1020.29 55.5111 1017.06 55.5111 1014.36 55.9534C989.045 75.8548 968.576 108.582 969.653 155.461C970.73 190.841 987.968 219.145 1013.29 226.221Z" fill="#151840"/>
<path d="M561.876 165.19C521.476 141.309 447.678 132.464 430.979 144.847C399.736 158.999 385.73 172.709 389.501 185.092C397.581 211.185 478.921 221.799 528.479 222.241C530.095 222.241 531.172 222.241 532.788 222.241C552.18 222.241 580.191 220.914 582.885 212.511C592.581 195.706 585.578 178.9 561.876 165.19ZM578.037 211.185C576.959 214.281 562.954 218.703 528.479 218.261C469.225 217.376 400.813 204.551 394.888 184.207C391.656 174.035 405.122 161.652 434.211 148.827L434.749 148.385C438.52 145.289 447.678 143.962 459.528 143.962C487.539 143.962 531.711 152.365 559.183 169.171C573.727 177.573 588.81 191.726 578.037 211.185Z" fill="#151840"/>
</svg>
