<svg width="30" height="30" viewBox="0 0 30 30" fill="none" xmlns="http://www.w3.org/2000/svg">
<path d="M28.8677 1.133C28.1124 0.377552 27.2074 0 26.153 0H3.84807C2.79333 0 1.88855 0.377688 1.1331 1.133C0.377796 1.8881 0.000244141 2.79302 0.000244141 3.84755V26.1522C0.000244141 27.2066 0.377728 28.1118 1.1331 28.8669C1.88855 29.6222 2.79354 30 3.84807 30H26.1527C27.2069 30 28.1122 29.6222 28.8675 28.8669C29.6229 28.1118 30.0001 27.2066 30.0001 26.1522V3.84755C30 2.79282 29.6229 1.88837 28.8677 1.133ZM10.7721 10.8104C11.9503 9.67125 13.3664 9.1014 15.0201 9.1014C16.6865 9.1014 18.109 9.67125 19.2875 10.8104C20.4661 11.9498 21.055 13.3268 21.055 14.9414C21.055 16.5557 20.4661 17.9329 19.2875 19.0719C18.109 20.2115 16.687 20.7813 15.0201 20.7813C13.3665 20.7813 11.9506 20.211 10.7721 19.0719C9.5935 17.9327 9.00429 16.5557 9.00429 14.9414C9.00429 13.3268 9.5935 11.9498 10.7721 10.8104ZM26.6022 25.3518C26.6022 25.6901 26.4847 25.9731 26.2505 26.2012C26.0157 26.429 25.7361 26.5429 25.4103 26.5429H4.53175C4.19326 26.5429 3.90984 26.429 3.68218 26.2012C3.45417 25.9736 3.34027 25.6901 3.34027 25.3518V12.6951H6.09409C5.83379 13.5155 5.70361 14.3685 5.70361 15.2537C5.70361 17.7543 6.61496 19.8861 8.43786 21.6508C10.261 23.4148 12.4549 24.2972 15.02 24.2972C16.7127 24.2972 18.2751 23.8934 19.7079 23.0861C21.1402 22.2784 22.2723 21.1817 23.1062 19.7948C23.9396 18.408 24.3563 16.8943 24.3563 15.2538C24.3563 14.3686 24.2257 13.5158 23.9654 12.6951H26.6023V25.3519H26.6022V25.3518ZM26.6022 7.90991C26.6022 8.28753 26.472 8.60659 26.2112 8.86696C25.9509 9.12753 25.632 9.25764 25.2542 9.25764H21.8559C21.4785 9.25764 21.1591 9.12746 20.8988 8.86696C20.6385 8.60659 20.5084 8.28753 20.5084 7.90991V4.68755C20.5084 4.32293 20.6385 4.00722 20.8988 3.74022C21.1592 3.47335 21.4785 3.33975 21.8559 3.33975H25.2542C25.632 3.33975 25.951 3.47328 26.2112 3.74022C26.472 4.00722 26.6022 4.32293 26.6022 4.68755V7.90991Z" fill="white"/>
</svg>
