<svg width="446" height="291" viewBox="0 0 446 291" fill="none" xmlns="http://www.w3.org/2000/svg">
<path d="M398.283 114.732C381.756 119.201 364.622 121.016 347.525 120.11L345.879 104.394C358.171 93.0556 371.808 83.267 386.486 75.2474C408.156 64.1015 442.125 51.7575 445.053 53.4293C447.982 55.1012 423.16 107.403 398.283 114.732Z" fill="url(#paint0_linear_72_1206)"/>
<path style="mix-blend-mode:multiply" d="M398.283 114.732C381.756 119.201 364.622 121.016 347.524 120.109L346.827 113.338L356.198 101.44C356.198 101.44 429.128 65.216 445.137 53.4292C448.121 55.1011 423.16 107.403 398.283 114.732Z" fill="url(#paint1_linear_72_1206)"/>
<path d="M231.116 216.968C231.116 216.968 227.072 275.985 172.549 290.419C172.549 290.419 191.569 266.483 194.86 249.569L202 239.037L192.406 245C192.406 245 175.477 217.414 134.619 216.968C134.619 216.968 181.473 199.831 213.88 212.732L231.116 216.968Z" fill="url(#paint2_linear_72_1206)"/>
<path d="M202.559 204.01C202.559 204.01 218.734 223.516 221.189 223.516C223.643 223.516 250.64 201.948 250.64 201.948C250.64 201.948 221.635 208.274 202.559 204.01Z" fill="url(#paint3_radial_72_1206)"/>
<path d="M221.188 223.544C221.188 223.544 222.973 272.809 172.577 290.42C172.577 290.42 223.894 283.342 231.145 216.968L221.188 223.544Z" fill="url(#paint4_linear_72_1206)"/>
<path style="mix-blend-mode:multiply" d="M204.594 206.49C204.594 206.49 224.284 216.215 234.408 214.627L250.584 202.004C234.801 205.35 218.571 206.047 202.559 204.066L204.594 206.49Z" fill="url(#paint5_linear_72_1206)"/>
<path d="M102.491 108.462C85.9245 111.248 59.5134 104.923 54.2144 76.0553C48.9154 47.1874 67.2666 31.4717 67.2666 31.4717C70.3009 28.3822 74.1824 26.2589 78.4223 25.3694C83.5226 23.9724 88.8468 23.5843 94.096 24.2269C99.3059 24.7218 104.316 26.4808 108.69 29.3508C113.065 32.2208 116.671 36.1151 119.196 40.695C120.033 42.1818 120.76 43.7278 121.372 45.3205C122.714 48.6321 123.651 52.094 124.161 55.6305C127.396 78.6467 115.933 106.177 102.491 108.462Z" fill="url(#paint6_radial_72_1206)"/>
<path d="M123.937 55.5197C119.48 58.5432 114.282 60.2938 108.902 60.5825C103.523 60.8713 98.1668 59.6873 93.4113 57.1582C88.6559 54.6292 84.6817 50.8511 81.9173 46.2313C79.1529 41.6115 77.7033 36.3254 77.7247 30.943C77.7266 29.0162 77.9134 27.094 78.2825 25.2028C83.3828 23.8059 88.7071 23.4178 93.9563 24.0604C99.1661 24.5553 104.176 26.3143 108.551 29.1843C112.925 32.0544 116.532 35.9486 119.057 40.5285C119.894 42.0153 120.621 43.5612 121.232 45.154C122.55 48.4871 123.459 51.9678 123.937 55.5197Z" fill="url(#paint7_radial_72_1206)"/>
<path d="M121.204 45.2098C118.02 48.1353 113.845 49.748 109.519 49.7239C104.878 49.7165 100.431 47.8696 97.1521 44.5887C93.8735 41.3078 92.0321 36.8611 92.0321 32.2248C92.0287 29.3987 92.7181 26.6147 94.0401 24.1162C99.25 24.6111 104.26 26.3701 108.634 29.2401C113.009 32.1102 116.615 36.0044 119.14 40.5843C119.939 42.0743 120.629 43.6202 121.204 45.2098Z" fill="url(#paint8_radial_72_1206)"/>
<path d="M131.022 19.0447C131.022 19.0447 99.1446 11.9949 67.2393 19.7971V31.4167C67.2393 31.4167 87.8215 16.0353 107.316 40.612L131.022 19.0447Z" fill="url(#paint9_linear_72_1206)"/>
<path d="M312.273 19.0447C312.273 19.0447 344.179 11.9949 376.14 19.7971V31.4167C376.14 31.4167 355.558 16.0353 336.063 40.612L312.273 19.0447Z" fill="url(#paint10_linear_72_1206)"/>
<path d="M389.081 76.0558C388.53 79.4211 387.594 82.7121 386.292 85.8642C384.263 90.6968 381.209 95.0319 377.34 98.5705C372.389 102.77 366.577 105.832 360.312 107.541C354.047 109.25 347.483 109.565 341.084 108.462C324.518 105.676 310.964 64.5755 324.518 40.584C338.072 16.5925 369.587 22.9735 376.308 31.3608C379.045 33.9446 381.393 36.9104 383.28 40.166C385.758 44.232 387.637 48.6334 388.858 53.2346C390.592 60.735 390.668 68.523 389.081 76.0558Z" fill="url(#paint11_radial_72_1206)"/>
<path d="M361.414 94.7249C360.744 134.962 300.81 204.178 221.214 205.599C141.591 204.178 81.7682 134.962 80.9873 94.7249C80.9873 87.48 98.6133 38.048 131.021 19.0443C163.428 0.040526 221.214 0.0405273 221.214 0.0405273C221.214 0.0405273 278.973 0.040526 311.38 19.0443C343.788 38.048 361.525 87.48 361.414 94.7249Z" fill="url(#paint12_radial_72_1206)"/>
<path d="M361.414 94.7249C361.414 94.7249 345.015 50.1413 312.273 47.3548C279.531 44.5684 261.347 69.9531 221.214 73.6034C180.691 75.7211 160.778 70.8169 128.009 73.6034C95.2387 76.3899 80.9873 94.7249 80.9873 94.7249C80.9873 87.48 98.6133 38.048 131.021 19.0443C163.428 0.040526 221.214 0.0405273 221.214 0.0405273C221.214 0.0405273 278.973 0.040526 311.38 19.0443C343.788 38.048 361.525 87.48 361.414 94.7249Z" fill="url(#paint13_linear_72_1206)"/>
<path d="M96.578 136.215C96.578 136.215 79.1472 178.625 61.9674 192.558C48.3296 203.704 18.0697 206.49 5.63113 206.295C2.36809 206.295 0.360062 205.905 0.0532806 205.487C-1.00651 203.369 13.8027 170.628 36.0025 152.544C58.2024 134.46 88.8806 122.896 88.8806 122.896L91.4743 127.382L96.578 136.215Z" fill="url(#paint14_linear_72_1206)"/>
<path d="M389.081 76.0557C388.529 79.4209 387.594 82.7119 386.292 85.864C384.263 90.6966 381.208 95.0318 377.339 98.5704C376.654 98.6535 375.961 98.6535 375.275 98.5704C366.602 97.0378 361.944 82.7432 364.817 66.6652C367.411 52.1477 375.303 41.1412 383.168 40.2773C385.646 44.3434 387.524 48.7447 388.746 53.3459C390.5 60.8025 390.615 68.5507 389.081 76.0557Z" fill="url(#paint15_radial_72_1206)"/>
<path d="M389.08 76.0556C388.529 79.4208 387.593 82.7118 386.291 85.864C385.604 86.4258 384.809 86.8416 383.956 87.086C383.102 87.3303 382.208 87.3981 381.327 87.2851C376.223 86.3655 373.462 77.9225 375.163 68.3928C376.865 58.863 382.387 51.9526 387.518 52.8721C387.906 52.9377 388.282 53.0597 388.634 53.2344C390.442 60.7185 390.594 68.5066 389.08 76.0556Z" fill="url(#paint16_radial_72_1206)"/>
<path d="M176.453 126.045C179.409 132.816 221.076 177.79 267.344 156.306C307.504 137.637 301.759 73.0741 299.277 70.9564C296.317 69.2825 293.058 68.2034 289.683 67.7798C289.683 67.7798 275.097 89.7929 233.096 106.317C192.322 122.423 175.337 123.342 176.453 126.045Z" fill="url(#paint17_radial_72_1206)"/>
<path d="M178.739 126.129C176.536 127.996 215.637 171.381 258.196 155.248C309.261 135.742 298.356 72.7122 297.631 72.1828C296.906 71.6533 291.886 68.5604 290.408 69.0062C288.93 69.452 284.244 85.725 256.941 100.41C224.868 117.491 182.448 122.897 178.739 126.129Z" fill="url(#paint18_linear_72_1206)"/>
<path style="mix-blend-mode:multiply" opacity="0.5" d="M198.626 159.121C184.04 169.403 162.37 163.607 150.015 146.192C137.66 128.776 139.612 106.373 154.198 96.0352C168.784 85.6974 190.454 91.5769 202.809 108.992C215.164 126.408 213.212 148.727 198.626 159.121Z" fill="url(#paint19_radial_72_1206)"/>
<path style="mix-blend-mode:multiply" opacity="0.5" d="M330.374 95.2829C317.656 112.392 290.743 113.952 270.3 98.766C249.857 83.5797 243.582 57.3869 256.355 40.25C269.129 23.1132 295.986 21.5807 316.457 36.767C336.928 51.9532 343.119 78.3133 330.374 95.2829Z" fill="url(#paint20_radial_72_1206)"/>
<path style="mix-blend-mode:multiply" d="M322.536 28.352C322.536 28.352 347.636 10.6022 376.056 19.7418V31.3614C376.056 31.3614 351.792 21.2744 335.979 40.5568L322.536 28.352Z" fill="url(#paint21_linear_72_1206)"/>
<path style="mix-blend-mode:multiply" d="M67.2393 19.7967C67.2393 19.7967 94.3197 15.0039 113.535 33.3668L103.746 45.3765C103.746 45.3765 97.6385 28.6577 67.2393 31.4441V19.7967Z" fill="url(#paint22_linear_72_1206)"/>
<path style="mix-blend-mode:soft-light" opacity="0.5" d="M131.022 19.0443C131.022 19.0443 109.882 38.2152 111.192 42.0884C112.503 45.9616 157.767 59.6432 214.857 45.9895C271.946 32.3358 318.716 26.4842 318.716 26.4842C318.716 26.4842 281.819 -1.85427 221.104 0.0962616C160.389 2.04679 131.022 19.0443 131.022 19.0443Z" fill="url(#paint23_radial_72_1206)"/>
<path style="mix-blend-mode:soft-light" d="M88.8809 122.896C88.8809 122.896 139.946 198.437 226.542 195.623C313.138 192.809 349.255 130.587 349.255 130.587C349.255 130.587 307.867 205.236 219.068 205.348C130.269 205.459 88.8809 122.896 88.8809 122.896Z" fill="url(#paint24_radial_72_1206)"/>
<path style="mix-blend-mode:multiply" d="M247.347 161.907C247.347 161.907 280.284 170.573 291.216 186.149C304.034 179.497 315.693 170.822 325.743 160.458L256.745 158.953L247.347 161.907Z" fill="url(#paint25_linear_72_1206)"/>
<path d="M344.569 154.384C344.548 154.899 344.415 155.403 344.179 155.861C342.673 158.257 290.743 167.397 267.009 164.722C243.275 162.047 231.116 150.957 218.37 150.344C225.666 144.832 234.361 141.472 243.47 140.647C267.427 137.86 266.563 128.86 273.507 123.593C276.202 121.64 279.369 120.438 282.683 120.11C297.814 119.151 312.964 121.667 326.971 127.467C332.243 129.707 336.73 133.462 339.863 138.254C342.996 143.046 344.634 148.66 344.569 154.384Z" fill="url(#paint26_linear_72_1206)"/>
<path style="mix-blend-mode:multiply" d="M344.569 154.383C344.548 154.898 344.415 155.402 344.179 155.86C342.673 158.257 290.743 167.396 267.009 164.721C243.275 162.046 231.116 150.956 218.37 150.343C225.666 144.831 234.361 141.472 243.47 140.646C267.427 137.86 266.563 128.859 273.507 123.593C274.651 124.039 301.396 134.07 305.078 139.086C308.759 144.101 253.65 141.37 240.933 144.659C228.215 147.947 249.299 159.622 271.22 162.018C293.141 164.415 342.896 154.718 344.569 154.383Z" fill="url(#paint27_linear_72_1206)"/>
<path style="mix-blend-mode:soft-light" d="M246.121 153.213C244.81 154.802 254.488 160.375 277.747 162.074C301.007 163.774 340.442 153.297 340.972 153.213C341.502 153.13 323.151 142.402 296.628 142.402C270.106 142.402 248.491 150.315 246.121 153.213Z" fill="url(#paint28_radial_72_1206)"/>
<path style="mix-blend-mode:multiply" d="M282.18 67.7803C282.18 67.7803 299.081 65.161 307.141 79.9293C307.141 79.9293 306.611 53.9037 282.18 67.7803Z" fill="url(#paint29_linear_72_1206)"/>
<path style="mix-blend-mode:multiply" d="M96.5779 136.215C96.5779 136.215 79.1471 178.626 61.9673 192.558C48.3294 203.704 18.0696 206.49 5.63098 206.295C25.3487 163.829 91.2789 127.382 91.2789 127.382H91.502L96.5779 136.215Z" fill="url(#paint30_linear_72_1206)"/>
<path style="mix-blend-mode:soft-light" d="M330.067 24.1155C330.067 24.1155 329.119 12.9696 361.303 17.1215C350.5 17.0988 339.828 19.4884 330.067 24.1155Z" fill="url(#paint31_radial_72_1206)"/>
<path style="mix-blend-mode:soft-light" d="M67.2393 19.7976C67.2393 19.7976 96.9413 16.5932 108.822 21.5531C120.703 26.513 113.535 33.3677 113.535 33.3677C113.535 33.3677 106.703 19.5747 67.2393 19.7976Z" fill="url(#paint32_radial_72_1206)"/>
<path style="mix-blend-mode:soft-light" d="M23.1727 165.612L36.7269 166.95C46.4752 158.119 56.778 149.92 67.5724 142.401L57.1418 138.417C57.1418 138.417 43.2251 144.296 23.1727 165.612Z" fill="url(#paint33_radial_72_1206)"/>
<path style="mix-blend-mode:soft-light" d="M405.368 66.4143C405.368 66.4143 418.588 69.2008 425.811 65.1325C430.764 62.1027 435.277 58.4088 439.226 54.1538C439.226 54.1538 412.062 63.4885 405.368 66.4143Z" fill="url(#paint34_radial_72_1206)"/>
<path d="M64.422 71.8208C64.422 74.6072 62.9718 76.7807 61.1869 76.7807C59.402 76.7807 57.9238 74.5515 57.9238 71.8208C57.9238 69.09 59.3741 66.8608 61.1869 66.8608C62.9997 66.8608 64.422 69.09 64.422 71.8208Z" fill="white"/>
<path d="M381.019 46.1564C381.019 47.1409 380.726 48.1031 380.177 48.9205C379.627 49.7379 378.847 50.3734 377.935 50.7462C377.023 51.1191 376.021 51.2123 375.055 51.014C374.09 50.8158 373.206 50.335 372.515 49.633C371.824 48.9309 371.358 48.0394 371.176 47.0718C370.994 46.1042 371.105 45.1044 371.493 44.1997C371.882 43.295 372.531 42.5263 373.358 41.9915C374.186 41.4567 375.154 41.1799 376.139 41.1965C377.441 41.2184 378.682 41.7507 379.595 42.6785C380.508 43.6063 381.02 44.8553 381.019 46.1564Z" fill="white"/>
<path style="mix-blend-mode:soft-light" d="M131.021 19.0444C131.021 19.0444 159.272 5.11207 221.187 5.11207C283.101 5.11207 312.273 19.0444 312.273 19.0444C312.273 19.0444 282.933 0.737305 221.661 0.737305C160.388 0.737305 131.021 19.0444 131.021 19.0444Z" fill="url(#paint35_radial_72_1206)"/>
<path d="M88.8809 20.6051C88.8809 20.6051 98.3074 17.2334 97.2476 23.0571L88.8809 20.6051Z" fill="white"/>
<path d="M330.067 24.1163C330.067 24.1163 329.565 18.9892 333.051 18.3483C336.886 18.1324 340.733 18.3662 344.514 19.0449C339.53 20.212 334.686 21.9123 330.067 24.1163Z" fill="white"/>
<g style="mix-blend-mode:soft-light">
<path d="M168.393 54.0429C168.393 54.0429 194.414 42.0889 214.857 45.99C200.278 52.4869 184.31 55.2544 168.393 54.0429Z" fill="white"/>
</g>
<path d="M284.523 162.074C284.523 162.074 294.731 154.105 303.711 160.18C303.628 160.18 289.683 161.907 284.523 162.074Z" fill="white"/>
<path style="mix-blend-mode:soft-light" d="M185.655 136.828C185.655 136.828 214.911 173.359 262.49 166.894L247.346 161.906C247.346 161.906 216.584 165.278 185.655 136.828Z" fill="url(#paint36_radial_72_1206)"/>
<path style="mix-blend-mode:multiply" opacity="0.5" d="M213.071 158.257C213.071 158.257 246.538 174.195 270.551 165H281.456C281.456 165 253.901 185.843 213.071 158.257Z" fill="url(#paint37_radial_72_1206)"/>
<path d="M115.683 157.894C115.683 157.894 140.532 182.972 172.577 194.703C172.549 194.703 125.695 166.671 115.683 157.894Z" fill="white"/>
<path d="M36.7274 166.95C36.7274 166.95 38.7076 155.804 53.2657 152.739C53.2657 152.739 41.0503 162.854 36.7274 166.95Z" fill="white"/>
<path style="mix-blend-mode:soft-light" d="M335.98 40.5552C335.98 40.5552 367.412 49.2769 376.922 70.9557C375.662 62.6259 372.518 54.6928 367.728 47.7593C362.939 40.8258 356.631 35.0743 349.284 30.9419C344.136 33.0232 339.571 36.3221 335.98 40.5552Z" fill="url(#paint38_radial_72_1206)"/>
<path style="mix-blend-mode:soft-light" d="M93.6225 35.2339C84.1136 45.16 75.2985 55.727 67.2393 66.8603L102.157 45.3209C102.157 45.3209 100.037 36.9058 93.6225 35.2339Z" fill="url(#paint39_radial_72_1206)"/>
<path d="M180.721 129.779C189.9 131.682 199.348 131.918 208.61 130.476C223.063 128.784 237.23 125.205 250.751 119.831C264.533 114.393 276.292 104.824 284.413 92.4403C288.61 85.4302 291.59 77.7614 293.226 69.7584C293.226 69.7584 290.744 68.4767 290.438 69.0061C285.344 77.3007 278.929 84.7081 271.445 90.9356C260.54 99.2951 245.201 106.54 225.121 113.227C196.869 122.896 178.406 123.175 178.741 126.129C179.076 129.082 180.721 129.779 180.721 129.779Z" fill="url(#paint40_radial_72_1206)"/>
<defs>
<linearGradient id="paint0_linear_72_1206" x1="334.033" y1="82.426" x2="443.638" y2="50.7913" gradientUnits="userSpaceOnUse">
<stop stop-color="#2E16BF"/>
<stop offset="0.310417" stop-color="#5A45D8"/>
<stop offset="0.585928" stop-color="#7088DE"/>
<stop offset="1" stop-color="#5894DB"/>
</linearGradient>
<linearGradient id="paint1_linear_72_1206" x1="344.664" y1="93.2405" x2="448.363" y2="82.2768" gradientUnits="userSpaceOnUse">
<stop stop-color="#EAEFFF"/>
<stop offset="0.99" stop-color="#B586E2"/>
</linearGradient>
<linearGradient id="paint2_linear_72_1206" x1="123.121" y1="243.782" x2="232.693" y2="218.828" gradientUnits="userSpaceOnUse">
<stop stop-color="#2E16BF"/>
<stop offset="0.310417" stop-color="#5A45D8"/>
<stop offset="0.585928" stop-color="#7088DE"/>
<stop offset="1" stop-color="#5894DB"/>
</linearGradient>
<radialGradient id="paint3_radial_72_1206" cx="0" cy="0" r="1" gradientUnits="userSpaceOnUse" gradientTransform="translate(226.641 209.411) rotate(5.96176) scale(31.3281 16.0275)">
<stop stop-color="#5A45D8"/>
<stop offset="0.99" stop-color="#7088DE"/>
</radialGradient>
<linearGradient id="paint4_linear_72_1206" x1="165.598" y1="248.896" x2="233.905" y2="238.292" gradientUnits="userSpaceOnUse">
<stop stop-color="#2E16BF"/>
<stop offset="0.310417" stop-color="#5A45D8"/>
<stop offset="0.585928" stop-color="#7088DE"/>
<stop offset="1" stop-color="#5894DB"/>
</linearGradient>
<linearGradient id="paint5_linear_72_1206" x1="202.559" y1="208.357" x2="250.584" y2="208.357" gradientUnits="userSpaceOnUse">
<stop stop-color="#EAEFFF"/>
<stop offset="0.99" stop-color="#B586E2"/>
</linearGradient>
<radialGradient id="paint6_radial_72_1206" cx="0" cy="0" r="1" gradientUnits="userSpaceOnUse" gradientTransform="translate(96.383 54.3621) scale(42.8937 56.9984)">
<stop stop-color="#EAEFFF"/>
<stop offset="0.99" stop-color="#D2B5ED"/>
</radialGradient>
<radialGradient id="paint7_radial_72_1206" cx="0" cy="0" r="1" gradientUnits="userSpaceOnUse" gradientTransform="translate(103.885 50.504) scale(32.6304 32.6017)">
<stop stop-color="#3F70C0"/>
<stop offset="1" stop-color="#1F4B90"/>
</radialGradient>
<radialGradient id="paint8_radial_72_1206" cx="0" cy="0" r="1" gradientUnits="userSpaceOnUse" gradientTransform="translate(108.515 42.702) scale(21.0843 21.0657)">
<stop stop-color="#374353"/>
<stop offset="1" stop-color="#00023F"/>
</radialGradient>
<linearGradient id="paint9_linear_72_1206" x1="59.6389" y1="26.7679" x2="120.238" y2="-3.96199" gradientUnits="userSpaceOnUse">
<stop stop-color="#2E16BF"/>
<stop offset="0.310417" stop-color="#5A45D8"/>
<stop offset="0.585928" stop-color="#7088DE"/>
<stop offset="1" stop-color="#5894DB"/>
</linearGradient>
<linearGradient id="paint10_linear_72_1206" x1="304.663" y1="26.7679" x2="365.309" y2="-4.02611" gradientUnits="userSpaceOnUse">
<stop stop-color="#2E16BF"/>
<stop offset="0.310417" stop-color="#5A45D8"/>
<stop offset="0.585928" stop-color="#7088DE"/>
<stop offset="1" stop-color="#5894DB"/>
</linearGradient>
<radialGradient id="paint11_radial_72_1206" cx="0" cy="0" r="1" gradientUnits="userSpaceOnUse" gradientTransform="translate(361.861 54.3626) scale(42.8937 56.9984)">
<stop stop-color="#EAEFFF"/>
<stop offset="0.99" stop-color="#D2B5ED"/>
</radialGradient>
<radialGradient id="paint12_radial_72_1206" cx="0" cy="0" r="1" gradientUnits="userSpaceOnUse" gradientTransform="translate(250.632 107.545) scale(171.81 136.39)">
<stop stop-color="white"/>
<stop offset="0.630208" stop-color="#FFE5D7"/>
<stop offset="0.979167" stop-color="#FFEAE3"/>
</radialGradient>
<linearGradient id="paint13_linear_72_1206" x1="47.5715" y1="41.1979" x2="298.931" y2="-103.747" gradientUnits="userSpaceOnUse">
<stop stop-color="#165ABF"/>
<stop offset="0.310417" stop-color="#4845D8"/>
<stop offset="0.585928" stop-color="#7088DE"/>
<stop offset="1" stop-color="#5875DB"/>
</linearGradient>
<linearGradient id="paint14_linear_72_1206" x1="-11.5084" y1="159.152" x2="98.2652" y2="134.404" gradientUnits="userSpaceOnUse">
<stop stop-color="#165ABF"/>
<stop offset="0.310417" stop-color="#4845D8"/>
<stop offset="0.585928" stop-color="#7088DE"/>
<stop offset="1" stop-color="#5875DB"/>
</linearGradient>
<radialGradient id="paint15_radial_72_1206" cx="0" cy="0" r="1" gradientUnits="userSpaceOnUse" gradientTransform="translate(378.65 82.576) scale(28.5865 28.5613)">
<stop stop-color="#3F70C0"/>
<stop offset="1" stop-color="#1F4B90"/>
</radialGradient>
<radialGradient id="paint16_radial_72_1206" cx="0" cy="0" r="1" gradientUnits="userSpaceOnUse" gradientTransform="translate(383.279 77.8946) scale(16.9009 16.886)">
<stop stop-color="#374353"/>
<stop offset="1" stop-color="#00023F"/>
</radialGradient>
<radialGradient id="paint17_radial_72_1206" cx="0" cy="0" r="1" gradientUnits="userSpaceOnUse" gradientTransform="translate(243.303 138.673) scale(78.4804 97.2301)">
<stop stop-color="#E36E92"/>
<stop offset="1" stop-color="#7A5FAC"/>
</radialGradient>
<linearGradient id="paint18_linear_72_1206" x1="238.868" y1="158.842" x2="238.868" y2="68.9783" gradientUnits="userSpaceOnUse">
<stop stop-color="#8D224B"/>
<stop offset="1" stop-color="#5E0052"/>
</linearGradient>
<radialGradient id="paint19_radial_72_1206" cx="0" cy="0" r="1" gradientUnits="userSpaceOnUse" gradientTransform="translate(183.266 124.73) rotate(54.8276) scale(38.685 32.428)">
<stop offset="0.01" stop-color="#FF7C77"/>
<stop offset="0.19" stop-color="#FF9F9B"/>
<stop offset="0.44" stop-color="#FFC8C6"/>
<stop offset="0.67" stop-color="#FFE6E5"/>
<stop offset="0.87" stop-color="#FFF8F8"/>
<stop offset="1" stop-color="white"/>
</radialGradient>
<radialGradient id="paint20_radial_72_1206" cx="0" cy="0" r="1" gradientUnits="userSpaceOnUse" gradientTransform="translate(297.678 67.1041) rotate(36.4619) scale(46.1069 38.6038)">
<stop offset="0.01" stop-color="#FF7C77"/>
<stop offset="0.19" stop-color="#FF9F9B"/>
<stop offset="0.44" stop-color="#FFC8C6"/>
<stop offset="0.67" stop-color="#FFE6E5"/>
<stop offset="0.87" stop-color="#FFF8F8"/>
<stop offset="1" stop-color="white"/>
</radialGradient>
<linearGradient id="paint21_linear_72_1206" x1="322.536" y1="28.8536" x2="376.056" y2="28.8536" gradientUnits="userSpaceOnUse">
<stop stop-color="#EAEFFF"/>
<stop offset="0.99" stop-color="#B586E2"/>
</linearGradient>
<linearGradient id="paint22_linear_72_1206" x1="67.2393" y1="32.2522" x2="113.535" y2="32.2522" gradientUnits="userSpaceOnUse">
<stop offset="0.01" stop-color="#B586E2"/>
<stop offset="1" stop-color="#EAEFFF"/>
</linearGradient>
<radialGradient id="paint23_radial_72_1206" cx="0" cy="0" r="1" gradientUnits="userSpaceOnUse" gradientTransform="translate(214.968 25.9547) scale(75.6357 75.5692)">
<stop stop-color="#E0E7FF"/>
<stop offset="1" stop-color="#9A93D6"/>
</radialGradient>
<radialGradient id="paint24_radial_72_1206" cx="0" cy="0" r="1" gradientUnits="userSpaceOnUse" gradientTransform="translate(246.427 152.164) scale(101.684 135.121)">
<stop stop-color="#5997FF"/>
<stop offset="1" stop-color="#0093FF"/>
</radialGradient>
<linearGradient id="paint25_linear_72_1206" x1="286.559" y1="186.038" x2="286.559" y2="158.842" gradientUnits="userSpaceOnUse">
<stop stop-color="#EAEFFF"/>
<stop offset="0.99" stop-color="#B586E2"/>
</linearGradient>
<linearGradient id="paint26_linear_72_1206" x1="218.37" y1="142.514" x2="344.625" y2="142.514" gradientUnits="userSpaceOnUse">
<stop stop-color="#9C097C"/>
<stop offset="1" stop-color="#D6424B"/>
</linearGradient>
<linearGradient id="paint27_linear_72_1206" x1="218.37" y1="144.38" x2="344.569" y2="144.38" gradientUnits="userSpaceOnUse">
<stop stop-color="#EAEFFF"/>
<stop offset="0.99" stop-color="#FF9DE2"/>
</linearGradient>
<radialGradient id="paint28_radial_72_1206" cx="0" cy="0" r="1" gradientUnits="userSpaceOnUse" gradientTransform="translate(293.505 152.377) scale(34.3038 34.2736)">
<stop stop-color="#FFE7C7"/>
<stop offset="1" stop-color="#B893D6"/>
</radialGradient>
<linearGradient id="paint29_linear_72_1206" x1="282.18" y1="71.8207" x2="307.141" y2="71.8207" gradientUnits="userSpaceOnUse">
<stop offset="0.01" stop-color="#B586E2"/>
<stop offset="1" stop-color="#EAEFFF"/>
</linearGradient>
<linearGradient id="paint30_linear_72_1206" x1="5.63098" y1="166.95" x2="96.5779" y2="166.95" gradientUnits="userSpaceOnUse">
<stop stop-color="#EAEFFF"/>
<stop offset="0.99" stop-color="#B586E2"/>
</linearGradient>
<radialGradient id="paint31_radial_72_1206" cx="0" cy="0" r="1" gradientUnits="userSpaceOnUse" gradientTransform="translate(345.657 20.1308) scale(11.4067 11.3967)">
<stop stop-color="#E0E7FF"/>
<stop offset="1" stop-color="#9A93D6"/>
</radialGradient>
<radialGradient id="paint32_radial_72_1206" cx="0" cy="0" r="1" gradientUnits="userSpaceOnUse" gradientTransform="translate(91.475 26.0115) scale(17.877 17.8613)">
<stop stop-color="#E0E7FF"/>
<stop offset="1" stop-color="#9A93D6"/>
</radialGradient>
<radialGradient id="paint33_radial_72_1206" cx="0" cy="0" r="1" gradientUnits="userSpaceOnUse" gradientTransform="translate(45.3726 152.739) scale(18.63 18.6136)">
<stop stop-color="#E0E7FF"/>
<stop offset="1" stop-color="#9A93D6"/>
</radialGradient>
<radialGradient id="paint34_radial_72_1206" cx="0" cy="0" r="1" gradientUnits="userSpaceOnUse" gradientTransform="translate(422.297 60.7577) scale(12.8569 12.8456)">
<stop stop-color="#E0E7FF"/>
<stop offset="1" stop-color="#9A93D6"/>
</radialGradient>
<radialGradient id="paint35_radial_72_1206" cx="0" cy="0" r="1" gradientUnits="userSpaceOnUse" gradientTransform="translate(221.661 9.87693) scale(64.4242 64.3675)">
<stop stop-color="#9DEFFF"/>
<stop offset="1" stop-color="#00C9FF"/>
</radialGradient>
<radialGradient id="paint36_radial_72_1206" cx="0" cy="0" r="1" gradientUnits="userSpaceOnUse" gradientTransform="translate(224.087 152.293) scale(29.2837 29.258)">
<stop stop-color="#E0E7FF"/>
<stop offset="1" stop-color="#9A93D6"/>
</radialGradient>
<radialGradient id="paint37_radial_72_1206" cx="0" cy="0" r="1" gradientUnits="userSpaceOnUse" gradientTransform="translate(247.264 165.418) scale(24.7099 24.6881)">
<stop offset="0.01" stop-color="#E590CE"/>
<stop offset="0.23" stop-color="#E693CF"/>
<stop offset="0.41" stop-color="#E89ED4"/>
<stop offset="0.58" stop-color="#ECAFDC"/>
<stop offset="0.74" stop-color="#F2C7E6"/>
<stop offset="0.9" stop-color="#F9E6F4"/>
<stop offset="1" stop-color="white"/>
</radialGradient>
<radialGradient id="paint38_radial_72_1206" cx="0" cy="0" r="1" gradientUnits="userSpaceOnUse" gradientTransform="translate(356.451 50.9209) scale(20.2755 20.2577)">
<stop stop-color="#EAEFFF"/>
<stop offset="0.99" stop-color="#D2B5ED"/>
</radialGradient>
<radialGradient id="paint39_radial_72_1206" cx="0" cy="0" r="1" gradientUnits="userSpaceOnUse" gradientTransform="translate(84.6979 51.0332) scale(16.6499 16.6352)">
<stop stop-color="#EAEFFF"/>
<stop offset="0.99" stop-color="#D2B5ED"/>
</radialGradient>
<radialGradient id="paint40_radial_72_1206" cx="0" cy="0" r="1" gradientUnits="userSpaceOnUse" gradientTransform="translate(236.053 100.131) scale(46.1567 46.1161)">
<stop stop-color="#EAEFFF"/>
<stop offset="0.99" stop-color="#D2CFED"/>
</radialGradient>
</defs>
</svg>
