<svg width="480" height="682" viewBox="0 0 480 682" fill="none" xmlns="http://www.w3.org/2000/svg">
<g clip-path="url(#clip0_6_151)">
<path d="M397.277 676.152C405.782 617.798 405.009 596.199 367.51 615.903C406.555 586.347 393.024 543.529 364.417 551.486C400.756 515.868 387.612 489.722 358.232 490.48C417.766 445.009 399.596 402.57 358.618 416.969C411.967 384.76 428.978 344.595 382.2 334.364C436.709 301.018 442.508 246.074 390.705 256.685C423.565 203.256 401.529 168.396 364.804 182.795C332.33 88.8219 287.486 110.799 313.387 189.994C267.77 179.763 266.61 207.425 295.217 260.853C254.239 242.665 246.894 274.115 268.929 349.9C229.884 312.765 203.596 357.099 240.322 420.379C198.57 400.675 178.081 433.262 220.992 506.016C173.055 497.679 170.736 535.95 236.843 583.694C213.261 592.41 217.513 616.281 265.45 628.786C248.054 645.459 258.878 666.299 313.001 657.205C293.285 682.972 323.439 691.688 397.277 676.152Z" fill="#2F265B"/>
<path d="M425.498 695.32C392.638 679.026 313.001 633.177 285.553 560.045C274.728 530.867 277.048 497.523 292.898 454.704C322.279 375.131 335.809 306.546 335.036 238.34C334.649 201.963 331.943 175.06 325.371 151.188L327.304 150.809C333.489 175.06 336.582 201.963 336.969 238.34C337.355 306.925 324.211 375.888 294.444 455.462C278.594 497.902 276.275 530.868 287.099 559.666C314.161 632.04 393.411 677.511 425.885 693.805L425.498 695.32Z" fill="#151840"/>
<path d="M279.367 641.134C278.207 641.134 277.821 641.134 277.821 641.134V639.239C277.821 639.239 299.083 640.376 333.102 628.251L333.876 630.145C304.495 640.376 284.779 641.134 279.367 641.134Z" fill="#151840"/>
<path d="M288.258 564.213L287.485 562.318C287.872 562.318 323.824 547.54 352.432 519.121L353.979 520.258C324.984 549.435 288.645 564.213 288.258 564.213Z" fill="#151840"/>
<path d="M282.46 495.628C239.548 485.776 220.219 443.337 220.219 442.957L222.152 442.2C222.152 442.579 241.481 484.26 283.233 494.112L282.46 495.628Z" fill="#151840"/>
<path d="M315.32 390.287L314.934 388.393C315.32 388.393 352.432 381.572 376.401 358.078L377.948 359.595C353.592 383.088 315.707 389.908 315.32 390.287Z" fill="#151840"/>
<path d="M324.599 349.743C293.671 333.07 285.166 288.357 285.166 287.978L287.099 287.6C287.099 287.978 295.217 331.933 325.371 348.227L324.599 349.743Z" fill="#151840"/>
<path d="M336.583 239.097L335.809 237.203C336.196 237.203 367.897 225.077 375.629 204.994L377.562 205.752C369.443 226.972 338.129 238.719 336.583 239.097Z" fill="#151840"/>
<path d="M193.415 481.378C190.537 481.378 188.168 483.753 188.168 486.637L188.506 513.437C188.506 522.427 188.845 531.248 188.168 539.898C187.829 544.139 187.322 548.38 186.475 552.62C185.629 556.691 184.444 560.932 182.752 564.494C181.059 568.056 178.69 570.94 175.643 572.975C173.274 574.502 170.396 575.35 167.688 575.35C167.35 571.957 167.181 568.735 167.35 565.512C167.688 556.352 169.719 547.192 173.104 538.541V538.372C174.12 535.488 172.766 532.435 169.889 531.248C167.011 530.23 163.965 531.587 162.78 534.471C160.58 540.577 158.887 546.853 158.041 553.299C157.872 552.96 157.702 552.79 157.533 552.451C156.348 550.415 155.502 548.21 154.825 545.835C153.471 541.255 152.794 536.336 152.794 531.417C152.625 521.41 154.317 510.893 153.64 499.698C153.64 499.528 153.64 499.528 153.64 499.358C153.302 496.475 150.594 494.27 147.717 494.609C144.839 494.948 142.639 497.662 142.978 500.546C143.485 505.465 143.655 510.554 143.485 515.642C143.485 520.901 143.316 526.329 143.824 531.757C144.332 537.184 145.347 542.952 147.378 548.21C148.394 550.924 149.748 553.468 151.271 556.013C152.625 558.218 154.656 560.593 157.364 562.289C157.364 563.307 157.364 564.155 157.364 565.172C157.364 575.689 159.734 585.697 160.918 595.026C161.595 599.776 161.934 604.356 161.595 608.935C161.426 613.515 160.58 617.925 158.887 621.996C156.518 628.272 151.779 633.531 146.024 637.432C147.378 623.184 147.717 608.766 147.209 594.348C147.209 594.348 147.209 594.178 147.209 594.008C146.87 590.786 144.162 588.411 140.947 588.581C137.731 588.92 135.361 591.634 135.53 594.857C136.884 611.989 137.054 629.29 135.53 646.592C135.192 650.832 134.853 655.243 134.176 659.483C133.669 663.724 133.161 668.134 132.315 672.035C131.468 675.937 129.945 679.329 127.576 681.704C125.883 683.4 123.683 684.757 121.483 685.436L121.313 681.704C121.144 679.16 120.975 676.446 120.636 673.901C120.129 668.813 119.282 663.554 118.436 658.635C116.744 648.627 114.543 638.62 112.681 628.781C110.989 618.943 109.635 609.275 109.635 599.606C109.635 590.107 110.989 580.608 114.205 571.957C117.251 563.646 123.344 556.013 129.607 548.21C129.607 548.21 129.607 548.04 129.776 548.04C131.807 545.326 131.299 541.255 128.591 539.22C125.883 537.184 121.821 537.693 119.79 540.407C116.744 544.478 113.528 548.549 110.65 553.129C107.773 557.539 105.065 562.458 103.203 567.886C99.4798 578.233 98.2951 589.259 98.6336 599.776C98.9721 609.783 100.326 619.452 102.188 628.951C95.7562 623.862 90.3402 617.586 87.1244 610.123C84.9242 605.373 83.7394 600.115 83.2317 594.687C82.7239 589.259 82.8932 583.661 83.2317 578.064L84.9242 552.451C87.8015 551.263 90.3402 549.567 92.5405 547.532C95.9256 544.478 98.4643 540.577 100.157 536.676C101.849 532.605 103.034 528.534 103.88 524.632C104.896 520.731 105.573 516.66 106.25 512.589C106.927 508.009 107.435 503.599 107.942 499.019C108.958 499.019 109.973 499.019 110.989 498.85C112.851 498.51 114.543 498.001 116.236 497.493C119.621 496.136 122.498 494.1 125.037 491.556C126.222 490.199 127.406 488.842 128.422 487.315C129.268 485.789 130.114 484.092 130.622 482.566C131.807 479.343 132.484 475.95 132.822 472.728C133.161 469.505 133.33 466.282 133.33 463.398L134.176 454.747L135.023 436.598C135.023 436.428 135.023 436.428 135.023 436.258C135.023 433.375 132.653 431 129.607 431C126.729 431 124.36 433.375 124.36 436.428L124.529 454.747V463.907C124.529 466.96 124.529 469.844 124.529 472.728C124.36 475.611 124.021 478.155 123.175 480.7C122.837 481.887 122.329 483.075 121.821 484.262C121.313 485.28 120.636 486.297 119.79 487.315C117.082 490.538 113.189 492.743 109.127 493.252C109.635 484.092 109.804 474.933 109.974 465.773V465.603C109.974 462.889 107.773 460.854 105.065 460.854C102.357 460.854 100.326 463.059 100.326 465.773C100.495 481.548 100.665 497.323 98.8028 512.589C98.295 516.49 97.618 520.222 96.941 523.954C96.0948 527.686 95.2485 531.417 93.8945 534.64C92.5405 538.033 90.6787 540.916 88.3092 543.291C87.6322 543.969 86.9551 544.478 86.1089 545.157L88.4784 510.384V510.214C88.6477 507.161 86.2782 504.617 83.2317 504.617C80.1851 504.447 77.6463 506.822 77.6463 509.875L74.7691 578.573C74.5998 581.796 74.5998 585.188 74.7691 588.581C71.5533 587.732 68.5067 586.036 66.1371 583.661C62.9213 580.608 60.8903 576.537 59.7056 571.957C58.5208 567.378 58.1824 562.289 57.8438 557.2C57.5053 552.111 57.5053 547.023 57.6745 541.934C58.013 531.757 59.1978 521.579 60.5518 511.232L64.7831 480.361C64.7831 480.361 64.7831 480.361 64.7831 480.191C65.1216 477.477 63.0907 474.933 60.3826 474.593C57.6746 474.254 55.1357 476.29 54.7972 479.004L51.243 510.045C50.0582 520.392 49.2119 531.078 49.2119 541.595C49.2119 546.853 49.3812 552.281 49.7197 557.539C49.8889 559.066 50.0583 560.593 50.2275 562.119C49.0427 561.78 48.0272 561.271 46.8425 560.762C44.6422 559.575 42.7804 558.048 41.0879 556.352C39.3953 554.486 38.0413 552.451 37.0258 550.246C36.0103 548.04 35.3333 545.496 34.9948 542.952C34.1486 537.863 34.4871 532.265 34.9948 526.668L36.0103 509.366V509.197C36.0103 506.483 33.81 504.108 31.1019 504.108C28.3939 504.108 26.0244 506.313 26.0244 509.027L25.686 526.329C25.5167 532.096 25.5167 538.202 26.7014 544.478C27.3784 547.701 28.2247 550.754 29.7479 553.808C31.2712 556.861 33.3022 559.405 35.6718 561.78C38.0413 563.985 40.7493 566.021 43.7958 567.378C46.1654 568.395 48.7042 569.243 51.4122 569.583C51.7507 570.94 52.0893 572.297 52.4278 573.654C53.274 576.368 54.2895 579.082 55.8128 581.626C57.3361 584.17 59.1978 586.545 61.3981 588.581C65.2909 592.143 70.1992 594.687 75.6153 595.365C75.6153 595.535 75.6153 595.874 75.6153 596.044C76.2923 602.15 77.9848 608.257 80.6929 613.854C85.9397 624.71 94.7407 633.361 105.065 638.959C106.588 646.253 108.281 653.377 109.804 660.501C110.82 665.42 111.666 670.17 112.343 675.089C112.681 677.463 112.851 680.008 113.02 682.382L113.189 685.945L113.358 689.676C113.697 699.684 113.697 709.692 113.697 719.869C113.697 731.404 113.528 742.769 113.189 754.303C110.312 753.455 107.435 752.437 104.896 751.08C101.172 749.214 97.9565 746.84 95.7562 743.956L95.587 743.786L95.4177 743.617C92.3712 740.224 90.0017 736.153 88.1399 731.743C86.1089 727.333 84.4164 722.583 82.8931 718.003C80.0158 708.674 77.9848 699.006 76.8 689.167C74.4305 669.491 75.2768 649.475 76.4616 629.29C76.4616 629.121 76.4616 629.121 76.4616 628.951C76.4616 625.389 73.5842 622.336 70.0299 622.336C66.4756 622.336 63.4291 625.219 63.4291 628.781C63.0906 649.136 63.2599 670 66.4757 690.524C67.6604 697.988 69.3529 705.621 71.5532 712.915C69.5222 712.236 67.6604 711.219 65.9679 710.201C62.4136 707.996 59.3671 705.112 56.9976 701.72C54.6281 698.327 52.9355 694.426 51.7507 690.355C50.5659 686.284 49.889 681.874 49.3812 677.463C48.535 668.473 48.1965 659.314 48.535 650.324C48.8735 641.334 49.8889 632.343 51.4122 623.353V623.184C51.7507 620.3 49.7198 617.417 46.8425 617.077C43.9652 616.738 41.0878 618.774 40.7493 621.657C39.3953 631.156 38.7183 640.655 38.7183 650.154C38.7183 651.85 38.7183 653.716 38.7183 655.412C37.3643 655.243 35.8411 654.734 34.6563 653.886C32.7945 652.698 31.2713 650.832 29.9173 648.627C29.2403 647.61 28.5632 646.253 28.0554 645.065C27.3784 643.708 26.8707 642.521 26.3629 641.164C25.8552 639.977 25.5166 638.62 25.1781 637.602C24.8396 636.414 24.8396 635.227 24.6704 634.04C24.5011 631.495 24.6704 628.442 24.8397 625.558L25.1781 616.568L25.8552 598.588C25.8552 598.419 25.8552 598.249 25.8552 598.249C25.6859 595.026 22.9779 592.312 19.7621 592.482C16.5463 592.651 13.8383 595.365 14.0075 598.588L14.5153 616.568L14.8538 625.558C15.023 628.442 15.023 631.495 15.3615 634.888C15.5308 636.584 15.8693 638.28 16.3771 640.146C16.8848 641.842 17.5618 643.369 18.2388 644.896C18.9158 646.422 19.7621 647.779 20.4391 649.136C21.2853 650.493 21.9624 651.85 22.9779 653.377C24.8396 656.091 27.5477 658.974 30.9327 660.671C33.3023 662.028 36.1795 662.706 39.0568 662.876C39.3953 668.134 39.7339 673.562 40.5801 678.82C41.2571 683.57 42.1033 688.489 43.7958 693.238C45.3191 697.988 47.6887 702.568 50.7352 706.639C53.951 710.71 57.6746 714.102 62.0752 716.816C65.7987 719.021 69.8607 720.548 74.2612 721.226C76.123 726.145 78.154 730.895 80.5236 735.644C82.8931 740.394 85.9396 745.143 89.8324 749.214L89.6632 748.875C91.3557 750.91 93.2175 752.776 95.2485 754.133C97.2795 755.66 99.4798 756.847 101.68 757.865C105.404 759.561 109.127 760.749 113.02 761.597C112.851 767.873 112.681 774.149 112.512 780.425C112.512 782.291 113.866 783.818 115.728 783.987C117.59 784.157 119.282 782.63 119.282 780.764C120.129 765.837 120.806 750.91 121.313 735.984C124.698 735.984 127.914 735.644 131.299 734.796C135.869 733.778 140.27 732.252 144.332 730.216C148.563 728.181 152.625 725.297 156.01 721.905C159.395 718.343 162.272 714.102 163.965 709.353C165.657 704.603 166.334 700.023 166.842 695.613C167.011 694.935 167.011 694.256 167.181 693.578C169.55 692.899 171.92 691.881 174.12 690.524C177.505 688.319 180.382 685.436 182.752 682.213C184.952 678.99 186.814 675.428 187.999 671.696C189.183 667.964 190.03 664.402 190.537 660.84L197.138 619.282C197.138 619.113 197.138 618.943 197.138 618.774C197.477 615.211 194.769 612.158 191.214 611.819C187.66 611.48 184.614 614.194 184.275 617.756L180.552 659.483C179.875 666.268 178.69 672.375 175.474 677.633C173.951 680.177 171.92 682.552 169.55 684.248C169.042 684.588 168.535 684.927 168.027 685.266C168.196 684.418 168.196 683.57 168.365 682.552C169.381 673.901 170.058 665.081 170.566 656.43C170.566 656.26 170.566 656.26 170.566 656.091C170.566 652.529 167.688 649.645 164.134 649.645C160.58 649.645 157.703 652.529 157.703 656.091C157.703 664.572 157.533 673.223 157.026 681.704C156.856 685.945 156.518 690.185 156.179 694.426C155.841 698.666 155.502 702.737 154.487 706.13C152.456 713.084 147.04 719.021 140.27 722.753C134.346 725.976 127.914 728.181 121.313 728.69C121.483 725.806 121.483 722.753 121.652 719.869C121.821 710.879 121.99 701.72 121.99 692.73V692.56C126.222 691.881 130.114 689.846 133.161 686.962C135.023 685.266 136.715 683.061 137.9 680.686C139.085 678.481 139.931 676.106 140.608 673.732C141.793 668.982 142.47 664.742 143.316 660.331C143.993 655.921 144.67 651.511 145.178 647.101C145.178 646.592 145.347 645.913 145.347 645.404C149.578 643.369 153.471 640.825 156.856 637.602C160.749 634.04 164.134 629.46 166.334 624.371C168.535 619.452 169.719 614.024 170.227 608.766C170.735 603.507 170.396 598.249 170.058 593.16C169.719 589.089 169.212 585.018 168.704 581.117C172.597 581.117 176.32 579.93 179.705 578.064C184.275 575.519 187.829 571.279 190.199 566.869C192.568 562.458 193.923 557.879 194.938 553.299C195.954 548.719 196.8 544.139 197.138 539.559C197.985 530.4 198.154 521.41 198.323 512.419L199 485.619V485.449C198.661 483.753 196.292 481.378 193.415 481.378Z" fill="#2F265B"/>
<path d="M332.415 642.242C329.537 642.242 327.168 644.327 327.168 646.859L327.506 670.395C327.506 678.29 327.845 686.037 327.168 693.633C326.829 697.357 326.322 701.082 325.475 704.805C324.629 708.38 323.444 712.105 321.752 715.233C320.059 718.361 317.69 720.894 314.643 722.681C312.274 724.022 309.396 724.766 306.688 724.766C306.35 721.787 306.181 718.957 306.35 716.127C306.688 708.083 308.719 700.038 312.104 692.441V692.293C313.12 689.76 311.766 687.079 308.889 686.037C306.011 685.142 302.965 686.334 301.78 688.867C299.58 694.229 297.887 699.741 297.041 705.401C296.872 705.104 296.702 704.954 296.533 704.657C295.348 702.869 294.502 700.932 293.825 698.847C292.471 694.825 291.794 690.505 291.794 686.185C291.625 677.396 293.317 668.161 292.64 658.329C292.64 658.18 292.64 658.18 292.64 658.031C292.302 655.499 289.594 653.563 286.717 653.861C283.839 654.158 281.639 656.542 281.978 659.074C282.485 663.394 282.655 667.863 282.485 672.332C282.485 676.95 282.316 681.716 282.824 686.484C283.332 691.249 284.347 696.315 286.378 700.932C287.394 703.316 288.748 705.55 290.271 707.785C291.625 709.721 293.656 711.807 296.364 713.296C296.364 714.19 296.364 714.935 296.364 715.828C296.364 725.064 298.734 733.853 299.918 742.046C300.595 746.217 300.934 750.239 300.595 754.26C300.426 758.282 299.58 762.155 297.887 765.73C295.518 771.242 290.779 775.86 285.024 779.286C286.378 766.774 286.717 754.112 286.209 741.45C286.209 741.45 286.209 741.301 286.209 741.152C285.87 738.322 283.162 736.236 279.947 736.386C276.731 736.683 274.361 739.067 274.53 741.897C275.884 756.942 276.054 772.136 274.53 787.33C274.192 791.054 273.853 794.927 273.176 798.651C272.669 802.375 272.161 806.248 271.315 809.674C270.468 813.101 268.945 816.079 266.576 818.165C264.883 819.654 262.683 820.846 260.483 821.442L260.313 818.165C260.144 815.931 259.975 813.548 259.636 811.313C259.129 806.844 258.282 802.226 257.436 797.906C255.744 789.117 253.543 780.329 251.681 771.689C249.989 763.049 248.635 754.559 248.635 746.068C248.635 737.726 249.989 729.384 253.205 721.787C256.251 714.488 262.344 707.785 268.607 700.932C268.607 700.932 268.607 700.783 268.776 700.783C270.807 698.4 270.299 694.825 267.591 693.037C264.883 691.249 260.821 691.696 258.79 694.08C255.744 697.655 252.528 701.23 249.65 705.252C246.773 709.125 244.065 713.445 242.203 718.212C238.48 727.298 237.295 736.981 237.634 746.217C237.972 755.005 239.326 763.496 241.188 771.838C234.756 767.369 229.34 761.857 226.124 755.304C223.924 751.132 222.739 746.515 222.232 741.748C221.724 736.981 221.893 732.065 222.232 727.15L223.924 704.657C226.802 703.613 229.34 702.124 231.54 700.337C234.926 697.655 237.464 694.229 239.157 690.803C240.849 687.228 242.034 683.653 242.88 680.227C243.896 676.801 244.573 673.226 245.25 669.65C245.927 665.628 246.435 661.756 246.942 657.733C247.958 657.733 248.973 657.733 249.989 657.585C251.851 657.287 253.543 656.84 255.236 656.393C258.621 655.201 261.498 653.414 264.037 651.179C265.222 649.988 266.406 648.796 267.422 647.455C268.268 646.115 269.114 644.625 269.622 643.284C270.807 640.454 271.484 637.475 271.822 634.645C272.161 631.814 272.33 628.984 272.33 626.452L273.176 618.855L274.023 602.916C274.023 602.767 274.023 602.767 274.023 602.618C274.023 600.085 271.653 598 268.607 598C265.729 598 263.36 600.085 263.36 602.767L263.529 618.855V626.899C263.529 629.58 263.529 632.112 263.529 634.645C263.36 637.177 263.021 639.411 262.175 641.646C261.837 642.688 261.329 643.731 260.821 644.774C260.313 645.668 259.636 646.561 258.79 647.455C256.082 650.286 252.189 652.222 248.127 652.669C248.635 644.625 248.804 636.581 248.974 628.537V628.388C248.974 626.005 246.773 624.217 244.065 624.217C241.357 624.217 239.326 626.154 239.326 628.537C239.495 642.391 239.665 656.244 237.803 669.65C237.295 673.077 236.618 676.354 235.941 679.631C235.095 682.908 234.249 686.185 232.895 689.015C231.541 691.995 229.679 694.527 227.309 696.613C226.632 697.208 225.955 697.655 225.109 698.251L227.478 667.714V667.565C227.648 664.884 225.278 662.649 222.232 662.649C219.185 662.5 216.646 664.586 216.646 667.267L213.769 727.597C213.6 730.427 213.6 733.406 213.769 736.386C210.553 735.64 207.507 734.151 205.137 732.065C201.921 729.384 199.89 725.809 198.706 721.787C197.521 717.765 197.182 713.296 196.844 708.827C196.505 704.358 196.505 699.89 196.674 695.421C197.013 686.483 198.198 677.545 199.552 668.459L203.783 641.348C203.783 641.348 203.783 641.348 203.783 641.199C204.122 638.815 202.091 636.581 199.383 636.283C196.675 635.985 194.136 637.773 193.797 640.156L190.243 667.416C189.058 676.503 188.212 685.887 188.212 695.123C188.212 699.741 188.381 704.507 188.72 709.125C188.889 710.466 189.058 711.807 189.228 713.147C188.043 712.849 187.027 712.402 185.842 711.955C183.642 710.913 181.78 709.572 180.088 708.083C178.395 706.444 177.041 704.657 176.026 702.72C175.01 700.783 174.333 698.549 173.995 696.315C173.149 691.846 173.487 686.93 173.995 682.014L175.01 666.82V666.671C175.01 664.288 172.81 662.202 170.102 662.202C167.394 662.202 165.024 664.139 165.024 666.522L164.686 681.716C164.517 686.781 164.517 692.143 165.701 697.655C166.378 700.485 167.225 703.166 168.748 705.848C170.271 708.53 172.302 710.764 174.672 712.849C177.041 714.786 179.749 716.574 182.796 717.765C185.165 718.659 187.704 719.403 190.412 719.702C190.751 720.893 191.089 722.085 191.428 723.277C192.274 725.66 193.29 728.044 194.813 730.278C196.336 732.512 198.198 734.598 200.398 736.386C204.291 739.514 209.199 741.748 214.615 742.343C214.615 742.493 214.615 742.79 214.615 742.94C215.292 748.302 216.985 753.665 219.693 758.58C224.94 768.114 233.741 775.711 244.065 780.627C245.588 787.032 247.281 793.289 248.804 799.545C249.82 803.865 250.666 808.036 251.343 812.356C251.681 814.441 251.851 816.676 252.02 818.76L252.189 821.889L252.358 825.166C252.697 833.955 252.697 842.744 252.697 851.681C252.697 861.811 252.528 871.792 252.189 881.921C249.312 881.176 246.435 880.282 243.896 879.09C240.172 877.451 236.957 875.367 234.756 872.834L234.587 872.685L234.418 872.536C231.371 869.557 229.002 865.981 227.14 862.109C225.109 858.236 223.416 854.064 221.893 850.042C219.016 841.85 216.985 833.359 215.8 824.719C213.43 807.44 214.277 789.862 215.462 772.136C215.462 771.987 215.462 771.987 215.462 771.838C215.462 768.71 212.584 766.029 209.03 766.029C205.476 766.029 202.429 768.561 202.429 771.689C202.091 789.564 202.26 807.887 205.476 825.911C206.66 832.465 208.353 839.169 210.553 845.574C208.522 844.978 206.66 844.085 204.968 843.191C201.414 841.254 198.367 838.722 195.998 835.743C193.628 832.763 191.936 829.337 190.751 825.762C189.566 822.187 188.889 818.314 188.381 814.441C187.535 806.546 187.196 798.502 187.535 790.608C187.873 782.713 188.889 774.817 190.412 766.922V766.774C190.751 764.241 188.72 761.709 185.842 761.41C182.965 761.113 180.088 762.901 179.749 765.433C178.395 773.774 177.718 782.116 177.718 790.458C177.718 791.948 177.718 793.586 177.718 795.076C176.364 794.927 174.841 794.48 173.656 793.736C171.794 792.692 170.271 791.054 168.917 789.117C168.24 788.224 167.563 787.032 167.055 785.989C166.378 784.797 165.871 783.755 165.363 782.563C164.855 781.521 164.517 780.329 164.178 779.435C163.84 778.392 163.84 777.35 163.67 776.307C163.501 774.072 163.67 771.391 163.84 768.858L164.178 760.963L164.855 745.174C164.855 745.025 164.855 744.876 164.855 744.876C164.686 742.046 161.978 739.662 158.762 739.811C155.546 739.96 152.838 742.343 153.008 745.174L153.515 760.963L153.854 768.858C154.023 771.391 154.023 774.072 154.362 777.052C154.531 778.541 154.869 780.031 155.377 781.669C155.885 783.159 156.562 784.5 157.239 785.841C157.916 787.181 158.762 788.373 159.439 789.564C160.285 790.756 160.962 791.948 161.978 793.289C163.84 795.672 166.548 798.204 169.933 799.694C172.302 800.886 175.18 801.481 178.057 801.631C178.395 806.248 178.734 811.015 179.58 815.632C180.257 819.804 181.103 824.124 182.796 828.294C184.319 832.465 186.689 836.488 189.735 840.063C192.951 843.638 196.675 846.617 201.075 849C204.799 850.936 208.861 852.277 213.261 852.873C215.123 857.193 217.154 861.364 219.524 865.534C221.893 869.706 224.94 873.876 228.832 877.451L228.663 877.154C230.356 878.941 232.217 880.58 234.248 881.771C236.279 883.112 238.48 884.155 240.68 885.049C244.404 886.538 248.127 887.581 252.02 888.326C251.851 893.838 251.681 899.349 251.512 904.861C251.512 906.499 252.866 907.84 254.728 907.989C256.59 908.138 258.282 906.797 258.282 905.158C259.129 892.05 259.806 878.941 260.313 865.833C263.698 865.833 266.914 865.534 270.299 864.79C274.869 863.896 279.27 862.556 283.332 860.768C287.563 858.981 291.625 856.448 295.01 853.469C298.395 850.341 301.272 846.617 302.965 842.446C304.657 838.275 305.334 834.253 305.842 830.38C306.011 829.784 306.011 829.188 306.181 828.593C308.55 827.996 310.92 827.102 313.12 825.911C316.505 823.974 319.382 821.442 321.752 818.612C323.952 815.782 325.814 812.654 326.999 809.376C328.183 806.099 329.03 802.971 329.537 799.843L336.138 763.347C336.138 763.198 336.138 763.049 336.138 762.901C336.477 759.772 333.769 757.091 330.214 756.793C326.66 756.495 323.614 758.879 323.275 762.007L319.552 798.651C318.875 804.609 317.69 809.972 314.474 814.59C312.951 816.824 310.92 818.91 308.55 820.399C308.042 820.698 307.535 820.995 307.027 821.293C307.196 820.548 307.196 819.804 307.365 818.91C308.381 811.313 309.058 803.567 309.566 795.97C309.566 795.82 309.566 795.82 309.566 795.672C309.566 792.544 306.688 790.011 303.134 790.011C299.58 790.011 296.703 792.544 296.703 795.672C296.703 803.12 296.533 810.717 296.026 818.165C295.856 821.889 295.518 825.613 295.179 829.337C294.841 833.061 294.502 836.636 293.487 839.616C291.456 845.723 286.04 850.936 279.27 854.214C273.346 857.044 266.914 858.981 260.313 859.428C260.483 856.895 260.483 854.214 260.652 851.681C260.821 843.786 260.99 835.743 260.99 827.848V827.699C265.222 827.102 269.114 825.315 272.161 822.783C274.023 821.293 275.715 819.357 276.9 817.271C278.085 815.335 278.931 813.249 279.608 811.164C280.793 806.993 281.47 803.269 282.316 799.396C282.993 795.523 283.67 791.65 284.178 787.777C284.178 787.33 284.347 786.734 284.347 786.287C288.578 784.5 292.471 782.266 295.856 779.435C299.749 776.307 303.134 772.285 305.334 767.816C307.535 763.496 308.719 758.729 309.227 754.112C309.735 749.493 309.396 744.876 309.058 740.407C308.719 736.832 308.212 733.257 307.704 729.831C311.597 729.831 315.32 728.788 318.705 727.15C323.275 724.915 326.829 721.191 329.199 717.318C331.568 713.445 332.923 709.424 333.938 705.401C334.954 701.379 335.8 697.357 336.138 693.335C336.985 685.291 337.154 677.396 337.323 669.501L338 645.966V645.817C337.661 644.327 335.292 642.242 332.415 642.242Z" fill="#2F265B"/>
<path d="M64.9873 519.474C77.7362 515.942 85.2142 502.75 81.6889 490.01C78.1642 477.269 64.9717 469.804 52.2229 473.336C39.474 476.868 31.9964 490.06 35.5213 502.8C39.0461 515.541 52.2385 523.006 64.9873 519.474Z" fill="#FFFEF3"/>
<path d="M82.8626 491.002C86.3793 503.684 79.0329 516.798 66.4494 520.29C53.8752 523.768 40.8315 516.313 37.3151 503.632C33.7987 490.95 41.1468 477.846 53.7302 474.355C66.3025 470.866 79.3462 478.32 82.8626 491.002Z" fill="#B37E38"/>
<path d="M81.9033 490.344C85.3433 502.774 77.9397 515.68 65.3673 519.169C52.795 522.658 39.8089 515.413 36.3688 502.983C32.9175 490.555 40.3214 477.649 52.9048 474.158C65.4771 470.669 78.4632 477.914 81.9033 490.344Z" fill="url(#paint0_linear_6_151)"/>
<path d="M76.997 491.641C79.6933 501.387 73.8929 511.496 64.0333 514.236C54.1737 516.976 43.996 511.29 41.2997 501.544C38.6052 491.809 44.4038 481.689 54.2652 478.96C64.1248 476.22 74.3025 481.906 76.997 491.641Z" fill="#BE8C40"/>
<path d="M77.4985 492.525C80.1335 502.039 74.391 511.943 64.6749 514.648C54.9569 517.341 44.9319 511.814 42.2969 502.299C39.66 492.773 45.4026 482.87 55.1205 480.176C64.8498 477.481 74.8636 483.01 77.4985 492.525Z" fill="#F9EAAA"/>
<path d="M76.7038 491.885C79.2755 501.157 73.5983 510.831 64.0238 513.49C54.4493 516.148 44.6122 510.785 42.0406 501.513C39.4688 492.241 45.146 482.567 54.7205 479.909C64.2951 477.25 74.1321 482.613 76.7038 491.885Z" fill="url(#paint1_linear_6_151)"/>
<path opacity="0.2" d="M42.2114 501.715C42.2132 501.726 42.2132 501.726 42.2151 501.737C44.7571 510.899 54.5345 516.18 64.0662 513.54C73.5979 510.901 79.2694 501.331 76.7274 492.169C76.7255 492.158 76.7255 492.158 76.7237 492.147L42.2114 501.715Z" fill="#F3931A"/>
<g filter="url(#filter0_i_6_151)">
<path d="M56.0119 483.174L52.8277 484.335L53.6704 486.577C49.927 488.659 48.7482 491.524 49.9743 494.761C50.4672 496.071 51.3069 497.048 52.482 497.692C53.5678 498.283 55.4213 498.447 58.0387 498.163L60.3158 504.205C58.4491 504.514 56.8865 503.819 55.6244 502.095L53.9479 505.698C56.186 507.697 57.6687 508.187 61.3222 507.363L62.2913 510.09L65.7996 508.875L64.7335 506.187C66.6193 505.23 67.8961 503.856 68.5804 502.442C69.3262 500.915 69.3681 499.229 68.7337 497.55C68.2965 496.369 67.4736 495.355 66.5817 494.686C65.6897 494.017 64.8366 493.653 64.0245 493.603C63.2813 493.554 61.9344 493.605 59.9951 493.754L57.9839 488.416C59.2433 488.253 60.3626 488.769 61.3419 489.964L64.141 487.797C62.3762 485.536 60.0386 484.807 56.9403 485.379L56.0119 483.174ZM53.1793 492.963C52.8686 492.129 52.9285 491.383 53.3723 490.734C53.7152 490.24 54.1868 489.828 54.7792 489.523L56.6434 494.46C54.8176 494.739 53.6666 494.24 53.1793 492.963ZM65.3239 499.083C65.6532 499.96 65.5951 500.786 65.1513 501.573C64.7765 502.222 64.2286 502.727 63.5075 503.088L61.3736 497.425C63.5012 497.165 64.8104 497.718 65.3239 499.083Z" fill="url(#paint2_linear_6_151)"/>
</g>
<path style="mix-blend-mode:screen" d="M83.5604 483.349C81.1398 487.821 72.0923 487.632 63.3406 482.908C54.589 478.183 49.4378 470.693 51.8619 466.254C54.286 461.814 63.3302 461.97 72.0819 466.695C80.8335 471.419 85.9672 478.87 83.5604 483.349Z" fill="url(#paint3_radial_6_151)"/>
<path style="mix-blend-mode:color-dodge" d="M77.7268 480.198C76.1947 483.028 70.4814 482.902 64.9315 479.924C59.3816 476.947 56.1551 472.237 57.6518 469.354C59.1485 466.471 64.8971 466.651 70.447 469.628C75.9969 472.606 79.2493 477.373 77.7268 480.198Z" fill="url(#paint4_radial_6_151)"/>
<path style="mix-blend-mode:screen" opacity="0.1" d="M89.372 533.703C109.482 517.071 112.301 487.276 95.6674 467.154C79.0347 447.033 49.2484 444.204 29.1382 460.837C9.02797 477.469 6.20913 507.264 22.8422 527.386C39.4753 547.507 69.2617 550.336 89.372 533.703Z" fill="url(#paint5_radial_6_151)"/>
<path style="mix-blend-mode:screen" d="M72.3831 540.069C60.6904 543.569 48.0896 542.332 37.2973 536.625C26.5049 530.919 18.3855 521.198 14.6892 509.56C14.7967 509.8 14.8135 510.07 14.8965 510.332C18.4389 522.162 26.5335 532.101 37.3999 537.962C48.2661 543.824 61.0139 545.128 72.8388 541.588C84.6633 538.048 94.5974 529.955 100.454 519.086C106.31 508.218 107.61 495.467 104.068 483.637C103.961 483.397 103.853 483.157 103.823 482.883C107.126 494.637 105.682 507.218 99.802 517.915C93.9215 528.612 84.0744 536.567 72.3831 540.069Z" fill="url(#paint6_linear_6_151)"/>
<path style="mix-blend-mode:screen" d="M46.4759 454.592C58.3402 451.041 71.1255 452.295 82.0779 458.082C93.0306 463.869 101.273 473.728 105.032 485.533C104.92 485.284 104.899 485.005 104.816 484.743C101.085 472.896 92.8426 462.992 81.8718 457.173C70.9009 451.354 58.0826 450.088 46.1885 453.648C34.2945 457.208 24.2803 465.308 18.3112 476.197C12.3421 487.085 10.898 499.888 14.2907 511.836C14.4025 512.086 14.5143 512.335 14.5492 512.619C11.2031 500.689 12.6741 487.923 18.6455 477.07C24.6168 466.217 34.611 458.145 46.4759 454.592Z" fill="url(#paint7_linear_6_151)"/>
<path style="mix-blend-mode:screen" d="M22.1698 481.81C23.8299 464.32 42.5432 451.801 63.984 453.862C85.4244 455.923 101.434 471.735 99.7841 489.221C98.1333 506.707 79.4358 519.184 57.9653 517.159C36.4946 515.135 20.5053 499.291 22.1698 481.81Z" fill="url(#paint8_linear_6_151)"/>
<path style="mix-blend-mode:color-dodge" d="M133.936 13.0373C133.21 13.9874 131.128 13.6045 129.273 12.1833C127.418 10.7622 126.514 8.84114 127.23 7.86934C127.946 6.89767 130.038 7.30219 131.893 8.72329C133.747 10.1445 134.658 12.0882 133.936 13.0373Z" fill="url(#paint9_radial_6_151)"/>
<path style="mix-blend-mode:screen" opacity="0.1" d="M133.379 32.765C141.706 27.8351 144.481 17.0489 139.577 8.67347C134.674 0.298048 123.948 -2.49503 115.621 2.43496C107.294 7.36492 104.519 18.1512 109.423 26.5266C114.327 34.9019 125.052 37.695 133.379 32.765Z" fill="url(#paint10_radial_6_151)"/>
<path style="mix-blend-mode:screen" d="M126.795 34.1055C122.314 34.7037 117.779 33.5073 114.167 30.7742C110.555 28.0411 108.156 23.9901 107.486 19.4947C107.511 19.5893 107.501 19.6892 107.516 19.7905C108.119 24.3475 110.497 28.4774 114.127 31.2717C117.757 34.0659 122.341 35.2958 126.872 34.6906C131.403 34.0854 135.509 31.6949 138.287 28.0447C141.064 24.3945 142.286 19.7839 141.684 15.227C141.658 15.1325 141.633 15.0379 141.638 14.9352C142.158 19.4503 140.893 23.9899 138.117 27.5756C135.341 31.1614 131.274 33.5064 126.795 34.1055Z" fill="url(#paint11_linear_6_151)"/>
<path style="mix-blend-mode:screen" d="M122.327 1.16073C126.873 0.553971 131.475 1.76725 135.141 4.53929C138.806 7.31123 141.243 11.4202 141.926 15.981C141.9 15.8827 141.909 15.7791 141.894 15.6776C141.223 11.1032 138.789 6.9777 135.118 4.19302C131.448 1.40837 126.835 0.188341 122.278 0.796749C117.72 1.40516 113.585 3.79307 110.764 7.44431C107.944 11.0954 106.667 15.7165 107.208 20.3082C107.234 20.4065 107.26 20.5049 107.256 20.6112C106.731 16.029 108.017 11.4229 110.835 7.78502C113.654 4.14701 117.781 1.76821 122.327 1.16073Z" fill="url(#paint12_linear_6_151)"/>
<path style="mix-blend-mode:screen" d="M111.845 9.73483C113.476 3.40344 121.051 -0.0967708 128.77 1.92294C136.489 3.94262 141.417 10.6972 139.79 17.0275C138.163 23.358 130.596 26.8437 122.864 24.8357C115.132 22.8275 110.213 16.0624 111.845 9.73483Z" fill="url(#paint13_linear_6_151)"/>
<path style="mix-blend-mode:color-dodge" d="M62.0974 70.2292C60.9089 71.7763 57.5011 71.1529 54.4643 68.8386C51.4276 66.5244 49.9476 63.3961 51.1198 61.8138C52.2921 60.2314 55.716 60.8901 58.7529 63.2043C61.7896 65.5185 63.2795 68.6838 62.0974 70.2292Z" fill="url(#paint14_radial_6_151)"/>
<path style="mix-blend-mode:screen" opacity="0.1" d="M61.1859 102.355C74.8182 94.3268 79.3613 76.7626 71.3334 63.124C63.3053 49.4854 45.7463 44.9371 32.114 52.9651C18.4818 60.9931 13.9387 78.5574 21.9667 92.196C29.9946 105.835 47.5537 110.383 61.1859 102.355Z" fill="url(#paint15_radial_6_151)"/>
<path style="mix-blend-mode:screen" d="M50.406 104.537C43.0712 105.511 35.6469 103.563 29.7335 99.1122C23.8202 94.6616 19.8915 88.0651 18.7944 80.7448C18.8357 80.8988 18.82 81.0614 18.8445 81.2265C19.8312 88.647 23.724 95.3721 29.6668 99.9224C35.6096 104.473 43.1154 106.475 50.5332 105.49C57.9508 104.504 64.6728 100.612 69.2202 94.6675C73.7677 88.7237 75.7682 81.2156 74.7815 73.7951C74.7402 73.6411 74.6989 73.4872 74.7068 73.32C75.558 80.6725 73.4879 88.0646 68.9425 93.9037C64.397 99.7428 57.7401 103.561 50.406 104.537Z" fill="url(#paint16_linear_6_151)"/>
<path style="mix-blend-mode:screen" d="M43.0917 50.8893C50.5341 49.9012 58.0672 51.8769 64.0687 56.3908C70.0701 60.9048 74.0595 67.5959 75.1777 75.0227C75.1347 74.8627 75.1487 74.6938 75.1243 74.5287C74.0264 67.0797 70.042 60.3616 64.0324 55.8271C58.0229 51.2925 50.4713 49.3058 43.0102 50.2965C35.5491 51.2873 28.7783 55.1758 24.1616 61.1214C19.5447 67.067 17.4531 74.5918 18.3387 82.0691C18.3817 82.2292 18.4247 82.3893 18.4185 82.5626C17.5589 75.1007 19.6631 67.6003 24.2778 61.6762C28.8927 55.7522 35.6489 51.8785 43.0917 50.8893Z" fill="url(#paint17_linear_6_151)"/>
<path style="mix-blend-mode:screen" d="M25.9322 64.8519C28.6023 54.5418 41.0041 48.8421 53.6411 52.1309C66.2781 55.4199 74.3459 66.419 71.6818 76.7274C69.0178 87.0359 56.6296 92.7123 43.9713 89.4422C31.3129 86.1723 23.2603 75.1558 25.9322 64.8519Z" fill="url(#paint18_linear_6_151)"/>
<path d="M379.592 571.396C402.599 579.145 427.534 566.792 435.285 543.804C443.036 520.816 430.667 495.899 407.66 488.15C384.652 480.401 359.717 492.754 351.966 515.742C344.216 538.73 356.584 563.647 379.592 571.396Z" fill="#FFFEF3"/>
<path d="M436.047 546.519C428.344 569.408 403.688 581.78 380.974 574.139C358.287 566.487 346.134 541.739 353.837 518.85C361.54 495.961 386.187 483.608 408.901 491.249C431.597 498.882 443.75 523.629 436.047 546.519Z" fill="#B37E38"/>
<path d="M435.266 544.533C427.706 566.961 403.178 578.956 380.482 571.323C357.787 563.69 345.506 539.32 353.066 516.892C360.607 494.455 385.135 482.46 407.849 490.102C430.545 497.734 442.825 522.105 435.266 544.533Z" fill="url(#paint19_linear_6_151)"/>
<path d="M426.473 541.455C420.544 559.04 401.33 568.433 383.528 562.453C365.726 556.473 356.109 537.361 362.038 519.777C367.958 502.211 387.181 492.799 404.974 498.797C422.777 504.778 432.393 523.89 426.473 541.455Z" fill="#BE8C40"/>
<path d="M426.328 543.314C420.544 560.484 401.629 569.625 384.081 563.739C366.542 557.834 356.993 539.12 362.777 521.95C368.57 504.762 387.485 495.621 405.024 501.526C422.583 507.439 432.112 526.144 426.328 543.314Z" fill="#F9EAAA"/>
<path d="M425.778 541.526C420.147 558.262 401.567 567.122 384.283 561.311C366.997 555.5 357.566 537.229 363.197 520.493C368.827 503.757 387.407 494.897 404.692 500.708C421.977 506.519 431.408 524.79 425.778 541.526Z" fill="url(#paint20_linear_6_151)"/>
<path opacity="0.2" d="M363.25 520.975C363.241 520.994 363.241 520.994 363.232 521.013C357.67 537.55 367.095 555.635 384.296 561.43C401.496 567.225 419.96 558.518 425.523 541.981C425.531 541.962 425.531 541.962 425.54 541.943L363.25 520.975Z" fill="#F3931A"/>
<g filter="url(#filter1_i_6_151)">
<path d="M403.295 506.999L397.261 505.487L396.236 509.761C388.405 509.073 383.667 512.214 382.2 518.394C381.601 520.892 381.873 523.24 382.995 525.429C384.037 527.444 386.685 529.6 390.955 531.861L388.2 543.385C385.045 541.935 383.386 539.27 383.241 535.353L376.986 539.103C378.331 544.443 380.08 546.714 386.48 549.219L385.148 554.36L391.729 556.124L392.874 550.943C396.724 551.428 400.078 550.654 402.572 549.21C405.277 547.657 407.076 545.136 407.838 541.934C408.389 539.689 408.182 537.301 407.514 535.367C406.847 533.433 405.926 532.001 404.743 531.09C403.664 530.251 401.564 528.942 398.464 527.174L400.9 516.992C402.981 518.041 404.151 519.977 404.41 522.8L410.893 522.387C410.537 517.135 407.734 513.623 402.438 511.304L403.295 506.999ZM388.92 518.96C389.306 517.372 390.165 516.3 391.507 515.771C392.536 515.373 393.676 515.232 394.891 515.377L392.645 524.798C389.582 523.344 388.347 521.401 388.92 518.96ZM401.08 540.754C400.678 542.426 399.739 543.622 398.255 544.361C397.018 544.962 395.666 545.165 394.199 544.972L396.782 534.171C400.283 535.964 401.704 538.152 401.08 540.754Z" fill="url(#paint21_linear_6_151)"/>
</g>
<path style="mix-blend-mode:screen" d="M436.973 506.909C432.154 514.902 415.584 513.784 399.943 504.377C384.303 494.97 375.498 480.801 380.32 472.869C385.142 464.937 401.709 465.995 417.35 475.401C432.99 484.809 441.767 498.905 436.973 506.909Z" fill="url(#paint22_radial_6_151)"/>
<path style="mix-blend-mode:color-dodge" d="M426.548 500.638C423.498 505.695 413.035 504.976 403.115 499.045C393.195 493.113 387.682 484.205 390.671 479.047C393.661 473.889 404.184 474.709 414.104 480.641C424.024 486.572 429.58 495.588 426.548 500.638Z" fill="url(#paint23_radial_6_151)"/>
<path style="mix-blend-mode:screen" opacity="0.1" d="M402.006 618.106C449.678 613.521 484.613 571.144 480.037 523.454C475.461 475.764 433.106 440.82 385.434 445.404C337.762 449.989 302.827 492.366 307.403 540.056C311.979 587.746 354.334 622.69 402.006 618.106Z" fill="url(#paint24_radial_6_151)"/>
<path style="mix-blend-mode:screen" d="M369.641 610.302C348.271 603.59 330.394 588.747 319.865 568.97C309.335 549.194 306.996 526.069 313.352 504.581C313.268 505.057 313.017 505.483 312.873 505.967C306.086 527.588 308.163 551.02 318.645 571.108C329.128 591.195 347.158 606.293 368.77 613.079C390.382 619.866 413.804 617.785 433.885 607.296C453.966 596.806 469.06 578.766 475.847 557.145C475.93 556.67 476.014 556.194 476.25 555.746C469.178 577.007 454.041 594.64 434.1 604.844C414.159 615.049 391.01 617.009 369.641 610.302Z" fill="url(#paint25_linear_6_151)"/>
<path style="mix-blend-mode:screen" d="M418.208 453.755C439.891 460.566 458.031 475.625 468.721 495.688C479.411 515.75 481.795 539.212 475.361 561.019C475.448 560.525 475.703 560.08 475.847 559.596C482.365 537.754 480.029 514.224 469.343 494.094C458.657 473.965 440.48 458.852 418.743 452.024C397.005 445.197 373.454 447.203 353.181 457.608C332.908 468.014 317.542 485.983 310.406 507.631C310.319 508.125 310.232 508.62 309.993 509.087C317.182 487.515 332.551 469.629 352.791 459.28C373.031 448.93 396.523 446.947 418.208 453.755Z" fill="url(#paint26_linear_6_151)"/>
<path style="mix-blend-mode:screen" d="M353.269 470.108C373.785 445.238 415.102 445.467 445.565 470.658C476.027 495.849 484.089 536.349 463.592 561.223C443.095 586.097 401.845 585.821 371.3 560.654C340.754 535.487 332.756 494.96 353.269 470.108Z" fill="url(#paint27_linear_6_151)"/>
<path d="M403.283 310.732C386.756 315.201 369.622 317.016 352.525 316.11L350.879 300.394C363.171 289.056 376.808 279.267 391.486 271.247C413.156 260.101 447.125 247.757 450.053 249.429C452.982 251.101 428.16 303.403 403.283 310.732Z" fill="url(#paint28_linear_6_151)"/>
<path style="mix-blend-mode:multiply" d="M403.283 310.732C386.756 315.201 369.622 317.016 352.524 316.109L351.827 309.338L361.198 297.44C361.198 297.44 434.128 261.216 450.137 249.429C453.121 251.101 428.16 303.403 403.283 310.732Z" fill="url(#paint29_linear_6_151)"/>
<path d="M236.116 412.968C236.116 412.968 232.072 471.985 177.549 486.419C177.549 486.419 196.569 462.483 199.86 445.569L207 435.037L197.406 441C197.406 441 180.477 413.414 139.619 412.968C139.619 412.968 186.473 395.831 218.88 408.732L236.116 412.968Z" fill="url(#paint30_linear_6_151)"/>
<path d="M207.559 400.01C207.559 400.01 223.734 419.516 226.189 419.516C228.643 419.516 255.64 397.948 255.64 397.948C255.64 397.948 226.635 404.274 207.559 400.01Z" fill="url(#paint31_radial_6_151)"/>
<path d="M226.188 419.544C226.188 419.544 227.973 468.809 177.577 486.42C177.577 486.42 228.894 479.342 236.145 412.968L226.188 419.544Z" fill="url(#paint32_linear_6_151)"/>
<path style="mix-blend-mode:multiply" d="M209.594 402.49C209.594 402.49 229.284 412.215 239.408 410.627L255.584 398.004C239.801 401.35 223.571 402.047 207.559 400.066L209.594 402.49Z" fill="url(#paint33_linear_6_151)"/>
<path d="M107.491 304.462C90.9243 307.248 64.5133 300.923 59.2143 272.055C53.9153 243.187 72.2665 227.472 72.2665 227.472C75.3008 224.382 79.1823 222.259 83.4222 221.369C88.5225 219.972 93.8466 219.584 99.0958 220.227C104.306 220.722 109.316 222.481 113.69 225.351C118.065 228.221 121.671 232.115 124.196 236.695C125.033 238.182 125.76 239.728 126.372 241.321C127.714 244.632 128.651 248.094 129.161 251.631C132.396 274.647 120.933 302.177 107.491 304.462Z" fill="url(#paint34_radial_6_151)"/>
<path d="M128.937 251.52C124.48 254.543 119.282 256.294 113.902 256.583C108.523 256.871 103.167 255.687 98.4112 253.158C93.6558 250.629 89.6816 246.851 86.9172 242.231C84.1528 237.612 82.7032 232.325 82.7246 226.943C82.7265 225.016 82.9133 223.094 83.2824 221.203C88.3827 219.806 93.707 219.418 98.9562 220.06C104.166 220.555 109.176 222.314 113.551 225.184C117.925 228.054 121.532 231.949 124.057 236.529C124.894 238.015 125.621 239.561 126.232 241.154C127.55 244.487 128.459 247.968 128.937 251.52Z" fill="url(#paint35_radial_6_151)"/>
<path d="M126.204 241.21C123.02 244.135 118.845 245.748 114.519 245.724C109.878 245.717 105.431 243.87 102.152 240.589C98.8734 237.308 97.032 232.861 97.032 228.225C97.0286 225.399 97.718 222.615 99.04 220.116C104.25 220.611 109.26 222.37 113.634 225.24C118.009 228.11 121.615 232.004 124.14 236.584C124.939 238.074 125.629 239.62 126.204 241.21Z" fill="url(#paint36_radial_6_151)"/>
<path d="M136.022 215.045C136.022 215.045 104.144 207.995 72.239 215.797V227.417C72.239 227.417 92.8212 212.035 112.316 236.612L136.022 215.045Z" fill="url(#paint37_linear_6_151)"/>
<path d="M317.272 215.045C317.272 215.045 349.178 207.995 381.139 215.797V227.417C381.139 227.417 360.557 212.035 341.062 236.612L317.272 215.045Z" fill="url(#paint38_linear_6_151)"/>
<path d="M394.081 272.056C393.53 275.421 392.594 278.712 391.292 281.864C389.263 286.697 386.209 291.032 382.34 294.57C377.389 298.77 371.577 301.832 365.312 303.541C359.047 305.25 352.483 305.565 346.084 304.462C329.518 301.676 315.964 260.575 329.518 236.584C343.072 212.592 374.587 218.973 381.308 227.361C384.045 229.945 386.393 232.91 388.28 236.166C390.758 240.232 392.637 244.633 393.858 249.235C395.592 256.735 395.668 264.523 394.081 272.056Z" fill="url(#paint39_radial_6_151)"/>
<path d="M366.413 290.725C365.743 330.962 305.81 400.178 226.214 401.599C146.591 400.178 86.768 330.962 85.9871 290.725C85.9871 283.48 103.613 234.048 136.021 215.044C168.428 196.041 226.214 196.041 226.214 196.041C226.214 196.041 283.973 196.041 316.38 215.044C348.787 234.048 366.524 283.48 366.413 290.725Z" fill="url(#paint40_radial_6_151)"/>
<path d="M366.413 290.725C366.413 290.725 350.014 246.141 317.273 243.355C284.531 240.568 266.347 265.953 226.214 269.603C185.691 271.721 165.778 266.817 133.009 269.603C100.238 272.39 85.9871 290.725 85.9871 290.725C85.9871 283.48 103.613 234.048 136.021 215.044C168.428 196.041 226.214 196.041 226.214 196.041C226.214 196.041 283.973 196.041 316.38 215.044C348.787 234.048 366.524 283.48 366.413 290.725Z" fill="url(#paint41_linear_6_151)"/>
<path d="M101.578 332.215C101.578 332.215 84.1472 374.625 66.9674 388.558C53.3297 399.704 23.0698 402.49 10.6312 402.295C7.36821 402.295 5.36018 401.905 5.0534 401.487C3.99361 399.369 18.8028 366.628 41.0026 348.544C63.2025 330.46 93.8806 318.896 93.8806 318.896L96.4743 323.382L101.578 332.215Z" fill="url(#paint42_linear_6_151)"/>
<path d="M394.081 272.056C393.529 275.421 392.594 278.712 391.292 281.864C389.263 286.697 386.208 291.032 382.339 294.57C381.654 294.653 380.961 294.653 380.275 294.57C371.602 293.038 366.944 278.743 369.817 262.665C372.411 248.148 380.303 237.141 388.168 236.277C390.646 240.343 392.524 244.745 393.746 249.346C395.5 256.802 395.615 264.551 394.081 272.056Z" fill="url(#paint43_radial_6_151)"/>
<path d="M394.079 272.056C393.528 275.421 392.592 278.712 391.29 281.864C390.603 282.426 389.808 282.842 388.956 283.086C388.102 283.33 387.208 283.398 386.327 283.285C381.223 282.366 378.462 273.923 380.163 264.393C381.865 254.863 387.387 247.953 392.518 248.872C392.906 248.938 393.282 249.06 393.634 249.234C395.442 256.719 395.593 264.507 394.079 272.056Z" fill="url(#paint44_radial_6_151)"/>
<path d="M181.453 322.045C184.409 328.816 226.076 373.79 272.344 352.306C312.504 333.637 306.759 269.074 304.277 266.956C301.317 265.282 298.058 264.203 294.683 263.78C294.683 263.78 280.097 285.793 238.096 302.317C197.322 318.423 180.337 319.342 181.453 322.045Z" fill="url(#paint45_radial_6_151)"/>
<path d="M183.739 322.129C181.536 323.996 220.637 367.381 263.196 351.248C314.261 331.742 303.356 268.712 302.631 268.183C301.906 267.653 296.886 264.56 295.408 265.006C293.93 265.452 289.244 281.725 261.941 296.41C229.868 313.491 187.448 318.897 183.739 322.129Z" fill="url(#paint46_linear_6_151)"/>
<path style="mix-blend-mode:multiply" opacity="0.5" d="M203.626 355.121C189.04 365.403 167.37 359.607 155.015 342.192C142.66 324.776 144.612 302.373 159.198 292.035C173.784 281.697 195.454 287.577 207.809 304.992C220.164 322.408 218.212 344.727 203.626 355.121Z" fill="url(#paint47_radial_6_151)"/>
<path style="mix-blend-mode:multiply" opacity="0.5" d="M335.374 291.283C322.656 308.392 295.743 309.952 275.3 294.766C254.857 279.58 248.582 253.387 261.355 236.25C274.129 219.113 300.986 217.581 321.457 232.767C341.928 247.953 348.119 274.313 335.374 291.283Z" fill="url(#paint48_radial_6_151)"/>
<path style="mix-blend-mode:multiply" d="M327.536 224.352C327.536 224.352 352.636 206.602 381.056 215.742V227.361C381.056 227.361 356.792 217.274 340.979 236.557L327.536 224.352Z" fill="url(#paint49_linear_6_151)"/>
<path style="mix-blend-mode:multiply" d="M72.239 215.797C72.239 215.797 99.3194 211.004 118.535 229.367L108.746 241.377C108.746 241.377 102.638 224.658 72.239 227.444V215.797Z" fill="url(#paint50_linear_6_151)"/>
<path style="mix-blend-mode:soft-light" opacity="0.5" d="M136.022 215.044C136.022 215.044 114.882 234.215 116.192 238.088C117.503 241.962 162.767 255.643 219.857 241.989C276.946 228.336 323.716 222.484 323.716 222.484C323.716 222.484 286.819 194.146 226.104 196.096C165.389 198.047 136.022 215.044 136.022 215.044Z" fill="url(#paint51_radial_6_151)"/>
<path style="mix-blend-mode:soft-light" d="M93.8809 318.896C93.8809 318.896 144.946 394.437 231.542 391.623C318.138 388.809 354.255 326.587 354.255 326.587C354.255 326.587 312.867 401.236 224.068 401.348C135.269 401.459 93.8809 318.896 93.8809 318.896Z" fill="url(#paint52_radial_6_151)"/>
<path style="mix-blend-mode:multiply" d="M252.347 357.907C252.347 357.907 285.284 366.573 296.216 382.149C309.034 375.497 320.693 366.822 330.743 356.458L261.745 354.953L252.347 357.907Z" fill="url(#paint53_linear_6_151)"/>
<path d="M349.568 350.384C349.547 350.899 349.414 351.403 349.178 351.861C347.672 354.257 295.743 363.397 272.009 360.722C248.275 358.047 236.116 346.957 223.37 346.344C230.666 340.832 239.361 337.472 248.47 336.647C272.427 333.86 271.563 324.86 278.507 319.593C281.202 317.64 284.369 316.438 287.683 316.11C302.814 315.151 317.964 317.667 331.971 323.467C337.243 325.707 341.73 329.462 344.863 334.254C347.995 339.046 349.633 344.66 349.568 350.384Z" fill="url(#paint54_linear_6_151)"/>
<path style="mix-blend-mode:multiply" d="M349.568 350.383C349.547 350.898 349.414 351.402 349.178 351.86C347.672 354.257 295.743 363.396 272.009 360.721C248.275 358.046 236.116 346.956 223.37 346.343C230.666 340.831 239.361 337.472 248.47 336.646C272.427 333.86 271.563 324.859 278.507 319.593C279.651 320.039 306.396 330.07 310.078 335.086C313.759 340.101 258.65 337.37 245.933 340.659C233.215 343.947 254.299 355.622 276.22 358.018C298.141 360.415 347.895 350.718 349.568 350.383Z" fill="url(#paint55_linear_6_151)"/>
<path style="mix-blend-mode:soft-light" d="M251.121 349.213C249.81 350.802 259.488 356.375 282.747 358.074C306.007 359.774 345.442 349.297 345.972 349.213C346.502 349.13 328.151 338.402 301.628 338.402C275.106 338.402 253.491 346.315 251.121 349.213Z" fill="url(#paint56_radial_6_151)"/>
<path style="mix-blend-mode:multiply" d="M287.18 263.78C287.18 263.78 304.081 261.161 312.141 275.929C312.141 275.929 311.611 249.904 287.18 263.78Z" fill="url(#paint57_linear_6_151)"/>
<path style="mix-blend-mode:multiply" d="M101.578 332.215C101.578 332.215 84.1471 374.626 66.9674 388.558C53.3295 399.704 23.0697 402.49 10.6311 402.295C30.3488 359.829 96.2789 323.382 96.2789 323.382H96.502L101.578 332.215Z" fill="url(#paint58_linear_6_151)"/>
<path style="mix-blend-mode:soft-light" d="M335.067 220.116C335.067 220.116 334.119 208.97 366.303 213.122C355.5 213.099 344.828 215.488 335.067 220.116Z" fill="url(#paint59_radial_6_151)"/>
<path style="mix-blend-mode:soft-light" d="M72.239 215.798C72.239 215.798 101.941 212.593 113.822 217.553C125.703 222.513 118.535 229.368 118.535 229.368C118.535 229.368 111.703 215.575 72.239 215.798Z" fill="url(#paint60_radial_6_151)"/>
<path style="mix-blend-mode:soft-light" d="M28.1726 361.612L41.7268 362.95C51.4751 354.119 61.7779 345.92 72.5723 338.401L62.1417 334.417C62.1417 334.417 48.225 340.296 28.1726 361.612Z" fill="url(#paint61_radial_6_151)"/>
<path style="mix-blend-mode:soft-light" d="M410.367 262.414C410.367 262.414 423.587 265.201 430.81 261.133C435.763 258.103 440.276 254.409 444.225 250.154C444.225 250.154 417.061 259.489 410.367 262.414Z" fill="url(#paint62_radial_6_151)"/>
<path style="mix-blend-mode:soft-light" d="M136.021 215.044C136.021 215.044 164.272 201.112 226.187 201.112C288.101 201.112 317.273 215.044 317.273 215.044C317.273 215.044 287.933 196.737 226.661 196.737C165.388 196.737 136.021 215.044 136.021 215.044Z" fill="url(#paint63_radial_6_151)"/>
<path style="mix-blend-mode:soft-light" d="M190.655 332.828C190.655 332.828 219.911 369.359 267.49 362.894L252.346 357.906C252.346 357.906 221.584 361.278 190.655 332.828Z" fill="url(#paint64_radial_6_151)"/>
<path style="mix-blend-mode:multiply" opacity="0.5" d="M218.071 354.257C218.071 354.257 251.538 370.195 275.551 361H286.456C286.456 361 258.901 381.843 218.071 354.257Z" fill="url(#paint65_radial_6_151)"/>
<path style="mix-blend-mode:soft-light" d="M340.979 236.555C340.979 236.555 372.411 245.277 381.921 266.956C380.661 258.626 377.517 250.693 372.727 243.759C367.938 236.826 361.63 231.074 354.283 226.942C349.135 229.023 344.57 232.322 340.979 236.555Z" fill="url(#paint66_radial_6_151)"/>
<path style="mix-blend-mode:soft-light" d="M98.6222 231.234C89.1133 241.16 80.2982 251.727 72.239 262.86L107.157 241.321C107.157 241.321 105.037 232.906 98.6222 231.234Z" fill="url(#paint67_radial_6_151)"/>
<path d="M185.721 325.779C194.9 327.682 204.348 327.918 213.61 326.476C228.063 324.784 242.23 321.205 255.751 315.831C269.533 310.393 281.292 300.824 289.413 288.44C293.61 281.43 296.59 273.761 298.226 265.758C298.226 265.758 295.744 264.477 295.438 265.006C290.344 273.301 283.929 280.708 276.445 286.936C265.54 295.295 250.201 302.54 230.121 309.227C201.869 318.896 183.406 319.175 183.741 322.129C184.076 325.082 185.721 325.779 185.721 325.779Z" fill="url(#paint68_radial_6_151)"/>
<path style="mix-blend-mode:color-dodge" d="M334.671 448.025C332.766 450.505 327.305 449.506 322.438 445.797C317.571 442.087 315.199 437.074 317.078 434.537C318.957 432.001 324.444 433.057 329.311 436.766C334.178 440.475 336.565 445.548 334.671 448.025Z" fill="url(#paint69_radial_6_151)"/>
<path style="mix-blend-mode:screen" opacity="0.1" d="M333.211 499.515C355.058 486.648 362.339 458.497 349.473 436.637C336.607 414.778 308.467 407.488 286.619 420.355C264.772 433.222 257.491 461.373 270.357 483.233C283.223 505.092 311.363 512.382 333.211 499.515Z" fill="url(#paint70_radial_6_151)"/>
<path style="mix-blend-mode:screen" d="M315.934 503.012C304.179 504.574 292.28 501.451 282.804 494.318C273.327 487.185 267.031 476.612 265.272 464.879C265.339 465.126 265.314 465.387 265.353 465.651C266.934 477.545 273.173 488.323 282.697 495.616C292.221 502.909 304.25 506.119 316.137 504.54C328.025 502.96 338.798 496.721 346.086 487.194C353.374 477.668 356.58 465.634 354.998 453.741C354.932 453.494 354.866 453.247 354.879 452.979C356.243 464.764 352.925 476.611 345.641 485.97C338.356 495.329 327.687 501.449 315.934 503.012Z" fill="url(#paint71_linear_6_151)"/>
<path style="mix-blend-mode:screen" d="M304.212 417.028C316.139 415.445 328.212 418.611 337.83 425.846C347.448 433.081 353.841 443.805 355.633 455.708C355.564 455.452 355.587 455.181 355.548 454.916C353.788 442.978 347.403 432.21 337.772 424.942C328.141 417.674 316.038 414.49 304.081 416.078C292.124 417.666 281.273 423.898 273.874 433.428C266.475 442.957 263.123 455.018 264.542 467.002C264.611 467.258 264.68 467.515 264.67 467.793C263.293 455.833 266.665 443.812 274.06 434.317C281.456 424.822 292.284 418.614 304.212 417.028Z" fill="url(#paint72_linear_6_151)"/>
<path style="mix-blend-mode:screen" d="M276.712 439.407C280.991 422.883 300.867 413.747 321.119 419.018C341.371 424.29 354.301 441.919 350.031 458.441C345.762 474.963 325.908 484.06 305.622 478.819C285.335 473.578 272.43 455.922 276.712 439.407Z" fill="url(#paint73_linear_6_151)"/>
<path d="M322.078 115.63C333.544 119.748 346.102 113.586 350.129 101.867C354.155 90.147 348.125 77.3073 336.66 73.1886C325.194 69.0699 312.636 75.2317 308.609 86.9515C304.583 98.6711 310.613 111.511 322.078 115.63Z" fill="#FFFEF3"/>
<path d="M350.493 103.262C346.491 114.932 334.072 121.105 322.753 117.043C311.447 112.977 305.523 100.225 309.525 88.5554C313.527 76.8856 325.942 70.7222 337.261 74.7837C348.571 78.8406 354.495 91.5921 350.493 103.262Z" fill="#B37E38"/>
<path d="M350.115 102.24C346.187 113.674 333.834 119.655 322.525 115.598C311.215 111.541 305.225 98.9823 309.152 87.5475C313.07 76.1085 325.422 70.1275 336.741 74.1891C348.051 78.2461 354.042 90.8054 350.115 102.24Z" fill="url(#paint74_linear_6_151)"/>
<path d="M345.734 100.607C342.654 109.571 332.978 114.256 324.106 111.076C315.235 107.898 310.544 98.0486 313.624 89.0836C316.699 80.1282 326.38 75.4346 335.247 78.623C344.119 81.8017 348.81 91.651 345.734 100.607Z" fill="#BE8C40"/>
<path d="M345.65 101.557C342.645 110.311 333.119 114.867 324.375 111.739C315.635 108.6 310.976 98.9552 313.981 90.2016C316.99 81.4383 326.515 76.8816 335.256 80.0202C344.006 83.1633 348.655 92.8036 345.65 101.557Z" fill="#F9EAAA"/>
<path d="M345.386 100.637C342.46 109.17 333.105 113.585 324.491 110.496C315.877 107.407 311.274 97.99 314.199 89.4577C317.125 80.9252 326.48 76.5104 335.094 79.5992C343.707 82.688 348.311 92.1051 345.386 100.637Z" fill="url(#paint75_linear_6_151)"/>
<path opacity="0.2" d="M314.222 89.7047C314.218 89.7143 314.218 89.7143 314.213 89.7239C311.323 98.1557 315.925 107.477 324.496 110.557C333.068 113.638 342.365 109.3 345.255 100.869C345.259 100.859 345.259 100.859 345.263 100.85L314.222 89.7047Z" fill="#F3931A"/>
<g filter="url(#filter2_i_6_151)">
<path d="M334.354 82.8111L331.344 81.9975L330.803 84.1791C326.889 83.7758 324.497 85.3527 323.724 88.5074C323.408 89.7828 323.529 90.9869 324.076 92.1151C324.585 93.1536 325.896 94.2751 328.019 95.4604L326.566 101.344C324.996 100.58 324.183 99.2047 324.136 97.1981L320.981 99.0774C321.62 101.821 322.481 102.994 325.668 104.319L324.968 106.943L328.251 107.889L328.857 105.244C330.781 105.518 332.465 105.143 333.722 104.42C335.086 103.643 336.002 102.364 336.404 100.729C336.694 99.5827 336.606 98.3592 336.284 97.3644C335.963 96.3696 335.511 95.6305 334.924 95.1567C334.39 94.7195 333.348 94.0358 331.807 93.1098L333.092 87.9126C334.126 88.4629 334.7 89.4618 334.811 90.9094L338.058 90.7402C337.914 88.0486 336.533 86.2322 333.898 85.01L334.354 82.8111ZM327.083 88.8414C327.286 88.0311 327.723 87.4877 328.398 87.2253C328.916 87.0283 329.487 86.9637 330.095 87.0462L328.91 91.8551C327.387 91.0909 326.781 90.0879 327.083 88.8414ZM333.029 100.08C332.818 100.934 332.34 101.54 331.593 101.909C330.97 102.209 330.292 102.304 329.558 102.195L330.92 96.6821C332.661 97.6227 333.358 98.7523 333.029 100.08Z" fill="url(#paint76_linear_6_151)"/>
</g>
<path style="mix-blend-mode:screen" opacity="0.1" d="M332.999 139.694C356.887 137.659 374.643 116.19 372.659 91.7403C370.674 67.2909 349.7 49.1205 325.811 51.1555C301.923 53.1905 284.167 74.6602 286.151 99.1096C288.136 123.559 309.11 141.729 332.999 139.694Z" fill="url(#paint77_radial_6_151)"/>
<path style="mix-blend-mode:screen" d="M316.85 135.486C306.198 131.909 297.346 124.191 292.203 113.996C287.06 103.801 286.037 91.9448 289.356 80.9838C289.311 81.2266 289.182 81.4432 289.107 81.6902C285.572 92.7167 286.461 104.728 291.579 115.083C296.697 125.437 305.624 133.286 316.397 136.902C327.17 140.519 338.905 139.608 349.023 134.368C359.14 129.128 366.81 119.99 370.346 108.963C370.39 108.721 370.435 108.478 370.556 108.25C366.88 119.09 359.192 128.019 349.146 133.114C339.1 138.209 327.502 139.061 316.85 135.486Z" fill="url(#paint78_linear_6_151)"/>
<path style="mix-blend-mode:screen" d="M342.16 55.6455C352.968 59.2752 361.95 67.1048 367.172 77.4478C372.394 87.7909 373.437 99.8197 370.077 110.944C370.124 110.692 370.254 110.465 370.33 110.218C373.731 99.0769 372.713 87.0134 367.494 76.6361C362.274 66.2588 353.274 58.4015 342.439 54.763C331.603 51.1245 319.803 51.9972 309.59 57.1924C299.377 62.3877 291.572 71.4879 287.862 82.5256C287.815 82.7782 287.768 83.0307 287.646 83.2685C291.382 72.2698 299.188 63.212 309.384 58.0455C319.58 52.8791 331.351 52.0172 342.16 55.6455Z" fill="url(#paint79_linear_6_151)"/>
<path style="mix-blend-mode:screen" d="M309.554 63.5936C319.982 50.9933 340.658 51.3814 355.743 64.4801C370.828 77.5789 374.603 98.3687 364.185 110.971C353.768 123.573 333.124 123.162 317.998 110.075C302.872 96.9883 299.128 76.1841 309.554 63.5936Z" fill="url(#paint80_linear_6_151)"/>
</g>
<defs>
<filter id="filter0_i_6_151" x="48.5081" y="483.174" width="20.6692" height="27.9151" filterUnits="userSpaceOnUse" color-interpolation-filters="sRGB">
<feFlood flood-opacity="0" result="BackgroundImageFix"/>
<feBlend mode="normal" in="SourceGraphic" in2="BackgroundImageFix" result="shape"/>
<feColorMatrix in="SourceAlpha" type="matrix" values="0 0 0 0 0 0 0 0 0 0 0 0 0 0 0 0 0 0 127 0" result="hardAlpha"/>
<feOffset dx="-1" dy="1"/>
<feGaussianBlur stdDeviation="2"/>
<feComposite in2="hardAlpha" operator="arithmetic" k2="-1" k3="1"/>
<feColorMatrix type="matrix" values="0 0 0 0 1 0 0 0 0 1 0 0 0 0 1 0 0 0 0.35 0"/>
<feBlend mode="normal" in2="shape" result="effect1_innerShadow_6_151"/>
</filter>
<filter id="filter1_i_6_151" x="375.986" y="505.487" width="34.9066" height="51.6369" filterUnits="userSpaceOnUse" color-interpolation-filters="sRGB">
<feFlood flood-opacity="0" result="BackgroundImageFix"/>
<feBlend mode="normal" in="SourceGraphic" in2="BackgroundImageFix" result="shape"/>
<feColorMatrix in="SourceAlpha" type="matrix" values="0 0 0 0 0 0 0 0 0 0 0 0 0 0 0 0 0 0 127 0" result="hardAlpha"/>
<feOffset dx="-1" dy="1"/>
<feGaussianBlur stdDeviation="2"/>
<feComposite in2="hardAlpha" operator="arithmetic" k2="-1" k3="1"/>
<feColorMatrix type="matrix" values="0 0 0 0 1 0 0 0 0 1 0 0 0 0 1 0 0 0 0.35 0"/>
<feBlend mode="normal" in2="shape" result="effect1_innerShadow_6_151"/>
</filter>
<filter id="filter2_i_6_151" x="319.981" y="81.9975" width="18.0767" height="26.8916" filterUnits="userSpaceOnUse" color-interpolation-filters="sRGB">
<feFlood flood-opacity="0" result="BackgroundImageFix"/>
<feBlend mode="normal" in="SourceGraphic" in2="BackgroundImageFix" result="shape"/>
<feColorMatrix in="SourceAlpha" type="matrix" values="0 0 0 0 0 0 0 0 0 0 0 0 0 0 0 0 0 0 127 0" result="hardAlpha"/>
<feOffset dx="-1" dy="1"/>
<feGaussianBlur stdDeviation="2"/>
<feComposite in2="hardAlpha" operator="arithmetic" k2="-1" k3="1"/>
<feColorMatrix type="matrix" values="0 0 0 0 1 0 0 0 0 1 0 0 0 0 1 0 0 0 0.35 0"/>
<feBlend mode="normal" in2="shape" result="effect1_innerShadow_6_151"/>
</filter>
<linearGradient id="paint0_linear_6_151" x1="63.6651" y1="467.374" x2="51.0189" y2="523.387" gradientUnits="userSpaceOnUse">
<stop stop-color="#FFF0BE"/>
<stop offset="0.326042" stop-color="#E8D088"/>
<stop offset="0.497917" stop-color="#D9B55F"/>
<stop offset="1" stop-color="#C0891D"/>
</linearGradient>
<linearGradient id="paint1_linear_6_151" x1="61.6224" y1="511.544" x2="73.375" y2="462.613" gradientUnits="userSpaceOnUse">
<stop stop-color="#ECD792"/>
<stop offset="0.06" stop-color="#E8D088"/>
<stop offset="0.3" stop-color="#D9B55F"/>
<stop offset="1" stop-color="#C0891D"/>
</linearGradient>
<linearGradient id="paint2_linear_6_151" x1="54.5639" y1="510.901" x2="72.2948" y2="485.122" gradientUnits="userSpaceOnUse">
<stop stop-color="#BD9D39"/>
<stop offset="0.07" stop-color="#B9942B"/>
<stop offset="0.3" stop-color="#AD7802"/>
<stop offset="1" stop-color="#994900"/>
</linearGradient>
<radialGradient id="paint3_radial_6_151" cx="0" cy="0" r="1" gradientUnits="userSpaceOnUse" gradientTransform="translate(58.3992 473.22) rotate(28.2606) scale(17.9996 9.20737)">
<stop offset="0.05" stop-color="#D2D2D2"/>
<stop offset="0.07" stop-color="#CFCECA"/>
<stop offset="0.11" stop-color="#C8C5B5"/>
<stop offset="0.16" stop-color="#BCB592"/>
<stop offset="0.22" stop-color="#AC9F61"/>
<stop offset="0.26" stop-color="#9F8D3A"/>
<stop offset="0.31" stop-color="#9F7E3A"/>
<stop offset="0.39" stop-color="#765E2B"/>
<stop offset="0.47" stop-color="#52411E"/>
<stop offset="0.56" stop-color="#342913"/>
<stop offset="0.65" stop-color="#1D170B"/>
<stop offset="0.74" stop-color="#0D0A05"/>
<stop offset="0.85" stop-color="#030201"/>
<stop offset="0.99"/>
</radialGradient>
<radialGradient id="paint4_radial_6_151" cx="0" cy="0" r="1" gradientUnits="userSpaceOnUse" gradientTransform="translate(58.3997 473.22) rotate(28.2606) scale(11.3709 5.81656)">
<stop offset="0.05" stop-color="#D9D9D9"/>
<stop offset="0.06" stop-color="#D4D3D1"/>
<stop offset="0.09" stop-color="#C7C3BC"/>
<stop offset="0.11" stop-color="#B2AA99"/>
<stop offset="0.14" stop-color="#948668"/>
<stop offset="0.18" stop-color="#6C5627"/>
<stop offset="0.27" stop-color="#52411D"/>
<stop offset="0.39" stop-color="#342A13"/>
<stop offset="0.51" stop-color="#1D170B"/>
<stop offset="0.65" stop-color="#0D0A05"/>
<stop offset="0.8" stop-color="#030201"/>
<stop offset="1"/>
</radialGradient>
<radialGradient id="paint5_radial_6_151" cx="0" cy="0" r="1" gradientUnits="userSpaceOnUse" gradientTransform="translate(59.2723 497.262) rotate(-16.6631) scale(47.3141 47.3344)">
<stop offset="0.13"/>
<stop offset="0.38" stop-color="#000303"/>
<stop offset="0.53" stop-color="#292929"/>
<stop offset="0.65" stop-color="#8D8D8D"/>
<stop offset="0.75" stop-color="#9D9D9D"/>
<stop offset="0.85" stop-color="#ECECEC"/>
<stop offset="0.94" stop-color="#EEEEEE"/>
<stop offset="1" stop-color="white"/>
</radialGradient>
<linearGradient id="paint6_linear_6_151" x1="21.4779" y1="532.256" x2="110.66" y2="505.555" gradientUnits="userSpaceOnUse">
<stop/>
<stop offset="0.07" stop-color="#282828"/>
<stop offset="0.16" stop-color="#5A5A5A"/>
<stop offset="0.26" stop-color="#868686"/>
<stop offset="0.36" stop-color="#ACACAC"/>
<stop offset="0.47" stop-color="#CACACA"/>
<stop offset="0.58" stop-color="#E1E1E1"/>
<stop offset="0.7" stop-color="#F2F2F2"/>
<stop offset="0.83" stop-color="#FCFCFC"/>
<stop offset="1" stop-color="white"/>
</linearGradient>
<linearGradient id="paint7_linear_6_151" x1="56.1891" y1="486.972" x2="41.9134" y2="439.277" gradientUnits="userSpaceOnUse">
<stop/>
<stop offset="0.07" stop-color="#282828"/>
<stop offset="0.16" stop-color="#5A5A5A"/>
<stop offset="0.26" stop-color="#868686"/>
<stop offset="0.36" stop-color="#ACACAC"/>
<stop offset="0.47" stop-color="#CACACA"/>
<stop offset="0.58" stop-color="#E1E1E1"/>
<stop offset="0.7" stop-color="#F2F2F2"/>
<stop offset="0.83" stop-color="#FCFCFC"/>
<stop offset="1" stop-color="white"/>
</linearGradient>
<linearGradient id="paint8_linear_6_151" x1="53.1729" y1="530.293" x2="77.8347" y2="427.768" gradientUnits="userSpaceOnUse">
<stop/>
<stop offset="0.37" stop-color="#020202"/>
<stop offset="0.51" stop-color="#090909"/>
<stop offset="0.6" stop-color="#141414"/>
<stop offset="0.68" stop-color="#252525"/>
<stop offset="0.75" stop-color="#3B3B3B"/>
<stop offset="0.8" stop-color="#575757"/>
<stop offset="0.86" stop-color="#777777"/>
<stop offset="0.91" stop-color="#9D9D9D"/>
<stop offset="0.95" stop-color="#C8C8C8"/>
<stop offset="0.99" stop-color="#F6F6F6"/>
<stop offset="1" stop-color="white"/>
</linearGradient>
<radialGradient id="paint9_radial_6_151" cx="0" cy="0" r="1" gradientUnits="userSpaceOnUse" gradientTransform="translate(127.277 9.33446) rotate(37.5049) scale(4.21889 2.16105)">
<stop offset="0.05" stop-color="#D9D9D9"/>
<stop offset="0.06" stop-color="#D4D3D1"/>
<stop offset="0.09" stop-color="#C7C3BC"/>
<stop offset="0.11" stop-color="#B2AA99"/>
<stop offset="0.14" stop-color="#948668"/>
<stop offset="0.18" stop-color="#6C5627"/>
<stop offset="0.27" stop-color="#52411D"/>
<stop offset="0.39" stop-color="#342A13"/>
<stop offset="0.51" stop-color="#1D170B"/>
<stop offset="0.65" stop-color="#0D0A05"/>
<stop offset="0.8" stop-color="#030201"/>
<stop offset="1"/>
</radialGradient>
<radialGradient id="paint10_radial_6_151" cx="0" cy="0" r="1" gradientUnits="userSpaceOnUse" gradientTransform="translate(124.507 17.598) rotate(-7.60506) scale(17.5219 17.6194)">
<stop offset="0.13"/>
<stop offset="0.38" stop-color="#000303"/>
<stop offset="0.53" stop-color="#292929"/>
<stop offset="0.65" stop-color="#8D8D8D"/>
<stop offset="0.75" stop-color="#9D9D9D"/>
<stop offset="0.85" stop-color="#ECECEC"/>
<stop offset="0.94" stop-color="#EEEEEE"/>
<stop offset="1" stop-color="white"/>
</radialGradient>
<linearGradient id="paint11_linear_6_151" x1="108.639" y1="28.2368" x2="142.817" y2="23.7184" gradientUnits="userSpaceOnUse">
<stop/>
<stop offset="0.07" stop-color="#282828"/>
<stop offset="0.16" stop-color="#5A5A5A"/>
<stop offset="0.26" stop-color="#868686"/>
<stop offset="0.36" stop-color="#ACACAC"/>
<stop offset="0.47" stop-color="#CACACA"/>
<stop offset="0.58" stop-color="#E1E1E1"/>
<stop offset="0.7" stop-color="#F2F2F2"/>
<stop offset="0.83" stop-color="#FCFCFC"/>
<stop offset="1" stop-color="white"/>
</linearGradient>
<linearGradient id="paint12_linear_6_151" x1="123.983" y1="13.6349" x2="121.531" y2="-4.73388" gradientUnits="userSpaceOnUse">
<stop/>
<stop offset="0.07" stop-color="#282828"/>
<stop offset="0.16" stop-color="#5A5A5A"/>
<stop offset="0.26" stop-color="#868686"/>
<stop offset="0.36" stop-color="#ACACAC"/>
<stop offset="0.47" stop-color="#CACACA"/>
<stop offset="0.58" stop-color="#E1E1E1"/>
<stop offset="0.7" stop-color="#F2F2F2"/>
<stop offset="0.83" stop-color="#FCFCFC"/>
<stop offset="1" stop-color="white"/>
</linearGradient>
<linearGradient id="paint13_linear_6_151" x1="120.343" y1="29.381" x2="135.499" y2="-6.79643" gradientUnits="userSpaceOnUse">
<stop/>
<stop offset="0.37" stop-color="#020202"/>
<stop offset="0.51" stop-color="#090909"/>
<stop offset="0.6" stop-color="#141414"/>
<stop offset="0.68" stop-color="#252525"/>
<stop offset="0.75" stop-color="#3B3B3B"/>
<stop offset="0.8" stop-color="#575757"/>
<stop offset="0.86" stop-color="#777777"/>
<stop offset="0.91" stop-color="#9D9D9D"/>
<stop offset="0.95" stop-color="#C8C8C8"/>
<stop offset="0.99" stop-color="#F6F6F6"/>
<stop offset="1" stop-color="white"/>
</linearGradient>
<radialGradient id="paint14_radial_6_151" cx="0" cy="0" r="1" gradientUnits="userSpaceOnUse" gradientTransform="translate(51.197 64.1995) rotate(37.357) scale(6.89328 3.52604)">
<stop offset="0.05" stop-color="#D9D9D9"/>
<stop offset="0.06" stop-color="#D4D3D1"/>
<stop offset="0.09" stop-color="#C7C3BC"/>
<stop offset="0.11" stop-color="#B2AA99"/>
<stop offset="0.14" stop-color="#948668"/>
<stop offset="0.18" stop-color="#6C5627"/>
<stop offset="0.27" stop-color="#52411D"/>
<stop offset="0.39" stop-color="#342A13"/>
<stop offset="0.51" stop-color="#1D170B"/>
<stop offset="0.65" stop-color="#0D0A05"/>
<stop offset="0.8" stop-color="#030201"/>
<stop offset="1"/>
</radialGradient>
<radialGradient id="paint15_radial_6_151" cx="0" cy="0" r="1" gradientUnits="userSpaceOnUse" gradientTransform="translate(46.6611 77.6566) rotate(-7.56495) scale(28.6831 28.6942)">
<stop offset="0.13"/>
<stop offset="0.38" stop-color="#000303"/>
<stop offset="0.53" stop-color="#292929"/>
<stop offset="0.65" stop-color="#8D8D8D"/>
<stop offset="0.75" stop-color="#9D9D9D"/>
<stop offset="0.85" stop-color="#ECECEC"/>
<stop offset="0.94" stop-color="#EEEEEE"/>
<stop offset="1" stop-color="white"/>
</radialGradient>
<linearGradient id="paint16_linear_6_151" x1="20.6828" y1="94.9805" x2="76.6264" y2="87.5449" gradientUnits="userSpaceOnUse">
<stop/>
<stop offset="0.07" stop-color="#282828"/>
<stop offset="0.16" stop-color="#5A5A5A"/>
<stop offset="0.26" stop-color="#868686"/>
<stop offset="0.36" stop-color="#ACACAC"/>
<stop offset="0.47" stop-color="#CACACA"/>
<stop offset="0.58" stop-color="#E1E1E1"/>
<stop offset="0.7" stop-color="#F2F2F2"/>
<stop offset="0.83" stop-color="#FCFCFC"/>
<stop offset="1" stop-color="white"/>
</linearGradient>
<linearGradient id="paint17_linear_6_151" x1="45.8025" y1="71.2021" x2="41.8293" y2="41.2848" gradientUnits="userSpaceOnUse">
<stop/>
<stop offset="0.07" stop-color="#282828"/>
<stop offset="0.16" stop-color="#5A5A5A"/>
<stop offset="0.26" stop-color="#868686"/>
<stop offset="0.36" stop-color="#ACACAC"/>
<stop offset="0.47" stop-color="#CACACA"/>
<stop offset="0.58" stop-color="#E1E1E1"/>
<stop offset="0.7" stop-color="#F2F2F2"/>
<stop offset="0.83" stop-color="#FCFCFC"/>
<stop offset="1" stop-color="white"/>
</linearGradient>
<linearGradient id="paint18_linear_6_151" x1="39.8437" y1="96.8438" x2="64.4321" y2="37.8385" gradientUnits="userSpaceOnUse">
<stop/>
<stop offset="0.37" stop-color="#020202"/>
<stop offset="0.51" stop-color="#090909"/>
<stop offset="0.6" stop-color="#141414"/>
<stop offset="0.68" stop-color="#252525"/>
<stop offset="0.75" stop-color="#3B3B3B"/>
<stop offset="0.8" stop-color="#575757"/>
<stop offset="0.86" stop-color="#777777"/>
<stop offset="0.91" stop-color="#9D9D9D"/>
<stop offset="0.95" stop-color="#C8C8C8"/>
<stop offset="0.99" stop-color="#F6F6F6"/>
<stop offset="1" stop-color="white"/>
</linearGradient>
<linearGradient id="paint19_linear_6_151" x1="431.181" y1="490.862" x2="354.338" y2="562.97" gradientUnits="userSpaceOnUse">
<stop stop-color="#FFF0BE"/>
<stop offset="0.326042" stop-color="#E8D088"/>
<stop offset="0.497917" stop-color="#D9B55F"/>
<stop offset="1" stop-color="#C0891D"/>
</linearGradient>
<linearGradient id="paint20_linear_6_151" x1="382.635" y1="555.883" x2="450.834" y2="493.618" gradientUnits="userSpaceOnUse">
<stop stop-color="#ECD792"/>
<stop offset="0.06" stop-color="#E8D088"/>
<stop offset="0.3" stop-color="#D9B55F"/>
<stop offset="1" stop-color="#C0891D"/>
</linearGradient>
<linearGradient id="paint21_linear_6_151" x1="372.57" y1="547.644" x2="426.035" y2="526.71" gradientUnits="userSpaceOnUse">
<stop stop-color="#BD9D39"/>
<stop offset="0.07" stop-color="#B9942B"/>
<stop offset="0.3" stop-color="#AD7802"/>
<stop offset="1" stop-color="#994900"/>
</linearGradient>
<radialGradient id="paint22_radial_6_151" cx="0" cy="0" r="1" gradientUnits="userSpaceOnUse" gradientTransform="translate(391.71 486.197) rotate(30.9227) scale(33.0323 16.8968)">
<stop offset="0.05" stop-color="#D2D2D2"/>
<stop offset="0.07" stop-color="#CFCECA"/>
<stop offset="0.11" stop-color="#C8C5B5"/>
<stop offset="0.16" stop-color="#BCB592"/>
<stop offset="0.22" stop-color="#AC9F61"/>
<stop offset="0.26" stop-color="#9F8D3A"/>
<stop offset="0.31" stop-color="#9F7E3A"/>
<stop offset="0.39" stop-color="#765E2B"/>
<stop offset="0.47" stop-color="#52411E"/>
<stop offset="0.56" stop-color="#342913"/>
<stop offset="0.65" stop-color="#1D170B"/>
<stop offset="0.74" stop-color="#0D0A05"/>
<stop offset="0.85" stop-color="#030201"/>
<stop offset="0.99"/>
</radialGradient>
<radialGradient id="paint23_radial_6_151" cx="0" cy="0" r="1" gradientUnits="userSpaceOnUse" gradientTransform="translate(391.713 486.198) rotate(30.9227) scale(20.8674 10.6742)">
<stop offset="0.05" stop-color="#D9D9D9"/>
<stop offset="0.06" stop-color="#D4D3D1"/>
<stop offset="0.09" stop-color="#C7C3BC"/>
<stop offset="0.11" stop-color="#B2AA99"/>
<stop offset="0.14" stop-color="#948668"/>
<stop offset="0.18" stop-color="#6C5627"/>
<stop offset="0.27" stop-color="#52411D"/>
<stop offset="0.39" stop-color="#342A13"/>
<stop offset="0.51" stop-color="#1D170B"/>
<stop offset="0.65" stop-color="#0D0A05"/>
<stop offset="0.8" stop-color="#030201"/>
<stop offset="1"/>
</radialGradient>
<radialGradient id="paint24_radial_6_151" cx="0" cy="0" r="1" gradientUnits="userSpaceOnUse" gradientTransform="translate(393.755 531.76) rotate(17.4362) scale(86.8296 86.865)">
<stop offset="0.13"/>
<stop offset="0.38" stop-color="#000303"/>
<stop offset="0.53" stop-color="#292929"/>
<stop offset="0.65" stop-color="#8D8D8D"/>
<stop offset="0.75" stop-color="#9D9D9D"/>
<stop offset="0.85" stop-color="#ECECEC"/>
<stop offset="0.94" stop-color="#EEEEEE"/>
<stop offset="1" stop-color="white"/>
</radialGradient>
<linearGradient id="paint25_linear_6_151" x1="300.32" y1="546.054" x2="463.318" y2="597.227" gradientUnits="userSpaceOnUse">
<stop/>
<stop offset="0.07" stop-color="#282828"/>
<stop offset="0.16" stop-color="#5A5A5A"/>
<stop offset="0.26" stop-color="#868686"/>
<stop offset="0.36" stop-color="#ACACAC"/>
<stop offset="0.47" stop-color="#CACACA"/>
<stop offset="0.58" stop-color="#E1E1E1"/>
<stop offset="0.7" stop-color="#F2F2F2"/>
<stop offset="0.83" stop-color="#FCFCFC"/>
<stop offset="1" stop-color="white"/>
</linearGradient>
<linearGradient id="paint26_linear_6_151" x1="399.657" y1="512.954" x2="427.033" y2="425.789" gradientUnits="userSpaceOnUse">
<stop/>
<stop offset="0.07" stop-color="#282828"/>
<stop offset="0.16" stop-color="#5A5A5A"/>
<stop offset="0.26" stop-color="#868686"/>
<stop offset="0.36" stop-color="#ACACAC"/>
<stop offset="0.47" stop-color="#CACACA"/>
<stop offset="0.58" stop-color="#E1E1E1"/>
<stop offset="0.7" stop-color="#F2F2F2"/>
<stop offset="0.83" stop-color="#FCFCFC"/>
<stop offset="1" stop-color="white"/>
</linearGradient>
<linearGradient id="paint27_linear_6_151" x1="350.506" y1="575.68" x2="493.459" y2="445.254" gradientUnits="userSpaceOnUse">
<stop/>
<stop offset="0.37" stop-color="#020202"/>
<stop offset="0.51" stop-color="#090909"/>
<stop offset="0.6" stop-color="#141414"/>
<stop offset="0.68" stop-color="#252525"/>
<stop offset="0.75" stop-color="#3B3B3B"/>
<stop offset="0.8" stop-color="#575757"/>
<stop offset="0.86" stop-color="#777777"/>
<stop offset="0.91" stop-color="#9D9D9D"/>
<stop offset="0.95" stop-color="#C8C8C8"/>
<stop offset="0.99" stop-color="#F6F6F6"/>
<stop offset="1" stop-color="white"/>
</linearGradient>
<linearGradient id="paint28_linear_6_151" x1="339.033" y1="278.426" x2="448.638" y2="246.791" gradientUnits="userSpaceOnUse">
<stop stop-color="#2E16BF"/>
<stop offset="0.310417" stop-color="#5A45D8"/>
<stop offset="0.585928" stop-color="#7088DE"/>
<stop offset="1" stop-color="#5894DB"/>
</linearGradient>
<linearGradient id="paint29_linear_6_151" x1="349.664" y1="289.24" x2="453.363" y2="278.277" gradientUnits="userSpaceOnUse">
<stop stop-color="#EAEFFF"/>
<stop offset="0.99" stop-color="#B586E2"/>
</linearGradient>
<linearGradient id="paint30_linear_6_151" x1="128.121" y1="439.782" x2="237.693" y2="414.828" gradientUnits="userSpaceOnUse">
<stop stop-color="#2E16BF"/>
<stop offset="0.310417" stop-color="#5A45D8"/>
<stop offset="0.585928" stop-color="#7088DE"/>
<stop offset="1" stop-color="#5894DB"/>
</linearGradient>
<radialGradient id="paint31_radial_6_151" cx="0" cy="0" r="1" gradientUnits="userSpaceOnUse" gradientTransform="translate(231.641 405.411) rotate(5.96177) scale(31.3281 16.0275)">
<stop stop-color="#5A45D8"/>
<stop offset="0.99" stop-color="#7088DE"/>
</radialGradient>
<linearGradient id="paint32_linear_6_151" x1="170.598" y1="444.896" x2="238.905" y2="434.292" gradientUnits="userSpaceOnUse">
<stop stop-color="#2E16BF"/>
<stop offset="0.310417" stop-color="#5A45D8"/>
<stop offset="0.585928" stop-color="#7088DE"/>
<stop offset="1" stop-color="#5894DB"/>
</linearGradient>
<linearGradient id="paint33_linear_6_151" x1="207.559" y1="404.357" x2="255.584" y2="404.357" gradientUnits="userSpaceOnUse">
<stop stop-color="#EAEFFF"/>
<stop offset="0.99" stop-color="#B586E2"/>
</linearGradient>
<radialGradient id="paint34_radial_6_151" cx="0" cy="0" r="1" gradientUnits="userSpaceOnUse" gradientTransform="translate(101.383 250.362) scale(42.8936 56.9984)">
<stop stop-color="#EAEFFF"/>
<stop offset="0.99" stop-color="#D2B5ED"/>
</radialGradient>
<radialGradient id="paint35_radial_6_151" cx="0" cy="0" r="1" gradientUnits="userSpaceOnUse" gradientTransform="translate(108.885 246.504) scale(32.6304 32.6017)">
<stop stop-color="#3F70C0"/>
<stop offset="1" stop-color="#1F4B90"/>
</radialGradient>
<radialGradient id="paint36_radial_6_151" cx="0" cy="0" r="1" gradientUnits="userSpaceOnUse" gradientTransform="translate(113.515 238.702) scale(21.0843 21.0657)">
<stop stop-color="#374353"/>
<stop offset="1" stop-color="#00023F"/>
</radialGradient>
<linearGradient id="paint37_linear_6_151" x1="64.6386" y1="222.768" x2="125.238" y2="192.038" gradientUnits="userSpaceOnUse">
<stop stop-color="#2E16BF"/>
<stop offset="0.310417" stop-color="#5A45D8"/>
<stop offset="0.585928" stop-color="#7088DE"/>
<stop offset="1" stop-color="#5894DB"/>
</linearGradient>
<linearGradient id="paint38_linear_6_151" x1="309.662" y1="222.768" x2="370.308" y2="191.974" gradientUnits="userSpaceOnUse">
<stop stop-color="#2E16BF"/>
<stop offset="0.310417" stop-color="#5A45D8"/>
<stop offset="0.585928" stop-color="#7088DE"/>
<stop offset="1" stop-color="#5894DB"/>
</linearGradient>
<radialGradient id="paint39_radial_6_151" cx="0" cy="0" r="1" gradientUnits="userSpaceOnUse" gradientTransform="translate(366.861 250.363) scale(42.8936 56.9984)">
<stop stop-color="#EAEFFF"/>
<stop offset="0.99" stop-color="#D2B5ED"/>
</radialGradient>
<radialGradient id="paint40_radial_6_151" cx="0" cy="0" r="1" gradientUnits="userSpaceOnUse" gradientTransform="translate(255.632 303.545) scale(171.81 136.39)">
<stop stop-color="white"/>
<stop offset="0.630208" stop-color="#FFE5D7"/>
<stop offset="0.979167" stop-color="#FFEAE3"/>
</radialGradient>
<linearGradient id="paint41_linear_6_151" x1="52.5713" y1="237.198" x2="303.931" y2="92.2533" gradientUnits="userSpaceOnUse">
<stop stop-color="#165ABF"/>
<stop offset="0.310417" stop-color="#4845D8"/>
<stop offset="0.585928" stop-color="#7088DE"/>
<stop offset="1" stop-color="#5875DB"/>
</linearGradient>
<linearGradient id="paint42_linear_6_151" x1="-6.50827" y1="355.152" x2="103.265" y2="330.404" gradientUnits="userSpaceOnUse">
<stop stop-color="#165ABF"/>
<stop offset="0.310417" stop-color="#4845D8"/>
<stop offset="0.585928" stop-color="#7088DE"/>
<stop offset="1" stop-color="#5875DB"/>
</linearGradient>
<radialGradient id="paint43_radial_6_151" cx="0" cy="0" r="1" gradientUnits="userSpaceOnUse" gradientTransform="translate(383.65 278.576) scale(28.5865 28.5613)">
<stop stop-color="#3F70C0"/>
<stop offset="1" stop-color="#1F4B90"/>
</radialGradient>
<radialGradient id="paint44_radial_6_151" cx="0" cy="0" r="1" gradientUnits="userSpaceOnUse" gradientTransform="translate(388.279 273.895) scale(16.9009 16.886)">
<stop stop-color="#374353"/>
<stop offset="1" stop-color="#00023F"/>
</radialGradient>
<radialGradient id="paint45_radial_6_151" cx="0" cy="0" r="1" gradientUnits="userSpaceOnUse" gradientTransform="translate(248.303 334.673) scale(78.4803 97.2301)">
<stop stop-color="#E36E92"/>
<stop offset="1" stop-color="#7A5FAC"/>
</radialGradient>
<linearGradient id="paint46_linear_6_151" x1="243.868" y1="354.842" x2="243.868" y2="264.978" gradientUnits="userSpaceOnUse">
<stop stop-color="#8D224B"/>
<stop offset="1" stop-color="#5E0052"/>
</linearGradient>
<radialGradient id="paint47_radial_6_151" cx="0" cy="0" r="1" gradientUnits="userSpaceOnUse" gradientTransform="translate(188.266 320.73) rotate(54.8276) scale(38.685 32.428)">
<stop offset="0.01" stop-color="#FF7C77"/>
<stop offset="0.19" stop-color="#FF9F9B"/>
<stop offset="0.44" stop-color="#FFC8C6"/>
<stop offset="0.67" stop-color="#FFE6E5"/>
<stop offset="0.87" stop-color="#FFF8F8"/>
<stop offset="1" stop-color="white"/>
</radialGradient>
<radialGradient id="paint48_radial_6_151" cx="0" cy="0" r="1" gradientUnits="userSpaceOnUse" gradientTransform="translate(302.678 263.104) rotate(36.4619) scale(46.1069 38.6038)">
<stop offset="0.01" stop-color="#FF7C77"/>
<stop offset="0.19" stop-color="#FF9F9B"/>
<stop offset="0.44" stop-color="#FFC8C6"/>
<stop offset="0.67" stop-color="#FFE6E5"/>
<stop offset="0.87" stop-color="#FFF8F8"/>
<stop offset="1" stop-color="white"/>
</radialGradient>
<linearGradient id="paint49_linear_6_151" x1="327.536" y1="224.854" x2="381.056" y2="224.854" gradientUnits="userSpaceOnUse">
<stop stop-color="#EAEFFF"/>
<stop offset="0.99" stop-color="#B586E2"/>
</linearGradient>
<linearGradient id="paint50_linear_6_151" x1="72.239" y1="228.252" x2="118.535" y2="228.252" gradientUnits="userSpaceOnUse">
<stop offset="0.01" stop-color="#B586E2"/>
<stop offset="1" stop-color="#EAEFFF"/>
</linearGradient>
<radialGradient id="paint51_radial_6_151" cx="0" cy="0" r="1" gradientUnits="userSpaceOnUse" gradientTransform="translate(219.968 221.955) scale(75.6356 75.5692)">
<stop stop-color="#E0E7FF"/>
<stop offset="1" stop-color="#9A93D6"/>
</radialGradient>
<radialGradient id="paint52_radial_6_151" cx="0" cy="0" r="1" gradientUnits="userSpaceOnUse" gradientTransform="translate(251.427 348.164) scale(101.684 135.121)">
<stop stop-color="#5997FF"/>
<stop offset="1" stop-color="#0093FF"/>
</radialGradient>
<linearGradient id="paint53_linear_6_151" x1="291.559" y1="382.038" x2="291.559" y2="354.842" gradientUnits="userSpaceOnUse">
<stop stop-color="#EAEFFF"/>
<stop offset="0.99" stop-color="#B586E2"/>
</linearGradient>
<linearGradient id="paint54_linear_6_151" x1="223.37" y1="338.514" x2="349.624" y2="338.514" gradientUnits="userSpaceOnUse">
<stop stop-color="#9C097C"/>
<stop offset="1" stop-color="#D6424B"/>
</linearGradient>
<linearGradient id="paint55_linear_6_151" x1="223.37" y1="340.38" x2="349.568" y2="340.38" gradientUnits="userSpaceOnUse">
<stop stop-color="#EAEFFF"/>
<stop offset="0.99" stop-color="#FF9DE2"/>
</linearGradient>
<radialGradient id="paint56_radial_6_151" cx="0" cy="0" r="1" gradientUnits="userSpaceOnUse" gradientTransform="translate(298.505 348.377) scale(34.3038 34.2736)">
<stop stop-color="#FFE7C7"/>
<stop offset="1" stop-color="#B893D6"/>
</radialGradient>
<linearGradient id="paint57_linear_6_151" x1="287.18" y1="267.821" x2="312.141" y2="267.821" gradientUnits="userSpaceOnUse">
<stop offset="0.01" stop-color="#B586E2"/>
<stop offset="1" stop-color="#EAEFFF"/>
</linearGradient>
<linearGradient id="paint58_linear_6_151" x1="10.6311" y1="362.95" x2="101.578" y2="362.95" gradientUnits="userSpaceOnUse">
<stop stop-color="#EAEFFF"/>
<stop offset="0.99" stop-color="#B586E2"/>
</linearGradient>
<radialGradient id="paint59_radial_6_151" cx="0" cy="0" r="1" gradientUnits="userSpaceOnUse" gradientTransform="translate(350.657 216.131) scale(11.4067 11.3967)">
<stop stop-color="#E0E7FF"/>
<stop offset="1" stop-color="#9A93D6"/>
</radialGradient>
<radialGradient id="paint60_radial_6_151" cx="0" cy="0" r="1" gradientUnits="userSpaceOnUse" gradientTransform="translate(96.4747 222.011) scale(17.877 17.8613)">
<stop stop-color="#E0E7FF"/>
<stop offset="1" stop-color="#9A93D6"/>
</radialGradient>
<radialGradient id="paint61_radial_6_151" cx="0" cy="0" r="1" gradientUnits="userSpaceOnUse" gradientTransform="translate(50.3725 348.739) scale(18.63 18.6136)">
<stop stop-color="#E0E7FF"/>
<stop offset="1" stop-color="#9A93D6"/>
</radialGradient>
<radialGradient id="paint62_radial_6_151" cx="0" cy="0" r="1" gradientUnits="userSpaceOnUse" gradientTransform="translate(427.296 256.758) scale(12.8569 12.8456)">
<stop stop-color="#E0E7FF"/>
<stop offset="1" stop-color="#9A93D6"/>
</radialGradient>
<radialGradient id="paint63_radial_6_151" cx="0" cy="0" r="1" gradientUnits="userSpaceOnUse" gradientTransform="translate(226.661 205.877) scale(64.4241 64.3675)">
<stop stop-color="#9DEFFF"/>
<stop offset="1" stop-color="#00C9FF"/>
</radialGradient>
<radialGradient id="paint64_radial_6_151" cx="0" cy="0" r="1" gradientUnits="userSpaceOnUse" gradientTransform="translate(229.087 348.293) scale(29.2837 29.258)">
<stop stop-color="#E0E7FF"/>
<stop offset="1" stop-color="#9A93D6"/>
</radialGradient>
<radialGradient id="paint65_radial_6_151" cx="0" cy="0" r="1" gradientUnits="userSpaceOnUse" gradientTransform="translate(252.264 361.418) scale(24.7099 24.6881)">
<stop offset="0.01" stop-color="#E590CE"/>
<stop offset="0.23" stop-color="#E693CF"/>
<stop offset="0.41" stop-color="#E89ED4"/>
<stop offset="0.58" stop-color="#ECAFDC"/>
<stop offset="0.74" stop-color="#F2C7E6"/>
<stop offset="0.9" stop-color="#F9E6F4"/>
<stop offset="1" stop-color="white"/>
</radialGradient>
<radialGradient id="paint66_radial_6_151" cx="0" cy="0" r="1" gradientUnits="userSpaceOnUse" gradientTransform="translate(361.45 246.921) scale(20.2755 20.2577)">
<stop stop-color="#EAEFFF"/>
<stop offset="0.99" stop-color="#D2B5ED"/>
</radialGradient>
<radialGradient id="paint67_radial_6_151" cx="0" cy="0" r="1" gradientUnits="userSpaceOnUse" gradientTransform="translate(89.6976 247.033) scale(16.6499 16.6352)">
<stop stop-color="#EAEFFF"/>
<stop offset="0.99" stop-color="#D2B5ED"/>
</radialGradient>
<radialGradient id="paint68_radial_6_151" cx="0" cy="0" r="1" gradientUnits="userSpaceOnUse" gradientTransform="translate(241.053 296.131) scale(46.1567 46.1161)">
<stop stop-color="#EAEFFF"/>
<stop offset="0.99" stop-color="#D2CFED"/>
</radialGradient>
<radialGradient id="paint69_radial_6_151" cx="0" cy="0" r="1" gradientUnits="userSpaceOnUse" gradientTransform="translate(317.202 438.361) rotate(37.3594) scale(11.0476 5.65121)">
<stop offset="0.05" stop-color="#D9D9D9"/>
<stop offset="0.06" stop-color="#D4D3D1"/>
<stop offset="0.09" stop-color="#C7C3BC"/>
<stop offset="0.11" stop-color="#B2AA99"/>
<stop offset="0.14" stop-color="#948668"/>
<stop offset="0.18" stop-color="#6C5627"/>
<stop offset="0.27" stop-color="#52411D"/>
<stop offset="0.39" stop-color="#342A13"/>
<stop offset="0.51" stop-color="#1D170B"/>
<stop offset="0.65" stop-color="#0D0A05"/>
<stop offset="0.8" stop-color="#030201"/>
<stop offset="1"/>
</radialGradient>
<radialGradient id="paint70_radial_6_151" cx="0" cy="0" r="1" gradientUnits="userSpaceOnUse" gradientTransform="translate(309.933 459.93) rotate(-7.5656) scale(45.9681 45.9899)">
<stop offset="0.13"/>
<stop offset="0.38" stop-color="#000303"/>
<stop offset="0.53" stop-color="#292929"/>
<stop offset="0.65" stop-color="#8D8D8D"/>
<stop offset="0.75" stop-color="#9D9D9D"/>
<stop offset="0.85" stop-color="#ECECEC"/>
<stop offset="0.94" stop-color="#EEEEEE"/>
<stop offset="1" stop-color="white"/>
</radialGradient>
<linearGradient id="paint71_linear_6_151" x1="268.299" y1="487.696" x2="357.955" y2="475.78" gradientUnits="userSpaceOnUse">
<stop/>
<stop offset="0.07" stop-color="#282828"/>
<stop offset="0.16" stop-color="#5A5A5A"/>
<stop offset="0.26" stop-color="#868686"/>
<stop offset="0.36" stop-color="#ACACAC"/>
<stop offset="0.47" stop-color="#CACACA"/>
<stop offset="0.58" stop-color="#E1E1E1"/>
<stop offset="0.7" stop-color="#F2F2F2"/>
<stop offset="0.83" stop-color="#FCFCFC"/>
<stop offset="1" stop-color="white"/>
</linearGradient>
<linearGradient id="paint72_linear_6_151" x1="308.556" y1="449.585" x2="302.187" y2="401.635" gradientUnits="userSpaceOnUse">
<stop/>
<stop offset="0.07" stop-color="#282828"/>
<stop offset="0.16" stop-color="#5A5A5A"/>
<stop offset="0.26" stop-color="#868686"/>
<stop offset="0.36" stop-color="#ACACAC"/>
<stop offset="0.47" stop-color="#CACACA"/>
<stop offset="0.58" stop-color="#E1E1E1"/>
<stop offset="0.7" stop-color="#F2F2F2"/>
<stop offset="0.83" stop-color="#FCFCFC"/>
<stop offset="1" stop-color="white"/>
</linearGradient>
<linearGradient id="paint73_linear_6_151" x1="299.007" y1="490.682" x2="338.419" y2="396.114" gradientUnits="userSpaceOnUse">
<stop/>
<stop offset="0.37" stop-color="#020202"/>
<stop offset="0.51" stop-color="#090909"/>
<stop offset="0.6" stop-color="#141414"/>
<stop offset="0.68" stop-color="#252525"/>
<stop offset="0.75" stop-color="#3B3B3B"/>
<stop offset="0.8" stop-color="#575757"/>
<stop offset="0.86" stop-color="#777777"/>
<stop offset="0.91" stop-color="#9D9D9D"/>
<stop offset="0.95" stop-color="#C8C8C8"/>
<stop offset="0.99" stop-color="#F6F6F6"/>
<stop offset="1" stop-color="white"/>
</linearGradient>
<linearGradient id="paint74_linear_6_151" x1="348.414" y1="74.7315" x2="308.686" y2="110.247" gradientUnits="userSpaceOnUse">
<stop stop-color="#FFF0BE"/>
<stop offset="0.326042" stop-color="#E8D088"/>
<stop offset="0.497917" stop-color="#D9B55F"/>
<stop offset="1" stop-color="#C0891D"/>
</linearGradient>
<linearGradient id="paint75_linear_6_151" x1="323.701" y1="107.706" x2="358.928" y2="77.0696" gradientUnits="userSpaceOnUse">
<stop stop-color="#ECD792"/>
<stop offset="0.06" stop-color="#E8D088"/>
<stop offset="0.3" stop-color="#D9B55F"/>
<stop offset="1" stop-color="#C0891D"/>
</linearGradient>
<linearGradient id="paint76_linear_6_151" x1="318.716" y1="103.422" x2="345.759" y2="93.4603" gradientUnits="userSpaceOnUse">
<stop stop-color="#BD9D39"/>
<stop offset="0.07" stop-color="#B9942B"/>
<stop offset="0.3" stop-color="#AD7802"/>
<stop offset="1" stop-color="#994900"/>
</linearGradient>
<radialGradient id="paint77_radial_6_151" cx="0" cy="0" r="1" gradientUnits="userSpaceOnUse" gradientTransform="translate(329.423 95.4277) rotate(18.5607) scale(43.559 44.3813)">
<stop offset="0.13"/>
<stop offset="0.38" stop-color="#000303"/>
<stop offset="0.53" stop-color="#292929"/>
<stop offset="0.65" stop-color="#8D8D8D"/>
<stop offset="0.75" stop-color="#9D9D9D"/>
<stop offset="0.85" stop-color="#ECECEC"/>
<stop offset="0.94" stop-color="#EEEEEE"/>
<stop offset="1" stop-color="white"/>
</radialGradient>
<linearGradient id="paint78_linear_6_151" x1="282.568" y1="102.134" x2="364.172" y2="128.302" gradientUnits="userSpaceOnUse">
<stop/>
<stop offset="0.07" stop-color="#282828"/>
<stop offset="0.16" stop-color="#5A5A5A"/>
<stop offset="0.26" stop-color="#868686"/>
<stop offset="0.36" stop-color="#ACACAC"/>
<stop offset="0.47" stop-color="#CACACA"/>
<stop offset="0.58" stop-color="#E1E1E1"/>
<stop offset="0.7" stop-color="#F2F2F2"/>
<stop offset="0.83" stop-color="#FCFCFC"/>
<stop offset="1" stop-color="white"/>
</linearGradient>
<linearGradient id="paint79_linear_6_151" x1="332.497" y1="85.8362" x2="347.355" y2="41.5849" gradientUnits="userSpaceOnUse">
<stop/>
<stop offset="0.07" stop-color="#282828"/>
<stop offset="0.16" stop-color="#5A5A5A"/>
<stop offset="0.26" stop-color="#868686"/>
<stop offset="0.36" stop-color="#ACACAC"/>
<stop offset="0.47" stop-color="#CACACA"/>
<stop offset="0.58" stop-color="#E1E1E1"/>
<stop offset="0.7" stop-color="#F2F2F2"/>
<stop offset="0.83" stop-color="#FCFCFC"/>
<stop offset="1" stop-color="white"/>
</linearGradient>
<linearGradient id="paint80_linear_6_151" x1="307.495" y1="117.633" x2="381.331" y2="53.4604" gradientUnits="userSpaceOnUse">
<stop/>
<stop offset="0.37" stop-color="#020202"/>
<stop offset="0.51" stop-color="#090909"/>
<stop offset="0.6" stop-color="#141414"/>
<stop offset="0.68" stop-color="#252525"/>
<stop offset="0.75" stop-color="#3B3B3B"/>
<stop offset="0.8" stop-color="#575757"/>
<stop offset="0.86" stop-color="#777777"/>
<stop offset="0.91" stop-color="#9D9D9D"/>
<stop offset="0.95" stop-color="#C8C8C8"/>
<stop offset="0.99" stop-color="#F6F6F6"/>
<stop offset="1" stop-color="white"/>
</linearGradient>
<clipPath id="clip0_6_151">
<rect width="480" height="682" fill="white"/>
</clipPath>
</defs>
</svg>
