<svg width="37" height="33" viewBox="0 0 37 33" fill="none" xmlns="http://www.w3.org/2000/svg">
<path d="M30.9104 15.125H6.08958C5.28072 15.125 4.625 15.7098 4.625 16.4312V16.5688C4.625 17.2902 5.28072 17.875 6.08958 17.875H30.9104C31.7193 17.875 32.375 17.2902 32.375 16.5688V16.4312C32.375 15.7098 31.7193 15.125 30.9104 15.125Z" fill="white"/>
<path d="M30.9104 24H6.08958C5.28072 24 4.625 24.5848 4.625 25.3063V25.4437C4.625 26.1652 5.28072 26.75 6.08958 26.75H30.9104C31.7193 26.75 32.375 26.1652 32.375 25.4437V25.3063C32.375 24.5848 31.7193 24 30.9104 24Z" fill="white"/>
<path d="M30.9104 6.25H6.08958C5.28072 6.25 4.625 6.83483 4.625 7.55625V7.69375C4.625 8.41517 5.28072 9 6.08958 9H30.9104C31.7193 9 32.375 8.41517 32.375 7.69375V7.55625C32.375 6.83483 31.7193 6.25 30.9104 6.25Z" fill="white"/>
</svg>
