<svg width="131" height="30" viewBox="0 0 131 30" fill="none" xmlns="http://www.w3.org/2000/svg">
<path d="M59.8723 22.6209C59.044 22.6209 58.2605 22.4618 57.5194 22.1436C56.7794 21.8254 56.1343 21.3916 55.585 20.8424C55.0358 20.2931 54.602 19.648 54.2838 18.908C53.9645 18.168 53.8065 17.3834 53.8065 16.5551C53.8065 15.7116 53.9656 14.9237 54.2838 14.1903C54.602 13.4579 55.0358 12.8128 55.585 12.2559C56.1343 11.699 56.7794 11.2609 57.5194 10.9427C58.2594 10.6244 59.044 10.4653 59.8723 10.4653C60.6362 10.4653 61.3566 10.5972 62.0334 10.8598C62.7101 11.1225 63.3117 11.4854 63.837 11.9464V10.8958H66.7751V22.8618C66.7751 23.7696 66.6116 24.6054 66.2857 25.3694C65.9588 26.1333 65.5055 26.7905 64.9246 27.3397C64.3437 27.889 63.6582 28.3151 62.8703 28.6181C62.0824 28.9199 61.2182 29.0714 60.2788 29.0714C59.323 29.0551 58.4392 28.9123 57.6273 28.642C56.8154 28.3707 56.0188 28.0209 55.2385 27.5915V24.5346C55.7474 24.8049 56.2095 25.0403 56.6236 25.2397C57.0377 25.4391 57.4355 25.6059 57.818 25.741C58.2005 25.8761 58.5863 25.9753 58.9765 26.0396C59.3666 26.1028 59.8004 26.1355 60.2777 26.1355C60.9621 26.1355 61.532 26.0603 61.9854 25.9088C62.4388 25.7574 62.8049 25.5383 63.0839 25.2517C63.3629 24.9651 63.558 24.6185 63.6691 24.2131C63.7803 23.8066 63.8359 23.3565 63.8359 22.8639V21.1682C63.3106 21.6303 62.709 21.9888 62.0323 22.2428C61.3566 22.4934 60.6362 22.6209 59.8723 22.6209ZM60.3017 12.9479C59.808 12.9479 59.3459 13.0394 58.9165 13.2225C58.4872 13.4056 58.1123 13.6563 57.794 13.9745C57.4747 14.2938 57.2208 14.6676 57.0301 15.097C56.8394 15.5274 56.7435 15.9884 56.7435 16.4821C56.7435 16.9758 56.8394 17.4378 57.0301 17.8672C57.2208 18.2977 57.4758 18.6715 57.794 18.9897C58.1123 19.309 58.4872 19.5597 58.9165 19.7417C59.347 19.9248 59.808 20.0163 60.3017 20.0163C60.779 20.0163 61.2334 19.9248 61.6628 19.7417C62.0933 19.5586 62.4704 19.3079 62.7973 18.9897C63.1232 18.6715 63.3782 18.2977 63.5613 17.8672C63.7443 17.4368 63.8359 16.9758 63.8359 16.4821C63.8359 15.9884 63.7443 15.5263 63.5613 15.097C63.3782 14.6665 63.1232 14.2927 62.7973 13.9745C62.4704 13.6563 62.0922 13.4056 61.6628 13.2225C61.2334 13.0394 60.7801 12.9479 60.3017 12.9479Z" fill="#F5F5F5"/>
<path d="M33.169 22.4531V5.75739H40.0478C41.8787 5.75739 43.2605 6.15517 44.1923 6.95181C45.1241 7.74845 45.5894 8.87093 45.5894 10.3193C45.5894 11.1791 45.4227 11.9158 45.0881 12.5283C44.7535 13.1418 44.2838 13.6072 43.679 13.9254C44.5705 14.1641 45.2592 14.6185 45.7453 15.2866C46.2313 15.9557 46.4732 16.8308 46.4732 17.9141C46.4732 19.3155 46.0951 20.4217 45.3388 21.2336C44.5824 22.0455 43.5112 22.452 42.126 22.452H33.169V22.4531ZM36.1071 12.6373H40.8597C41.3054 12.6373 41.7152 12.4978 42.0901 12.2199C42.4639 11.9409 42.6513 11.4276 42.6513 10.6789C42.6513 9.94657 42.4606 9.42892 42.0781 9.12595C41.6956 8.82408 41.2106 8.67259 40.621 8.67259H36.1071V12.6373ZM36.1071 19.5161H41.7675C42.198 19.5161 42.6034 19.3646 42.9859 19.0627C43.3684 18.7608 43.5591 18.2584 43.5591 17.5577C43.5591 16.8406 43.3684 16.3317 42.9859 16.0287C42.6034 15.7268 42.198 15.5754 41.7675 15.5754H36.1071V19.5161Z" fill="#F5F5F5"/>
<path d="M51.5365 6.18787V9.19788H48.5984V6.18787H51.5365ZM48.5984 10.8936H51.5365V22.4542H48.5984V10.8936Z" fill="#F5F5F5"/>
<path d="M69.4255 5.75845H81.4634V8.69654H72.3636V12.6372H80.2221V15.5753H72.3636V22.4541H69.4255V5.75845Z" fill="#F5F5F5"/>
<path d="M86.241 6.18787V9.19788H83.3029V6.18787H86.241ZM83.3029 10.8936H86.241V22.4542H83.3029V10.8936Z" fill="#F5F5F5"/>
<path d="M93.5732 15.1209C95.2929 15.3923 96.5701 15.8293 97.4071 16.4342C98.2429 17.039 98.6614 17.9544 98.6614 19.1804C98.6614 19.4671 98.6058 19.8093 98.4947 20.207C98.3835 20.6048 98.1481 20.9917 97.7896 21.3655C97.431 21.7404 96.9134 22.0542 96.2366 22.3092C95.5599 22.5643 94.664 22.6918 93.5492 22.6918C93.0555 22.6918 92.5618 22.6634 92.0682 22.6078C91.5745 22.5523 91.1168 22.4771 90.695 22.3812C90.2733 22.2853 89.8984 22.1741 89.5725 22.0466C89.2456 21.9191 88.9949 21.784 88.8206 21.6401V18.678C89.6804 19.1401 90.5762 19.4943 91.508 19.7406C92.4398 19.988 93.2637 20.1111 93.9797 20.1111C94.5049 20.1111 94.931 20.0359 95.258 19.8844C95.5838 19.733 95.7473 19.4987 95.7473 19.1794C95.7473 18.8448 95.5446 18.5985 95.1381 18.4394C94.7316 18.2803 94.1943 18.1615 93.5263 18.0808C91.8219 17.8738 90.5446 17.4444 89.6924 16.7916C88.8402 16.1388 88.4141 15.1678 88.4141 13.8775C88.4141 13.5113 88.5056 13.1255 88.6887 12.719C88.8718 12.3125 89.166 11.9431 89.5725 11.6085C89.979 11.274 90.5076 10.9993 91.1604 10.7846C91.8131 10.57 92.6087 10.4621 93.5492 10.4621C94.0265 10.4621 94.4962 10.4904 94.9583 10.546C95.4204 10.6016 95.8497 10.6735 96.2475 10.7607C96.6453 10.8489 96.9995 10.9557 97.3101 11.0833C97.6207 11.2108 97.855 11.3459 98.0152 11.4898V14.308C97.7122 14.1172 97.3657 13.9418 96.9766 13.7827C96.5864 13.6236 96.18 13.4841 95.7582 13.3642C95.3364 13.2443 94.9103 13.1539 94.4799 13.0896C94.0494 13.0264 93.644 12.9937 93.2615 12.9937C92.7035 12.9937 92.2469 13.0699 91.8883 13.2203C91.5298 13.3718 91.3511 13.6225 91.3511 13.9723C91.3511 14.3069 91.5581 14.5575 91.9722 14.7243C92.3864 14.8943 92.9204 15.025 93.5732 15.1209Z" fill="#F5F5F5"/>
<path d="M100.857 5.78243H103.795V11.9681C104.289 11.506 104.858 11.1442 105.503 10.8816C106.148 10.619 106.828 10.4871 107.545 10.4871C108.357 10.4871 109.046 10.6026 109.612 10.8336C110.176 11.0647 110.631 11.3873 110.973 11.8014C111.315 12.2155 111.561 12.7092 111.713 13.2824C111.864 13.8556 111.939 14.4845 111.939 15.1688V22.4541H109.025V15.5993C109.025 14.9465 108.782 14.4213 108.297 14.0235C107.811 13.6257 107.178 13.4263 106.399 13.4263C106.048 13.4263 105.715 13.4938 105.395 13.629C105.077 13.7641 104.798 13.9515 104.559 14.1902C104.321 14.4289 104.133 14.7035 103.998 15.0141C103.863 15.3247 103.795 15.6636 103.795 16.0287V22.4541H100.857V5.78243Z" fill="#F5F5F5"/>
<path d="M114.184 5.75845H126.222V8.69654H117.123V12.6372H124.981V15.5753H117.123V22.4541H114.184V5.75845Z" fill="#F5F5F5"/>
<path d="M131 6.18787V9.19788H128.062V6.18787H131ZM128.062 10.8936H131V22.4542H128.062V10.8936Z" fill="#F5F5F5"/>
<path d="M16.1747 11.1039C17.5152 9.72098 18.0187 7.91955 17.9348 6.24344C17.7669 2.55557 15.3367 0.125327 8.46444 0H0V6.38511C2.38665 5.49693 6.03093 5.85329 6.03093 5.85329C6.03093 5.85329 7.11092 1.39494 12.0477 2.50326C9.95529 3.74781 11.0353 5.93612 8.92979 6.78398C11.0364 7.63184 9.60001 9.55969 12.513 10.4893C7.57626 11.5965 6.03202 8.16475 6.03202 8.16475C6.03202 8.16475 0.988445 8.72491 0.551436 11.4538C0.544898 11.4963 0.538361 11.5377 0.532912 11.5791C0.342198 12.9686 1.34481 14.2447 2.73757 14.4104C11.3764 15.4391 14.8659 19.1041 14.8659 19.1041C13.2792 22.4127 10.2168 24.382 7.09784 24.5193C3.97994 24.6566 1.6554 22.0858 1.95619 19.3777C2.25697 16.6695 5.45661 16.0407 5.45661 16.0407C5.41847 16.0418 5.38142 16.044 5.34436 16.0451C2.35505 16.1791 0 18.6377 0 21.6303V28.4513H10.6844C17.3474 28.4513 21.7055 25.2255 21.7469 18.7717C21.748 15.1264 19.7787 12.0259 16.1747 11.1039Z" fill="url(#paint0_linear_229_1271)"/>
<path d="M7.16755 18.9396C7.68878 18.9396 8.11131 18.517 8.11131 17.9958C8.11131 17.4746 7.68878 17.0521 7.16755 17.0521C6.64633 17.0521 6.22379 17.4746 6.22379 17.9958C6.22379 18.517 6.64633 18.9396 7.16755 18.9396Z" fill="url(#paint1_linear_229_1271)"/>
<defs>
<linearGradient id="paint0_linear_229_1271" x1="-2.41506" y1="0.746695" x2="22.0597" y2="34.4497" gradientUnits="userSpaceOnUse">
<stop stop-color="#5894DB"/>
<stop offset="0.3135" stop-color="#7088DE"/>
<stop offset="0.6906" stop-color="#5A45D8"/>
<stop offset="1" stop-color="#2E16BF"/>
</linearGradient>
<linearGradient id="paint1_linear_229_1271" x1="-4.34273" y1="2.14654" x2="20.1321" y2="35.8495" gradientUnits="userSpaceOnUse">
<stop stop-color="#5894DB"/>
<stop offset="0.3135" stop-color="#7088DE"/>
<stop offset="0.6906" stop-color="#5A45D8"/>
<stop offset="1" stop-color="#2E16BF"/>
</linearGradient>
</defs>
</svg>
